<svg width="339" height="68" viewBox="0 0 339 68" fill="none" xmlns="http://www.w3.org/2000/svg">
<g opacity="0.8">
<path d="M46.2739 8.66112L44.5672 8.66555V17.423H52.3943C53.2505 17.0598 53.709 16.4318 53.8862 15.6986H46.2695L46.2739 8.66112ZM59.0463 10.4111H65.5754C66.4825 10.2316 67.1581 9.43088 67.3475 8.65669H57.2731C57.4614 9.43088 58.147 10.2316 59.0463 10.4111ZM37.9019 10.3867C38.809 10.1231 39.5732 9.43088 39.7593 8.66334H30.1788V13.8379H38.0204V15.6543L31.8701 15.6598C30.9054 15.9278 30.0902 16.5746 29.6815 17.4297L30.1788 17.4208H39.7061V12.1178H31.8701V10.3867H37.9019ZM57.5367 17.4208H59.2346V13.8955H65.4159V17.4208H67.1127V12.1333L57.5367 12.1245V17.4208ZM16.9834 10.4055H23.5113C24.4195 10.225 25.094 9.42423 25.2834 8.65005H15.2101C15.3984 9.42423 16.0829 10.225 16.9834 10.4055ZM0 8.66998C0.196038 9.43641 0.859468 10.2172 1.76878 10.4144H4.51664L4.65619 10.4698V17.4031H6.37291V10.4698L6.52797 10.4144H9.27915C10.1973 10.1774 10.8463 9.43641 11.0402 8.66998V8.65337H0V8.66998ZM16.9834 17.4219H23.5113C24.4195 17.2403 25.094 16.4417 25.2834 15.6664H15.2101C15.3984 16.4417 16.0829 17.2403 16.9834 17.4219ZM16.9834 13.8667H23.5113C24.4195 13.6872 25.094 12.8865 25.2834 12.1123H15.2101C15.3984 12.8865 16.0829 13.6872 16.9834 13.8667Z" fill="white"/>
<path d="M127.329 7.45402L122.688 14.3254C122.206 15.0526 121.359 15.4921 120.473 15.4921C119.03 15.4921 117.836 14.3065 117.836 12.8758C117.836 11.4241 119.03 10.2407 120.483 10.2407C120.627 10.2222 120.82 10.202 120.955 10.202C121.957 10.202 122.977 10.6223 123.671 11.3293L125.057 9.22895C123.979 8.12236 122.38 7.41406 120.781 7.41406C117.797 7.41406 115.063 9.87709 115.063 12.8556C115.063 15.8166 117.508 18.2406 120.494 18.2406C121.937 18.2406 123.381 17.6298 124.383 16.6171H127.579L127.598 18.2406H130.372V7.45402H127.329H127.329ZM126.059 14.2494L127.579 12.132L127.598 14.2494H126.059H126.059Z" fill="white"/>
<path d="M135.687 18.2402H132.914V9.97242H130.757V7.47164L137.842 7.45361V9.97241H135.687V18.2402V18.2402Z" fill="white"/>
<path d="M147.086 7.45379L144.313 7.45449L144.294 11.4817H141.02L140.999 7.45361H138.228V18.2402H141.02V13.982H144.313V18.2402H147.086V7.45361L147.086 7.45379Z" fill="white"/>
<path d="M169.307 7.45361V12.4732L165.495 7.45361L162.971 7.47118L162.952 11.4053C162.317 9.11393 160.141 7.45361 157.714 7.45361C154.73 7.45361 152.284 9.87668 152.284 12.8552C152.284 13.8116 152.573 14.783 153.034 15.6243H150.287V7.45361H147.461V18.2402H153.921V16.7309C154.942 17.6671 156.328 18.2402 157.714 18.2402C160.141 18.2402 162.279 16.6167 162.952 14.325L162.971 18.2402H165.764V12.9909L169.556 18.2402H172.078L172.082 7.45361H169.308H169.307ZM157.714 15.6054C156.193 15.6054 154.942 14.3838 154.942 12.8552C154.942 11.3477 156.193 10.1072 157.714 10.1072C159.256 10.1072 160.507 11.3477 160.507 12.8552C160.507 14.3838 159.256 15.6054 157.714 15.6054Z" fill="white"/>
<path d="M111.709 15.6263V14.1166H114.685L114.68 11.4832H111.709V10.1092H114.989L114.984 7.45557L108.668 7.47313V11.1775C108.013 9.15408 106.125 7.66415 103.969 7.47313L99.1741 7.45557V18.2417H103.989C106.125 18.0515 108.013 16.5625 108.668 14.5575V18.2417H114.989L114.984 15.6263H111.709H111.709ZM105.606 14.4995C105.433 15.2258 104.739 15.74 103.989 15.7593H102.217V9.97392H103.989C104.739 9.97392 105.433 10.511 105.606 11.2544C105.78 11.751 105.876 12.3237 105.876 12.8572C105.876 13.4122 105.78 13.984 105.606 14.4995Z" fill="white"/>
<path d="M213.251 18.5294C212.282 18.4773 211.559 18.0786 211.136 17.3631C210.852 16.8829 210.766 16.2512 210.896 15.6058C211.039 14.8907 211.528 14.2463 212.277 13.7828C212.708 13.5162 213.077 13.3508 213.827 13.0869C214.016 13.0206 214.179 12.9595 214.189 12.951C214.204 12.9391 214.207 12.8968 214.199 12.7595C214.177 12.3688 214.243 11.7602 214.353 11.321C214.539 10.5818 214.896 9.98553 215.37 9.62384C215.71 9.36397 216.156 9.16858 216.6 9.08479C216.845 9.03864 217.256 9.03878 217.487 9.08522C218.476 9.28431 219.031 10.0465 218.812 10.9052C218.766 11.0862 218.621 11.383 218.497 11.5472C218.182 11.9678 217.708 12.3418 217.038 12.6977C216.953 12.7426 216.678 12.878 216.425 12.999C216.172 13.1199 215.958 13.2268 215.948 13.2367C215.934 13.2508 215.937 13.2918 215.965 13.4299C216.09 14.068 216.302 14.6072 216.662 15.2102C216.806 15.4502 217.004 15.7528 217.027 15.7669C217.059 15.787 217.193 15.5713 217.28 15.3579C217.388 15.0937 217.449 14.7444 217.419 14.5709C217.397 14.4466 217.329 14.3154 217.243 14.2306C217.203 14.1914 217.17 14.1544 217.17 14.1483C217.17 14.1423 217.506 14.1389 217.917 14.141L218.665 14.1449L218.661 14.2397C218.655 14.3694 218.607 14.6459 218.556 14.8427C218.413 15.3961 218.144 15.8694 217.678 16.3863C217.623 16.4472 217.578 16.507 217.578 16.5192C217.578 16.5314 217.655 16.6162 217.749 16.7076C218.338 17.2785 219.381 17.9368 220.231 18.2735C220.313 18.3063 220.381 18.3397 220.38 18.3477C220.38 18.3573 219.89 18.3636 218.947 18.3661L217.515 18.3698L217.433 18.3239C217.267 18.2304 216.898 17.9326 216.544 17.6054C216.469 17.5361 216.398 17.4794 216.387 17.4794C216.375 17.4794 216.291 17.5279 216.202 17.5871C215.742 17.8904 215.192 18.1629 214.727 18.318C214.198 18.4945 213.762 18.557 213.251 18.5296V18.5294ZM214.457 17.2883C214.672 17.2501 214.935 17.1723 215.177 17.0756C215.421 16.9784 215.723 16.8299 215.733 16.8018C215.738 16.7907 215.682 16.6974 215.61 16.5943C215.276 16.1195 214.92 15.4516 214.681 14.8526C214.593 14.6318 214.428 14.1427 214.397 14.0087C214.387 13.9659 214.369 13.9272 214.357 13.9225C214.323 13.9097 214.05 14.0555 213.813 14.2123C212.973 14.7694 212.57 15.4495 212.659 16.1601C212.699 16.4759 212.799 16.7061 212.981 16.9005C213.317 17.2598 213.843 17.3979 214.457 17.2883ZM215.884 12.3471C216.195 12.165 216.688 11.723 216.964 11.3793C217.317 10.9395 217.505 10.5291 217.505 10.1963C217.505 10.006 217.478 9.92078 217.39 9.83273C217.302 9.74526 217.203 9.70905 217.052 9.70891C216.604 9.70891 216.12 10.2406 215.909 10.9639C215.803 11.3286 215.777 11.5249 215.776 11.9703C215.775 12.3106 215.781 12.3863 215.807 12.3863C215.812 12.3863 215.847 12.3687 215.884 12.3471ZM223.291 18.5209C222.553 18.4466 222.067 18.3363 221.518 18.119C220.771 17.8231 220.305 17.4566 219.911 16.856C219.793 16.6763 219.604 16.2988 219.528 16.0902C219.186 15.1608 219.111 13.9906 219.315 12.77C219.521 11.5345 219.99 10.3438 220.638 9.41311C221.058 8.80959 221.683 8.17397 222.328 7.69399C223.393 6.9016 224.619 6.41452 225.982 6.24327C226.395 6.19129 226.626 6.17794 227.114 6.17823C227.853 6.17865 228.415 6.23489 229.158 6.38243C229.631 6.47672 230.386 6.68036 230.4 6.71799C230.408 6.73702 229.93 8.2694 229.91 8.28999C229.904 8.29638 229.83 8.24739 229.747 8.18064C229.076 7.64528 228.38 7.31938 227.676 7.21103C227.451 7.17638 227.029 7.17596 226.808 7.21018C225.821 7.36298 224.907 7.99334 224.095 9.08011C223.831 9.43313 223.54 9.90629 223.314 10.3505C223.008 10.9526 222.797 11.4848 222.584 12.1966C221.906 14.461 221.871 16.0431 222.482 16.8995C222.733 17.2524 223.101 17.4772 223.567 17.5631C223.835 17.6125 224.485 17.5825 224.55 17.5179C224.56 17.5077 224.878 16.5147 225.255 15.3112C225.876 13.3343 225.943 13.1114 225.95 12.9993C225.959 12.8488 225.931 12.7143 225.863 12.5848C225.802 12.4671 225.639 12.3073 225.506 12.233C225.448 12.201 225.4 12.1697 225.4 12.1638C225.4 12.1578 226.441 12.1528 227.713 12.1528C228.985 12.1528 230.026 12.1578 230.026 12.1638C230.026 12.1697 229.969 12.2005 229.9 12.2319C229.54 12.3966 229.279 12.6434 229.124 12.9664C229.09 13.0362 228.799 13.9405 228.362 15.333L227.654 17.5867L227.45 17.6846C226.617 18.0844 225.598 18.3722 224.582 18.4951C224.395 18.5178 223.447 18.5367 223.291 18.5209H223.291ZM202 18.3562C201.996 18.3488 202.026 18.3228 202.069 18.2985C202.32 18.1538 202.602 17.8536 202.722 17.6034C202.756 17.531 205.929 7.42589 205.999 7.16474C206.011 7.11901 206.022 7.02245 206.022 6.95031C206.023 6.72992 205.955 6.57101 205.793 6.4185C205.749 6.37689 205.713 6.3367 205.713 6.32918C205.713 6.30916 211.254 6.31086 211.508 6.33102C212.058 6.37462 212.609 6.52089 213.03 6.73503C213.749 7.10069 214.179 7.65565 214.312 8.3874C214.349 8.59104 214.356 9.04404 214.326 9.26329C214.202 10.1571 213.797 11.1051 213.246 11.791C212.353 12.902 210.892 13.6125 209.099 13.8079C208.531 13.8698 207.815 13.8854 207.308 13.8468C207.161 13.8356 207.038 13.8295 207.034 13.8332C207.016 13.8513 205.872 17.5215 205.859 17.6034C205.819 17.856 205.949 18.14 206.173 18.2889C206.218 18.3183 206.25 18.3485 206.245 18.3559C206.234 18.3742 202.011 18.3744 202 18.356L202 18.3562ZM208.289 12.905C208.706 12.8312 209.073 12.677 209.428 12.4275C209.6 12.3063 209.954 11.9529 210.1 11.7562C210.465 11.2644 210.734 10.6842 210.95 9.91993C211.088 9.43285 211.147 9.06179 211.147 8.67937C211.147 8.38456 211.12 8.20848 211.046 8.01095C210.936 7.71785 210.712 7.48624 210.427 7.37121C210.183 7.27238 209.974 7.24639 209.472 7.25221L209.093 7.25647L208.213 10.0585C207.73 11.5997 207.336 12.8681 207.339 12.8772C207.343 12.8863 207.404 12.9016 207.474 12.9113C207.545 12.9209 207.613 12.9311 207.625 12.9341C207.68 12.9476 208.171 12.9262 208.289 12.9052V12.905Z" fill="white"/>
<path fill-rule="evenodd" clip-rule="evenodd" d="M304.824 12.6082C304.824 12.6082 304.092 12.1552 303.639 11.9799C303.639 11.9799 302.237 11.33 301.959 11.0208C301.959 11.0208 301.412 10.5058 301.732 9.90765C301.732 9.90765 301.866 9.51623 302.443 9.51623C302.443 9.51623 303.195 9.55758 303.195 10.1755V11.0472H305.89L305.885 9.7634C305.885 9.7634 306.092 7.66108 302.711 7.56851C302.711 7.56851 300.052 7.39371 299.29 8.82595C299.29 8.82595 298.99 9.14548 298.99 10.2582V11.0622C298.99 11.0622 298.96 11.9898 299.433 12.5875C299.433 12.5875 299.701 12.9794 300.361 13.4117C300.361 13.4117 301.701 14.133 302.505 14.546C302.505 14.546 303.316 15.0093 303.209 15.7466C303.209 15.7466 303.143 16.5036 302.359 16.4726C302.359 16.4726 301.643 16.4406 301.643 15.6982V14.827H298.772V16.0924C298.772 16.0924 298.691 18.5124 302.38 18.5124C302.38 18.5124 305.906 18.5838 306.07 16.029V14.9985C306.07 14.9985 306.195 13.4328 304.824 12.6082ZM291.03 7.86971L290.128 13.5235H289.917L289.055 7.92046H284.554L284.329 18.159H286.994L287.026 10.4447H287.235L288.648 18.1576H291.451L292.846 10.4476H293.032L293.096 18.159H295.775L295.487 7.86971H291.03ZM275.167 7.91248L273.394 18.1473H276.263L277.313 10.2117H277.549L278.599 18.1473H281.467L279.695 7.91248H275.167ZM335.362 12.4672V13.977H336.098V15.5976C336.098 16.3899 335.421 16.4044 335.421 16.4044C334.598 16.4044 334.629 15.6517 334.629 15.6517V10.0458C334.629 9.4683 335.359 9.43729 335.359 9.43729C336.06 9.43729 336.065 10.1262 336.065 10.1262V10.9785H338.766C338.854 9.31464 338.523 8.91195 338.523 8.91195C337.853 7.40734 335.318 7.48957 335.318 7.48957C331.423 7.48957 331.855 10.4781 331.855 10.4781V15.8984C331.939 18.7013 335.777 18.4165 335.842 18.4142C337.549 18.2253 338.064 17.6826 338.064 17.6826C338.539 17.3301 338.661 16.8419 338.661 16.8419C338.797 16.5576 338.831 15.6517 338.831 15.6517V12.4672H335.362ZM326.409 14.133H326.292L323.551 7.87253H320.271V18.16H322.94L322.781 11.9005H322.9L325.74 18.16H328.919V7.87159H326.216L326.409 14.133ZM313.756 15.5967C313.756 15.5967 313.795 16.4411 313.012 16.4411C313.012 16.4411 312.189 16.4853 312.189 15.6178L312.18 7.87864H309.253V15.5563C309.253 15.5563 308.952 18.4621 313.053 18.4621C313.053 18.4621 316.617 18.5044 316.617 15.6897V7.87911H313.756V15.5967ZM269.586 12.6082C269.586 12.6082 268.855 12.1552 268.401 11.9804C268.401 11.9804 267 11.331 266.722 11.0213C266.722 11.0213 266.175 10.5054 266.496 9.90859C266.496 9.90859 266.629 9.51717 267.206 9.51717C267.206 9.51717 267.959 9.55805 267.959 10.176V11.0476H270.654L270.649 9.7634C270.649 9.7634 270.855 7.66108 267.475 7.56898C267.475 7.56898 267.22 7.55253 266.847 7.57133C266.847 7.57133 264.8 7.68128 264.067 8.80434C264.063 8.8128 264.057 8.81891 264.053 8.82642C264.053 8.82642 263.754 9.14548 263.754 10.2587V11.0627C263.754 11.0627 263.723 11.9902 264.197 12.5879C264.197 12.5879 264.465 12.9798 265.125 13.4121C265.125 13.4121 266.464 14.1334 267.268 14.5465C267.268 14.5465 268.08 15.0089 267.973 15.7471C267.973 15.7471 267.907 16.5041 267.123 16.4731C267.123 16.4731 266.407 16.4411 266.407 15.6987V14.827H263.535V16.0934C263.535 16.0934 263.455 18.5133 267.144 18.5133C267.144 18.5133 270.668 18.5848 270.834 16.0299V15.0004C270.834 14.9995 270.957 13.4328 269.586 12.6082Z" fill="white"/>
<path fill-rule="evenodd" clip-rule="evenodd" d="M81.6737 50.8794C82.369 50.5006 83.064 50.3108 83.9487 50.3108C86.0978 50.3108 87.741 52.2073 87.741 54.7984C87.741 58.0851 85.7186 60.1711 82.3687 60.1711C81.1675 60.1711 79.9663 59.9813 78.8286 59.7283C78.8921 58.4009 78.956 50.3108 78.8286 48.7939C78.7034 48.035 78.5129 47.7193 77.9446 47.593L77.5022 47.5299V47.1507L81.7372 46.3926C81.6737 47.0244 81.6737 48.857 81.6737 50.8794ZM81.7365 59.4126C81.9256 59.4754 82.242 59.4754 82.495 59.4754C83.8224 59.4754 84.7707 57.5165 84.7711 54.9874C84.7711 52.9654 84.0126 51.3222 82.6212 51.3222C82.3048 51.3222 82.0522 51.3853 81.673 51.512C81.6102 54.7984 81.673 58.5279 81.7365 59.4126ZM50.4496 46.6452H61.5739L61.6374 50.3743L61.0052 50.5641C60.3734 48.6676 59.4887 47.5934 57.7816 47.5934H55.5698C55.5063 48.7942 55.4431 50.8167 55.4431 52.9657L56.9597 52.9022C57.9079 52.9022 58.3496 52.1441 58.5397 51.0696H59.1087V55.5557H58.5397C58.3499 54.4816 57.9079 53.7231 56.9597 53.7231L55.4428 53.66C55.4428 55.3028 55.5059 56.6303 55.5694 57.4522C55.6957 58.6534 56.0118 59.2221 56.8334 59.2849L57.5918 59.4119V59.9174H50.4496V59.4119L51.0818 59.2849C51.9034 59.2225 52.2191 58.6534 52.3454 57.4522C52.4721 55.4937 52.5356 51.385 52.3454 49.1096C52.2195 47.9088 51.903 47.4032 51.0818 47.277L50.4496 47.2138V46.6452ZM69.9178 55.1779C69.9178 52.3338 68.3378 50.1848 65.1773 50.1848C62.0168 50.1848 60.2473 52.4601 60.2473 55.1779C60.2473 58.0223 61.8274 60.1717 64.9875 60.1717C68.148 60.1717 69.9178 57.8956 69.9178 55.1779ZM63.2177 55.1779C63.2177 52.7131 63.5969 50.8169 64.9875 50.8169C66.3153 50.8169 66.9468 52.7762 66.9468 55.1779C66.9468 57.6427 66.5668 59.5388 65.1142 59.5388C63.8498 59.5388 63.2177 57.5795 63.2177 55.1779ZM93.4296 50.1848C90.206 50.1848 88.5628 52.6499 88.5628 55.2414C88.5628 58.1489 90.5852 60.1713 93.4296 60.1717C95.1991 60.1717 96.5893 59.2862 97.2215 58.4015L96.9693 58.0858C96.3368 58.5285 95.8313 58.7807 94.8199 58.7807C92.5441 58.7807 91.4064 57.074 91.47 54.7355H97.3482C97.3482 52.1444 96.0835 50.1848 93.4296 50.1848ZM94.4406 53.977L91.47 54.0406C91.5327 52.5864 92.1025 50.8169 93.1767 50.8169C94.2508 50.8169 94.4406 52.7131 94.4406 53.977ZM101.964 50.1848C103.101 50.1848 104.112 50.3742 104.871 50.6906L104.935 53.1554L104.493 53.2817C103.924 51.575 103.165 50.8797 102.028 50.8797C101.27 50.8797 100.7 51.4487 100.7 52.2703C100.7 53.0923 101.331 53.5347 103.102 54.2296C104.745 54.8622 105.44 55.6202 105.44 56.9477C105.44 58.9066 103.86 60.1713 101.395 60.1713C100.194 60.1713 98.8034 59.918 98.0449 59.6023L97.9814 56.8214L98.4242 56.6944C99.1191 58.5909 100.005 59.2859 101.205 59.2859C102.216 59.2859 102.785 58.5909 102.785 57.8325C102.785 57.074 102.343 56.6313 100.763 56.063C99.2443 55.5571 98.1709 54.8622 98.1709 53.2186C98.1709 51.575 99.6254 50.1848 101.964 50.1848ZM74.1525 52.3974C75.1635 50.1216 77.06 49.8063 78.1342 50.4377L77.1228 53.0295C75.8588 52.2079 74.4682 52.5868 74.1525 53.0295C74.089 54.5464 74.089 56.9481 74.2153 58.1493C74.2788 58.907 74.4686 59.2862 75.1004 59.3497L75.8588 59.4133V59.9188H69.981V59.4133L70.4233 59.3497C70.9927 59.2862 71.2449 58.907 71.3085 58.1493C71.3716 56.8222 71.4347 54.1672 71.3085 52.6503C71.2449 51.8283 70.9927 51.5126 70.4233 51.4491L69.981 51.386V51.0067L74.2153 50.1851L74.1525 52.3974Z" fill="white"/>
<path fill-rule="evenodd" clip-rule="evenodd" d="M148.116 47.8403C148.117 47.8444 148.119 47.8484 148.12 47.8524L148.12 47.8524C148.123 47.8584 148.125 47.8645 148.125 47.8705C148.127 47.8893 148.127 47.9069 148.127 47.9258V48.6721L148.127 48.683C148.127 48.7241 148.127 48.7441 148.117 48.7539C148.107 48.7633 148.089 48.7634 148.053 48.7637L148.033 48.7639H147.638H141.637C141.617 48.7639 141.599 48.7642 141.585 48.7645C141.541 48.7654 141.52 48.7658 141.51 48.7554C141.5 48.7455 141.5 48.7257 141.501 48.6871C141.501 48.6724 141.502 48.655 141.501 48.6344V47.8403H148.116ZM170.74 53.5518L170.734 53.5526C170.732 53.5529 170.73 53.5532 170.728 53.5535C170.726 53.554 170.724 53.5546 170.723 53.5555C170.717 53.5669 170.71 53.5782 170.705 53.5907C170.679 53.6598 170.654 53.7289 170.628 53.7983L170.628 53.799L170.628 53.7995L170.628 53.7998L170.578 53.935C170.57 53.9576 170.561 53.979 170.551 54.0016L170.541 54.0028L170.53 54.0045C170.526 54.0053 170.521 54.0061 170.517 54.0066C170.5 54.0075 170.484 54.0072 170.467 54.0069H170.467L170.443 54.0066H165.409C165.401 54.0066 165.394 54.0068 165.386 54.007C165.358 54.0076 165.329 54.0083 165.299 54.0003C165.29 53.979 165.281 53.9564 165.273 53.935C165.231 53.8232 165.189 53.7114 165.147 53.5995C165.144 53.5901 165.14 53.5811 165.136 53.572L165.13 53.5608L165.128 53.5555C165.127 53.5543 165.124 53.553 165.121 53.553C165.116 53.5518 165.111 53.5555 165.111 53.5618L165.111 53.5652C165.11 53.5828 165.108 53.5994 165.108 53.6171V53.9111C165.108 53.9325 165.108 53.9539 165.107 53.9752C165.107 53.9941 165.097 54.0054 165.079 54.0066C165.073 54.0066 165.068 54.0069 165.062 54.0073C165.057 54.0076 165.051 54.0079 165.046 54.0079H164.989H162.356C162.326 54.0079 162.297 54.0079 162.265 54.0066C162.247 54.0066 162.237 53.9953 162.237 53.9752C162.237 53.9656 162.236 53.956 162.236 53.9466C162.236 53.9375 162.235 53.9286 162.235 53.9199V53.1723C162.235 53.1616 162.236 53.151 162.236 53.1403L162.236 53.1401C162.236 53.1295 162.237 53.1189 162.237 53.1082C162.237 53.0982 162.247 53.0869 162.256 53.0869C162.267 53.0856 162.278 53.0844 162.289 53.0844H162.363H167.528C167.549 53.0844 167.566 53.084 167.58 53.0837H167.58C167.618 53.0828 167.636 53.0824 167.648 53.091C167.658 53.0986 167.663 53.1133 167.672 53.1412L167.672 53.1412C167.677 53.1557 167.683 53.1737 167.692 53.1962C167.743 53.3303 167.793 53.4651 167.843 53.6001L167.906 53.7717L167.913 53.7896C167.918 53.8036 167.923 53.8175 167.93 53.8307C167.931 53.834 167.936 53.8362 167.942 53.8388C167.945 53.8401 167.948 53.8416 167.952 53.8433C167.977 53.7836 167.998 53.724 168.019 53.6648C168.027 53.6417 168.035 53.6187 168.044 53.5958L168.091 53.4688L168.137 53.3419L168.169 53.2552L168.169 53.2546C168.189 53.2013 168.208 53.1475 168.228 53.0932L168.235 53.0917L168.243 53.0898C168.252 53.0877 168.26 53.0856 168.269 53.0856C168.293 53.0844 168.318 53.0844 168.343 53.0844H173.475L173.508 53.0842C173.553 53.0837 173.575 53.0835 173.586 53.0944C173.596 53.1048 173.596 53.1253 173.595 53.1654V53.1654L173.595 53.1987V53.9136C173.595 53.9375 173.594 53.9614 173.592 53.9853C173.592 53.9953 173.582 54.0054 173.572 54.0066C173.564 54.0079 173.555 54.0079 173.547 54.0079H173.49H170.849H170.817L170.809 54.0079C170.774 54.0079 170.757 54.0079 170.748 53.9993C170.74 53.9908 170.74 53.974 170.74 53.9408L170.74 53.9338V53.6159C170.743 53.5953 170.742 53.5758 170.74 53.5542V53.5542L170.74 53.5518ZM159.125 59.253H159.21C159.258 59.2115 159.288 59.1638 159.314 59.1148C159.349 59.0507 159.378 58.9854 159.403 58.9175C159.466 58.7479 159.509 58.572 159.547 58.3961C159.548 58.3878 159.549 58.3789 159.55 58.3703C159.55 58.3658 159.55 58.3614 159.551 58.3571C159.552 58.3471 159.542 58.3345 159.532 58.3345L159.529 58.3344C159.491 58.3332 159.455 58.332 159.417 58.332H149.191H149.142L149.131 58.332C149.09 58.3319 149.069 58.3319 149.059 58.3421C149.049 58.3521 149.05 58.3719 149.05 58.411L149.05 58.425V59.1562L149.05 59.1731C149.049 59.2139 149.049 59.2341 149.059 59.2439C149.069 59.2536 149.089 59.2535 149.127 59.2531L149.154 59.253H159.125ZM154.295 50.5115H149.177C149.161 50.5115 149.144 50.5112 149.128 50.5109C149.111 50.5106 149.095 50.5103 149.079 50.5103C149.064 50.5103 149.053 50.499 149.051 50.4851C149.05 50.4726 149.049 50.4588 149.049 50.4449V49.6496C149.049 49.637 149.05 49.6232 149.051 49.6106C149.053 49.6006 149.063 49.5918 149.073 49.5905C149.081 49.5893 149.09 49.5893 149.098 49.5893H149.172H159.094H159.151L159.159 49.5893C159.181 49.5892 159.193 49.5892 159.203 49.5935C159.215 49.5986 159.225 49.6099 159.246 49.6346L159.247 49.6358C159.283 49.6785 159.311 49.7275 159.337 49.7777C159.382 49.8682 159.416 49.9637 159.446 50.0605C159.486 50.1874 159.516 50.3168 159.544 50.4462C159.547 50.4577 159.548 50.4703 159.549 50.482L159.55 50.4851C159.551 50.499 159.542 50.5103 159.525 50.5103C159.492 50.5115 159.459 50.5115 159.426 50.5115H156.07H154.295ZM158.343 60.0788H153.761H153.758C152.426 60.0788 151.095 60.0788 149.762 60.0775H149.162C149.135 60.0775 149.107 60.0788 149.08 60.08C149.066 60.0813 149.054 60.0914 149.053 60.1052C149.051 60.129 149.05 60.1529 149.05 60.1768V60.6543V60.9169C149.05 60.9357 149.051 60.9546 149.055 60.9722C149.057 60.9784 149.064 60.986 149.071 60.9872C149.092 60.9898 149.114 60.991 149.136 60.991C149.301 60.9923 149.464 60.9923 149.629 60.9923C149.965 60.9923 150.3 60.9926 150.634 60.9929C150.969 60.9932 151.303 60.9935 151.637 60.9935C152.027 60.9935 152.416 60.9938 152.806 60.9942C153.195 60.9945 153.584 60.9948 153.974 60.9948H155.775L155.808 60.9945H155.808H155.808H155.808H155.808H155.808H155.808H155.808H155.808H155.808H155.808C155.83 60.9942 155.852 60.9939 155.874 60.9948C156.047 60.9985 156.22 60.9973 156.392 60.9898C156.469 60.986 156.546 60.9784 156.621 60.9671C156.773 60.9445 156.922 60.9131 157.069 60.8679C157.561 60.7171 158.002 60.4746 158.395 60.1529C158.415 60.1378 158.433 60.1203 158.45 60.1039C158.452 60.1014 158.454 60.0939 158.452 60.0901C158.451 60.0863 158.446 60.0813 158.442 60.0813C158.409 60.08 158.376 60.0788 158.343 60.0788ZM153.757 48.7635H149.175C149.142 48.7635 149.109 48.7622 149.076 48.761C149.066 48.761 149.055 48.7509 149.054 48.7409C149.054 48.7344 149.053 48.7281 149.052 48.7218C149.051 48.7098 149.05 48.698 149.05 48.6856V47.9304V47.899C149.051 47.8651 149.059 47.8588 149.094 47.8576H149.151H149.859H154.014H156.195H156.318C156.453 47.8576 156.586 47.8752 156.718 47.899C157.105 47.9669 157.465 48.1064 157.804 48.2948C158.012 48.4104 158.207 48.5411 158.389 48.6919C158.407 48.707 158.426 48.7233 158.443 48.7396C158.446 48.7421 158.447 48.7484 158.447 48.7535C158.447 48.7597 158.443 48.7622 158.437 48.7622C158.407 48.7635 158.377 48.7635 158.346 48.7635H153.757ZM158.161 54.0082H158.241C158.247 54.0037 158.253 54.0005 158.258 53.9977L158.264 53.9944C158.435 53.86 158.595 53.7155 158.742 53.5571C158.823 53.4704 158.898 53.3787 158.963 53.2807C158.995 53.2317 159.026 53.1815 159.051 53.1287C159.064 53.0998 159.058 53.0872 159.028 53.086C159 53.0847 158.973 53.0847 158.946 53.0847H157.268H151.08H150.998C150.991 53.0847 150.982 53.086 150.974 53.0872C150.963 53.0885 150.953 53.0985 150.953 53.1086C150.952 53.1324 150.95 53.1563 150.95 53.1802V53.9115L150.95 53.9368C150.95 53.9732 150.95 53.9914 150.959 54.0003C150.968 54.0092 150.986 54.009 151.022 54.0085L151.053 54.0082H158.161ZM158.238 54.8352L158.279 54.8685C158.295 54.8818 158.311 54.8949 158.328 54.9081C158.491 55.0425 158.646 55.1845 158.785 55.3428C158.858 55.4257 158.926 55.5112 158.984 55.6054C159.008 55.6469 159.03 55.6896 159.052 55.7323C159.054 55.7366 159.053 55.7419 159.052 55.7481C159.051 55.751 159.05 55.7542 159.05 55.7575H158.958H157.337H151.068C151.036 55.7575 151.002 55.7562 150.97 55.755C150.959 55.755 150.95 55.7449 150.949 55.7336C150.948 55.7147 150.948 55.6972 150.948 55.6783V54.9156C150.948 54.9062 150.948 54.8971 150.948 54.888C150.949 54.8789 150.949 54.8697 150.949 54.8603C150.949 54.8478 150.962 54.8365 150.976 54.8352C150.987 54.8339 150.998 54.8339 151.009 54.8339H151.091H158.116L158.135 54.8333C158.171 54.8321 158.206 54.8309 158.238 54.8352ZM148.006 49.5892H144.815C143.808 49.5892 142.801 49.5892 141.797 49.5905H141.583C141.565 49.5905 141.548 49.5916 141.529 49.5928L141.529 49.5928L141.526 49.593C141.517 49.593 141.506 49.6043 141.506 49.6144C141.505 49.6408 141.504 49.6671 141.504 49.6935V50.4085V50.4638C141.504 50.5052 141.509 50.5103 141.549 50.5115H141.631H147.998H148.08C148.088 50.5115 148.097 50.5103 148.105 50.509C148.115 50.5077 148.125 50.4977 148.125 50.4876C148.127 50.4675 148.128 50.4462 148.128 50.4248V49.6772C148.128 49.6596 148.128 49.6408 148.127 49.6219C148.125 49.6031 148.115 49.5905 148.097 49.5905C148.066 49.5892 148.036 49.5892 148.006 49.5892ZM144.857 59.2536H141.666C141.637 59.2536 141.609 59.2525 141.579 59.2513L141.579 59.2513L141.579 59.2513L141.575 59.2511C141.565 59.2511 141.554 59.2411 141.554 59.231C141.553 59.2184 141.552 59.2046 141.552 59.1921V58.398C141.552 58.391 141.552 58.3844 141.552 58.3778C141.553 58.3713 141.553 58.3647 141.553 58.3577C141.554 58.3477 141.563 58.3376 141.572 58.3364L141.573 58.3364C141.58 58.3351 141.588 58.3339 141.597 58.3339H141.671H148.054C148.086 58.3339 148.12 58.3351 148.152 58.3364C148.163 58.3364 148.173 58.3477 148.174 58.3565L148.175 58.3598L148.175 58.3598C148.176 58.3749 148.177 58.389 148.177 58.4042V59.1833V59.1833C148.177 59.1971 148.177 59.2097 148.176 59.2235C148.174 59.2423 148.164 59.2536 148.146 59.2549C148.121 59.2561 148.096 59.2561 148.072 59.2561H147.011C146.294 59.2536 145.575 59.2536 144.857 59.2536ZM141.675 60.9907H144.866C145.925 60.9907 146.982 60.9907 148.042 60.9894H148.116C148.126 60.9894 148.138 60.9894 148.149 60.9882C148.165 60.9869 148.176 60.9756 148.177 60.9568C148.178 60.9404 148.178 60.9254 148.178 60.909V60.909V60.1614V60.1614C148.178 60.1425 148.178 60.125 148.177 60.1061C148.177 60.0936 148.164 60.081 148.151 60.081L148.147 60.0808L148.147 60.0808H148.147H148.147H148.147H148.147H148.147H148.147H148.147H148.147H148.147H148.147H148.147H148.147C148.117 60.0796 148.089 60.0785 148.06 60.0785H141.669H141.612C141.608 60.0785 141.603 60.0788 141.599 60.0791C141.595 60.0794 141.591 60.0797 141.587 60.0797C141.566 60.081 141.556 60.091 141.554 60.1086C141.553 60.1225 141.553 60.135 141.553 60.1488V60.9203C141.553 60.9356 141.554 60.9497 141.555 60.9648L141.556 60.9681C141.556 60.9781 141.566 60.9882 141.577 60.9882C141.609 60.9894 141.643 60.9907 141.675 60.9907ZM166.687 50.508L166.676 50.5095C166.669 50.5106 166.662 50.5117 166.656 50.5117C166.639 50.5126 166.623 50.5123 166.606 50.512L166.581 50.5117H160.46C160.428 50.5117 160.394 50.5105 160.361 50.5092C160.351 50.5092 160.341 50.4992 160.339 50.4891C160.339 50.4835 160.338 50.478 160.338 50.4726C160.337 50.4622 160.335 50.4521 160.335 50.4414V49.6623C160.335 49.6485 160.335 49.636 160.337 49.6221C160.338 49.5995 160.348 49.5895 160.373 49.5895C160.398 49.5882 160.422 49.5882 160.447 49.5882H166.255L166.275 49.588C166.301 49.5876 166.328 49.5872 166.355 49.5932C166.363 49.6096 166.371 49.6272 166.378 49.6435C166.481 49.9249 166.585 50.2077 166.688 50.4891C166.689 50.4916 166.688 50.4941 166.687 50.4967C166.688 50.5004 166.688 50.5029 166.687 50.508ZM169.187 50.4905C169.187 50.4956 169.186 50.5009 169.185 50.5063C169.208 50.5121 169.23 50.5124 169.252 50.5127C169.263 50.5128 169.273 50.513 169.284 50.5138H175.336H175.402C175.411 50.5138 175.421 50.5138 175.427 50.51C175.433 50.5063 175.441 50.5 175.443 50.4937C175.446 50.4774 175.446 50.4623 175.446 50.446V49.6594C175.446 49.6441 175.445 49.6299 175.444 49.6148L175.444 49.6116C175.444 49.6028 175.432 49.5928 175.422 49.5928L175.418 49.5926C175.388 49.5914 175.36 49.5903 175.331 49.5903H169.616L169.594 49.59C169.579 49.5897 169.565 49.5894 169.55 49.5903L169.539 49.5915L169.519 49.594C169.504 49.6121 169.497 49.6321 169.49 49.6524L169.487 49.6594C169.413 49.8629 169.338 50.0677 169.263 50.2726L169.248 50.3145C169.228 50.368 169.209 50.421 169.19 50.4749C169.189 50.4795 169.188 50.4848 169.187 50.4905ZM165.714 47.8617L165.719 47.8716C165.723 47.8777 165.726 47.8835 165.728 47.8893C165.834 48.1733 165.939 48.4572 166.043 48.7412C166.043 48.7429 166.043 48.7445 166.043 48.7462L166.043 48.7487C166.043 48.7503 166.042 48.7518 166.041 48.754L166.04 48.7588C166.035 48.7594 166.03 48.7604 166.024 48.7613C166.019 48.7622 166.014 48.7632 166.009 48.7638C165.991 48.7647 165.972 48.7644 165.954 48.7641L165.927 48.7638H160.467C160.434 48.7638 160.401 48.7638 160.368 48.7626C160.35 48.7626 160.34 48.7513 160.338 48.7311C160.337 48.7123 160.337 48.6947 160.337 48.6759V47.9446C160.337 47.9232 160.338 47.9019 160.34 47.8818C160.341 47.8717 160.35 47.8604 160.36 47.8604C160.368 47.8591 160.377 47.8591 160.385 47.8591H160.459H165.606L165.619 47.8586C165.65 47.8574 165.682 47.8561 165.714 47.8617ZM169.827 48.749C169.828 48.7521 169.829 48.7554 169.829 48.7589C169.859 48.7662 169.888 48.7649 169.918 48.7635L169.936 48.7627H175.325H175.399C175.407 48.7627 175.416 48.7615 175.424 48.7602C175.434 48.7602 175.445 48.7501 175.445 48.7401L175.445 48.7396C175.446 48.7134 175.447 48.6872 175.447 48.6609L175.448 48.4308V48.4294C175.448 48.2762 175.448 48.1227 175.447 47.9699C175.447 47.9544 175.447 47.941 175.447 47.9294V47.9294V47.9294V47.9294V47.9294V47.9294V47.9293V47.9293V47.9293V47.9293V47.9293V47.9293V47.9293V47.9293V47.9293V47.9293V47.9293V47.9292V47.9292V47.9292V47.9292V47.9292C175.448 47.8928 175.448 47.8745 175.439 47.8655C175.43 47.8563 175.411 47.8567 175.373 47.8575C175.36 47.8577 175.345 47.858 175.328 47.858H170.26H170.21H170.186C170.153 47.8593 170.147 47.8631 170.136 47.8894C170.13 47.9045 170.125 47.9196 170.12 47.9347C170.036 48.1606 169.953 48.3878 169.87 48.615L169.87 48.615L169.87 48.615L169.87 48.6151L169.87 48.6151L169.87 48.6152L169.87 48.6152L169.87 48.6152L169.87 48.6152L169.87 48.6153L169.87 48.6153L169.87 48.6153L169.87 48.6154L169.87 48.6154L169.87 48.6154L169.87 48.6155L169.87 48.6155L169.87 48.6155L169.87 48.6156L169.87 48.6156L169.87 48.6156L169.87 48.6157L169.87 48.6157L169.87 48.6157L169.827 48.7363C169.826 48.7401 169.827 48.7443 169.827 48.749ZM164.792 52.2589H162.349C162.32 52.2589 162.291 52.2577 162.261 52.2565L162.258 52.2564C162.247 52.2564 162.238 52.2451 162.238 52.235C162.237 52.2162 162.237 52.1986 162.237 52.1797V51.417C162.237 51.3957 162.238 51.3743 162.241 51.3542C162.241 51.3504 162.247 51.3454 162.253 51.3429C162.26 51.3404 162.268 51.3391 162.277 51.3391H162.359H166.898L166.926 51.3394C166.944 51.3397 166.962 51.34 166.98 51.3391C167 51.3391 167.01 51.3492 167.017 51.3655C167.032 51.4057 167.046 51.4447 167.061 51.4849C167.148 51.7186 167.235 51.9536 167.321 52.1873C167.327 52.2049 167.332 52.2224 167.337 52.24C167.34 52.2463 167.331 52.2564 167.324 52.2564C167.295 52.2576 167.265 52.2576 167.233 52.2576C166.42 52.2589 165.606 52.2589 164.792 52.2589ZM168.547 52.2484C168.548 52.2506 168.549 52.253 168.549 52.2553C168.569 52.2593 168.59 52.2598 168.611 52.2602C168.622 52.2605 168.634 52.2607 168.646 52.2616H173.48H173.521L173.531 52.2615C173.597 52.2605 173.598 52.2605 173.598 52.1862V51.416V51.4158C173.598 51.3996 173.598 51.3845 173.597 51.3682C173.597 51.3532 173.586 51.3419 173.572 51.3419C173.541 51.3406 173.511 51.3406 173.481 51.3406H168.983H168.909L168.906 51.3406C168.893 51.3405 168.881 51.3404 168.869 51.3519C168.866 51.3599 168.863 51.3683 168.859 51.377L168.859 51.3771L168.859 51.3771L168.859 51.3772C168.856 51.3848 168.852 51.3927 168.849 51.4009C168.755 51.6623 168.659 51.9249 168.562 52.1862C168.556 52.2038 168.551 52.2214 168.546 52.239C168.545 52.2413 168.546 52.2447 168.547 52.2484ZM173.12 59.2529H170.859C170.832 59.2529 170.805 59.2529 170.777 59.2516C170.757 59.2516 170.746 59.2416 170.745 59.224C170.745 59.2189 170.745 59.2136 170.744 59.2083C170.744 59.2029 170.744 59.1976 170.744 59.1926V58.3896C170.744 58.3846 170.744 58.3793 170.744 58.3739C170.745 58.3686 170.745 58.3633 170.745 58.3582C170.746 58.3444 170.757 58.3331 170.772 58.3331C170.802 58.3318 170.832 58.3318 170.863 58.3318H170.863H172.64H175.37C175.388 58.3318 175.403 58.3316 175.416 58.3313C175.458 58.3306 175.479 58.3302 175.489 58.3404C175.499 58.3503 175.499 58.3701 175.498 58.4091C175.498 58.4215 175.497 58.4359 175.497 58.4525C175.498 58.6082 175.498 58.7634 175.498 58.9188L175.497 59.1523C175.497 59.1787 175.496 59.2051 175.495 59.2315C175.495 59.2416 175.483 59.2504 175.473 59.2516L175.468 59.2517L175.461 59.2522L175.453 59.2527L175.448 59.2529H175.374H173.12ZM160.507 59.253H162.743C163.491 59.253 164.241 59.253 164.988 59.2542L165.016 59.2539L165.034 59.2536H165.034H165.034L165.034 59.2536C165.049 59.2533 165.064 59.253 165.079 59.253C165.093 59.253 165.105 59.2417 165.106 59.2291L165.106 59.2258C165.107 59.2107 165.108 59.1966 165.108 59.1813V58.4023C165.108 58.386 165.107 58.3709 165.106 58.3546C165.105 58.3458 165.094 58.3345 165.084 58.3345L165.084 58.3345C165.054 58.3332 165.024 58.332 164.994 58.332H160.505C160.481 58.332 160.456 58.332 160.431 58.3332C160.4 58.3345 160.391 58.342 160.39 58.3696C160.389 58.3935 160.389 58.4174 160.389 58.4413L160.388 58.6739C160.388 58.8293 160.388 58.9849 160.389 59.1399C160.389 59.1535 160.388 59.1656 160.388 59.1762V59.1762C160.388 59.2152 160.387 59.2348 160.397 59.2445C160.407 59.2543 160.427 59.254 160.467 59.2534C160.478 59.2532 160.492 59.253 160.507 59.253ZM173.118 60.9908H170.872C170.854 60.9908 170.839 60.9911 170.825 60.9913C170.783 60.9921 170.762 60.9925 170.752 60.9823C170.743 60.9726 170.743 60.9533 170.744 60.9155L170.744 60.9153C170.744 60.9025 170.745 60.8876 170.745 60.8702C170.744 60.711 170.744 60.5517 170.744 60.3928L170.745 60.1553C170.745 60.0811 170.745 60.0799 170.821 60.0799H170.878H175.362C175.381 60.0799 175.398 60.0796 175.412 60.0793C175.457 60.0785 175.479 60.0781 175.489 60.0889C175.5 60.0992 175.499 60.1195 175.499 60.1591L175.498 60.1758L175.498 60.1917L175.498 60.2093C175.499 60.3655 175.499 60.5212 175.499 60.6771V60.6772V60.6774V60.6775V60.6776V60.6778V60.6779V60.678V60.6782V60.6783V60.6784V60.6786V60.6787V60.6788V60.679V60.6807L175.498 60.9167V60.9203C175.498 60.9552 175.498 60.9728 175.49 60.9817C175.481 60.9908 175.462 60.9908 175.425 60.9908H175.422H175.355H173.118ZM160.516 60.9908H162.745H162.746C163.494 60.9908 164.241 60.9908 164.99 60.9895H164.99C165.022 60.9895 165.051 60.9895 165.081 60.9883C165.096 60.987 165.108 60.9757 165.108 60.9631L165.109 60.9505L165.109 60.9275L165.109 60.9273L165.11 60.9092L165.11 60.8915L165.11 60.6577V60.6576V60.6574V60.6573V60.6572V60.657V60.6569V60.6567C165.11 60.5014 165.111 60.3463 165.11 60.1917L165.11 60.1801L165.11 60.1545C165.11 60.1172 165.11 60.0978 165.101 60.0877C165.09 60.0766 165.068 60.0768 165.021 60.0772L164.99 60.0773H160.508C160.483 60.0773 160.459 60.0773 160.434 60.0786C160.399 60.0798 160.391 60.0886 160.39 60.1213C160.389 60.1452 160.389 60.169 160.389 60.1929L160.388 60.419V60.4193V60.4195V60.4198V60.4201V60.4204V60.4207V60.4209V60.4212V60.4215V60.4218V60.422V60.4223V60.4226V60.4229V60.4232V60.4234C160.388 60.5722 160.388 60.7205 160.389 60.8689C160.389 60.8855 160.389 60.8999 160.388 60.9123C160.388 60.9517 160.388 60.9718 160.398 60.9818C160.408 60.9922 160.429 60.9919 160.472 60.9912C160.485 60.991 160.499 60.9908 160.516 60.9908ZM165.959 55.7537C165.949 55.7298 165.941 55.7097 165.934 55.6896C165.835 55.4283 165.737 55.1669 165.64 54.9055L165.624 54.8603C165.619 54.8452 165.628 54.8339 165.644 54.8339C165.666 54.8327 165.688 54.8327 165.71 54.8327H165.71H170.149C170.174 54.8327 170.199 54.8339 170.224 54.8352C170.234 54.8352 170.242 54.8477 170.238 54.8578C170.235 54.8653 170.233 54.8729 170.231 54.8804L170.231 54.8806L170.228 54.8907L170.224 54.903L170.077 55.2995L169.931 55.6959C169.926 55.711 169.92 55.726 169.913 55.7399C169.909 55.7461 169.901 55.7512 169.895 55.7537C169.887 55.7562 169.879 55.7562 169.87 55.7562H169.804H166.063L166.054 55.7563L166.038 55.7565C166.013 55.757 165.988 55.7575 165.959 55.7537ZM166.59 57.44C166.597 57.4616 166.604 57.4834 166.622 57.5029C166.644 57.5029 166.669 57.5042 166.694 57.5054H169.186C169.204 57.5054 169.224 57.5054 169.243 57.5042C169.256 57.5029 169.264 57.4966 169.269 57.4866C169.276 57.4728 169.282 57.4577 169.288 57.4426L169.434 57.0454L169.58 56.6497C169.585 56.6347 169.59 56.6196 169.594 56.6045C169.597 56.5945 169.588 56.5831 169.576 56.5831L169.576 56.5831C169.549 56.5819 169.521 56.5806 169.494 56.5806H166.385H166.318C166.311 56.5806 166.302 56.5819 166.294 56.5831C166.287 56.5831 166.278 56.5932 166.28 56.5995C166.283 56.6146 166.287 56.6296 166.293 56.6447L166.322 56.7231L166.351 56.8018C166.39 56.9044 166.428 57.0073 166.467 57.1102L166.467 57.1105L166.467 57.1107L166.467 57.111L166.467 57.1112L166.467 57.1115C166.506 57.2148 166.544 57.3182 166.583 57.4212L166.587 57.4318L166.59 57.44ZM159.45 52.2548C159.445 52.2552 159.44 52.2559 159.436 52.2565C159.429 52.2575 159.422 52.2585 159.414 52.2585C159.4 52.2594 159.385 52.2591 159.37 52.2588H159.37L159.348 52.2585H156.7C156.673 52.2585 156.645 52.2573 156.618 52.256C156.608 52.256 156.599 52.2447 156.597 52.2346L156.597 52.2314C156.596 52.2163 156.595 52.2021 156.595 52.1869V51.4079C156.595 51.389 156.596 51.3714 156.599 51.3526C156.599 51.3488 156.605 51.3438 156.609 51.3413C156.614 51.3388 156.619 51.3375 156.625 51.3375C156.637 51.3375 156.649 51.3372 156.662 51.3369C156.674 51.3366 156.686 51.3363 156.699 51.3363H159.527H159.594C159.622 51.3375 159.631 51.345 159.63 51.3752C159.63 51.4154 159.629 51.4544 159.625 51.4946C159.601 51.7333 159.547 51.9645 159.469 52.1919C159.465 52.2158 159.457 52.2359 159.45 52.2548ZM159.458 56.6139L159.448 56.5891C159.414 56.5774 159.385 56.5787 159.359 56.58L159.352 56.5803H156.703C156.694 56.5803 156.685 56.5806 156.675 56.5809C156.665 56.5812 156.656 56.5815 156.646 56.5815C156.637 56.5815 156.629 56.5828 156.621 56.5841C156.612 56.5853 156.599 56.5966 156.599 56.6054L156.599 56.6055C156.598 56.6293 156.596 56.6532 156.596 56.677L156.596 56.9146V56.9147V56.9148V56.9149V56.9151V56.9152V56.9153V56.9154V56.9155V56.9156V56.9157V56.9159V56.916C156.596 57.0744 156.595 57.2332 156.596 57.392L156.596 57.4174L156.596 57.429C156.595 57.4685 156.595 57.4881 156.605 57.4975C156.614 57.5068 156.633 57.5064 156.67 57.5056C156.683 57.5054 156.697 57.5051 156.714 57.5051H159.512H159.594L159.602 57.5041C159.608 57.5036 159.613 57.503 159.619 57.5013C159.623 57.4988 159.628 57.4938 159.629 57.49C159.632 57.4774 159.633 57.4636 159.633 57.451C159.634 57.3706 159.623 57.2915 159.611 57.2136C159.585 57.0326 159.539 56.8555 159.482 56.6808C159.475 56.6587 159.466 56.6366 159.458 56.6139ZM143.411 51.3429C143.416 51.3424 143.421 51.3417 143.425 51.3411C143.432 51.34 143.438 51.3391 143.445 51.3391H143.511H146.167C146.181 51.3391 146.194 51.3394 146.208 51.3398C146.222 51.3401 146.235 51.3404 146.249 51.3404C146.263 51.3404 146.273 51.3517 146.273 51.3668C146.275 51.3806 146.275 51.3932 146.275 51.407V52.1935C146.275 52.2099 146.273 52.225 146.271 52.2413C146.27 52.2476 146.262 52.2539 146.255 52.2576C146.25 52.2606 146.243 52.2604 146.236 52.2602L146.231 52.2601H146.164H143.508H143.508C143.484 52.2601 143.459 52.2601 143.434 52.2589C143.412 52.2576 143.402 52.2539 143.4 52.2237C143.399 52.1998 143.399 52.176 143.399 52.1521V52.1521V51.4447V51.4447C143.399 51.4208 143.399 51.3969 143.4 51.3731C143.402 51.368 143.404 51.363 143.406 51.358C143.408 51.3529 143.41 51.3479 143.411 51.3429ZM143.51 54.0082H144.842C145.176 54.0082 145.511 54.0082 145.849 54.007H146.202C146.221 54.007 146.24 54.007 146.259 54.0045C146.267 54.0032 146.273 53.9969 146.275 53.9881L146.275 53.9849L146.275 53.9848C146.276 53.9698 146.277 53.9556 146.277 53.9404V53.1538C146.277 53.1386 146.276 53.1244 146.275 53.1093L146.275 53.1093L146.275 53.1061C146.275 53.0973 146.263 53.0872 146.253 53.0872C146.225 53.086 146.198 53.0847 146.171 53.0847H143.513C143.491 53.0847 143.469 53.0847 143.447 53.086C143.441 53.086 143.435 53.0872 143.43 53.0883L143.423 53.0897C143.412 53.091 143.408 53.0985 143.407 53.1061C143.404 53.1224 143.403 53.1375 143.403 53.1538V53.9404C143.403 53.9556 143.404 53.9698 143.405 53.9848L143.406 53.9881C143.406 53.9969 143.417 54.007 143.428 54.007C143.455 54.0082 143.482 54.0082 143.51 54.0082ZM144.838 55.7562H143.507C143.493 55.7562 143.48 55.7559 143.466 55.7556C143.452 55.7553 143.439 55.7549 143.425 55.7549C143.415 55.7549 143.405 55.7449 143.404 55.7336L143.404 55.7303C143.403 55.7152 143.402 55.7011 143.402 55.6858V54.9081C143.402 54.8708 143.402 54.8519 143.411 54.8424C143.421 54.8327 143.44 54.8327 143.48 54.8327H143.521H146.159C146.189 54.8327 146.219 54.8339 146.249 54.8352C146.263 54.8352 146.273 54.8465 146.273 54.8616C146.275 54.8804 146.275 54.898 146.275 54.9169V55.6795C146.275 55.7009 146.272 55.7223 146.269 55.7424C146.269 55.7461 146.263 55.7512 146.259 55.7537C146.254 55.7562 146.249 55.7562 146.243 55.7562C146.23 55.7562 146.216 55.7565 146.203 55.7568C146.189 55.7571 146.175 55.7574 146.162 55.7574C145.72 55.7562 145.279 55.7562 144.839 55.7562H144.838ZM162.341 55.7562H163.674H163.674C164.116 55.7562 164.556 55.7562 165.002 55.7574C165.016 55.7574 165.03 55.7571 165.043 55.7568L165.064 55.7564L165.084 55.7562C165.098 55.7562 165.11 55.7449 165.111 55.7323C165.111 55.7242 165.112 55.7164 165.112 55.7086L165.112 55.7084L165.112 55.6975L165.113 55.6846V54.9055C165.113 54.8903 165.112 54.8762 165.11 54.8612V54.8612L165.11 54.8578C165.109 54.849 165.098 54.8377 165.089 54.8364L165.065 54.8349C165.048 54.8338 165.032 54.8327 165.015 54.8327H162.333H162.333C162.311 54.8327 162.289 54.8327 162.267 54.8339C162.253 54.8352 162.24 54.8465 162.24 54.8591C162.24 54.8685 162.239 54.8776 162.239 54.8867C162.239 54.8958 162.238 54.9049 162.238 54.9143V55.677C162.238 55.6959 162.238 55.7135 162.24 55.7323C162.24 55.7436 162.249 55.7537 162.259 55.7537L162.259 55.7537C162.286 55.7549 162.314 55.7562 162.341 55.7562ZM144.833 57.5038H143.51C143.485 57.5038 143.46 57.5038 143.436 57.5026C143.414 57.5013 143.403 57.4976 143.402 57.4674C143.401 57.4435 143.401 57.4197 143.401 57.3958V56.6896C143.401 56.6658 143.401 56.6419 143.402 56.618C143.402 56.6105 143.405 56.6029 143.408 56.5954C143.411 56.5916 143.415 56.5866 143.42 56.5854L143.42 56.5853C143.428 56.5828 143.436 56.5803 143.443 56.5803C143.468 56.5791 143.493 56.5791 143.518 56.5791H146.155L146.189 56.5789C146.234 56.5784 146.255 56.5782 146.266 56.589C146.276 56.5993 146.276 56.6196 146.275 56.6592L146.275 56.6922V57.3983C146.275 57.4222 146.275 57.4461 146.274 57.4699C146.272 57.4938 146.263 57.5026 146.237 57.5026H146.163C145.72 57.5038 145.277 57.5038 144.833 57.5038ZM162.341 57.5038H163.665C164.11 57.5038 164.554 57.5038 164.998 57.5025H165.072C165.097 57.5025 165.106 57.4937 165.107 57.4699V57.446V56.6431C165.107 56.6293 165.106 56.6155 165.105 56.6029C165.105 56.5941 165.093 56.5815 165.084 56.5815L165.071 56.581L165.049 56.5799H165.049H165.049H165.049H165.049L165.049 56.5799C165.028 56.5788 165.006 56.5778 164.985 56.5778H162.361H162.312C162.237 56.579 162.235 56.5803 162.235 56.6544V57.2739V57.4334C162.235 57.4498 162.237 57.4648 162.238 57.4812C162.238 57.4912 162.248 57.5013 162.259 57.5013C162.286 57.5025 162.313 57.5038 162.341 57.5038ZM152.387 51.3399H153.71L153.734 51.3398C153.77 51.3395 153.788 51.3394 153.797 51.3483C153.806 51.3572 153.805 51.3753 153.805 51.4114L153.805 51.4279V52.1742C153.805 52.1956 153.804 52.2169 153.803 52.237C153.803 52.2471 153.792 52.2559 153.781 52.2572C153.773 52.2584 153.764 52.2584 153.756 52.2584H153.69H151.06C151.045 52.2584 151.033 52.2586 151.022 52.2588C150.985 52.2594 150.966 52.2597 150.957 52.2505C150.948 52.2415 150.948 52.2233 150.949 52.1872C150.949 52.1775 150.949 52.1666 150.949 52.1541V51.4392C150.949 51.4128 150.95 51.3864 150.952 51.36C150.952 51.35 150.962 51.3412 150.973 51.3399C150.98 51.3386 150.989 51.3386 150.997 51.3386H151.071C151.51 51.3399 151.948 51.3399 152.387 51.3399ZM170.851 55.7559H172.167C172.604 55.7559 173.039 55.7559 173.476 55.7584H173.55C173.558 55.7584 173.567 55.7584 173.575 55.7572C173.587 55.7559 173.596 55.7471 173.597 55.737L173.597 55.7339C173.599 55.7188 173.6 55.7046 173.6 55.6893V54.9103V54.9101C173.6 54.8939 173.6 54.8788 173.598 54.8625C173.597 54.8487 173.585 54.8361 173.572 54.8361L173.569 54.836C173.539 54.8348 173.51 54.8336 173.482 54.8336H170.866H170.792C170.784 54.8336 170.775 54.8349 170.767 54.8361C170.758 54.8374 170.746 54.8462 170.746 54.8562C170.745 54.8763 170.744 54.8977 170.744 54.9191V55.6742V55.722C170.744 55.7471 170.751 55.7546 170.777 55.7559H170.851ZM152.379 57.504H151.055C151.028 57.504 151.001 57.5027 150.973 57.5015C150.963 57.5015 150.953 57.4914 150.953 57.4814L150.952 57.4781C150.951 57.463 150.95 57.4489 150.95 57.4336V57.2753V56.6558C150.95 56.5817 150.951 56.5805 151.027 56.5792H151.076H153.683C153.704 56.5792 153.725 56.5803 153.747 56.5814H153.747H153.747C153.758 56.582 153.77 56.5825 153.782 56.583C153.791 56.583 153.802 56.5955 153.802 56.6043L153.803 56.6076C153.804 56.6227 153.805 56.6368 153.805 56.6521V57.4386C153.805 57.455 153.804 57.4701 153.801 57.4864C153.8 57.4939 153.795 57.5015 153.784 57.5015C153.762 57.5027 153.74 57.504 153.719 57.504H153.085H152.379ZM170.841 57.5038H172.173H173.489C173.516 57.5038 173.544 57.5038 173.571 57.5025C173.584 57.5013 173.596 57.49 173.596 57.4762C173.596 57.4594 173.596 57.4423 173.596 57.4252L173.596 57.4246C173.597 57.4155 173.597 57.4064 173.597 57.3973C173.597 57.3892 173.597 57.3811 173.597 57.3731V56.6733C173.597 56.6494 173.596 56.6255 173.594 56.6016C173.594 56.5941 173.58 56.5803 173.572 56.5803C173.54 56.579 173.506 56.5778 173.474 56.5778H170.867H170.818C170.78 56.5784 170.761 56.5787 170.752 56.5883C170.742 56.598 170.742 56.6171 170.742 56.6557V57.4347V57.4348C170.742 57.4485 170.742 57.4611 170.743 57.4749C170.744 57.4758 170.744 57.4767 170.744 57.4776C170.744 57.4785 170.744 57.4793 170.744 57.4802C170.745 57.4838 170.746 57.4875 170.747 57.49C170.75 57.4937 170.755 57.5 170.759 57.5C170.786 57.5025 170.814 57.5038 170.841 57.5038ZM168.614 59.2505C168.599 59.2517 168.586 59.253 168.571 59.253H167.322C167.311 59.253 167.3 59.253 167.289 59.2517C167.278 59.2505 167.27 59.2429 167.265 59.2341C167.256 59.2153 167.248 59.1952 167.24 59.1751L167.164 58.9724C167.124 58.8659 167.084 58.7591 167.044 58.6524C167.028 58.6117 167.013 58.5707 166.998 58.5298L166.998 58.5292C166.983 58.4881 166.967 58.4469 166.952 58.4061C166.95 58.4018 166.949 58.3975 166.947 58.3932C166.946 58.3887 166.944 58.3842 166.943 58.3797C166.94 58.3709 166.937 58.3621 166.933 58.3533C166.931 58.347 166.939 58.3357 166.945 58.3345C166.953 58.3332 166.961 58.332 166.97 58.332H167.027H168.844C168.871 58.332 168.899 58.3332 168.926 58.3345L168.926 58.3345C168.94 58.3345 168.949 58.3483 168.944 58.3634L168.937 58.386L168.937 58.3861C168.932 58.4011 168.927 58.4162 168.921 58.4312C168.906 58.4708 168.891 58.5104 168.877 58.55C168.858 58.6014 168.839 58.6528 168.82 58.7042C168.787 58.7949 168.753 58.8855 168.719 58.9765L168.677 59.0921L168.634 59.2077C168.63 59.2196 168.624 59.2314 168.618 59.244C168.616 59.2461 168.615 59.2483 168.614 59.2505ZM168.297 60.1262C168.301 60.1136 168.305 60.1011 168.3 60.0873C168.286 60.0789 168.27 60.0792 168.253 60.0796C168.25 60.0796 168.246 60.0797 168.243 60.0797H167.643C167.634 60.0797 167.625 60.0809 167.615 60.082C167.611 60.0826 167.607 60.0831 167.603 60.0835C167.596 60.0847 167.588 60.0948 167.59 60.1011C167.593 60.1099 167.596 60.1187 167.599 60.1275C167.602 60.1363 167.605 60.1451 167.608 60.1539C167.704 60.4089 167.8 60.6652 167.896 60.9216C167.903 60.9392 167.909 60.9555 167.917 60.9731C167.918 60.9759 167.921 60.9787 167.924 60.9816C167.925 60.9825 167.926 60.9835 167.927 60.9844C167.943 60.9957 167.977 60.9882 167.984 60.9706C167.991 60.9573 167.996 60.9435 168.001 60.9295C168.003 60.9235 168.005 60.9175 168.008 60.9115C168.038 60.8292 168.069 60.7469 168.099 60.6646C168.129 60.5823 168.159 60.5 168.19 60.4177C168.208 60.3693 168.226 60.3207 168.244 60.272C168.261 60.2233 168.279 60.1746 168.297 60.1262Z" fill="white"/>
<path d="M211.139 48.357C211.139 48.357 213.047 56.1733 213.351 57.442C213.707 58.9228 214.347 59.4678 216.193 59.1002L217.384 54.2542C217.686 53.0504 217.888 52.1923 218.082 50.9678H218.116C218.253 52.2043 218.447 53.054 218.695 54.2584C218.695 54.2584 219.18 56.4584 219.428 57.6139C219.677 58.769 220.37 59.497 222.178 59.1006L225.016 48.3578H222.725L221.756 53.0024C221.495 54.3544 221.259 55.4108 221.077 56.6476H221.044C220.879 55.4231 220.668 54.4086 220.403 53.0914L219.394 48.3578H217.007L215.928 52.9721C215.622 54.3742 215.336 55.5065 215.154 56.7014H215.121C214.935 55.5761 214.687 54.1531 214.419 52.7958C214.419 52.7958 213.778 49.4954 213.553 48.3578L211.14 48.3581L211.139 48.357ZM232.983 48.357V59.0998H235.164V56.8186V48.3564H232.983V48.357ZM263.708 48.357V56.2821C263.708 57.3748 263.914 58.1404 264.354 58.6081C264.738 59.0171 265.371 59.282 266.13 59.282C266.775 59.282 267.409 59.1596 267.709 59.0482L267.68 57.3434C267.458 57.3982 267.202 57.442 266.852 57.442C266.109 57.442 265.859 56.966 265.859 55.9849V52.9528H267.759V50.8974H265.859V48.357H263.708L263.708 48.357ZM228.107 50.8474C226.752 50.8474 225.675 51.2281 225.089 51.5671L225.518 53.0372C226.055 52.6987 226.91 52.4185 227.719 52.4185C229.059 52.415 229.279 53.1763 229.279 53.6645V53.7799C226.358 53.7755 224.514 54.786 224.514 56.8458C224.514 58.1034 225.453 59.2819 227.086 59.2819C228.091 59.2819 228.931 58.8811 229.435 58.2388H229.484C229.484 58.2388 229.818 59.6336 231.656 59.1002C231.559 58.5197 231.528 57.9007 231.528 57.1552V54.2853C231.528 52.4562 230.747 50.8474 228.107 50.8474L228.107 50.8474ZM241.157 50.8474C239.792 50.8474 239.179 51.5392 238.807 52.1262H238.774V51.0296H236.692V59.1003H238.886V54.3672C238.886 54.1453 238.911 53.9106 238.988 53.7065C239.17 53.23 239.614 52.6725 240.321 52.6725C241.206 52.6725 241.62 53.4207 241.62 54.5004V59.1002H243.811V54.3098C243.811 54.098 243.84 53.8429 243.903 53.6556C244.083 53.1135 244.561 52.6724 245.219 52.6724C246.116 52.6724 246.546 53.4076 246.546 54.6781V59.1003H248.739V54.3468C248.739 51.84 247.466 50.8474 246.029 50.8474C245.393 50.8474 244.89 51.007 244.436 51.2858C244.055 51.52 243.713 51.8528 243.414 52.291H243.382C243.034 51.4212 242.219 50.8474 241.157 50.8474L241.157 50.8474ZM253.201 50.8474C251.845 50.8474 250.769 51.2281 250.182 51.5671L250.612 53.0372C251.148 52.6987 252.004 52.4185 252.813 52.4185C254.152 52.415 254.372 53.1763 254.372 53.6645V53.7799C251.452 53.7755 249.607 54.786 249.607 56.8458C249.607 58.1034 250.547 59.2819 252.18 59.2819C253.185 59.2819 254.025 58.8811 254.528 58.2388H254.578C254.578 58.2388 254.911 59.6336 256.75 59.1002C256.653 58.5197 256.622 57.9007 256.622 57.1552V54.2853C256.622 52.4562 255.841 50.8474 253.201 50.8474L253.201 50.8474ZM262.308 50.8474C261.469 50.8474 260.513 51.3895 260.112 52.5516H260.051V51.0295H258.077V59.1002H260.327V54.9675C260.327 54.7445 260.341 54.5501 260.376 54.3719C260.542 53.5062 261.205 52.9528 262.155 52.9528C262.416 52.9528 262.603 52.981 262.805 53.0102V50.8973C262.635 50.8631 262.519 50.8473 262.309 50.8473L262.308 50.8474ZM229.349 55.2101V56.2169C229.349 56.3659 229.336 56.5195 229.295 56.6539C229.126 57.2131 228.547 57.6856 227.822 57.6856C227.219 57.6856 226.739 57.343 226.739 56.6181C226.739 55.5094 227.96 55.2029 229.349 55.2101H229.349ZM254.442 55.2101V56.2169C254.442 56.3659 254.429 56.5195 254.388 56.6539C254.219 57.2131 253.64 57.6856 252.916 57.6856C252.312 57.6856 251.833 57.343 251.833 56.6181C251.833 55.5094 253.053 55.2029 254.442 55.2101H254.442Z" fill="white"/>
<path d="M279.555 44.4717C278.85 44.4717 278.291 44.865 278.291 45.3438L278.718 50.1871C278.765 50.4789 279.123 50.7039 279.555 50.7039C279.988 50.7034 280.344 50.4785 280.392 50.1871L280.822 45.3438C280.822 44.865 280.261 44.4717 279.556 44.4717L279.555 44.4717ZM272.584 48.3567C272.219 48.3654 271.803 48.6422 271.539 49.1003C271.186 49.7103 271.248 50.392 271.662 50.6311L276.07 52.6838C276.345 52.7862 276.719 52.5907 276.935 52.2173C276.936 52.2173 276.935 52.2172 276.935 52.2171C277.153 51.8419 277.136 51.4201 276.907 51.2329L272.926 48.4407C272.823 48.3808 272.707 48.3539 272.585 48.3568L272.584 48.3567ZM286.525 48.3567C286.403 48.3538 286.287 48.3808 286.184 48.4407L282.202 51.2329C281.975 51.42 281.958 51.8419 282.174 52.2171L282.174 52.2173C282.392 52.5906 282.764 52.7861 283.04 52.6837L287.45 50.6312C287.865 50.392 287.924 49.7104 287.573 49.1004C287.308 48.6423 286.892 48.3654 286.526 48.3568L286.525 48.3567ZM276.234 54.7467C276.177 54.7459 276.122 54.7548 276.07 54.7742L271.662 56.8244C271.249 57.0646 271.186 57.7466 271.54 58.3572C271.892 58.966 272.513 59.2554 272.927 59.0167L276.908 56.2266C277.137 56.0372 277.154 55.6154 276.936 55.2406L276.938 55.2414C276.762 54.9361 276.481 54.75 276.234 54.7467L276.234 54.7467ZM282.877 54.7467C282.63 54.7501 282.35 54.9362 282.174 55.2415L282.175 55.2407C281.959 55.6155 281.976 56.0373 282.203 56.2267L286.185 59.0167C286.598 59.2555 287.219 58.9661 287.573 58.3573C287.924 57.7466 287.864 57.0647 287.449 56.8245L283.041 54.7743C282.989 54.7548 282.934 54.746 282.877 54.7468L282.877 54.7467ZM279.554 56.754C279.123 56.7545 278.766 56.9786 278.719 57.2696L278.291 62.1127C278.291 62.5923 278.851 62.9848 279.555 62.9848C280.261 62.9848 280.822 62.5923 280.822 62.1127L280.393 57.2696C280.345 56.9786 279.989 56.7545 279.556 56.754H279.554H279.554Z" fill="white"/>
</g>
</svg>
