<svg width="1106" height="50" viewBox="0 0 1106 50" fill="none" xmlns="http://www.w3.org/2000/svg">
<g opacity="0.8">
<path d="M87.0129 16.6943L83.822 16.7026V33.0755H98.4555C100.056 32.3963 100.913 31.2222 101.245 29.8514H87.0046L87.0129 16.6943ZM110.892 19.966H123.099C124.795 19.6306 126.058 18.1335 126.412 16.686H107.577C107.929 18.1335 109.211 19.6306 110.892 19.966ZM71.3607 19.9204C73.0566 19.4276 74.4853 18.1335 74.8332 16.6985H56.9218V26.3727H71.5822V29.7686L60.0838 29.7789C58.2802 30.2801 56.7562 31.4893 55.9921 33.0879L56.9218 33.0713H74.7338V23.1569H60.0838V19.9204H71.3607ZM108.07 33.0713H111.244V26.4804H122.8V33.0713H125.973V23.1859L108.07 23.1693V33.0713ZM32.2518 19.9556H44.4564C46.1543 19.6181 47.4154 18.121 47.7694 16.6736H28.9366C29.2886 18.121 30.5683 19.6181 32.2518 19.9556ZM0.5 16.7109C0.86651 18.1438 2.10685 19.6036 3.80687 19.9722H8.94422L9.20513 20.0757V33.0382H12.4147V20.0757L12.7046 19.9722H17.8481C19.5647 19.5291 20.7781 18.1438 21.1405 16.7109V16.6798H0.5V16.7109ZM32.2518 33.0734H44.4564C46.1543 32.7338 47.4154 31.2408 47.7694 29.7914H28.9366C29.2886 31.2408 30.5683 32.7338 32.2518 33.0734ZM32.2518 26.4265H44.4564C46.1543 26.0911 47.4154 24.594 47.7694 23.1466H28.9366C29.2886 24.594 30.5683 26.0911 32.2518 26.4265Z" fill="white"/>
<path d="M236.137 14.4385L227.461 27.285C226.559 28.6446 224.976 29.4664 223.32 29.4664C220.622 29.4664 218.389 27.2497 218.389 24.575C218.389 21.8609 220.622 19.6484 223.338 19.6484C223.608 19.6139 223.969 19.5761 224.221 19.5761C226.094 19.5761 228.002 20.3618 229.298 21.6836L231.889 17.7568C229.873 15.688 226.885 14.3638 223.896 14.3638C218.316 14.3638 213.204 18.9686 213.204 24.5372C213.204 30.0731 217.776 34.6048 223.358 34.6048C226.058 34.6048 228.757 33.4629 230.629 31.5697H236.605L236.641 34.6048H241.827V14.4385H236.137H236.137ZM233.763 27.143L236.605 23.1843L236.641 27.143H233.763H233.763Z" fill="white"/>
<path d="M251.763 34.6044H246.579V19.1471H242.547V14.4717L255.793 14.438V19.1471H251.763V34.6043V34.6044Z" fill="white"/>
<path d="M273.075 14.4383L267.891 14.4396L267.855 21.9688H261.734L261.695 14.438H256.515V34.6043H261.734V26.6434H267.891V34.6043H273.075V14.438L273.075 14.4383Z" fill="white"/>
<path d="M314.62 14.438V23.8225L307.492 14.438L302.774 14.4708L302.739 21.8259C301.551 17.5421 297.482 14.438 292.946 14.438C287.367 14.438 282.794 18.9681 282.794 24.5368C282.794 26.3248 283.334 28.1408 284.196 29.7138H279.061V14.438H273.778V34.6043H285.855V31.7827C287.763 33.533 290.355 34.6043 292.946 34.6043C297.482 34.6043 301.48 31.5692 302.739 27.2845L302.774 34.6043H307.997V24.7904L315.086 34.6043H319.8L319.807 14.438H314.621H314.62ZM292.947 29.6785C290.103 29.6785 287.763 27.3946 287.763 24.5368C287.763 21.7184 290.103 19.3991 292.947 19.3991C295.828 19.3991 298.168 21.7184 298.168 24.5368C298.168 27.3946 295.828 29.6785 292.947 29.6785Z" fill="white"/>
<path d="M206.935 29.7167V26.8942H212.499L212.489 21.9709H206.935V19.402H213.068L213.057 14.4409L201.249 14.4738V21.3995C200.025 17.6164 196.495 14.8309 192.464 14.4738L183.5 14.4409V34.6064H192.501C196.495 34.251 200.025 31.467 201.249 27.7185V34.6064H213.068L213.057 29.7167H206.935H206.935ZM195.524 27.6101C195.202 28.968 193.904 29.9294 192.501 29.9655H189.189V19.1492H192.501C193.904 19.1492 195.202 20.1532 195.524 21.5431C195.849 22.4717 196.029 23.5422 196.029 24.5397C196.029 25.5774 195.849 26.6463 195.524 27.6101Z" fill="white"/>
<path d="M396.535 35.1448C394.723 35.0474 393.371 34.3019 392.58 32.9643C392.05 32.0665 391.889 30.8855 392.131 29.6789C392.4 28.3419 393.313 27.1371 394.714 26.2705C395.52 25.7722 396.209 25.4629 397.612 24.9696C397.965 24.8456 398.27 24.7315 398.289 24.7155C398.317 24.6932 398.321 24.6141 398.307 24.3574C398.267 23.627 398.389 22.4891 398.595 21.668C398.942 20.2861 399.61 19.1713 400.496 18.4951C401.132 18.0092 401.966 17.6439 402.796 17.4873C403.255 17.401 404.023 17.4013 404.454 17.4881C406.303 17.8603 407.34 19.2852 406.932 20.8906C406.846 21.2291 406.574 21.784 406.343 22.0909C405.754 22.8773 404.867 23.5766 403.614 24.2419C403.457 24.3258 402.941 24.5791 402.469 24.8053C401.997 25.0312 401.595 25.2311 401.577 25.2497C401.551 25.276 401.557 25.3527 401.608 25.6108C401.843 26.8039 402.238 27.812 402.913 28.9392C403.181 29.3879 403.552 29.9537 403.594 29.98C403.655 30.0177 403.905 29.6144 404.067 29.2153C404.269 28.7215 404.384 28.0684 404.327 27.744C404.286 27.5117 404.159 27.2664 403.997 27.1079C403.923 27.0346 403.861 26.9653 403.861 26.9539C403.861 26.9427 404.49 26.9364 405.259 26.9404L406.657 26.9475L406.649 27.1249C406.638 27.3673 406.548 27.8842 406.453 28.2521C406.186 29.2868 405.682 30.1716 404.811 31.138C404.708 31.2519 404.624 31.3637 404.624 31.3865C404.624 31.4094 404.769 31.5679 404.945 31.7388C406.046 32.8061 407.996 34.0369 409.584 34.6664C409.738 34.7277 409.864 34.7901 409.864 34.805C409.863 34.823 408.946 34.8347 407.185 34.8395L404.506 34.8464L404.354 34.7606C404.043 34.5857 403.354 34.029 402.692 33.4173C402.552 33.2877 402.419 33.1818 402.397 33.1818C402.375 33.1818 402.219 33.2723 402.051 33.383C401.191 33.9501 400.164 34.4596 399.294 34.7495C398.306 35.0795 397.49 35.1963 396.535 35.1451V35.1448ZM398.79 32.8244C399.191 32.753 399.683 32.6075 400.136 32.4267C400.591 32.2451 401.156 31.9674 401.176 31.9149C401.184 31.8941 401.08 31.7197 400.944 31.527C400.321 30.6392 399.656 29.3906 399.208 28.2707C399.044 27.8579 398.736 26.9435 398.677 26.6929C398.658 26.613 398.624 26.5405 398.602 26.5318C398.539 26.5079 398.028 26.7805 397.586 27.0736C396.015 28.1152 395.261 29.3866 395.429 30.7151C395.503 31.3056 395.69 31.7359 396.03 32.0994C396.659 32.7711 397.642 33.0294 398.79 32.8244ZM401.457 23.5864C402.038 23.2461 402.96 22.4196 403.476 21.7771C404.136 20.9549 404.487 20.1876 404.488 19.5653C404.488 19.2095 404.437 19.0502 404.273 18.8856C404.109 18.7221 403.924 18.6544 403.642 18.6541C402.804 18.6541 401.899 19.6481 401.504 21.0005C401.305 21.6823 401.257 22.0492 401.256 22.8821C401.255 23.5182 401.265 23.6597 401.313 23.6597C401.323 23.6597 401.388 23.6268 401.457 23.5864ZM415.305 35.1289C413.926 34.99 413.016 34.7837 411.99 34.3775C410.595 33.8243 409.723 33.139 408.987 32.0163C408.766 31.6802 408.413 30.9745 408.27 30.5845C407.631 28.8468 407.491 26.6592 407.872 24.377C408.257 22.0673 409.134 19.8411 410.345 18.1011C411.13 16.9728 412.299 15.7844 413.505 14.8871C415.497 13.4056 417.789 12.495 420.336 12.1748C421.108 12.0777 421.541 12.0527 422.454 12.0532C423.834 12.054 424.885 12.1592 426.274 12.435C427.159 12.6113 428.57 12.992 428.597 13.0624C428.611 13.0979 427.717 15.9628 427.68 16.0013C427.669 16.0133 427.532 15.9217 427.376 15.7969C426.12 14.796 424.819 14.1867 423.503 13.9841C423.083 13.9194 422.293 13.9186 421.881 13.9826C420.036 14.2682 418.326 15.4467 416.808 17.4785C416.315 18.1385 415.771 19.0232 415.348 19.8536C414.776 20.9793 414.382 21.9744 413.984 23.305C412.715 27.5385 412.651 30.4963 413.793 32.0975C414.263 32.7573 414.95 33.1775 415.822 33.3381C416.323 33.4305 417.538 33.3745 417.66 33.2537C417.679 33.2346 418.272 31.378 418.978 29.128C420.138 25.4321 420.263 25.0153 420.276 24.8058C420.294 24.5244 420.241 24.273 420.115 24.0308C420 23.8108 419.696 23.5121 419.446 23.3732C419.338 23.3132 419.249 23.2548 419.249 23.2437C419.248 23.2325 421.194 23.2232 423.573 23.2232C425.951 23.2232 427.897 23.2325 427.897 23.2437C427.897 23.2548 427.791 23.3124 427.662 23.3711C426.989 23.6791 426.501 24.1405 426.211 24.7442C426.148 24.8748 425.604 26.5655 424.786 29.1689L423.463 33.3822L423.081 33.5654C421.524 34.3128 419.619 34.8509 417.719 35.0806C417.37 35.123 415.598 35.1584 415.306 35.1289H415.305ZM375.501 34.8209C375.492 34.8071 375.549 34.7585 375.628 34.7131C376.098 34.4426 376.626 33.8813 376.849 33.4135C376.914 33.2781 382.846 14.3858 382.977 13.8976C383 13.8121 383.019 13.6316 383.02 13.4967C383.021 13.0847 382.893 12.7876 382.592 12.5024C382.51 12.4247 382.443 12.3495 382.443 12.3354C382.443 12.298 392.801 12.3012 393.276 12.3389C394.304 12.4204 395.334 12.6939 396.121 13.0942C397.466 13.7779 398.271 14.8154 398.518 16.1835C398.587 16.5642 398.6 17.4111 398.544 17.821C398.313 19.492 397.556 21.2644 396.525 22.5468C394.855 24.6239 392.124 25.9522 388.773 26.3175C387.71 26.4333 386.371 26.4625 385.423 26.3903C385.149 26.3693 384.919 26.3579 384.912 26.3648C384.879 26.3988 382.74 33.2604 382.716 33.4135C382.64 33.8859 382.883 34.4168 383.303 34.6951C383.385 34.75 383.446 34.8066 383.437 34.8204C383.416 34.8546 375.522 34.8549 375.5 34.8206L375.501 34.8209ZM387.258 24.6295C388.037 24.4915 388.724 24.2031 389.387 23.7367C389.709 23.5102 390.371 22.8494 390.643 22.4817C391.326 21.5623 391.829 20.4775 392.234 19.0486C392.492 18.138 392.602 17.4443 392.601 16.7293C392.601 16.1782 392.552 15.849 392.413 15.4797C392.207 14.9317 391.788 14.4987 391.256 14.2836C390.799 14.0988 390.408 14.0503 389.47 14.0611L388.762 14.0691L387.117 19.3078C386.212 22.1891 385.477 24.5605 385.483 24.5775C385.489 24.5945 385.603 24.6232 385.735 24.6412C385.868 24.6593 385.994 24.6784 386.017 24.684C386.12 24.7092 387.037 24.6691 387.258 24.6298V24.6295Z" fill="white"/>
<path fill-rule="evenodd" clip-rule="evenodd" d="M563.694 24.0731C563.694 24.0731 562.324 23.2262 561.478 22.8985C561.478 22.8985 558.856 21.6835 558.336 21.1055C558.336 21.1055 557.314 20.1426 557.913 19.0243C557.913 19.0243 558.163 18.2925 559.243 18.2925C559.243 18.2925 560.648 18.3698 560.648 19.525V21.1546H565.686L565.677 18.7546C565.677 18.7546 566.064 14.8241 559.743 14.651C559.743 14.651 554.772 14.3242 553.346 17.0019C553.346 17.0019 552.786 17.5993 552.786 19.6796V21.1828C552.786 21.1828 552.729 22.9169 553.615 24.0344C553.615 24.0344 554.116 24.7671 555.349 25.5753C555.349 25.5753 557.854 26.9238 559.357 27.696C559.357 27.696 560.874 28.5623 560.675 29.9406C560.675 29.9406 560.551 31.3559 559.085 31.2979C559.085 31.2979 557.746 31.2382 557.746 29.8501V28.2214H552.378V30.5872C552.378 30.5872 552.228 35.1116 559.125 35.1116C559.125 35.1116 565.716 35.2451 566.023 30.4686V28.542C566.022 28.542 566.256 25.6148 563.694 24.0731ZM537.905 15.2142L536.218 25.7844H535.823L534.212 15.309H525.798L525.376 34.4509H530.358L530.418 20.0284H530.81L533.45 34.4483H538.692L541.3 20.0337H541.647L541.767 34.4509H546.776L546.236 15.2142H537.905ZM508.248 15.2941L504.933 34.4289H510.296L512.26 19.5927H512.701L514.664 34.4289H520.026L516.712 15.2941H508.248ZM620.787 23.8095V26.6322H622.162V29.6621C622.162 31.1433 620.897 31.1706 620.897 31.1706C619.357 31.1706 619.415 29.7632 619.415 29.7632V19.2825C619.415 18.2028 620.781 18.1449 620.781 18.1449C622.092 18.1449 622.101 19.4328 622.101 19.4328V21.0264H627.151C627.316 17.9156 626.696 17.1627 626.696 17.1627C625.443 14.3497 620.704 14.5034 620.704 14.5034C613.422 14.5034 614.23 20.0908 614.23 20.0908V30.2244C614.387 35.4647 621.562 34.9323 621.684 34.9279C624.875 34.5748 625.839 33.5601 625.839 33.5601C626.726 32.9012 626.955 31.9884 626.955 31.9884C627.209 31.4569 627.272 29.7632 627.272 29.7632V23.8095H620.787ZM604.048 26.9238H603.829L598.705 15.2194H592.573V34.4527H597.563L597.265 22.75H597.488L602.797 34.4527H608.741V15.2177H603.688L604.048 26.9238ZM580.393 29.6604C580.393 29.6604 580.465 31.2391 579.001 31.2391C579.001 31.2391 577.462 31.3217 577.462 29.6999L577.446 15.2308H571.973V29.5848C571.973 29.5848 571.412 35.0175 579.079 35.0175C579.079 35.0175 585.741 35.0966 585.741 29.8343V15.2317H580.393V29.6604ZM497.814 24.0731C497.814 24.0731 496.446 23.2262 495.598 22.8994C495.598 22.8994 492.978 21.6853 492.458 21.1063C492.458 21.1063 491.437 20.1417 492.036 19.026C492.036 19.026 492.285 18.2942 493.364 18.2942C493.364 18.2942 494.771 18.3706 494.771 19.5259V21.1555H499.81L499.8 18.7546C499.8 18.7546 500.185 14.8241 493.867 14.6519C493.867 14.6519 493.39 14.6212 492.692 14.6563C492.692 14.6563 488.864 14.8619 487.496 16.9615C487.488 16.9773 487.476 16.9888 487.468 17.0028C487.468 17.0028 486.91 17.5993 486.91 19.6805V21.1836C486.91 21.1836 486.852 22.9178 487.738 24.0353C487.738 24.0353 488.239 24.768 489.472 25.5762C489.472 25.5762 491.976 26.9247 493.479 27.6969C493.479 27.6969 494.998 28.5614 494.797 29.9415C494.797 29.9415 494.673 31.3568 493.209 31.2988C493.209 31.2988 491.869 31.2391 491.869 29.851V28.2214H486.5V30.589C486.5 30.589 486.35 35.1133 493.247 35.1133C493.247 35.1133 499.836 35.2468 500.146 30.4704V28.5456C500.146 28.5438 500.376 25.6148 497.814 24.0731Z" fill="white"/>
<path fill-rule="evenodd" clip-rule="evenodd" d="M742.781 17.1034C744.081 16.3951 745.381 16.0402 747.035 16.0402C751.053 16.0402 754.125 19.5859 754.125 24.4302C754.125 30.575 750.344 34.4749 744.081 34.4749C741.835 34.4749 739.589 34.12 737.462 33.6471C737.581 31.1653 737.7 16.0402 737.462 13.2043C737.228 11.7856 736.872 11.1953 735.809 10.9592L734.982 10.8412V10.1322L742.9 8.71484C742.781 9.89605 742.781 13.3223 742.781 17.1034ZM742.899 33.0569C743.252 33.1743 743.844 33.1743 744.317 33.1743C746.799 33.1743 748.571 29.5119 748.572 24.7836C748.572 21.0032 747.154 17.9311 744.553 17.9311C743.961 17.9311 743.489 18.0492 742.78 18.286C742.663 24.4302 742.78 31.4028 742.899 33.0569ZM684.405 9.18705H705.203L705.322 16.159L704.14 16.5138C702.959 12.9681 701.305 10.9599 698.113 10.9599H693.978C693.859 13.2049 693.741 16.986 693.741 21.0039L696.576 20.8852C698.349 20.8852 699.175 19.4679 699.53 17.4589H700.594V25.8461H699.53C699.176 23.8379 698.349 22.4199 696.576 22.4199L693.74 22.3018C693.74 25.3732 693.858 27.8551 693.977 29.3918C694.213 31.6375 694.804 32.7007 696.34 32.818L697.758 33.0555V34.0006H684.405V33.0555L685.587 32.818C687.123 32.7014 687.714 31.6375 687.95 29.3918C688.186 25.7301 688.305 18.0485 687.95 13.7945C687.714 11.5495 687.123 10.6044 685.587 10.3683L684.405 10.2502V9.18705ZM720.802 25.1391C720.802 19.822 717.848 15.8041 711.939 15.8041C706.031 15.8041 702.722 20.0581 702.722 25.1391C702.722 30.457 705.677 34.4755 711.585 34.4755C717.493 34.4755 720.802 30.2202 720.802 25.1391ZM708.276 25.1391C708.276 20.531 708.985 16.986 711.585 16.986C714.067 16.986 715.248 20.649 715.248 25.1391C715.248 29.7473 714.537 33.2923 711.821 33.2923C709.458 33.2923 708.276 29.6292 708.276 25.1391ZM764.759 15.8041C758.733 15.8041 755.661 20.4129 755.661 25.2579C755.661 30.6937 759.442 34.4748 764.759 34.4755C768.068 34.4755 770.667 32.8201 771.849 31.166L771.377 30.5757C770.195 31.4034 769.25 31.875 767.359 31.875C763.104 31.875 760.977 28.6841 761.096 24.3121H772.086C772.086 19.4678 769.721 15.8041 764.759 15.8041ZM766.65 22.8941L761.096 23.0128C761.213 20.2942 762.278 16.986 764.287 16.986C766.295 16.986 766.65 20.531 766.65 22.8941ZM780.714 15.8041C782.841 15.8041 784.732 16.1583 786.15 16.7499L786.27 21.358L785.444 21.5941C784.379 18.4033 782.961 17.1034 780.835 17.1034C779.417 17.1034 778.352 18.1672 778.352 19.7033C778.352 21.24 779.532 22.067 782.842 23.3663C785.914 24.5489 787.215 25.9662 787.215 28.448C787.215 32.1104 784.26 34.4748 779.651 34.4748C777.405 34.4748 774.806 34.0013 773.388 33.411L773.269 28.2119L774.097 27.9744C775.396 31.5201 777.052 32.8194 779.296 32.8194C781.187 32.8194 782.251 31.5201 782.251 30.1021C782.251 28.6841 781.423 27.8564 778.47 26.7939C775.631 25.8481 773.624 24.5489 773.624 21.4761C773.624 18.4033 776.343 15.8041 780.714 15.8041ZM728.719 19.9407C730.61 15.6861 734.155 15.0965 736.163 16.277L734.273 21.1226C731.909 19.5866 729.31 20.2949 728.719 21.1226C728.601 23.9586 728.601 28.4487 728.837 30.6944C728.955 32.1111 729.31 32.8201 730.491 32.9388L731.909 33.0575V34.0026H720.92V33.0575L721.747 32.9388C722.812 32.8201 723.283 32.1111 723.402 30.6944C723.52 28.2133 723.638 23.2496 723.402 20.4136C723.283 18.8769 722.812 18.2866 721.747 18.1679L720.92 18.0498V17.3408L728.837 15.8048L728.719 19.9407Z" fill="white"/>
<path fill-rule="evenodd" clip-rule="evenodd" d="M855.566 11.2837C855.568 11.2911 855.57 11.2985 855.573 11.306C855.577 11.3171 855.581 11.3282 855.582 11.3394C855.585 11.3742 855.585 11.4066 855.585 11.4414V12.8193L855.585 12.8394C855.585 12.9156 855.585 12.9525 855.566 12.9706C855.549 12.9876 855.515 12.9879 855.449 12.9883L855.414 12.9887H854.694H843.75C843.713 12.9887 843.682 12.9893 843.655 12.9898H843.655H843.655H843.655H843.655H843.655H843.655H843.655H843.655H843.655H843.655H843.655H843.655H843.655C843.576 12.9914 843.537 12.9922 843.519 12.9732C843.501 12.955 843.501 12.9185 843.502 12.8469C843.503 12.8198 843.504 12.7877 843.503 12.7497V11.2837H855.566ZM896.821 21.829L896.81 21.8305C896.801 21.8317 896.794 21.8326 896.79 21.836C896.779 21.8569 896.767 21.8778 896.757 21.901C896.71 22.0293 896.663 22.1577 896.616 22.2866L896.582 22.3812L896.525 22.5366C896.511 22.5783 896.494 22.6177 896.475 22.6595C896.462 22.6608 896.45 22.6629 896.438 22.6649C896.43 22.6664 896.422 22.6678 896.414 22.6688C896.384 22.6703 896.354 22.6698 896.324 22.6693L896.307 22.669L896.279 22.6688H887.099L887.081 22.6689L887.058 22.6694L887.058 22.6694C887.007 22.6706 886.954 22.6718 886.9 22.6572C886.883 22.6177 886.867 22.576 886.852 22.5366C886.774 22.3301 886.698 22.1236 886.623 21.9172C886.617 21.8997 886.609 21.8832 886.601 21.8664C886.596 21.8564 886.592 21.8464 886.587 21.836C886.585 21.8337 886.58 21.8314 886.575 21.8314C886.566 21.829 886.556 21.836 886.556 21.8476L886.556 21.8537V21.8538V21.8539V21.8539V21.854V21.854V21.8541V21.8541C886.554 21.8865 886.552 21.9171 886.552 21.9497V22.4925C886.552 22.5319 886.552 22.5713 886.549 22.6108C886.549 22.6456 886.53 22.6665 886.497 22.6688C886.492 22.6688 886.486 22.669 886.48 22.6693L886.468 22.6699C886.458 22.6705 886.447 22.6711 886.438 22.6711H886.334H881.533C881.478 22.6711 881.424 22.6711 881.367 22.6688C881.334 22.6688 881.315 22.6479 881.315 22.6108C881.315 22.5931 881.314 22.5754 881.314 22.558C881.313 22.5412 881.313 22.5247 881.313 22.5087V21.1285C881.313 21.1088 881.313 21.0891 881.314 21.0693C881.314 21.0496 881.315 21.0299 881.315 21.0102C881.315 20.9916 881.334 20.9708 881.351 20.9708C881.37 20.9684 881.391 20.9661 881.41 20.9661H881.545H890.964C891.001 20.9661 891.032 20.9654 891.058 20.9649C891.128 20.9633 891.161 20.9626 891.182 20.9781C891.201 20.9921 891.21 21.0193 891.227 21.071L891.227 21.071C891.236 21.0978 891.247 21.1311 891.262 21.1726C891.354 21.4155 891.443 21.6596 891.532 21.904L891.532 21.9048L891.533 21.9057L891.533 21.9067L891.534 21.9076L891.534 21.9084L891.534 21.9092L891.534 21.9097L891.534 21.9103L891.535 21.9107L891.535 21.911L891.535 21.9113L891.535 21.9117L891.535 21.912L891.535 21.9124L891.535 21.9127L891.535 21.913L891.536 21.9134L891.536 21.9137L891.536 21.9141L891.536 21.9144L891.536 21.9147L891.536 21.9151L891.536 21.9155L891.536 21.9157L891.537 21.9158L891.537 21.916L891.537 21.9161L891.537 21.9163L891.537 21.9164L891.537 21.9166L891.537 21.9167L891.537 21.9169L891.537 21.9171L891.537 21.9175L891.537 21.9179L891.539 21.9226L891.54 21.9257L891.541 21.9288L891.542 21.9319L891.544 21.9349C891.58 22.0349 891.617 22.135 891.653 22.235C891.657 22.246 891.662 22.2571 891.666 22.2681L891.666 22.2681C891.675 22.294 891.684 22.3196 891.696 22.344C891.699 22.3501 891.708 22.3542 891.719 22.3589C891.725 22.3614 891.73 22.364 891.736 22.3672C891.782 22.2572 891.821 22.1472 891.859 22.038L891.859 22.038L891.859 22.0379L891.859 22.0379L891.859 22.0379L891.859 22.0378C891.874 21.9951 891.889 21.9526 891.904 21.9102C891.933 21.8325 891.961 21.7542 891.99 21.6759C892.018 21.5977 892.046 21.5194 892.075 21.4417L892.132 21.2816C892.168 21.1828 892.204 21.0831 892.241 20.9824C892.25 20.9807 892.259 20.9784 892.268 20.9762L892.268 20.9762C892.284 20.9722 892.299 20.9684 892.314 20.9684C892.359 20.9661 892.404 20.9661 892.449 20.9661H901.809C901.831 20.9661 901.851 20.9659 901.869 20.9658C901.951 20.965 901.991 20.9646 902.01 20.9844C902.029 21.0035 902.028 21.0414 902.028 21.1158V21.1158C902.027 21.134 902.027 21.1544 902.027 21.1772V22.4971C902.027 22.5412 902.025 22.5853 902.022 22.6293C902.022 22.6479 902.003 22.6665 901.984 22.6688C901.97 22.6711 901.954 22.6711 901.939 22.6711H901.835H897.02H896.961L896.948 22.6711C896.884 22.6712 896.852 22.6712 896.837 22.6554C896.821 22.6398 896.821 22.6088 896.821 22.5473L896.821 22.5342V21.9474C896.826 21.9093 896.824 21.8734 896.821 21.8334L896.821 21.829ZM875.64 32.3535H875.797C875.884 32.277 875.939 32.1889 875.986 32.0984C876.05 31.9801 876.102 31.8595 876.147 31.7342C876.263 31.421 876.341 31.0963 876.41 30.7715C876.413 30.7563 876.414 30.74 876.415 30.7241V30.724L876.415 30.7239L876.415 30.7237L876.415 30.7236C876.416 30.7154 876.416 30.7074 876.417 30.6996C876.42 30.681 876.401 30.6579 876.384 30.6579L876.378 30.6576C876.309 30.6554 876.242 30.6532 876.173 30.6532H857.527H857.437L857.417 30.6532C857.342 30.6531 857.305 30.653 857.286 30.6717C857.268 30.69 857.268 30.7266 857.268 30.7991L857.268 30.8249V32.1749L857.268 32.206C857.268 32.2816 857.268 32.3189 857.286 32.3371C857.304 32.3547 857.34 32.3544 857.41 32.3538H857.41L857.458 32.3535H875.64ZM866.832 16.2153H857.501C857.471 16.2153 857.441 16.2147 857.411 16.2141L857.411 16.2141C857.38 16.2135 857.35 16.213 857.321 16.213C857.295 16.213 857.273 16.1921 857.271 16.1666C857.269 16.1434 857.266 16.1178 857.266 16.0923V14.624C857.266 14.6008 857.269 14.5753 857.271 14.5521C857.273 14.5335 857.292 14.5173 857.311 14.5149C857.325 14.5126 857.342 14.5126 857.356 14.5126H857.491H875.584H875.688L875.702 14.5126C875.743 14.5125 875.765 14.5125 875.783 14.5204C875.806 14.5298 875.823 14.5506 875.861 14.5963L875.863 14.5985C875.93 14.6773 875.979 14.7678 876.027 14.8606C876.11 15.0276 876.171 15.2039 876.226 15.3825C876.299 15.6168 876.353 15.8557 876.406 16.0946C876.41 16.1159 876.412 16.1391 876.414 16.1607V16.1608L876.415 16.1666C876.417 16.1921 876.401 16.213 876.37 16.213C876.311 16.2153 876.249 16.2153 876.19 16.2153H870.07H866.832ZM874.215 33.8776H865.86C863.43 33.8776 861 33.8776 858.567 33.8753H857.473C857.423 33.8753 857.373 33.8776 857.324 33.88C857.298 33.8823 857.276 33.9008 857.274 33.9264L857.274 33.9264C857.272 33.9705 857.269 34.0145 857.269 34.0586V34.9401V35.4249C857.269 35.4597 857.272 35.4945 857.279 35.5269C857.281 35.5385 857.295 35.5525 857.307 35.5548C857.345 35.5594 857.385 35.5617 857.426 35.5617C857.726 35.5641 858.024 35.5641 858.325 35.5641H858.326C858.937 35.5641 859.548 35.5646 860.158 35.5652H860.159H860.16H860.161H860.162H860.163H860.163H860.164H860.165H860.166H860.167H860.168H860.169H860.17H860.171H860.171H860.172H860.173H860.174H860.175H860.176H860.177H860.178H860.179H860.179H860.18H860.181H860.182H860.183H860.184H860.185H860.186H860.186C860.787 35.5658 861.387 35.5664 861.987 35.5664C862.698 35.5664 863.408 35.567 864.118 35.5675C864.827 35.5681 865.537 35.5687 866.248 35.5687H869.533C869.553 35.5687 869.572 35.5685 869.592 35.5682L869.593 35.5682C869.633 35.5677 869.673 35.5672 869.713 35.5687C870.028 35.5757 870.343 35.5733 870.658 35.5594C870.798 35.5525 870.937 35.5385 871.075 35.5177C871.352 35.4759 871.624 35.4179 871.892 35.3344C872.79 35.056 873.592 34.6083 874.31 34.0145C874.346 33.9867 874.379 33.9542 874.41 33.924C874.414 33.9194 874.417 33.9055 874.414 33.8985C874.412 33.8916 874.403 33.8823 874.395 33.8823C874.336 33.88 874.275 33.8776 874.215 33.8776ZM865.852 12.9887H857.496C857.437 12.9887 857.375 12.9864 857.316 12.9841C857.297 12.9841 857.278 12.9655 857.276 12.947C857.275 12.935 857.274 12.9234 857.273 12.9118C857.271 12.8896 857.269 12.8678 857.269 12.8449V11.4508V11.3928C857.271 11.3302 857.285 11.3186 857.349 11.3162H857.454H858.744H866.321H870.298H870.523C870.769 11.3162 871.01 11.3487 871.252 11.3928C871.958 11.5181 872.614 11.7755 873.232 12.1235C873.611 12.3369 873.966 12.5782 874.298 12.8565C874.331 12.8843 874.367 12.9145 874.397 12.9447C874.402 12.9493 874.404 12.9609 874.404 12.9702C874.404 12.9818 874.397 12.9864 874.386 12.9864C874.331 12.9887 874.277 12.9887 874.22 12.9887H865.852ZM873.884 22.671H874.028C874.04 22.6627 874.051 22.6568 874.06 22.6515L874.071 22.6455C874.383 22.3973 874.675 22.1305 874.942 21.8382C875.089 21.6782 875.226 21.5088 875.345 21.3279C875.404 21.2374 875.461 21.1446 875.506 21.0472C875.53 20.9939 875.518 20.9707 875.463 20.9683C875.414 20.966 875.364 20.966 875.314 20.966H872.254H860.971H860.822C860.807 20.966 860.791 20.9683 860.777 20.9707C860.758 20.973 860.739 20.9915 860.739 21.0101L860.739 21.0102C860.736 21.0542 860.734 21.0983 860.734 21.1423V22.4924L860.734 22.5391C860.733 22.6066 860.733 22.6402 860.749 22.6566C860.766 22.6728 860.799 22.6723 860.864 22.6715C860.881 22.6713 860.9 22.671 860.921 22.671H873.884ZM874.023 24.1976C874.048 24.2185 874.073 24.2389 874.097 24.259C874.127 24.2836 874.156 24.3079 874.186 24.3321C874.484 24.5803 874.766 24.8424 875.02 25.1347C875.152 25.2878 875.278 25.4456 875.382 25.6195C875.427 25.6961 875.467 25.775 875.508 25.8538C875.511 25.8616 875.509 25.8716 875.506 25.8829C875.505 25.8884 875.504 25.8942 875.503 25.9002H875.335H872.379H860.949C860.89 25.9002 860.828 25.8979 860.769 25.8956C860.75 25.8956 860.733 25.877 860.731 25.8562C860.729 25.8214 860.729 25.7889 860.729 25.7541V24.346C860.729 24.3287 860.729 24.3119 860.73 24.2952L860.73 24.295L860.73 24.2948C860.73 24.2781 860.731 24.2613 860.731 24.244C860.731 24.2208 860.755 24.1999 860.781 24.1976C860.8 24.1953 860.821 24.1953 860.84 24.1953H860.989H873.8L873.835 24.1941C873.901 24.1919 873.964 24.1897 874.023 24.1976ZM855.364 14.5126H849.545C847.709 14.5126 845.874 14.5126 844.043 14.5149H843.652C843.619 14.5149 843.588 14.517 843.554 14.5191L843.548 14.5195C843.531 14.5195 843.513 14.5404 843.513 14.559C843.51 14.6077 843.508 14.6564 843.508 14.7051V16.025V16.1271C843.508 16.2036 843.517 16.2129 843.591 16.2152H843.74H855.35H855.499C855.513 16.2152 855.53 16.2129 855.544 16.2106C855.563 16.2083 855.582 16.1897 855.582 16.1712C855.584 16.134 855.587 16.0946 855.587 16.0552V14.675C855.587 14.6425 855.587 14.6077 855.584 14.5729C855.582 14.5381 855.563 14.5149 855.53 14.5149C855.473 14.5126 855.419 14.5126 855.364 14.5126ZM849.624 32.3536H843.804C843.752 32.3536 843.7 32.3515 843.645 32.3492L843.639 32.349C843.62 32.349 843.601 32.3304 843.601 32.3118C843.598 32.2887 843.596 32.2631 843.596 32.2399V30.7739C843.596 30.7611 843.597 30.749 843.597 30.7368C843.598 30.7246 843.598 30.7124 843.598 30.6997C843.601 30.6811 843.617 30.6625 843.634 30.6602C843.648 30.6579 843.662 30.6556 843.679 30.6556H843.814H855.452C855.512 30.6556 855.573 30.6579 855.632 30.6602C855.651 30.6602 855.67 30.6811 855.673 30.6973L855.673 30.7034C855.675 30.7313 855.677 30.7574 855.677 30.7855V32.2237V32.2237C855.677 32.2492 855.677 32.2724 855.675 32.2979C855.673 32.3327 855.654 32.3536 855.62 32.3559C855.575 32.3582 855.53 32.3582 855.485 32.3582H853.55C852.243 32.3536 850.933 32.3536 849.624 32.3536ZM843.821 35.5613H849.64C851.57 35.5613 853.498 35.5613 855.431 35.559H855.566C855.585 35.559 855.606 35.559 855.625 35.5567C855.656 35.5544 855.675 35.5335 855.677 35.4987C855.679 35.4686 855.679 35.4407 855.679 35.4106V35.4106V34.0304V34.0303C855.679 33.9955 855.679 33.9631 855.677 33.9283C855.677 33.9051 855.653 33.8819 855.63 33.8819L855.623 33.8816C855.568 33.8794 855.516 33.8773 855.464 33.8773H843.809H843.704C843.697 33.8773 843.69 33.8778 843.682 33.8784C843.674 33.879 843.667 33.8796 843.659 33.8796C843.622 33.8819 843.603 33.9005 843.6 33.9329C843.598 33.9584 843.598 33.9816 843.598 34.0072V35.4314C843.598 35.4596 843.6 35.4857 843.602 35.5136L843.603 35.5196C843.603 35.5382 843.622 35.5567 843.641 35.5567C843.7 35.559 843.761 35.5613 843.821 35.5613ZM889.418 16.2102L889.411 16.2113C889.398 16.2133 889.386 16.2154 889.373 16.2154C889.343 16.217 889.313 16.2164 889.283 16.2159L889.283 16.2159C889.268 16.2157 889.253 16.2154 889.238 16.2154H878.076C878.017 16.2154 877.955 16.2131 877.896 16.2108C877.877 16.2108 877.858 16.1922 877.855 16.1737C877.855 16.1633 877.854 16.1532 877.852 16.1431L877.852 16.1431C877.85 16.124 877.848 16.1052 877.848 16.0855V14.6473C877.848 14.6218 877.848 14.5986 877.851 14.5731C877.853 14.5313 877.872 14.5128 877.917 14.5128C877.962 14.5104 878.007 14.5104 878.052 14.5104H888.644C888.655 14.5104 888.667 14.5102 888.679 14.5101C888.727 14.5093 888.777 14.5086 888.826 14.5197C888.84 14.5499 888.854 14.5823 888.866 14.6125C889.056 15.1321 889.245 15.654 889.432 16.1737C889.435 16.1783 889.432 16.1829 889.43 16.1876C889.432 16.1945 889.432 16.1992 889.43 16.2084L889.418 16.2102ZM893.989 16.177V16.177C893.988 16.1864 893.986 16.1963 893.984 16.2061C894.027 16.2169 894.067 16.2175 894.106 16.218C894.126 16.2182 894.145 16.2185 894.164 16.22H905.201H905.322C905.338 16.22 905.355 16.22 905.367 16.2131C905.379 16.2061 905.393 16.1945 905.395 16.1829C905.402 16.1528 905.402 16.1249 905.402 16.0948V14.6426C905.402 14.6145 905.4 14.5884 905.398 14.5605L905.398 14.5545C905.398 14.5383 905.376 14.5197 905.357 14.5197L905.351 14.5194C905.296 14.5172 905.244 14.5151 905.192 14.5151H894.77C894.757 14.5151 894.744 14.5148 894.73 14.5145C894.703 14.514 894.677 14.5135 894.65 14.5151L894.63 14.5174C894.617 14.5189 894.604 14.5205 894.593 14.522C894.565 14.5553 894.553 14.5923 894.54 14.6296L894.54 14.6297L894.536 14.6426C894.401 15.0184 894.264 15.3965 894.126 15.7747L894.098 15.8522C894.063 15.9509 894.027 16.0488 893.994 16.1481C893.991 16.1567 893.99 16.1665 893.989 16.177ZM887.656 11.3232L887.666 11.3415L887.666 11.3416C887.672 11.3529 887.677 11.3635 887.682 11.3742C887.874 11.8985 888.066 12.4227 888.255 12.947C888.257 12.9501 888.256 12.9532 888.256 12.9562L888.255 12.9583L888.255 12.9609C888.255 12.9637 888.254 12.9666 888.253 12.9706L888.251 12.9757L888.25 12.9794C888.241 12.9806 888.231 12.9823 888.222 12.9841C888.213 12.9858 888.203 12.9876 888.194 12.9887C888.16 12.9903 888.127 12.9898 888.094 12.9892C888.077 12.989 888.061 12.9887 888.044 12.9887H878.087C878.028 12.9887 877.967 12.9887 877.907 12.9864C877.874 12.9864 877.855 12.9655 877.853 12.9284C877.851 12.8936 877.851 12.8611 877.851 12.8263V11.4763C877.851 11.4368 877.853 11.3974 877.855 11.3603C877.858 11.3417 877.874 11.3209 877.893 11.3209C877.907 11.3185 877.924 11.3185 877.938 11.3185H878.073H887.459L887.483 11.3176C887.539 11.3153 887.598 11.313 887.656 11.3232ZM895.157 12.9611C895.158 12.9669 895.159 12.973 895.159 12.9794C895.214 12.9929 895.267 12.9904 895.322 12.9878L895.356 12.9864H905.182H905.317C905.331 12.9864 905.348 12.9841 905.362 12.9817C905.381 12.9817 905.4 12.9632 905.4 12.9446L905.4 12.9444C905.402 12.8957 905.405 12.8471 905.405 12.7985C905.405 12.6577 905.405 12.5168 905.405 12.3757V12.3754V12.3752V12.3749V12.3747V12.3744V12.3741V12.3739V12.3736C905.406 12.0899 905.406 11.8057 905.405 11.5226C905.405 11.494 905.405 11.4693 905.405 11.4479V11.4479V11.4479V11.4479V11.4479V11.4479V11.4479V11.4479V11.4478V11.4478V11.4478V11.4478V11.4478V11.4478V11.4478V11.4478V11.4477V11.4477V11.4477V11.4477V11.4477V11.4477C905.406 11.3802 905.406 11.3464 905.389 11.3297C905.372 11.313 905.338 11.3137 905.269 11.3151C905.246 11.3156 905.219 11.3162 905.187 11.3162H895.945H895.855H895.81C895.751 11.3185 895.739 11.3255 895.72 11.3742C895.708 11.402 895.699 11.4298 895.69 11.4576L895.689 11.4577C895.539 11.8733 895.388 12.2912 895.237 12.7091L895.237 12.7093L895.235 12.715L895.157 12.9377C895.154 12.9446 895.155 12.9525 895.157 12.9611ZM885.974 19.4419H881.519C881.467 19.4419 881.415 19.4398 881.361 19.4376L881.361 19.4375L881.361 19.4375L881.361 19.4375H881.36H881.36H881.36L881.354 19.4373C881.335 19.4373 881.318 19.4164 881.318 19.3978C881.316 19.363 881.316 19.3305 881.316 19.2958V17.8877C881.316 17.8483 881.318 17.8088 881.323 17.7717C881.323 17.7648 881.335 17.7555 881.344 17.7508C881.358 17.7462 881.372 17.7439 881.389 17.7439H881.538H889.816L889.849 17.7442L889.866 17.7444C889.899 17.7449 889.932 17.7454 889.965 17.7439C890.001 17.7439 890.02 17.7624 890.031 17.7926C890.06 17.8668 890.086 17.9387 890.112 18.013C890.271 18.4444 890.429 18.8782 890.586 19.3097C890.598 19.3421 890.607 19.3746 890.616 19.4071C890.621 19.4187 890.605 19.4373 890.593 19.4373C890.538 19.4396 890.484 19.4396 890.427 19.4396C888.944 19.4419 887.459 19.4419 885.974 19.4419ZM892.822 19.4222L892.823 19.4257L892.825 19.4313L892.826 19.4351C892.862 19.4425 892.9 19.4433 892.937 19.4441H892.937C892.959 19.4445 892.98 19.445 893.001 19.4467H901.816H901.892L901.91 19.4464C902.03 19.4447 902.032 19.4447 902.032 19.3075V17.8855V17.8854C902.032 17.8553 902.032 17.8275 902.03 17.7974C902.03 17.7696 902.011 17.7487 901.985 17.7487C901.928 17.7464 901.873 17.7464 901.819 17.7464H893.617H893.482L893.475 17.7463C893.452 17.7461 893.43 17.746 893.408 17.7672C893.403 17.782 893.397 17.7975 893.39 17.8136C893.384 17.8278 893.378 17.8425 893.373 17.8577C893.2 18.3402 893.025 18.825 892.849 19.3075C892.838 19.34 892.828 19.3725 892.819 19.4049C892.817 19.4093 892.819 19.4154 892.822 19.4222ZM901.163 32.3536H897.039C896.989 32.3536 896.94 32.3536 896.89 32.3513C896.852 32.3513 896.833 32.3328 896.831 32.3003L896.831 32.291L896.83 32.284L896.83 32.2713C896.829 32.2614 896.828 32.2516 896.828 32.2423V30.76C896.828 30.7415 896.831 30.7206 896.831 30.702C896.833 30.6765 896.852 30.6556 896.88 30.6556C896.935 30.6533 896.989 30.6533 897.046 30.6533H900.286H905.265C905.297 30.6533 905.325 30.6528 905.349 30.6524H905.349H905.349H905.349H905.349H905.349H905.349C905.426 30.651 905.464 30.6503 905.482 30.6688C905.5 30.687 905.499 30.7236 905.498 30.7959V30.7959V30.796V30.796V30.7961V30.7962C905.497 30.819 905.497 30.8455 905.497 30.876C905.498 31.1619 905.498 31.4468 905.497 31.7321V31.7323V31.7326V31.7328V31.7331V31.7333V31.7336V31.7339V31.7341V31.7344V31.7346V31.7349V31.7351V31.7354V31.7357V31.7359V31.7362V31.7364V31.7367V31.7369C905.497 31.8805 905.497 32.0242 905.497 32.1681C905.497 32.2168 905.494 32.2655 905.492 32.3142C905.492 32.3328 905.471 32.349 905.452 32.3513C905.438 32.3513 905.421 32.3536 905.407 32.3536H905.272H901.163ZM878.161 32.3535H882.239C883.604 32.3535 884.97 32.3535 886.332 32.3558C886.361 32.3558 886.389 32.3552 886.416 32.3547L886.417 32.3547H886.417H886.417H886.417H886.417H886.417H886.417L886.451 32.354C886.467 32.3537 886.482 32.3535 886.498 32.3535C886.524 32.3535 886.545 32.3326 886.547 32.3094L886.548 32.3033C886.55 32.2755 886.552 32.2494 886.552 32.2213V30.7831C886.552 30.755 886.55 30.7289 886.548 30.7011L886.547 30.6949C886.545 30.6787 886.526 30.6578 886.507 30.6578C886.453 30.6555 886.398 30.6532 886.344 30.6532H878.158C878.113 30.6532 878.068 30.6532 878.023 30.6555C877.967 30.6578 877.95 30.6717 877.948 30.7228C877.945 30.7668 877.945 30.8109 877.945 30.855C877.945 30.9967 877.945 31.1386 877.945 31.2806V31.2809V31.2811V31.2814V31.2816V31.2819V31.2822V31.2824V31.2827V31.2829V31.2832V31.2834V31.2837V31.284V31.2842V31.2845C877.944 31.5713 877.944 31.8586 877.945 32.1447C877.945 32.17 877.945 32.1923 877.945 32.2119C877.944 32.2841 877.943 32.3203 877.961 32.3381C877.979 32.356 878.015 32.3554 878.088 32.3542C878.109 32.3539 878.133 32.3535 878.161 32.3535ZM901.156 35.5617H897.061C897.029 35.5617 897.001 35.5622 896.976 35.5626L896.976 35.5626C896.899 35.564 896.861 35.5647 896.843 35.5462C896.826 35.5283 896.827 35.4926 896.828 35.4226C896.829 35.3989 896.829 35.3712 896.829 35.339C896.828 35.045 896.828 34.751 896.829 34.4577V34.4571V34.4566L896.829 34.2996L896.829 34.0191C896.829 33.8822 896.829 33.8799 896.969 33.8799H897.073H905.249L905.274 33.8798L905.297 33.8796L905.34 33.8789C905.422 33.8774 905.462 33.8767 905.481 33.8964C905.5 33.9152 905.499 33.9528 905.498 34.0263C905.498 34.0523 905.497 34.0829 905.498 34.1188C905.499 34.4083 905.499 34.6967 905.498 34.9854V34.9857V34.9859V34.9862V34.9865V34.9867V34.987V34.9872V34.9875V34.9878V34.988V34.9883V34.9885V34.9888V34.989C905.498 35.1341 905.498 35.2793 905.498 35.4248V35.4315C905.498 35.4962 905.498 35.5287 905.481 35.5451C905.465 35.5617 905.432 35.5617 905.365 35.5617H905.358H905.237H901.156ZM878.177 35.5617H882.242C883.606 35.5617 884.97 35.5617 886.337 35.5594C886.394 35.5594 886.448 35.5594 886.503 35.5571C886.529 35.5548 886.552 35.5339 886.552 35.5107L886.552 35.4956L886.553 35.4731L886.553 35.4446C886.554 35.4226 886.555 35.4005 886.555 35.3785C886.555 35.2346 886.555 35.0907 886.555 34.9469V34.9466V34.9463V34.9461V34.9458V34.9456V34.9453V34.9451V34.9448V34.9445V34.9443V34.944V34.9438V34.9435V34.9433V34.943V34.9427C886.556 34.6567 886.556 34.3711 886.555 34.0864L886.554 34.0472L886.555 34.0187V34.0185V34.0183V34.0182V34.018V34.0178C886.555 33.9487 886.555 33.9128 886.537 33.8942C886.518 33.8741 886.477 33.8744 886.393 33.8751L886.374 33.8752L886.337 33.8753H878.163H878.163C878.118 33.8753 878.073 33.8753 878.028 33.8777C877.964 33.88 877.95 33.8962 877.948 33.9565C877.945 34.0006 877.945 34.0447 877.945 34.0887C877.945 34.2281 877.945 34.3672 877.945 34.5061V34.5066V34.5071V34.5077V34.5082V34.5087V34.5092V34.5097V34.5102V34.5107V34.5112V34.5117V34.5122V34.5127V34.5133V34.5138V34.5143C877.944 34.7889 877.944 35.0628 877.945 35.3367C877.946 35.3674 877.945 35.3939 877.945 35.4169V35.417C877.944 35.49 877.944 35.527 877.962 35.5454C877.981 35.5644 878.02 35.5638 878.098 35.5625L878.136 35.562L878.177 35.5617ZM888.103 25.8933C888.084 25.8493 888.07 25.8121 888.056 25.775C887.877 25.2948 887.7 24.8146 887.523 24.3344L887.523 24.334L887.523 24.3335L887.523 24.3331L887.523 24.3327L887.523 24.3322L887.522 24.3318L887.522 24.3314L887.522 24.331L887.522 24.3305L887.522 24.3301L887.522 24.3297L887.521 24.3292L887.521 24.3288L887.521 24.3284L887.521 24.328L887.521 24.3275L887.492 24.244C887.483 24.2162 887.499 24.1953 887.528 24.1953C887.568 24.193 887.608 24.193 887.649 24.193H887.649H895.744C895.789 24.193 895.834 24.1953 895.879 24.1976L895.879 24.1976C895.898 24.1976 895.912 24.2208 895.905 24.2394C895.9 24.2533 895.896 24.2672 895.892 24.2811C895.888 24.2951 895.884 24.309 895.879 24.3229C895.79 24.5665 895.701 24.8106 895.613 25.0548C895.524 25.2989 895.435 25.5431 895.346 25.7866C895.337 25.8145 895.325 25.8423 895.313 25.8678C895.306 25.8794 895.292 25.8887 895.28 25.8933C895.266 25.898 895.251 25.898 895.235 25.898H895.114H888.293C888.278 25.898 888.262 25.8983 888.247 25.8985C888.201 25.8994 888.155 25.9003 888.103 25.8933ZM889.253 29.0059L889.253 29.0059C889.266 29.046 889.279 29.0861 889.312 29.1221C889.352 29.1221 889.397 29.1244 889.442 29.1268L889.442 29.1268H893.987C894.02 29.1268 894.056 29.1268 894.091 29.1244C894.115 29.1221 894.129 29.1105 894.139 29.092C894.151 29.0664 894.162 29.0386 894.172 29.0108C894.261 28.7672 894.349 28.5231 894.438 28.2789C894.527 28.0348 894.616 27.7906 894.705 27.5471C894.714 27.5192 894.724 27.4914 894.731 27.4635C894.736 27.445 894.719 27.4241 894.698 27.4241C894.648 27.4218 894.598 27.4195 894.548 27.4195H888.878H888.758C888.743 27.4195 888.727 27.4218 888.713 27.4241C888.701 27.4241 888.684 27.4427 888.687 27.4543C888.694 27.4821 888.701 27.5099 888.71 27.5378C888.728 27.5865 888.746 27.6346 888.764 27.6828C888.781 27.7309 888.799 27.779 888.817 27.8277C888.888 28.0179 888.958 28.2087 889.029 28.3995C889.099 28.5903 889.17 28.7811 889.241 28.9713L889.245 28.9822L889.248 28.9918L889.253 29.0059ZM876.232 19.4328C876.223 19.4337 876.215 19.4349 876.207 19.4361C876.194 19.438 876.182 19.4398 876.168 19.4398C876.142 19.4413 876.115 19.4408 876.088 19.4403L876.062 19.4399L876.048 19.4398H871.218C871.169 19.4398 871.119 19.4375 871.069 19.4352L871.069 19.4351C871.05 19.4351 871.034 19.4143 871.031 19.3957L871.031 19.3896C871.029 19.3618 871.027 19.3357 871.027 19.3076V17.8694C871.027 17.8346 871.029 17.8021 871.034 17.7673C871.034 17.7603 871.045 17.7511 871.053 17.7464C871.062 17.7418 871.072 17.7395 871.081 17.7395C871.104 17.7395 871.126 17.7389 871.149 17.7383C871.171 17.7377 871.194 17.7371 871.216 17.7371H876.374H876.495C876.547 17.7395 876.564 17.7534 876.562 17.809C876.562 17.8833 876.559 17.9552 876.552 18.0294C876.509 18.4702 876.41 18.897 876.268 19.3168C876.261 19.3609 876.247 19.398 876.232 19.4328ZM876.248 27.4818L876.231 27.4358C876.167 27.4143 876.115 27.4167 876.067 27.419L876.055 27.4195H871.224C871.208 27.4195 871.191 27.4201 871.174 27.4207H871.174H871.174H871.173H871.173L871.173 27.4207C871.156 27.4213 871.138 27.4219 871.12 27.4219C871.103 27.4219 871.089 27.4242 871.075 27.4265C871.058 27.4288 871.034 27.4497 871.034 27.4659L871.034 27.4661C871.032 27.5101 871.03 27.5542 871.03 27.5982C871.03 27.7441 871.029 27.8904 871.029 28.0368C871.029 28.3301 871.028 28.6241 871.03 28.9181C871.03 28.9439 871.029 28.9665 871.029 28.9865C871.028 29.0597 871.027 29.0958 871.045 29.1132C871.062 29.13 871.097 29.1293 871.165 29.1279H871.165H871.165H871.165H871.165H871.165C871.188 29.1274 871.214 29.1268 871.245 29.1268H876.347H876.496C876.501 29.1261 876.506 29.1256 876.511 29.1252L876.511 29.1251L876.511 29.1251C876.521 29.1241 876.531 29.1231 876.541 29.1199C876.548 29.1152 876.558 29.106 876.56 29.099C876.565 29.0758 876.567 29.0503 876.567 29.0271C876.569 28.8786 876.548 28.7325 876.527 28.5887C876.479 28.2546 876.396 27.9276 876.292 27.6051C876.278 27.5643 876.263 27.5235 876.248 27.4818ZM846.985 17.7508C846.994 17.7499 847.003 17.7486 847.011 17.7474C847.023 17.7456 847.035 17.7439 847.046 17.7439H847.167H852.01C852.035 17.7439 852.06 17.7445 852.085 17.745L852.085 17.745C852.11 17.7456 852.135 17.7462 852.16 17.7462C852.186 17.7462 852.205 17.7671 852.205 17.7949C852.207 17.8204 852.207 17.8436 852.207 17.8691V19.3213C852.207 19.3514 852.205 19.3793 852.2 19.4094C852.198 19.421 852.183 19.4326 852.172 19.4396C852.162 19.4451 852.15 19.4448 852.137 19.4444L852.127 19.4442H852.006H847.162C847.117 19.4442 847.072 19.4442 847.027 19.4419C846.987 19.4396 846.968 19.4326 846.966 19.3769C846.963 19.3329 846.963 19.2888 846.963 19.2447V19.2447V17.9387V17.9387C846.963 17.8947 846.963 17.8506 846.966 17.8065C846.968 17.7972 846.972 17.788 846.975 17.7787C846.979 17.7694 846.982 17.7601 846.985 17.7508ZM847.165 22.671H849.595C850.204 22.671 850.815 22.671 851.431 22.6687H852.075C852.111 22.6687 852.144 22.6687 852.179 22.664C852.194 22.6617 852.205 22.6501 852.208 22.6339L852.208 22.6278C852.211 22.6 852.213 22.5739 852.213 22.5457V21.0936C852.213 21.0655 852.211 21.0394 852.208 21.0115L852.208 21.0055C852.208 20.9892 852.187 20.9707 852.168 20.9707L852.168 20.9707C852.118 20.9683 852.068 20.966 852.018 20.966H847.173C847.132 20.966 847.092 20.966 847.052 20.9683C847.04 20.9683 847.03 20.9705 847.02 20.9727C847.016 20.9736 847.011 20.9746 847.007 20.9753C846.988 20.9776 846.981 20.9915 846.978 21.0055C846.974 21.0356 846.971 21.0635 846.971 21.0936V22.5457C846.971 22.5739 846.973 22.6 846.975 22.6278L846.976 22.6339C846.976 22.6501 846.997 22.6687 847.016 22.6687C847.066 22.671 847.116 22.671 847.165 22.671ZM849.588 25.898H847.16C847.135 25.898 847.11 25.8974 847.085 25.8968C847.061 25.8962 847.036 25.8956 847.011 25.8956C846.992 25.8956 846.975 25.8771 846.973 25.8562L846.973 25.8502C846.97 25.8223 846.968 25.7962 846.968 25.7681V24.3322C846.968 24.2631 846.968 24.2283 846.986 24.2108C847.003 24.193 847.039 24.193 847.11 24.193H847.186H851.996C852.051 24.193 852.105 24.1953 852.16 24.1976L852.16 24.1976C852.186 24.1976 852.205 24.2185 852.205 24.2463C852.207 24.2811 852.207 24.3136 852.207 24.3484V25.7565C852.207 25.7959 852.203 25.8353 852.198 25.8724C852.198 25.8794 852.186 25.8887 852.179 25.8933C852.169 25.898 852.16 25.898 852.15 25.898C852.126 25.898 852.101 25.8985 852.076 25.8991C852.051 25.8997 852.026 25.9003 852.001 25.9003C851.196 25.898 850.391 25.898 849.588 25.898ZM881.505 25.898H883.935C884.74 25.898 885.543 25.898 886.358 25.9003C886.383 25.9003 886.407 25.8997 886.432 25.8991C886.457 25.8985 886.482 25.898 886.507 25.898C886.533 25.898 886.554 25.8771 886.557 25.8539L886.557 25.8357L886.558 25.8098L886.559 25.7857L886.559 25.777L886.559 25.7657V24.3275C886.559 24.2974 886.557 24.2695 886.554 24.2394C886.552 24.2231 886.533 24.2023 886.516 24.1999L886.487 24.1982L886.471 24.1971C886.441 24.1951 886.411 24.193 886.381 24.193H881.491H881.49C881.45 24.193 881.41 24.193 881.37 24.1953C881.344 24.1976 881.32 24.2185 881.32 24.2417C881.32 24.2591 881.319 24.2759 881.319 24.2927C881.318 24.3096 881.318 24.3264 881.318 24.3438V25.7518C881.318 25.7866 881.318 25.8191 881.32 25.8539C881.32 25.8748 881.337 25.8933 881.356 25.8933C881.405 25.8956 881.455 25.898 881.505 25.898ZM849.579 29.1245H847.165C847.12 29.1245 847.075 29.1245 847.03 29.1222C846.99 29.1199 846.971 29.1129 846.969 29.0572C846.966 29.0132 846.966 28.9691 846.966 28.925V27.6214C846.966 27.5773 846.966 27.5332 846.969 27.4891C846.969 27.4752 846.973 27.4613 846.98 27.4474C846.985 27.4404 846.992 27.4311 847.002 27.4288C847.016 27.4242 847.03 27.4195 847.044 27.4195C847.089 27.4172 847.134 27.4172 847.179 27.4172H851.99C852.012 27.4172 852.032 27.417 852.05 27.4168H852.05C852.132 27.4161 852.172 27.4157 852.191 27.4354C852.209 27.4543 852.209 27.4918 852.208 27.5652C852.208 27.5832 852.208 27.6034 852.208 27.626V28.9297C852.208 28.9737 852.208 29.0178 852.205 29.0619C852.203 29.106 852.186 29.1222 852.139 29.1222H852.004C851.196 29.1245 850.389 29.1245 849.579 29.1245ZM881.505 29.1243H883.92C884.73 29.1243 885.54 29.1243 886.35 29.1219H886.485C886.53 29.1219 886.547 29.1057 886.549 29.0616V29.0176V27.5353C886.549 27.5098 886.547 27.4842 886.545 27.461C886.545 27.4448 886.523 27.4216 886.507 27.4216C886.485 27.4208 886.464 27.4197 886.444 27.4187C886.404 27.4166 886.365 27.4146 886.327 27.4146H881.542H881.452C881.315 27.417 881.313 27.4193 881.313 27.5561V28.6998V28.9944C881.313 29.0225 881.315 29.0485 881.317 29.0764L881.317 29.0825C881.317 29.1011 881.336 29.1196 881.355 29.1196C881.405 29.1219 881.455 29.1243 881.505 29.1243ZM863.353 17.7438H865.767L865.809 17.7436C865.874 17.743 865.907 17.7428 865.924 17.759C865.94 17.7755 865.94 17.8088 865.94 17.8758L865.94 17.9062V19.2841C865.94 19.3235 865.937 19.3629 865.935 19.4001C865.935 19.4186 865.916 19.4348 865.895 19.4372C865.88 19.4395 865.864 19.4395 865.85 19.4395H865.729H860.933C860.907 19.4395 860.884 19.4398 860.865 19.4402C860.797 19.4412 860.763 19.4418 860.746 19.4251C860.73 19.4085 860.73 19.375 860.731 19.3081C860.731 19.2902 860.731 19.2699 860.731 19.247V17.927C860.731 17.8783 860.734 17.8296 860.736 17.7809C860.736 17.7623 860.755 17.7461 860.774 17.7438C860.788 17.7415 860.805 17.7415 860.819 17.7415H860.954C861.755 17.7438 862.553 17.7438 863.353 17.7438ZM897.025 25.8976H899.424C900.22 25.8976 901.013 25.8976 901.812 25.9022H901.947C901.961 25.9022 901.977 25.9022 901.992 25.8999C902.013 25.8976 902.029 25.8813 902.032 25.8628L902.032 25.8566L902.032 25.8565C902.035 25.8287 902.037 25.8027 902.037 25.7746V24.3364V24.3363C902.037 24.3062 902.037 24.2784 902.034 24.2483C902.032 24.2228 902.011 24.1996 901.987 24.1996L901.98 24.1993C901.926 24.1971 901.873 24.1949 901.821 24.1949H897.051H896.916C896.902 24.1949 896.885 24.1972 896.871 24.1996C896.854 24.2019 896.833 24.2181 896.833 24.2367C896.831 24.2738 896.828 24.3132 896.828 24.3527V25.7468V25.8349C896.828 25.8813 896.843 25.8953 896.89 25.8976H897.025ZM863.339 29.1243H860.925C860.876 29.1243 860.826 29.122 860.776 29.1197C860.757 29.1197 860.738 29.1012 860.738 29.0826L860.738 29.0766C860.736 29.0487 860.734 29.0226 860.734 28.9944V28.7022V27.5586C860.734 27.4217 860.736 27.4194 860.873 27.4171H860.963H865.717C865.756 27.4171 865.794 27.4191 865.834 27.4211L865.862 27.4225L865.897 27.424C865.913 27.424 865.935 27.4472 865.935 27.4635L865.935 27.4695C865.937 27.4973 865.939 27.5235 865.939 27.5516V29.0037C865.939 29.0339 865.937 29.0617 865.932 29.0919C865.93 29.1058 865.92 29.1197 865.901 29.1197C865.861 29.122 865.821 29.1243 865.783 29.1243H864.627H863.339ZM897.004 29.1243H899.434H901.834C901.883 29.1243 901.933 29.1243 901.983 29.1219C902.007 29.1196 902.028 29.0987 902.028 29.0732L902.028 29.0467C902.028 29.0244 902.029 29.0019 902.029 28.9793L902.029 28.9781C902.03 28.9462 902.03 28.9143 902.03 28.883V27.5909C902.03 27.5469 902.028 27.5029 902.026 27.4589L902.026 27.4587C902.026 27.4448 901.999 27.4193 901.985 27.4193C901.926 27.417 901.864 27.4146 901.805 27.4146H897.052H896.962C896.894 27.4158 896.859 27.4164 896.842 27.4338C896.824 27.4516 896.824 27.487 896.824 27.5585V28.9967V28.9968C896.824 29.0223 896.824 29.0454 896.827 29.0709C896.828 29.074 896.828 29.0774 896.829 29.0807C896.83 29.0874 896.831 29.0941 896.834 29.0987C896.839 29.1057 896.848 29.1173 896.855 29.1173C896.905 29.1219 896.955 29.1243 897.004 29.1243ZM892.945 32.3489L892.933 32.3498L892.933 32.3498C892.91 32.3518 892.889 32.3535 892.867 32.3535H890.588C890.569 32.3535 890.548 32.3535 890.529 32.3512C890.508 32.3489 890.493 32.335 890.484 32.3187C890.467 32.2839 890.453 32.2468 890.439 32.2097C890.393 32.0869 890.348 31.9637 890.302 31.8404L890.3 31.8353L890.3 31.8345C890.227 31.6383 890.154 31.4415 890.081 31.2447C890.053 31.1693 890.025 31.0933 889.997 31.0174C889.969 30.9414 889.941 30.8654 889.913 30.79C889.91 30.7808 889.907 30.7715 889.903 30.7623C889.901 30.7553 889.899 30.7483 889.896 30.7413C889.891 30.7251 889.886 30.7088 889.88 30.6926C889.875 30.681 889.889 30.6601 889.901 30.6578C889.915 30.6555 889.93 30.6532 889.946 30.6532H890.05H893.364C893.414 30.6532 893.463 30.6555 893.513 30.6578C893.539 30.6578 893.556 30.6833 893.546 30.7112C893.542 30.7251 893.537 30.739 893.533 30.7529C893.524 30.7808 893.515 30.8086 893.504 30.8364C893.442 31.0046 893.381 31.1722 893.32 31.3398C893.259 31.5074 893.198 31.675 893.137 31.8432C893.11 31.914 893.084 31.9853 893.058 32.0567C893.032 32.128 893.006 32.1993 892.98 32.27C892.974 32.2918 892.963 32.3137 892.951 32.3369C892.949 32.3409 892.947 32.3448 892.945 32.3489ZM892.367 33.9655C892.374 33.9423 892.381 33.9191 892.371 33.8936C892.346 33.8782 892.317 33.8788 892.286 33.8794C892.28 33.8796 892.274 33.8797 892.267 33.8797H891.173C891.157 33.8797 891.14 33.8819 891.123 33.884C891.115 33.8849 891.107 33.8859 891.1 33.8867C891.088 33.889 891.074 33.9075 891.076 33.9191C891.082 33.9354 891.087 33.9516 891.092 33.9678C891.098 33.9841 891.103 34.0003 891.109 34.0166C891.284 34.4854 891.458 34.9565 891.633 35.4276L891.635 35.4339C891.647 35.4664 891.659 35.4965 891.673 35.529C891.675 35.536 891.685 35.5429 891.692 35.5499C891.72 35.5707 891.782 35.5568 891.796 35.5244C891.808 35.4999 891.817 35.4743 891.826 35.4484C891.83 35.4374 891.834 35.4264 891.839 35.4153C891.894 35.2633 891.949 35.1112 892.004 34.9591C892.059 34.8073 892.114 34.6555 892.17 34.5037C892.203 34.4144 892.236 34.3245 892.268 34.2346C892.301 34.1447 892.334 34.0548 892.367 33.9655Z" fill="white"/>
<path d="M961.501 12.3857C961.501 12.3857 965.067 26.9989 965.636 29.3709C966.3 32.1394 967.497 33.1583 970.948 32.4711L973.175 23.411C973.739 21.1606 974.118 19.5561 974.481 17.2669H974.545C974.799 19.5786 975.162 21.1673 975.627 23.4189C975.627 23.4189 976.533 27.5319 976.998 29.6923C977.463 31.8518 978.758 33.2129 982.139 32.4719L987.444 12.3873H983.161L981.349 21.0708C980.862 23.5984 980.42 25.5735 980.079 27.8858H980.019C979.709 25.5965 979.316 23.6997 978.82 21.2371L976.934 12.3873H972.471L970.453 21.0141C969.882 23.6355 969.347 25.7524 969.007 27.9863H968.946C968.598 25.8825 968.134 23.2221 967.632 20.6845C967.632 20.6845 966.433 14.5141 966.012 12.3873L961.501 12.3878L961.501 12.3857ZM1002.34 12.3857V32.4704H1006.42V28.2055V12.3848H1002.34V12.3857ZM1059.78 12.3857V27.2025C1059.78 29.2454 1060.17 30.6766 1060.99 31.551C1061.71 32.3157 1062.89 32.8109 1064.31 32.8109C1065.52 32.8109 1066.7 32.5822 1067.26 32.3739L1067.21 29.1866C1066.79 29.289 1066.31 29.3709 1065.66 29.3709C1064.27 29.3709 1063.8 28.4811 1063.8 26.6469V20.978H1067.36V17.1352H1063.8V12.3858H1059.78L1059.78 12.3857ZM993.224 17.0418C990.689 17.0418 988.677 17.7535 987.58 18.3873L988.383 21.1358C989.387 20.503 990.985 19.9791 992.498 19.9791C995.004 19.9727 995.413 21.3958 995.413 22.3086V22.5244C989.954 22.5162 986.505 24.4054 986.505 28.2563C986.505 30.6075 988.261 32.8109 991.313 32.8109C993.193 32.8109 994.764 32.0614 995.706 30.8606H995.798C995.798 30.8606 996.422 33.4684 999.858 32.4712C999.678 31.3858 999.619 30.2286 999.619 28.8348V23.4693C999.619 20.0496 998.159 17.0418 993.224 17.0418L993.224 17.0418ZM1017.62 17.0418C1015.07 17.0418 1013.92 18.3352 1013.23 19.4326H1013.17V17.3824H1009.27V32.4713H1013.37V23.6223C1013.37 23.2074 1013.42 22.7688 1013.57 22.3871C1013.91 21.4962 1014.74 20.454 1016.06 20.454C1017.71 20.454 1018.49 21.8528 1018.49 23.8714V32.4712H1022.58V23.5151C1022.58 23.1191 1022.64 22.6421 1022.75 22.2919C1023.09 21.2785 1023.98 20.4539 1025.21 20.4539C1026.89 20.4539 1027.7 21.8283 1027.7 24.2036V32.4712H1031.8V23.5843C1031.8 18.8975 1029.42 17.0418 1026.73 17.0418C1025.54 17.0418 1024.6 17.3402 1023.75 17.8614C1023.04 18.2993 1022.4 18.9215 1021.84 19.7408H1021.78C1021.13 18.1146 1019.61 17.0418 1017.62 17.0418L1017.62 17.0418ZM1040.14 17.0418C1037.6 17.0418 1035.59 17.7535 1034.49 18.3873L1035.3 21.1358C1036.3 20.503 1037.9 19.9791 1039.41 19.9791C1041.92 19.9727 1042.33 21.3958 1042.33 22.3086V22.5244C1036.87 22.5162 1033.42 24.4054 1033.42 28.2563C1033.42 30.6075 1035.18 32.8109 1038.23 32.8109C1040.11 32.8109 1041.68 32.0614 1042.62 30.8606H1042.71C1042.71 30.8606 1043.34 33.4684 1046.77 32.4712C1046.59 31.3858 1046.53 30.2286 1046.53 28.8348V23.4693C1046.53 20.0496 1045.07 17.0418 1040.14 17.0418L1040.14 17.0418ZM1057.17 17.0418C1055.6 17.0418 1053.81 18.0553 1053.06 20.2279H1052.94V17.3822H1049.25V32.4711H1053.46V24.7446C1053.46 24.3278 1053.49 23.9644 1053.55 23.6311C1053.86 22.0126 1055.1 20.978 1056.88 20.978C1057.37 20.978 1057.72 21.0308 1058.09 21.0853V17.1351C1057.78 17.0711 1057.56 17.0416 1057.17 17.0416L1057.17 17.0418ZM995.545 25.1983V27.0806C995.545 27.3591 995.521 27.6464 995.444 27.8975C995.128 28.943 994.045 29.8264 992.691 29.8264C991.562 29.8264 990.666 29.1858 990.666 27.8307C990.666 25.7578 992.948 25.1848 995.545 25.1983H995.545ZM1042.46 25.1983V27.0806C1042.46 27.3591 1042.43 27.6464 1042.36 27.8975C1042.04 28.943 1040.96 29.8264 1039.61 29.8264C1038.48 29.8264 1037.58 29.1858 1037.58 27.8307C1037.58 25.7578 1039.86 25.1848 1042.46 25.1983H1042.46Z" fill="white"/>
<path d="M1089.41 5.12207C1088.09 5.12207 1087.05 5.85739 1087.05 6.75255L1087.84 15.8074C1087.93 16.353 1088.6 16.7738 1089.41 16.7738C1090.22 16.7727 1090.88 16.3523 1090.97 15.8074L1091.78 6.75255C1091.78 5.85746 1090.73 5.12215 1089.41 5.12215L1089.41 5.12207ZM1076.38 12.3855C1075.69 12.4017 1074.92 12.9192 1074.42 13.7757C1073.76 14.9161 1073.88 16.1905 1074.65 16.6376L1082.89 20.4753C1083.41 20.6668 1084.11 20.3012 1084.51 19.6032C1084.51 19.6031 1084.51 19.6029 1084.51 19.6028C1084.92 18.9013 1084.89 18.1127 1084.46 17.7628L1077.02 12.5425C1076.82 12.4306 1076.61 12.3802 1076.38 12.3856L1076.38 12.3855ZM1102.44 12.3855C1102.21 12.3801 1102 12.4304 1101.8 12.5424L1094.36 17.7627C1093.93 18.1125 1093.9 18.9013 1094.31 19.6027L1094.31 19.6031C1094.71 20.3011 1095.41 20.6667 1095.92 20.4752L1104.17 16.6377C1104.94 16.1906 1105.06 14.9162 1104.4 13.7758C1103.9 12.9193 1103.13 12.4018 1102.44 12.3855L1102.44 12.3855ZM1083.2 24.3321C1083.09 24.3307 1082.99 24.3471 1082.89 24.3835L1074.65 28.2166C1073.88 28.6657 1073.76 29.9406 1074.42 31.0822C1075.08 32.2204 1076.24 32.7615 1077.02 32.3151L1084.46 27.0989C1084.89 26.7447 1084.92 25.9563 1084.51 25.2555L1084.52 25.257C1084.19 24.6862 1083.66 24.3383 1083.2 24.332L1083.2 24.3321ZM1095.62 24.3321C1095.16 24.3384 1094.63 24.6864 1094.31 25.2572L1094.31 25.2556C1093.9 25.9564 1093.93 26.7449 1094.36 27.099L1101.8 32.3152C1102.58 32.7616 1103.74 32.2205 1104.4 31.0823C1105.06 29.9407 1104.94 28.6657 1104.17 28.2167L1095.93 24.3837C1095.83 24.3473 1095.73 24.3308 1095.62 24.3322L1095.62 24.3321ZM1089.41 28.0848C1088.6 28.0858 1087.93 28.5048 1087.85 29.0489L1087.05 38.1034C1087.05 39.0001 1088.09 39.7339 1089.41 39.7339C1090.73 39.7339 1091.78 39.0001 1091.78 38.1034L1090.98 29.0489C1090.89 28.5048 1090.22 28.0858 1089.41 28.0848H1089.41H1089.41Z" fill="white"/>
</g>
</svg>
