<svg width="196" height="26" viewBox="0 0 196 26" fill="none" xmlns="http://www.w3.org/2000/svg">
<path d="M134.715 10.1675C134.715 6.97484 132.751 4.6499 128.985 4.6499H116.82V21.2028H120.815V15.5542H125.547L130.18 21.2028H134.683V20.8426L130.18 15.4559C133.013 14.8829 134.715 12.8199 134.715 10.1675ZM128.543 12.2141H120.831V8.08819H128.543C129.967 8.08819 130.884 8.84134 130.884 10.1512C130.884 11.4937 130 12.2141 128.543 12.2141Z" fill="white"/>
<path d="M195.115 4.6499H191.365V10.9371H181.296V4.6499H177.252V21.2192H181.296V14.6864H191.365V21.2192H195.115V4.6499Z" fill="white"/>
<path d="M106.129 4.6499L101.675 18.5832H101.43L96.9598 4.6499H89.8376V21.2192H93.6525V7.61338H93.8817L98.3351 21.2192H104.475L108.945 7.61338H109.174V21.2192H113.103V4.6499H106.129Z" fill="white"/>
<path d="M62.6096 11.4282C61.2015 11.2808 58.5655 11.0352 57.1575 10.8879C55.7658 10.7405 54.9635 10.3312 54.9635 9.41433C54.9635 8.5302 55.8149 7.79342 59.2532 7.79342C62.2985 7.79342 65.0983 8.44833 67.5378 9.62717V5.92692C65.0983 4.76446 62.3968 4.19141 59.0403 4.19141C54.325 4.19141 51.0668 6.15614 51.0668 9.49619C51.0668 12.3123 52.9824 13.8514 56.8136 14.2771C58.2053 14.4244 60.563 14.6373 62.2166 14.7682C64.0177 14.9156 64.5416 15.4723 64.5416 16.2909C64.5416 17.4206 63.2809 18.1083 60.0882 18.1083C56.8464 18.1083 53.5554 17.0441 51.2141 15.5541V19.369C53.097 20.6297 56.3388 21.6939 59.9572 21.6939C65.0983 21.6939 68.4056 19.7128 68.4056 16.1599C68.4383 13.4748 66.67 11.8539 62.6096 11.4282Z" fill="white"/>
<path d="M71.058 4.6499V21.2192H86.4976V17.83H74.8729V14.4736H86.3011V11.1172H74.8729V8.03907H86.4976V4.6499H71.058Z" fill="white"/>
<path d="M168.984 11.4282C167.576 11.2808 164.94 11.0352 163.532 10.8879C162.14 10.7405 161.338 10.3312 161.338 9.41433C161.338 8.5302 162.189 7.79342 165.627 7.79342C168.673 7.79342 171.472 8.44833 173.912 9.62717V5.92692C171.472 4.76446 168.771 4.19141 165.415 4.19141C160.699 4.19141 157.441 6.15614 157.441 9.49619C157.441 12.3123 159.357 13.8514 163.188 14.2771C164.58 14.4244 166.937 14.6373 168.591 14.7682C170.392 14.9156 170.916 15.4723 170.916 16.2909C170.916 17.4206 169.655 18.1083 166.462 18.1083C163.221 18.1083 159.93 17.0441 157.588 15.5541V19.369C159.471 20.6297 162.713 21.6939 166.331 21.6939C171.472 21.6939 174.78 19.7128 174.78 16.1599C174.813 13.4748 173.044 11.8539 168.984 11.4282Z" fill="white"/>
<path d="M150.728 4.6499V13.131C150.728 16.3401 148.78 18.1083 145.849 18.1083C142.902 18.1083 140.97 16.3728 140.97 13.0819V4.6499H136.991V12.7053C136.991 18.7141 140.741 21.694 145.915 21.694C150.875 21.694 154.723 18.8451 154.723 12.9018V4.6499H150.728Z" fill="white"/>
<path d="M37.3791 12.8363C37.3791 13.6385 36.9698 13.7695 35.9547 13.7695C34.8741 13.7695 34.6776 13.5894 34.563 12.7708C34.3501 10.6914 32.9421 8.92317 30.5844 8.7267C29.8312 8.66121 29.6511 8.38287 29.6511 7.44962C29.6511 6.58187 29.7821 6.17254 30.4534 6.17254C34.5466 6.18892 37.3791 9.47985 37.3791 12.8363ZM43.3388 12.8363C43.3388 6.59824 39.1146 0 29.3564 0H9.97103C9.57809 0 9.33249 0.196474 9.33249 0.556675C9.33249 0.753149 9.47985 0.93325 9.61083 1.03149C10.3149 1.58816 11.3627 2.21033 12.738 2.89799C14.0806 3.56927 15.1285 4.01133 16.1763 4.43703C16.6184 4.61713 16.7821 4.8136 16.7821 5.05919C16.7821 5.40302 16.5365 5.61587 16.0617 5.61587H0.671284C0.212846 5.61587 0 5.91058 0 6.20529C0 6.45088 0.0818632 6.66373 0.29471 6.87658C1.53904 8.1864 3.53652 9.75819 6.43451 11.5756C8.97229 13.1637 12.1159 14.8829 14.6209 16.0781C15.0466 16.2746 15.1776 16.5038 15.1776 16.7494C15.1612 17.0277 14.9484 17.2569 14.4572 17.2569H7.4005C7.00756 17.2569 6.77834 17.4698 6.77834 17.7972C6.77834 17.9773 6.92569 18.2065 7.12217 18.3867C8.7267 19.8438 11.2972 21.432 14.7191 22.8892C19.2872 24.8375 23.9207 26 29.1272 26C39 26 43.3388 18.6159 43.3388 12.8363ZM30.4534 22.0542C25.4106 22.0542 21.1864 17.9446 21.1864 12.8199C21.1864 7.77708 25.3942 3.71663 30.4534 3.71663C35.6272 3.71663 39.6877 7.7607 39.6877 12.8199C39.6713 17.9446 35.6272 22.0542 30.4534 22.0542Z" fill="#FF642D"/>
</svg>
