<svg width="196" height="26" viewBox="0 0 196 26" fill="none" xmlns="http://www.w3.org/2000/svg">
<path d="M134.707 10.158C134.707 6.96201 132.744 4.64526 128.981 4.64526H116.821V21.2063H120.82V15.5512H125.551L130.188 21.2047H134.694V20.8396L130.188 15.4562C132.999 14.8766 134.707 12.812 134.707 10.158ZM128.533 12.2062H120.82V8.07536H128.533C129.959 8.07536 130.876 8.83506 130.876 10.1465C130.874 11.4793 129.99 12.2062 128.533 12.2062Z" fill="black"/>
<path d="M195.107 4.64526H191.367V10.9242H181.29V4.64526H177.244V21.2063H181.29V14.6851H191.367V21.2063H195.107V4.64526Z" fill="black"/>
<path d="M106.119 4.64526L101.672 18.5801H101.428L96.9565 4.64526H89.8359V21.2063H93.6443V7.60219H93.8817L98.3285 21.2063H104.463L108.935 7.60219H109.171V21.2063H113.098V4.64526H106.119Z" fill="black"/>
<path d="M62.6063 11.4221C61.1933 11.2747 58.5589 11.0341 57.1459 10.8883C55.7559 10.7459 54.952 10.3333 54.952 9.41479C54.952 8.53394 55.805 7.79061 59.2466 7.79061C62.2837 7.79061 65.0867 8.44061 67.5328 9.62109V5.91593C65.0867 4.74855 62.3983 4.17877 59.0403 4.17877C54.3298 4.17877 51.0684 6.14842 51.0684 9.47865C51.0684 12.298 52.9823 13.8371 56.8218 14.2562C58.2118 14.4085 60.5744 14.6164 62.2231 14.7523C64.0192 14.9013 64.553 15.4498 64.553 16.2684C64.553 17.3916 63.2939 18.0891 60.1045 18.0891C56.8578 18.0891 53.5718 17.0281 51.2337 15.5431V19.3564C53.1117 20.6121 56.3633 21.678 59.985 21.678C65.131 21.678 68.4333 19.6936 68.4333 16.1407C68.4333 13.4671 66.67 11.8445 62.6063 11.4221Z" fill="black"/>
<path d="M71.0518 4.64526V21.2063H86.4995V17.8221H74.8601V14.4624H86.3014V11.1043H74.8601V8.02788H86.4995V4.64526H71.0518Z" fill="black"/>
<path d="M168.98 11.4219C167.567 11.2745 164.933 11.0338 163.52 10.8881C162.13 10.7457 161.326 10.3331 161.326 9.41455C161.326 8.53369 162.179 7.79037 165.621 7.79037C168.658 7.79037 171.461 8.44037 173.907 9.62084V5.91568C171.459 4.74994 168.772 4.17853 165.414 4.17853C160.704 4.17853 157.442 6.14817 157.442 9.4784C157.442 12.2978 159.356 13.8368 163.196 14.256C164.586 14.4082 166.948 14.6162 168.597 14.7521C170.393 14.9011 170.927 15.4496 170.927 16.2682C170.927 17.3914 169.668 18.0889 166.479 18.0889C163.232 18.0889 159.946 17.0279 157.608 15.5429V19.3561C159.486 20.6119 162.737 21.6778 166.359 21.6778C171.505 21.6778 174.807 19.6934 174.807 16.1405C174.807 13.4668 173.046 11.8443 168.98 11.4219Z" fill="black"/>
<path d="M150.723 4.64526V13.1231C150.723 16.3354 148.772 18.0988 145.838 18.0988C142.887 18.0988 140.952 16.3616 140.952 13.074V4.64526H136.977V12.6974C136.977 18.7111 140.734 21.6795 145.895 21.6795C150.861 21.6795 154.695 18.8274 154.695 12.8939V4.64526H150.723Z" fill="black"/>
<path d="M37.3693 12.8297C37.3693 13.6369 36.9649 13.7613 35.9399 13.7613C34.8528 13.7613 34.6661 13.5747 34.5417 12.7675C34.3239 10.6865 32.9257 8.91499 30.5664 8.72997C29.8214 8.66776 29.6348 8.38778 29.6348 7.45617C29.6348 6.58678 29.7592 6.18237 30.4419 6.18237C34.5417 6.18237 37.3693 9.47494 37.3693 12.8297ZM43.3339 12.8297C43.3339 6.58678 39.1097 0 29.3548 0H9.96448C9.57317 0 9.33086 0.20466 9.33086 0.561587C9.33086 0.756423 9.47657 0.931612 9.60919 1.03476C10.3198 1.59307 11.3545 2.20705 12.7429 2.90126C14.0888 3.57418 15.1285 4.01133 16.1845 4.4403C16.62 4.61713 16.7936 4.81033 16.7936 5.06902C16.7936 5.4063 16.5562 5.62078 16.065 5.62078H0.674559C0.219395 5.62078 0 5.91385 0 6.2102C0 6.46234 0.0884131 6.66373 0.302897 6.8864C1.55214 8.18967 3.53816 9.76146 6.44106 11.5772C8.98539 13.1686 12.129 14.8861 14.6225 16.0814C15.0417 16.2827 15.1874 16.5152 15.1776 16.7559C15.1661 17.0343 14.9467 17.27 14.4621 17.27H7.40705C7.00592 17.27 6.78325 17.4812 6.78325 17.8054C6.78325 17.9855 6.92897 18.2147 7.11889 18.3883C8.72342 19.8438 11.289 21.4353 14.7077 22.8908C19.2675 24.8326 23.9092 26 29.1223 26C39.0016 26 43.3339 18.6077 43.3339 12.8297ZM30.4419 21.6825C25.5956 21.6825 21.5581 17.7366 21.5581 12.8297C21.5581 7.98338 25.5956 4.10139 30.4419 4.10139C35.4127 4.10139 39.2947 7.98501 39.2947 12.8297C39.2947 17.7366 35.4127 21.6825 30.4419 21.6825Z" fill="#FF642D"/>
</svg>
