<svg width="46" height="28" viewBox="0 0 46 28" fill="none" xmlns="http://www.w3.org/2000/svg">
<path d="M38.3693 13.8297C38.3693 14.6369 37.9649 14.7613 36.9399 14.7613C35.8528 14.7613 35.6661 14.5747 35.5417 13.7675C35.3239 11.6865 33.9257 9.91499 31.5664 9.72997C30.8214 9.66776 30.6348 9.38778 30.6348 8.45617C30.6348 7.58678 30.7592 7.18237 31.4419 7.18237C35.5417 7.18237 38.3693 10.4749 38.3693 13.8297ZM44.3339 13.8297C44.3339 7.58678 40.1097 1 30.3548 1H10.9645C10.5732 1 10.3309 1.20466 10.3309 1.56159C10.3309 1.75642 10.4766 1.93161 10.6092 2.03476C11.3198 2.59307 12.3545 3.20705 13.7429 3.90126C15.0888 4.57418 16.1285 5.01133 17.1845 5.4403C17.62 5.61713 17.7936 5.81033 17.7936 6.06902C17.7936 6.4063 17.5562 6.62078 17.065 6.62078H1.67456C1.2194 6.62078 1 6.91385 1 7.2102C1 7.46234 1.08841 7.66373 1.3029 7.8864C2.55214 9.18967 4.53816 10.7615 7.44106 12.5772C9.98539 14.1686 13.129 15.8861 15.6225 17.0814C16.0417 17.2827 16.1874 17.5152 16.1776 17.7559C16.1661 18.0343 15.9467 18.27 15.4621 18.27H8.40705C8.00592 18.27 7.78325 18.4812 7.78325 18.8054C7.78325 18.9855 7.92897 19.2147 8.11889 19.3883C9.72342 20.8438 12.289 22.4353 15.7077 23.8908C20.2675 25.8326 24.9092 27 30.1223 27C40.0016 27 44.3339 19.6077 44.3339 13.8297ZM31.4419 22.6825C26.5956 22.6825 22.5581 18.7366 22.5581 13.8297C22.5581 8.98338 26.5956 5.10139 31.4419 5.10139C36.4127 5.10139 40.2947 8.98501 40.2947 13.8297C40.2947 18.7366 36.4127 22.6825 31.4419 22.6825Z" fill="#FF642D"/>
</svg>
