<svg width="454" height="365" viewBox="0 0 454 365" fill="none" xmlns="http://www.w3.org/2000/svg">
<rect x="0.333252" y="0.348877" width="453.333" height="364.556" rx="9.44444" fill="white"/>
<path d="M31.272 94.46V86.2175H33.0147V93.0232H36.5483V94.46H31.272ZM39.433 94.5767C39.0386 94.5767 38.6871 94.5083 38.3785 94.3714C38.07 94.2319 37.8258 94.0266 37.646 93.7557C37.469 93.482 37.3804 93.1412 37.3804 92.7334C37.3804 92.39 37.4435 92.1015 37.5696 91.8681C37.6957 91.6347 37.8674 91.4469 38.0847 91.3047C38.3021 91.1625 38.5489 91.0551 38.8253 90.9827C39.1043 90.9102 39.3968 90.8593 39.7026 90.8298C40.0622 90.7922 40.3519 90.7573 40.5719 90.7251C40.792 90.6902 40.9516 90.6393 41.0509 90.5722C41.1501 90.5051 41.1998 90.4058 41.1998 90.2744V90.2502C41.1998 89.9953 41.1193 89.7981 40.9583 89.6586C40.8 89.5191 40.5746 89.4493 40.2822 89.4493C39.9736 89.4493 39.7281 89.5177 39.5457 89.6546C39.3632 89.7887 39.2425 89.9578 39.1834 90.1617L37.5977 90.0329C37.6782 89.6572 37.8365 89.3326 38.0727 89.0589C38.3088 88.7826 38.6133 88.5706 38.9862 88.423C39.3619 88.2728 39.7965 88.1977 40.2902 88.1977C40.6337 88.1977 40.9623 88.2379 41.2762 88.3184C41.5929 88.3989 41.8732 88.5236 42.1174 88.6927C42.3642 88.8617 42.5588 89.079 42.701 89.3447C42.8432 89.6076 42.9143 89.9229 42.9143 90.2905V94.46H41.2883V93.6027H41.24C41.1408 93.7959 41.0079 93.9663 40.8416 94.1138C40.6752 94.2587 40.4753 94.3728 40.2419 94.4559C40.0085 94.5364 39.7388 94.5767 39.433 94.5767ZM39.924 93.3934C40.1762 93.3934 40.3989 93.3438 40.5921 93.2445C40.7852 93.1426 40.9368 93.0057 41.0468 92.834C41.1569 92.6623 41.2119 92.4678 41.2119 92.2504V91.5944C41.1582 91.6293 41.0844 91.6615 40.9905 91.691C40.8993 91.7179 40.796 91.7433 40.6806 91.7675C40.5652 91.789 40.4499 91.8091 40.3345 91.8279C40.2191 91.844 40.1145 91.8587 40.0206 91.8721C39.8193 91.9016 39.6436 91.9486 39.4933 92.013C39.3431 92.0774 39.2264 92.1646 39.1432 92.2746C39.06 92.3819 39.0184 92.5161 39.0184 92.6771C39.0184 92.9105 39.103 93.0889 39.272 93.2123C39.4437 93.3331 39.661 93.3934 39.924 93.3934ZM45.9589 90.8861V94.46H44.2444V88.2781H45.8784V89.3688H45.9508C46.0877 89.0093 46.3171 88.7249 46.6391 88.5156C46.961 88.3036 47.3514 88.1977 47.8102 88.1977C48.2395 88.1977 48.6138 88.2916 48.9331 88.4794C49.2524 88.6672 49.5006 88.9355 49.6776 89.2843C49.8547 89.6304 49.9433 90.0436 49.9433 90.5239V94.46H48.2288V90.8298C48.2315 90.4514 48.1349 90.1563 47.939 89.9443C47.7431 89.7297 47.4735 89.6224 47.1301 89.6224C46.8993 89.6224 46.6954 89.672 46.5183 89.7713C46.3439 89.8706 46.2071 90.0154 46.1078 90.2059C46.0112 90.3938 45.9616 90.6205 45.9589 90.8861ZM53.5725 94.5606C53.1029 94.5606 52.6777 94.4398 52.2967 94.1984C51.9184 93.9542 51.6178 93.596 51.3952 93.1238C51.1751 92.6489 51.0651 92.0667 51.0651 91.3771C51.0651 90.6688 51.1792 90.0798 51.4072 89.6103C51.6353 89.1381 51.9385 88.7852 52.3168 88.5518C52.6978 88.3157 53.115 88.1977 53.5684 88.1977C53.9146 88.1977 54.203 88.2567 54.4337 88.3747C54.6672 88.4901 54.855 88.635 54.9972 88.8094C55.1421 88.9811 55.2521 89.1501 55.3272 89.3165H55.3795V86.2175H57.09V94.46H55.3997V93.4699H55.3272C55.2467 93.6416 55.1327 93.812 54.9851 93.981C54.8402 94.1474 54.6511 94.2856 54.4176 94.3956C54.1869 94.5056 53.9052 94.5606 53.5725 94.5606ZM54.1158 93.1962C54.3922 93.1962 54.6256 93.1211 54.8161 92.9709C55.0093 92.8179 55.1568 92.6046 55.2588 92.3309C55.3634 92.0573 55.4157 91.7366 55.4157 91.3691C55.4157 91.0015 55.3648 90.6822 55.2628 90.4112C55.1609 90.1402 55.0133 89.9309 54.8201 89.7834C54.6269 89.6358 54.3922 89.562 54.1158 89.562C53.8341 89.562 53.5966 89.6385 53.4034 89.7914C53.2103 89.9443 53.064 90.1563 52.9648 90.4273C52.8655 90.6983 52.8158 91.0122 52.8158 91.3691C52.8158 91.7286 52.8655 92.0465 52.9648 92.3229C53.0667 92.5966 53.2129 92.8112 53.4034 92.9668C53.5966 93.1198 53.8341 93.1962 54.1158 93.1962ZM63.6431 90.0409L62.0735 90.1375C62.0466 90.0034 61.989 89.8826 61.9004 89.7753C61.8119 89.6653 61.6952 89.5781 61.5503 89.5137C61.4081 89.4466 61.2377 89.4131 61.0392 89.4131C60.7735 89.4131 60.5495 89.4694 60.367 89.5821C60.1846 89.6921 60.0934 89.8397 60.0934 90.0248C60.0934 90.1724 60.1524 90.2972 60.2704 90.3991C60.3885 90.5011 60.5911 90.5829 60.8782 90.6446L61.997 90.87C62.598 90.9934 63.0461 91.192 63.3412 91.4656C63.6364 91.7393 63.7839 92.0988 63.7839 92.5442C63.7839 92.9494 63.6645 93.3049 63.4258 93.6108C63.1896 93.9166 62.865 94.1554 62.4518 94.3271C62.0413 94.4962 61.5677 94.5807 61.0311 94.5807C60.2128 94.5807 59.5608 94.4103 59.0751 94.0696C58.5922 93.7261 58.3091 93.2593 58.2259 92.669L59.9123 92.5805C59.9632 92.83 60.0867 93.0205 60.2825 93.152C60.4784 93.2807 60.7293 93.3451 61.0351 93.3451C61.3356 93.3451 61.5771 93.2875 61.7596 93.1721C61.9447 93.054 62.0386 92.9024 62.0413 92.7173C62.0386 92.5617 61.9729 92.4342 61.8441 92.335C61.7153 92.233 61.5167 92.1552 61.2484 92.1015L60.1779 91.8882C59.5742 91.7675 59.1248 91.5582 58.8296 91.2604C58.5372 90.9626 58.391 90.5829 58.391 90.1214C58.391 89.7243 58.4983 89.3822 58.7129 89.0951C58.9302 88.8081 59.2348 88.5867 59.6265 88.4311C60.0209 88.2755 60.4824 88.1977 61.011 88.1977C61.7918 88.1977 62.4062 88.3627 62.8543 88.6927C63.305 89.0227 63.568 89.4721 63.6431 90.0409ZM67.6566 94.5807C67.0234 94.5807 66.4788 94.4465 66.0226 94.1782C65.5692 93.9072 65.2204 93.5316 64.9762 93.0513C64.7348 92.5711 64.614 92.0184 64.614 91.3932C64.614 90.76 64.7361 90.2046 64.9803 89.727C65.2271 89.2467 65.5772 88.8724 66.0307 88.6041C66.4841 88.3331 67.0234 88.1977 67.6486 88.1977C68.1879 88.1977 68.6601 88.2956 69.0652 88.4914C69.4704 88.6873 69.791 88.9623 70.0271 89.3165C70.2632 89.6707 70.3934 90.0865 70.4175 90.5641H68.7996C68.754 90.2556 68.6333 90.0074 68.4374 89.8196C68.2442 89.6291 67.9907 89.5338 67.6768 89.5338C67.4111 89.5338 67.179 89.6063 66.9805 89.7512C66.7846 89.8934 66.6317 90.1013 66.5217 90.375C66.4117 90.6486 66.3567 90.98 66.3567 91.3691C66.3567 91.7635 66.4103 92.0988 66.5177 92.3752C66.6277 92.6516 66.7819 92.8622 66.9805 93.0071C67.179 93.152 67.4111 93.2244 67.6768 93.2244C67.8726 93.2244 68.0484 93.1842 68.204 93.1037C68.3623 93.0232 68.4924 92.9065 68.5944 92.7535C68.699 92.5979 68.7674 92.4114 68.7996 92.1941H70.4175C70.3907 92.6663 70.2619 93.0822 70.0312 93.4417C69.8031 93.7986 69.4878 94.0776 69.0854 94.2789C68.6829 94.4801 68.2067 94.5807 67.6566 94.5807ZM73.278 94.5767C72.8836 94.5767 72.5321 94.5083 72.2236 94.3714C71.915 94.2319 71.6709 94.0266 71.4911 93.7557C71.314 93.482 71.2255 93.1412 71.2255 92.7334C71.2255 92.39 71.2885 92.1015 71.4146 91.8681C71.5407 91.6347 71.7124 91.4469 71.9298 91.3047C72.1471 91.1625 72.3939 91.0551 72.6703 90.9827C72.9493 90.9102 73.2418 90.8593 73.5477 90.8298C73.9072 90.7922 74.197 90.7573 74.417 90.7251C74.637 90.6902 74.7966 90.6393 74.8959 90.5722C74.9952 90.5051 75.0448 90.4058 75.0448 90.2744V90.2502C75.0448 89.9953 74.9643 89.7981 74.8034 89.6586C74.6451 89.5191 74.4197 89.4493 74.1272 89.4493C73.8187 89.4493 73.5732 89.5177 73.3907 89.6546C73.2083 89.7887 73.0875 89.9578 73.0285 90.1617L71.4428 90.0329C71.5233 89.6572 71.6816 89.3326 71.9177 89.0589C72.1538 88.7826 72.4583 88.5706 72.8313 88.423C73.2069 88.2728 73.6416 88.1977 74.1353 88.1977C74.4787 88.1977 74.8074 88.2379 75.1213 88.3184C75.4379 88.3989 75.7183 88.5236 75.9624 88.6927C76.2093 88.8617 76.4038 89.079 76.546 89.3447C76.6882 89.6076 76.7593 89.9229 76.7593 90.2905V94.46H75.1334V93.6027H75.0851C74.9858 93.7959 74.853 93.9663 74.6866 94.1138C74.5203 94.2587 74.3204 94.3728 74.087 94.4559C73.8535 94.5364 73.5839 94.5767 73.278 94.5767ZM73.769 93.3934C74.0212 93.3934 74.2439 93.3438 74.4371 93.2445C74.6303 93.1426 74.7819 93.0057 74.8919 92.834C75.0019 92.6623 75.0569 92.4678 75.0569 92.2504V91.5944C75.0032 91.6293 74.9295 91.6615 74.8356 91.691C74.7443 91.7179 74.641 91.7433 74.5257 91.7675C74.4103 91.789 74.2949 91.8091 74.1795 91.8279C74.0642 91.844 73.9595 91.8587 73.8656 91.8721C73.6644 91.9016 73.4886 91.9486 73.3384 92.013C73.1881 92.0774 73.0714 92.1646 72.9883 92.2746C72.9051 92.3819 72.8635 92.5161 72.8635 92.6771C72.8635 92.9105 72.948 93.0889 73.117 93.2123C73.2888 93.3331 73.5061 93.3934 73.769 93.3934ZM78.0895 96.7781V88.2781H79.7798V89.3165H79.8563C79.9314 89.1501 80.0401 88.9811 80.1823 88.8094C80.3271 88.635 80.515 88.4901 80.7457 88.3747C80.9791 88.2567 81.2689 88.1977 81.615 88.1977C82.0658 88.1977 82.4817 88.3157 82.8627 88.5518C83.2437 88.7852 83.5482 89.1381 83.7762 89.6103C84.0043 90.0798 84.1183 90.6688 84.1183 91.3771C84.1183 92.0667 84.007 92.6489 83.7843 93.1238C83.5643 93.596 83.2638 93.9542 82.8828 94.1984C82.5045 94.4398 82.0805 94.5606 81.611 94.5606C81.2783 94.5606 80.9952 94.5056 80.7618 94.3956C80.5311 94.2856 80.3419 94.1474 80.1943 93.981C80.0468 93.812 79.9341 93.6416 79.8563 93.4699H79.8039V96.7781H78.0895ZM79.7677 91.3691C79.7677 91.7366 79.8187 92.0573 79.9207 92.3309C80.0226 92.6046 80.1702 92.8179 80.3634 92.9709C80.5566 93.1211 80.7913 93.1962 81.0677 93.1962C81.3467 93.1962 81.5828 93.1198 81.776 92.9668C81.9692 92.8112 82.1154 92.5966 82.2147 92.3229C82.3167 92.0465 82.3676 91.7286 82.3676 91.3691C82.3676 91.0122 82.318 90.6983 82.2187 90.4273C82.1194 90.1563 81.9732 89.9443 81.78 89.7914C81.5869 89.6385 81.3494 89.562 81.0677 89.562C80.7886 89.562 80.5525 89.6358 80.3593 89.7834C80.1688 89.9309 80.0226 90.1402 79.9207 90.4112C79.8187 90.6822 79.7677 91.0015 79.7677 91.3691ZM88.0786 94.5807C87.4427 94.5807 86.8953 94.4519 86.4365 94.1943C85.9804 93.9341 85.6289 93.5665 85.3821 93.0916C85.1352 92.614 85.0118 92.0492 85.0118 91.3972C85.0118 90.7613 85.1352 90.2033 85.3821 89.723C85.6289 89.2427 85.9764 88.8684 86.4244 88.6001C86.8752 88.3318 87.4038 88.1977 88.0102 88.1977C88.418 88.1977 88.7976 88.2634 89.1491 88.3949C89.5033 88.5236 89.8118 88.7182 90.0748 88.9784C90.3404 89.2387 90.547 89.566 90.6946 89.9604C90.8421 90.3522 90.9159 90.811 90.9159 91.3369V91.8077H85.696V90.7452H89.3021C89.3021 90.4984 89.2484 90.2797 89.1411 90.0892C89.0337 89.8987 88.8848 89.7498 88.6943 89.6425C88.5065 89.5325 88.2878 89.4775 88.0383 89.4775C87.7781 89.4775 87.5473 89.5378 87.3461 89.6586C87.1475 89.7766 86.9919 89.9363 86.8792 90.1375C86.7665 90.3361 86.7089 90.5574 86.7062 90.8016V91.8118C86.7062 92.1176 86.7625 92.3819 86.8752 92.6046C86.9906 92.8273 87.1529 92.999 87.3622 93.1198C87.5715 93.2405 87.8197 93.3009 88.1067 93.3009C88.2972 93.3009 88.4716 93.274 88.6299 93.2204C88.7882 93.1667 88.9237 93.0862 89.0364 92.9789C89.1491 92.8716 89.235 92.7401 89.294 92.5845L90.8797 92.6891C90.7992 93.0701 90.6342 93.4028 90.3847 93.6872C90.1378 93.969 89.8185 94.189 89.4268 94.3473C89.0378 94.5029 88.5884 94.5807 88.0786 94.5807Z" fill="#171A22"/>
<rect x="25.8333" y="105.49" width="399.5" height="0.944444" fill="#E9EBEF"/>
<rect x="108.944" y="74.0155" width="81.2222" height="32.1111" fill="#E9EBEF"/>
<rect x="109.889" y="74.96" width="79.3333" height="32.1111" fill="white"/>
<path d="M130.457 90.3387C130.457 91.2376 130.287 92.0023 129.946 92.6328C129.608 93.2633 129.147 93.7449 128.562 94.0776C127.98 94.4076 127.325 94.5727 126.598 94.5727C125.865 94.5727 125.208 94.4063 124.626 94.0736C124.044 93.7409 123.583 93.2593 123.245 92.6288C122.907 91.9982 122.738 91.2349 122.738 90.3387C122.738 89.4399 122.907 88.6752 123.245 88.0447C123.583 87.4142 124.044 86.9339 124.626 86.6039C125.208 86.2712 125.865 86.1048 126.598 86.1048C127.325 86.1048 127.98 86.2712 128.562 86.6039C129.147 86.9339 129.608 87.4142 129.946 88.0447C130.287 88.6752 130.457 89.4399 130.457 90.3387ZM128.691 90.3387C128.691 89.7565 128.603 89.2655 128.429 88.8657C128.257 88.466 128.015 88.1628 127.701 87.9562C127.387 87.7496 127.019 87.6463 126.598 87.6463C126.177 87.6463 125.809 87.7496 125.495 87.9562C125.181 88.1628 124.937 88.466 124.763 88.8657C124.591 89.2655 124.505 89.7565 124.505 90.3387C124.505 90.921 124.591 91.412 124.763 91.8118C124.937 92.2115 125.181 92.5147 125.495 92.7213C125.809 92.9279 126.177 93.0312 126.598 93.0312C127.019 93.0312 127.387 92.9279 127.701 92.7213C128.015 92.5147 128.257 92.2115 128.429 91.8118C128.603 91.412 128.691 90.921 128.691 90.3387ZM137.479 88.2781L135.318 94.46H133.386L131.225 88.2781H133.036L134.32 92.7012H134.384L135.664 88.2781H137.479ZM140.964 94.5807C140.328 94.5807 139.781 94.4519 139.322 94.1943C138.866 93.9341 138.514 93.5665 138.267 93.0916C138.02 92.614 137.897 92.0492 137.897 91.3972C137.897 90.7613 138.02 90.2033 138.267 89.723C138.514 89.2427 138.862 88.8684 139.31 88.6001C139.76 88.3318 140.289 88.1977 140.895 88.1977C141.303 88.1977 141.683 88.2634 142.034 88.3949C142.388 88.5236 142.697 88.7182 142.96 88.9784C143.226 89.2387 143.432 89.566 143.58 89.9604C143.727 90.3522 143.801 90.811 143.801 91.3369V91.8077H138.581V90.7452H142.187C142.187 90.4984 142.134 90.2797 142.026 90.0892C141.919 89.8987 141.77 89.7498 141.58 89.6425C141.392 89.5325 141.173 89.4775 140.923 89.4775C140.663 89.4775 140.432 89.5378 140.231 89.6586C140.033 89.7766 139.877 89.9363 139.764 90.1375C139.652 90.3361 139.594 90.5574 139.591 90.8016V91.8118C139.591 92.1176 139.648 92.3819 139.76 92.6046C139.876 92.8273 140.038 92.999 140.247 93.1198C140.457 93.2405 140.705 93.3009 140.992 93.3009C141.182 93.3009 141.357 93.274 141.515 93.2204C141.673 93.1667 141.809 93.0862 141.922 92.9789C142.034 92.8716 142.12 92.7401 142.179 92.5845L143.765 92.6891C143.684 93.0701 143.519 93.4028 143.27 93.6872C143.023 93.969 142.704 94.189 142.312 94.3473C141.923 94.5029 141.474 94.5807 140.964 94.5807ZM144.92 94.46V88.2781H146.582V89.3567H146.647C146.759 88.9731 146.948 88.6833 147.214 88.4874C147.48 88.2889 147.785 88.1896 148.132 88.1896C148.217 88.1896 148.31 88.195 148.409 88.2057C148.509 88.2164 148.596 88.2312 148.671 88.25V89.7713C148.59 89.7471 148.479 89.7257 148.337 89.7069C148.195 89.6881 148.065 89.6787 147.946 89.6787C147.694 89.6787 147.469 89.7337 147.27 89.8437C147.074 89.951 146.919 90.1013 146.803 90.2945C146.691 90.4877 146.634 90.7104 146.634 90.9626V94.46H144.92ZM155.509 88.2781L153.348 94.46H151.416L149.254 88.2781H151.066L152.349 92.7012H152.414L153.694 88.2781H155.509ZM156.386 94.46V88.2781H158.101V94.46H156.386ZM157.251 87.4813C156.996 87.4813 156.778 87.3968 156.595 87.2277C156.413 87.056 156.322 86.8507 156.322 86.6119C156.322 86.3758 156.413 86.1733 156.595 86.0042C156.778 85.8325 156.995 85.7467 157.247 85.7467C157.505 85.7467 157.724 85.8325 157.903 86.0042C158.086 86.1733 158.177 86.3758 158.177 86.6119C158.177 86.8507 158.086 87.056 157.903 87.2277C157.724 87.3968 157.506 87.4813 157.251 87.4813ZM162.291 94.5807C161.655 94.5807 161.108 94.4519 160.649 94.1943C160.193 93.9341 159.842 93.5665 159.595 93.0916C159.348 92.614 159.224 92.0492 159.224 91.3972C159.224 90.7613 159.348 90.2033 159.595 89.723C159.842 89.2427 160.189 88.8684 160.637 88.6001C161.088 88.3318 161.616 88.1977 162.223 88.1977C162.631 88.1977 163.01 88.2634 163.362 88.3949C163.716 88.5236 164.024 88.7182 164.287 88.9784C164.553 89.2387 164.76 89.566 164.907 89.9604C165.055 90.3522 165.129 90.811 165.129 91.3369V91.8077H159.909V90.7452H163.515C163.515 90.4984 163.461 90.2797 163.354 90.0892C163.246 89.8987 163.097 89.7498 162.907 89.6425C162.719 89.5325 162.5 89.4775 162.251 89.4775C161.991 89.4775 161.76 89.5378 161.559 89.6586C161.36 89.7766 161.205 89.9363 161.092 90.1375C160.979 90.3361 160.922 90.5574 160.919 90.8016V91.8118C160.919 92.1176 160.975 92.3819 161.088 92.6046C161.203 92.8273 161.366 92.999 161.575 93.1198C161.784 93.2405 162.032 93.3009 162.319 93.3009C162.51 93.3009 162.684 93.274 162.843 93.2204C163.001 93.1667 163.136 93.0862 163.249 92.9789C163.362 92.8716 163.448 92.7401 163.507 92.5845L165.092 92.6891C165.012 93.0701 164.847 93.4028 164.597 93.6872C164.35 93.969 164.031 94.189 163.639 94.3473C163.25 94.5029 162.801 94.5807 162.291 94.5807ZM167.423 94.46L165.74 88.2781H167.475L168.433 92.4316H168.489L169.487 88.2781H171.19L172.204 92.4074H172.256L173.198 88.2781H174.929L173.25 94.46H171.435L170.373 90.5722H170.296L169.234 94.46H167.423Z" fill="#00A8FF"/>
<path d="M210.716 94.46V86.2175H213.968C214.591 86.2175 215.122 86.3289 215.562 86.5516C216.005 86.7716 216.341 87.0842 216.572 87.4893C216.806 87.8918 216.922 88.3653 216.922 88.91C216.922 89.4574 216.804 89.9282 216.568 90.3227C216.332 90.7144 215.99 91.0149 215.542 91.2242C215.097 91.4334 214.557 91.5381 213.924 91.5381H211.747V90.1375H213.642C213.975 90.1375 214.251 90.0919 214.471 90.0007C214.691 89.9095 214.855 89.7726 214.962 89.5902C215.072 89.4077 215.127 89.181 215.127 88.91C215.127 88.6363 215.072 88.4056 214.962 88.2178C214.855 88.03 214.69 87.8878 214.467 87.7912C214.247 87.6919 213.97 87.6423 213.634 87.6423H212.459V94.46H210.716ZM215.168 90.709L217.216 94.46H215.292L213.288 90.709H215.168ZM219.884 94.5767C219.49 94.5767 219.139 94.5083 218.83 94.3714C218.521 94.2319 218.277 94.0266 218.098 93.7557C217.92 93.482 217.832 93.1412 217.832 92.7334C217.832 92.39 217.895 92.1015 218.021 91.8681C218.147 91.6347 218.319 91.4469 218.536 91.3047C218.754 91.1625 219 91.0551 219.277 90.9827C219.556 90.9102 219.848 90.8593 220.154 90.8298C220.514 90.7922 220.803 90.7573 221.023 90.7251C221.243 90.6902 221.403 90.6393 221.502 90.5722C221.602 90.5051 221.651 90.4058 221.651 90.2744V90.2502C221.651 89.9953 221.571 89.7981 221.41 89.6586C221.251 89.5191 221.026 89.4493 220.734 89.4493C220.425 89.4493 220.18 89.5177 219.997 89.6546C219.815 89.7887 219.694 89.9578 219.635 90.1617L218.049 90.0329C218.13 89.6572 218.288 89.3326 218.524 89.0589C218.76 88.7826 219.065 88.5706 219.438 88.423C219.813 88.2728 220.248 88.1977 220.742 88.1977C221.085 88.1977 221.414 88.2379 221.728 88.3184C222.044 88.3989 222.325 88.5236 222.569 88.6927C222.816 88.8617 223.01 89.079 223.152 89.3447C223.295 89.6076 223.366 89.9229 223.366 90.2905V94.46H221.74V93.6027H221.692C221.592 93.7959 221.459 93.9663 221.293 94.1138C221.127 94.2587 220.927 94.3728 220.693 94.4559C220.46 94.5364 220.19 94.5767 219.884 94.5767ZM220.375 93.3934C220.628 93.3934 220.85 93.3438 221.044 93.2445C221.237 93.1426 221.388 93.0057 221.498 92.834C221.608 92.6623 221.663 92.4678 221.663 92.2504V91.5944C221.61 91.6293 221.536 91.6615 221.442 91.691C221.351 91.7179 221.247 91.7433 221.132 91.7675C221.017 91.789 220.901 91.8091 220.786 91.8279C220.671 91.844 220.566 91.8587 220.472 91.8721C220.271 91.9016 220.095 91.9486 219.945 92.013C219.795 92.0774 219.678 92.1646 219.595 92.2746C219.512 92.3819 219.47 92.5161 219.47 92.6771C219.47 92.9105 219.554 93.0889 219.723 93.2123C219.895 93.3331 220.113 93.3934 220.375 93.3934ZM226.41 90.8861V94.46H224.696V88.2781H226.33V89.3688H226.402C226.539 89.0093 226.769 88.7249 227.091 88.5156C227.413 88.3036 227.803 88.1977 228.262 88.1977C228.691 88.1977 229.065 88.2916 229.385 88.4794C229.704 88.6672 229.952 88.9355 230.129 89.2843C230.306 89.6304 230.395 90.0436 230.395 90.5239V94.46H228.68V90.8298C228.683 90.4514 228.586 90.1563 228.391 89.9443C228.195 89.7297 227.925 89.6224 227.582 89.6224C227.351 89.6224 227.147 89.672 226.97 89.7713C226.795 89.8706 226.659 90.0154 226.559 90.2059C226.463 90.3938 226.413 90.6205 226.41 90.8861ZM233.3 92.6811L233.304 90.6245H233.553L235.533 88.2781H237.501L234.841 91.3852H234.434L233.3 92.6811ZM231.746 94.46V86.2175H233.461V94.46H231.746ZM235.61 94.46L233.791 91.7675L234.934 90.5561L237.618 94.46H235.61ZM238.342 94.46V88.2781H240.057V94.46H238.342ZM239.208 87.4813C238.953 87.4813 238.734 87.3968 238.552 87.2277C238.369 87.056 238.278 86.8507 238.278 86.6119C238.278 86.3758 238.369 86.1733 238.552 86.0042C238.734 85.8325 238.951 85.7467 239.204 85.7467C239.461 85.7467 239.68 85.8325 239.86 86.0042C240.042 86.1733 240.133 86.3758 240.133 86.6119C240.133 86.8507 240.042 87.056 239.86 87.2277C239.68 87.3968 239.463 87.4813 239.208 87.4813ZM243.145 90.8861V94.46H241.43V88.2781H243.064V89.3688H243.137C243.274 89.0093 243.503 88.7249 243.825 88.5156C244.147 88.3036 244.537 88.1977 244.996 88.1977C245.425 88.1977 245.8 88.2916 246.119 88.4794C246.438 88.6672 246.686 88.9355 246.864 89.2843C247.041 89.6304 247.129 90.0436 247.129 90.5239V94.46H245.415V90.8298C245.417 90.4514 245.321 90.1563 245.125 89.9443C244.929 89.7297 244.659 89.6224 244.316 89.6224C244.085 89.6224 243.881 89.672 243.704 89.7713C243.53 89.8706 243.393 90.0154 243.294 90.2059C243.197 90.3938 243.147 90.6205 243.145 90.8861ZM251.265 96.8667C250.71 96.8667 250.234 96.7916 249.837 96.6413C249.442 96.4911 249.128 96.2885 248.895 96.0336C248.662 95.7787 248.51 95.4956 248.44 95.1844L250.026 94.9711C250.074 95.0838 250.151 95.1898 250.255 95.289C250.36 95.391 250.498 95.4742 250.67 95.5386C250.844 95.603 251.056 95.6352 251.306 95.6352C251.679 95.6352 251.986 95.5466 252.227 95.3695C252.471 95.1924 252.594 94.9013 252.594 94.4962V93.3653H252.521C252.446 93.537 252.333 93.6993 252.183 93.8522C252.033 94.0052 251.84 94.1299 251.604 94.2265C251.367 94.3231 251.086 94.3714 250.758 94.3714C250.294 94.3714 249.872 94.2641 249.491 94.0494C249.112 93.8321 248.81 93.5008 248.585 93.0554C248.362 92.6073 248.251 92.0412 248.251 91.357C248.251 90.6567 248.365 90.0718 248.593 89.6022C248.821 89.1327 249.124 88.7812 249.503 88.5478C249.884 88.3144 250.301 88.1977 250.754 88.1977C251.1 88.1977 251.39 88.2567 251.624 88.3747C251.857 88.4901 252.045 88.635 252.187 88.8094C252.332 88.9811 252.443 89.1501 252.521 89.3165H252.586V88.2781H254.288V94.5203C254.288 95.0355 254.159 95.4661 253.902 95.8122C253.644 96.161 253.287 96.424 252.831 96.6011C252.378 96.7781 251.856 96.8667 251.265 96.8667ZM251.302 93.0835C251.578 93.0835 251.811 93.0151 252.002 92.8783C252.195 92.7388 252.343 92.5402 252.445 92.2826C252.549 92.0224 252.602 91.7111 252.602 91.3489C252.602 90.9867 252.551 90.6728 252.449 90.4072C252.347 90.1389 252.199 89.9309 252.006 89.7834C251.813 89.6358 251.578 89.562 251.302 89.562C251.02 89.562 250.782 89.6385 250.589 89.7914C250.396 89.9417 250.25 90.1509 250.151 90.4192C250.051 90.6875 250.002 90.9974 250.002 91.3489C250.002 91.7058 250.051 92.0143 250.151 92.2746C250.253 92.5322 250.399 92.7321 250.589 92.8743C250.782 93.0138 251.02 93.0835 251.302 93.0835ZM260.796 90.0409L259.226 90.1375C259.199 90.0034 259.142 89.8826 259.053 89.7753C258.965 89.6653 258.848 89.5781 258.703 89.5137C258.561 89.4466 258.39 89.4131 258.192 89.4131C257.926 89.4131 257.702 89.4694 257.52 89.5821C257.337 89.6921 257.246 89.8397 257.246 90.0248C257.246 90.1724 257.305 90.2972 257.423 90.3991C257.541 90.5011 257.744 90.5829 258.031 90.6446L259.15 90.87C259.751 90.9934 260.199 91.192 260.494 91.4656C260.789 91.7393 260.937 92.0988 260.937 92.5442C260.937 92.9494 260.817 93.3049 260.578 93.6108C260.342 93.9166 260.018 94.1554 259.604 94.3271C259.194 94.4962 258.72 94.5807 258.184 94.5807C257.365 94.5807 256.713 94.4103 256.228 94.0696C255.745 93.7261 255.462 93.2593 255.379 92.669L257.065 92.5805C257.116 92.83 257.239 93.0205 257.435 93.152C257.631 93.2807 257.882 93.3451 258.188 93.3451C258.488 93.3451 258.73 93.2875 258.912 93.1721C259.097 93.054 259.191 92.9024 259.194 92.7173C259.191 92.5617 259.126 92.4342 258.997 92.335C258.868 92.233 258.669 92.1552 258.401 92.1015L257.331 91.8882C256.727 91.7675 256.277 91.5582 255.982 91.2604C255.69 90.9626 255.544 90.5829 255.544 90.1214C255.544 89.7243 255.651 89.3822 255.866 89.0951C256.083 88.8081 256.387 88.5867 256.779 88.4311C257.174 88.2755 257.635 88.1977 258.164 88.1977C258.944 88.1977 259.559 88.3627 260.007 88.6927C260.458 89.0227 260.721 89.4721 260.796 90.0409ZM267.593 94.46H264.671V86.2175H267.617C268.447 86.2175 269.16 86.3825 269.759 86.7126C270.357 87.0399 270.817 87.5108 271.139 88.1252C271.464 88.7396 271.626 89.4748 271.626 90.3307C271.626 91.1893 271.464 91.9271 271.139 92.5442C270.817 93.1613 270.354 93.6349 269.751 93.9649C269.15 94.295 268.43 94.46 267.593 94.46ZM266.414 92.9668H267.521C268.036 92.9668 268.469 92.8756 268.821 92.6932C269.175 92.508 269.441 92.2223 269.618 91.8359C269.797 91.4469 269.887 90.9451 269.887 90.3307C269.887 89.7216 269.797 89.2239 269.618 88.8376C269.441 88.4512 269.176 88.1668 268.825 87.9843C268.473 87.8019 268.04 87.7107 267.525 87.7107H266.414V92.9668ZM272.885 94.46V88.2781H274.599V94.46H272.885ZM273.75 87.4813C273.495 87.4813 273.276 87.3968 273.094 87.2277C272.912 87.056 272.82 86.8507 272.82 86.6119C272.82 86.3758 272.912 86.1733 273.094 86.0042C273.276 85.8325 273.494 85.7467 273.746 85.7467C274.004 85.7467 274.222 85.8325 274.402 86.0042C274.584 86.1733 274.676 86.3758 274.676 86.6119C274.676 86.8507 274.584 87.056 274.402 87.2277C274.222 87.3968 274.005 87.4813 273.75 87.4813ZM281.116 90.0409L279.546 90.1375C279.52 90.0034 279.462 89.8826 279.373 89.7753C279.285 89.6653 279.168 89.5781 279.023 89.5137C278.881 89.4466 278.711 89.4131 278.512 89.4131C278.247 89.4131 278.022 89.4694 277.84 89.5821C277.658 89.6921 277.566 89.8397 277.566 90.0248C277.566 90.1724 277.625 90.2972 277.743 90.3991C277.861 90.5011 278.064 90.5829 278.351 90.6446L279.47 90.87C280.071 90.9934 280.519 91.192 280.814 91.4656C281.109 91.7393 281.257 92.0988 281.257 92.5442C281.257 92.9494 281.138 93.3049 280.899 93.6108C280.663 93.9166 280.338 94.1554 279.925 94.3271C279.514 94.4962 279.041 94.5807 278.504 94.5807C277.686 94.5807 277.034 94.4103 276.548 94.0696C276.065 93.7261 275.782 93.2593 275.699 92.669L277.385 92.5805C277.436 92.83 277.56 93.0205 277.755 93.152C277.951 93.2807 278.202 93.3451 278.508 93.3451C278.809 93.3451 279.05 93.2875 279.233 93.1721C279.418 93.054 279.512 92.9024 279.514 92.7173C279.512 92.5617 279.446 92.4342 279.317 92.335C279.188 92.233 278.99 92.1552 278.721 92.1015L277.651 91.8882C277.047 91.7675 276.598 91.5582 276.303 91.2604C276.01 90.9626 275.864 90.5829 275.864 90.1214C275.864 89.7243 275.971 89.3822 276.186 89.0951C276.403 88.8081 276.708 88.5867 277.099 88.4311C277.494 88.2755 277.955 88.1977 278.484 88.1977C279.265 88.1977 279.879 88.3627 280.327 88.6927C280.778 89.0227 281.041 89.4721 281.116 90.0409ZM285.625 88.2781V89.566H281.902V88.2781H285.625ZM282.747 86.7971H284.462V92.5603C284.462 92.7186 284.486 92.8421 284.534 92.9306C284.582 93.0165 284.649 93.0768 284.735 93.1117C284.824 93.1466 284.926 93.164 285.041 93.164C285.122 93.164 285.202 93.1573 285.283 93.1439C285.363 93.1278 285.425 93.1157 285.468 93.1077L285.737 94.3835C285.651 94.4103 285.531 94.4412 285.375 94.4761C285.219 94.5136 285.03 94.5364 284.808 94.5445C284.394 94.5606 284.032 94.5056 283.721 94.3795C283.412 94.2534 283.172 94.0575 283.001 93.7919C282.829 93.5262 282.744 93.1909 282.747 92.7857V86.7971ZM286.741 94.46V88.2781H288.404V89.3567H288.468C288.581 88.9731 288.77 88.6833 289.036 88.4874C289.301 88.2889 289.607 88.1896 289.953 88.1896C290.039 88.1896 290.132 88.195 290.231 88.2057C290.33 88.2164 290.417 88.2312 290.492 88.25V89.7713C290.412 89.7471 290.301 89.7257 290.158 89.7069C290.016 89.6881 289.886 89.6787 289.768 89.6787C289.516 89.6787 289.29 89.7337 289.092 89.8437C288.896 89.951 288.74 90.1013 288.625 90.2945C288.512 90.4877 288.456 90.7104 288.456 90.9626V94.46H286.741ZM291.379 94.46V88.2781H293.093V94.46H291.379ZM292.244 87.4813C291.989 87.4813 291.771 87.3968 291.588 87.2277C291.406 87.056 291.314 86.8507 291.314 86.6119C291.314 86.3758 291.406 86.1733 291.588 86.0042C291.771 85.8325 291.988 85.7467 292.24 85.7467C292.498 85.7467 292.716 85.8325 292.896 86.0042C293.079 86.1733 293.17 86.3758 293.17 86.6119C293.17 86.8507 293.079 87.056 292.896 87.2277C292.716 87.3968 292.499 87.4813 292.244 87.4813ZM294.499 94.46V86.2175H296.213V89.3165H296.266C296.341 89.1501 296.45 88.9811 296.592 88.8094C296.737 88.635 296.924 88.4901 297.155 88.3747C297.389 88.2567 297.678 88.1977 298.024 88.1977C298.475 88.1977 298.891 88.3157 299.272 88.5518C299.653 88.7852 299.958 89.1381 300.186 89.6103C300.414 90.0798 300.528 90.6688 300.528 91.3771C300.528 92.0667 300.416 92.6489 300.194 93.1238C299.974 93.596 299.673 93.9542 299.292 94.1984C298.914 94.4398 298.49 94.5606 298.02 94.5606C297.688 94.5606 297.405 94.5056 297.171 94.3956C296.941 94.2856 296.751 94.1474 296.604 93.981C296.456 93.812 296.344 93.6416 296.266 93.4699H296.189V94.46H294.499ZM296.177 91.3691C296.177 91.7366 296.228 92.0573 296.33 92.3309C296.432 92.6046 296.58 92.8179 296.773 92.9709C296.966 93.1211 297.201 93.1962 297.477 93.1962C297.756 93.1962 297.992 93.1198 298.185 92.9668C298.379 92.8112 298.525 92.5966 298.624 92.3229C298.726 92.0465 298.777 91.7286 298.777 91.3691C298.777 91.0122 298.727 90.6983 298.628 90.4273C298.529 90.1563 298.383 89.9443 298.19 89.7914C297.996 89.6385 297.759 89.562 297.477 89.562C297.198 89.562 296.962 89.6358 296.769 89.7834C296.578 89.9309 296.432 90.1402 296.33 90.4112C296.228 90.6822 296.177 91.0015 296.177 91.3691ZM305.636 91.8279V88.2781H307.351V94.46H305.704V93.3371H305.64C305.501 93.6993 305.268 93.9904 304.944 94.2104C304.622 94.4304 304.229 94.5405 303.765 94.5405C303.351 94.5405 302.988 94.4465 302.674 94.2587C302.36 94.0709 302.115 93.8039 301.937 93.4578C301.763 93.1117 301.674 92.6972 301.672 92.2142V88.2781H303.386V91.9084C303.389 92.2733 303.487 92.5617 303.68 92.7736C303.873 92.9856 304.132 93.0916 304.457 93.0916C304.663 93.0916 304.857 93.0446 305.036 92.9507C305.216 92.8541 305.361 92.7119 305.471 92.5241C305.584 92.3363 305.639 92.1042 305.636 91.8279ZM312.01 88.2781V89.566H308.287V88.2781H312.01ZM309.132 86.7971H310.847V92.5603C310.847 92.7186 310.871 92.8421 310.919 92.9306C310.968 93.0165 311.035 93.0768 311.121 93.1117C311.209 93.1466 311.311 93.164 311.426 93.164C311.507 93.164 311.587 93.1573 311.668 93.1439C311.748 93.1278 311.81 93.1157 311.853 93.1077L312.123 94.3835C312.037 94.4103 311.916 94.4412 311.761 94.4761C311.605 94.5136 311.416 94.5364 311.193 94.5445C310.78 94.5606 310.418 94.5056 310.106 94.3795C309.798 94.2534 309.558 94.0575 309.386 93.7919C309.214 93.5262 309.13 93.1909 309.132 92.7857V86.7971ZM313.127 94.46V88.2781H314.841V94.46H313.127ZM313.992 87.4813C313.737 87.4813 313.519 87.3968 313.336 87.2277C313.154 87.056 313.062 86.8507 313.062 86.6119C313.062 86.3758 313.154 86.1733 313.336 86.0042C313.519 85.8325 313.736 85.7467 313.988 85.7467C314.246 85.7467 314.464 85.8325 314.644 86.0042C314.827 86.1733 314.918 86.3758 314.918 86.6119C314.918 86.8507 314.827 87.056 314.644 87.2277C314.464 87.3968 314.247 87.4813 313.992 87.4813ZM319.008 94.5807C318.383 94.5807 317.842 94.4479 317.386 94.1823C316.933 93.914 316.582 93.541 316.336 93.0634C316.089 92.5831 315.965 92.0264 315.965 91.3932C315.965 90.7546 316.089 90.1965 316.336 89.719C316.582 89.2387 316.933 88.8657 317.386 88.6001C317.842 88.3318 318.383 88.1977 319.008 88.1977C319.633 88.1977 320.172 88.3318 320.626 88.6001C321.082 88.8657 321.433 89.2387 321.68 89.719C321.927 90.1965 322.05 90.7546 322.05 91.3932C322.05 92.0264 321.927 92.5831 321.68 93.0634C321.433 93.541 321.082 93.914 320.626 94.1823C320.172 94.4479 319.633 94.5807 319.008 94.5807ZM319.016 93.2526C319.3 93.2526 319.538 93.1721 319.728 93.0111C319.919 92.8474 320.062 92.6247 320.159 92.343C320.258 92.0613 320.308 91.7407 320.308 91.3811C320.308 91.0216 320.258 90.701 320.159 90.4192C320.062 90.1375 319.919 89.9148 319.728 89.7512C319.538 89.5875 319.3 89.5057 319.016 89.5057C318.729 89.5057 318.487 89.5875 318.291 89.7512C318.098 89.9148 317.952 90.1375 317.853 90.4192C317.756 90.701 317.708 91.0216 317.708 91.3811C317.708 91.7407 317.756 92.0613 317.853 92.343C317.952 92.6247 318.098 92.8474 318.291 93.0111C318.487 93.1721 318.729 93.2526 319.016 93.2526ZM324.88 90.8861V94.46H323.165V88.2781H324.799V89.3688H324.872C325.009 89.0093 325.238 88.7249 325.56 88.5156C325.882 88.3036 326.272 88.1977 326.731 88.1977C327.16 88.1977 327.535 88.2916 327.854 88.4794C328.173 88.6672 328.421 88.9355 328.599 89.2843C328.776 89.6304 328.864 90.0436 328.864 90.5239V94.46H327.15V90.8298C327.152 90.4514 327.056 90.1563 326.86 89.9443C326.664 89.7297 326.394 89.6224 326.051 89.6224C325.82 89.6224 325.616 89.672 325.439 89.7713C325.265 89.8706 325.128 90.0154 325.029 90.2059C324.932 90.3938 324.882 90.6205 324.88 90.8861Z" fill="#171A22"/>
<path d="M357.105 94.46V86.2175H360.357C360.98 86.2175 361.511 86.3289 361.951 86.5516C362.394 86.7716 362.73 87.0842 362.961 87.4893C363.195 87.8918 363.311 88.3653 363.311 88.91C363.311 89.4574 363.193 89.9282 362.957 90.3227C362.721 90.7144 362.379 91.0149 361.931 91.2242C361.485 91.4334 360.946 91.5381 360.313 91.5381H358.136V90.1375H360.031C360.364 90.1375 360.64 90.0919 360.86 90.0007C361.08 89.9095 361.244 89.7726 361.351 89.5902C361.461 89.4077 361.516 89.181 361.516 88.91C361.516 88.6363 361.461 88.4056 361.351 88.2178C361.244 88.03 361.079 87.8878 360.856 87.7912C360.636 87.6919 360.359 87.6423 360.023 87.6423H358.848V94.46H357.105ZM361.557 90.709L363.605 94.46H361.681L359.677 90.709H361.557ZM366.273 94.5767C365.879 94.5767 365.527 94.5083 365.219 94.3714C364.91 94.2319 364.666 94.0266 364.486 93.7557C364.309 93.482 364.221 93.1412 364.221 92.7334C364.221 92.39 364.284 92.1015 364.41 91.8681C364.536 91.6347 364.708 91.4469 364.925 91.3047C365.142 91.1625 365.389 91.0551 365.666 90.9827C365.945 90.9102 366.237 90.8593 366.543 90.8298C366.903 90.7922 367.192 90.7573 367.412 90.7251C367.632 90.6902 367.792 90.6393 367.891 90.5722C367.991 90.5051 368.04 90.4058 368.04 90.2744V90.2502C368.04 89.9953 367.96 89.7981 367.799 89.6586C367.64 89.5191 367.415 89.4493 367.123 89.4493C366.814 89.4493 366.569 89.5177 366.386 89.6546C366.204 89.7887 366.083 89.9578 366.024 90.1617L364.438 90.0329C364.519 89.6572 364.677 89.3326 364.913 89.0589C365.149 88.7826 365.454 88.5706 365.827 88.423C366.202 88.2728 366.637 88.1977 367.131 88.1977C367.474 88.1977 367.803 88.2379 368.117 88.3184C368.433 88.3989 368.714 88.5236 368.958 88.6927C369.205 88.8617 369.399 89.079 369.541 89.3447C369.684 89.6076 369.755 89.9229 369.755 90.2905V94.46H368.129V93.6027H368.08C367.981 93.7959 367.848 93.9663 367.682 94.1138C367.516 94.2587 367.316 94.3728 367.082 94.4559C366.849 94.5364 366.579 94.5767 366.273 94.5767ZM366.764 93.3934C367.017 93.3934 367.239 93.3438 367.432 93.2445C367.626 93.1426 367.777 93.0057 367.887 92.834C367.997 92.6623 368.052 92.4678 368.052 92.2504V91.5944C367.999 91.6293 367.925 91.6615 367.831 91.691C367.74 91.7179 367.636 91.7433 367.521 91.7675C367.406 91.789 367.29 91.8091 367.175 91.8279C367.06 91.844 366.955 91.8587 366.861 91.8721C366.66 91.9016 366.484 91.9486 366.334 92.013C366.184 92.0774 366.067 92.1646 365.984 92.2746C365.9 92.3819 365.859 92.5161 365.859 92.6771C365.859 92.9105 365.943 93.0889 366.112 93.2123C366.284 93.3331 366.501 93.3934 366.764 93.3934ZM372.799 90.8861V94.46H371.085V88.2781H372.719V89.3688H372.791C372.928 89.0093 373.158 88.7249 373.479 88.5156C373.801 88.3036 374.192 88.1977 374.651 88.1977C375.08 88.1977 375.454 88.2916 375.774 88.4794C376.093 88.6672 376.341 88.9355 376.518 89.2843C376.695 89.6304 376.784 90.0436 376.784 90.5239V94.46H375.069V90.8298C375.072 90.4514 374.975 90.1563 374.779 89.9443C374.584 89.7297 374.314 89.6224 373.97 89.6224C373.74 89.6224 373.536 89.672 373.359 89.7713C373.184 89.8706 373.047 90.0154 372.948 90.2059C372.852 90.3938 372.802 90.6205 372.799 90.8861ZM379.688 92.6811L379.692 90.6245H379.942L381.922 88.2781H383.89L381.23 91.3852H380.823L379.688 92.6811ZM378.135 94.46V86.2175H379.849V94.46H378.135ZM381.999 94.46L380.179 91.7675L381.322 90.5561L384.007 94.46H381.999ZM384.731 94.46V88.2781H386.446V94.46H384.731ZM385.597 87.4813C385.342 87.4813 385.123 87.3968 384.941 87.2277C384.758 87.056 384.667 86.8507 384.667 86.6119C384.667 86.3758 384.758 86.1733 384.941 86.0042C385.123 85.8325 385.34 85.7467 385.593 85.7467C385.85 85.7467 386.069 85.8325 386.249 86.0042C386.431 86.1733 386.522 86.3758 386.522 86.6119C386.522 86.8507 386.431 87.056 386.249 87.2277C386.069 87.3968 385.851 87.4813 385.597 87.4813ZM389.534 90.8861V94.46H387.819V88.2781H389.453V89.3688H389.526C389.662 89.0093 389.892 88.7249 390.214 88.5156C390.536 88.3036 390.926 88.1977 391.385 88.1977C391.814 88.1977 392.189 88.2916 392.508 88.4794C392.827 88.6672 393.075 88.9355 393.252 89.2843C393.43 89.6304 393.518 90.0436 393.518 90.5239V94.46H391.804V90.8298C391.806 90.4514 391.71 90.1563 391.514 89.9443C391.318 89.7297 391.048 89.6224 390.705 89.6224C390.474 89.6224 390.27 89.672 390.093 89.7713C389.919 89.8706 389.782 90.0154 389.683 90.2059C389.586 90.3938 389.536 90.6205 389.534 90.8861ZM397.654 96.8667C397.099 96.8667 396.623 96.7916 396.226 96.6413C395.831 96.4911 395.517 96.2885 395.284 96.0336C395.05 95.7787 394.899 95.4956 394.829 95.1844L396.415 94.9711C396.463 95.0838 396.54 95.1898 396.644 95.289C396.749 95.391 396.887 95.4742 397.059 95.5386C397.233 95.603 397.445 95.6352 397.695 95.6352C398.068 95.6352 398.375 95.5466 398.616 95.3695C398.86 95.1924 398.982 94.9013 398.982 94.4962V93.3653H398.91C398.835 93.537 398.722 93.6993 398.572 93.8522C398.422 94.0052 398.229 94.1299 397.992 94.2265C397.756 94.3231 397.475 94.3714 397.147 94.3714C396.683 94.3714 396.261 94.2641 395.88 94.0494C395.501 93.8321 395.199 93.5008 394.974 93.0554C394.751 92.6073 394.64 92.0412 394.64 91.357C394.64 90.6567 394.754 90.0718 394.982 89.6022C395.21 89.1327 395.513 88.7812 395.892 88.5478C396.273 88.3144 396.69 88.1977 397.143 88.1977C397.489 88.1977 397.779 88.2567 398.013 88.3747C398.246 88.4901 398.434 88.635 398.576 88.8094C398.721 88.9811 398.832 89.1501 398.91 89.3165H398.974V88.2781H400.677V94.5203C400.677 95.0355 400.548 95.4661 400.29 95.8122C400.033 96.161 399.676 96.424 399.22 96.6011C398.766 96.7781 398.245 96.8667 397.654 96.8667ZM397.691 93.0835C397.967 93.0835 398.2 93.0151 398.391 92.8783C398.584 92.7388 398.732 92.5402 398.834 92.2826C398.938 92.0224 398.991 91.7111 398.991 91.3489C398.991 90.9867 398.94 90.6728 398.838 90.4072C398.736 90.1389 398.588 89.9309 398.395 89.7834C398.202 89.6358 397.967 89.562 397.691 89.562C397.409 89.562 397.171 89.6385 396.978 89.7914C396.785 89.9417 396.639 90.1509 396.54 90.4192C396.44 90.6875 396.391 90.9974 396.391 91.3489C396.391 91.7058 396.44 92.0143 396.54 92.2746C396.641 92.5322 396.788 92.7321 396.978 92.8743C397.171 93.0138 397.409 93.0835 397.691 93.0835ZM407.185 90.0409L405.615 90.1375C405.588 90.0034 405.531 89.8826 405.442 89.7753C405.353 89.6653 405.237 89.5781 405.092 89.5137C404.95 89.4466 404.779 89.4131 404.581 89.4131C404.315 89.4131 404.091 89.4694 403.909 89.5821C403.726 89.6921 403.635 89.8397 403.635 90.0248C403.635 90.1724 403.694 90.2972 403.812 90.3991C403.93 90.5011 404.133 90.5829 404.42 90.6446L405.539 90.87C406.14 90.9934 406.588 91.192 406.883 91.4656C407.178 91.7393 407.326 92.0988 407.326 92.5442C407.326 92.9494 407.206 93.3049 406.967 93.6108C406.731 93.9166 406.407 94.1554 405.993 94.3271C405.583 94.4962 405.109 94.5807 404.573 94.5807C403.754 94.5807 403.102 94.4103 402.617 94.0696C402.134 93.7261 401.851 93.2593 401.768 92.669L403.454 92.5805C403.505 92.83 403.628 93.0205 403.824 93.152C404.02 93.2807 404.271 93.3451 404.577 93.3451C404.877 93.3451 405.119 93.2875 405.301 93.1721C405.486 93.054 405.58 92.9024 405.583 92.7173C405.58 92.5617 405.514 92.4342 405.386 92.335C405.257 92.233 405.058 92.1552 404.79 92.1015L403.719 91.8882C403.116 91.7675 402.666 91.5582 402.371 91.2604C402.079 90.9626 401.933 90.5829 401.933 90.1214C401.933 89.7243 402.04 89.3822 402.255 89.0951C402.472 88.8081 402.776 88.5867 403.168 88.4311C403.563 88.2755 404.024 88.1977 404.553 88.1977C405.333 88.1977 405.948 88.3627 406.396 88.6927C406.847 89.0227 407.11 89.4721 407.185 90.0409Z" fill="#171A22"/>
<rect x="35.7915" y="136.349" width="5.66667" height="5.66667" rx="2.83333" fill="#00A8FF"/>
<rect x="48.5" y="137.293" width="57.6111" height="3.77778" rx="1.88889" fill="#E9EBEF"/>
<rect x="26.3055" y="128.321" width="90.6667" height="21.7222" rx="1.41667" stroke="#E9EBEF" stroke-width="0.944444"/>
<rect x="138.736" y="136.349" width="5.66667" height="5.66667" rx="2.83333" fill="#00BA96"/>
<rect x="151.444" y="137.293" width="57.6111" height="3.77778" rx="1.88889" fill="#E9EBEF"/>
<rect x="129.25" y="128.321" width="90.6667" height="21.7222" rx="1.41667" stroke="#E9EBEF" stroke-width="0.944444"/>
<rect x="241.68" y="136.349" width="5.66667" height="5.66667" rx="2.83333" fill="#FFB36E"/>
<rect x="254.389" y="137.293" width="57.6111" height="3.77778" rx="1.88889" fill="#E9EBEF"/>
<rect x="232.194" y="128.321" width="90.6667" height="21.7222" rx="1.41667" stroke="#E9EBEF" stroke-width="0.944444"/>
<rect x="344.625" y="136.349" width="5.66667" height="5.66667" rx="2.83333" fill="#B880FF"/>
<rect x="357.333" y="137.293" width="57.6111" height="3.77778" rx="1.88889" fill="#E9EBEF"/>
<rect x="335.139" y="128.321" width="90.6667" height="21.7222" rx="1.41667" stroke="#E9EBEF" stroke-width="0.944444"/>
<path d="M26.2321 44.4111L26.2096 29.3L32.1714 29.2911C33.3175 29.2894 34.2942 29.5069 35.1016 29.9435C35.909 30.3751 36.5247 30.9768 36.9489 31.7484C37.378 32.5152 37.5933 33.4003 37.5948 34.4037C37.5963 35.4072 37.3812 36.2929 36.9495 37.0609C36.5177 37.8289 35.8914 38.4275 35.0706 38.8567C34.2547 39.2859 33.2663 39.5013 32.1054 39.5031L28.3055 39.5087L28.3017 36.9484L31.5851 36.9435C32.2 36.9426 32.7065 36.8361 33.1046 36.624C33.5076 36.4069 33.8073 36.1089 34.0035 35.7298C34.2046 35.3458 34.3047 34.9054 34.304 34.4086C34.3033 33.9069 34.2018 33.4693 33.9995 33.0957C33.8022 32.7172 33.5017 32.425 33.098 32.219C32.6944 32.0081 32.1826 31.9031 31.5629 31.904L29.4083 31.9072L29.427 44.4064L26.2321 44.4111ZM44.5642 44.6052C43.4181 44.6069 42.4266 44.3649 41.5896 43.8791C40.7576 43.3885 40.1146 42.7057 39.6608 41.8308C39.2069 40.951 38.9791 39.9306 38.9774 38.7697C38.9757 37.599 39.2004 36.5755 39.6516 35.6993C40.1029 34.8181 40.7438 34.1334 41.5744 33.6452C42.4099 33.152 43.4007 32.9046 44.5468 32.9029C45.6929 32.9012 46.682 33.1457 47.514 33.6363C48.351 34.1221 48.9964 34.8049 49.4503 35.6847C49.9041 36.5596 50.1319 37.5824 50.1336 38.7531C50.1354 39.914 49.9106 40.935 49.4594 41.8162C49.0081 42.6924 48.3648 43.3771 47.5293 43.8703C46.6987 44.3585 45.7103 44.6035 44.5642 44.6052ZM44.5754 42.1703C45.0968 42.1695 45.5319 42.0213 45.8807 41.7256C46.2295 41.425 46.492 41.0164 46.6684 40.4996C46.8496 39.9828 46.9397 39.3949 46.9387 38.7357C46.9378 38.0766 46.8459 37.4889 46.6631 36.9727C46.4852 36.4565 46.2215 36.0486 45.8718 35.749C45.5221 35.4495 45.0865 35.3001 44.5651 35.3009C44.0388 35.3017 43.5963 35.4524 43.2377 35.753C42.8839 36.0535 42.6165 36.4622 42.4352 36.979C42.2589 37.4957 42.1713 38.0837 42.1722 38.7428C42.1732 39.402 42.2626 39.9897 42.4405 40.5059C42.6233 41.0221 42.892 41.43 43.2466 41.7295C43.6061 42.0241 44.049 42.171 44.5754 42.1703ZM61.6035 36.2568L58.7261 36.4382C58.6766 36.1923 58.5705 35.9711 58.4079 35.7746C58.2452 35.5732 58.031 35.4136 57.7652 35.296C57.5043 35.1734 57.1919 35.1124 56.8279 35.1129C56.3409 35.1136 55.9303 35.2176 55.5961 35.4246C55.262 35.6268 55.0951 35.8976 55.0956 36.237C55.096 36.5076 55.2046 36.7361 55.4213 36.9227C55.638 37.1093 56.0096 37.2588 56.5361 37.3712L58.5879 37.7813C59.6901 38.0059 60.5121 38.3687 61.054 38.8696C61.5958 39.3706 61.8673 40.0293 61.8686 40.8459C61.8697 41.5886 61.6517 42.2407 61.2148 42.8021C60.7828 43.3636 60.1882 43.8022 59.4312 44.1182C58.679 44.4292 57.811 44.5854 56.8272 44.5869C55.327 44.5891 54.1312 44.2786 53.2399 43.6552C52.3536 43.0269 51.8333 42.1717 51.6792 41.0898L54.7706 40.9229C54.8647 41.3802 55.0915 41.7291 55.4509 41.9696C55.8104 42.2052 56.2705 42.3225 56.8313 42.3217C57.3822 42.3209 57.8247 42.2145 58.1589 42.0024C58.498 41.7855 58.6697 41.5073 58.6742 41.1679C58.6688 40.8826 58.5479 40.6491 58.3116 40.4675C58.0752 40.2809 57.711 40.1388 57.2189 40.0412L55.2557 39.653C54.1486 39.4333 53.3241 39.0509 52.7822 38.5057C52.2452 37.9605 51.976 37.2648 51.9748 36.4188C51.9737 35.6908 52.1695 35.0633 52.5623 34.5364C52.9599 34.0094 53.5176 33.6028 54.2354 33.3164C54.958 33.0301 55.8039 32.8861 56.7729 32.8847C58.2043 32.8826 59.3312 33.1834 60.1536 33.7872C60.9809 34.391 61.4642 35.2142 61.6035 36.2568ZM63.8531 44.3551L63.8362 33.0217L66.9794 33.0171L66.9963 44.3504L63.8531 44.3551ZM65.4204 31.5584C64.9531 31.5591 64.5519 31.4048 64.217 31.0954C63.882 30.7811 63.7142 30.405 63.7136 29.9672C63.7129 29.5344 63.8796 29.1627 64.2137 28.8523C64.5477 28.537 64.9459 28.379 65.4083 28.3783C65.8805 28.3776 66.2816 28.5344 66.6117 28.8488C66.9466 29.1582 67.1144 29.5293 67.115 29.9622C67.1157 30.4 66.949 30.7765 66.615 31.0918C66.2859 31.4022 65.8877 31.5577 65.4204 31.5584ZM75.5255 33.0043L75.529 35.3654L68.704 35.3756L68.7004 33.0145L75.5255 33.0043ZM70.2459 30.2969L73.3891 30.2922L73.4048 40.8582C73.4053 41.1484 73.4499 41.3746 73.5387 41.5368C73.6274 41.6941 73.7506 41.8046 73.9081 41.8683C74.0705 41.932 74.2575 41.9637 74.469 41.9634C74.6166 41.9632 74.7641 41.9506 74.9116 41.9258C75.0592 41.8961 75.1723 41.8738 75.251 41.8589L75.7488 44.1972C75.5915 44.2466 75.3702 44.3035 75.085 44.3679C74.7998 44.4371 74.4531 44.4795 74.0448 44.4948C73.2873 44.5255 72.6231 44.4256 72.0522 44.1953C71.4861 43.9649 71.0454 43.6065 70.7298 43.12C70.4143 42.6335 70.2584 42.0188 70.2622 41.2761L70.2459 30.2969ZM77.5899 44.3346L77.5731 33.0013L80.7163 32.9966L80.7332 44.3299L77.5899 44.3346ZM79.1572 31.538C78.6899 31.5387 78.2888 31.3843 77.9539 31.0749C77.6189 30.7606 77.4511 30.3846 77.4504 29.9468C77.4498 29.5139 77.6165 29.1423 77.9505 28.8319C78.2845 28.5166 78.6827 28.3585 79.1451 28.3579C79.6174 28.3572 80.0185 28.514 80.3485 28.8283C80.6835 29.1377 80.8513 29.5088 80.8519 29.9417C80.8526 30.3795 80.6859 30.756 80.3519 31.0713C80.0228 31.3817 79.6245 31.5373 79.1572 31.538ZM88.3721 44.5399C87.2259 44.5416 86.2344 44.2996 85.3974 43.8139C84.5654 43.3232 83.9225 42.6404 83.4686 41.7655C83.0147 40.8857 82.787 39.8653 82.7852 38.7045C82.7835 37.5337 83.0082 36.5103 83.4595 35.634C83.9107 34.7528 84.5516 34.0681 85.3822 33.5799C86.2177 33.0868 87.2085 32.8393 88.3546 32.8376C89.5007 32.8359 90.4898 33.0804 91.3219 33.5711C92.1588 34.0568 92.8042 34.7396 93.2581 35.6194C93.7119 36.4943 93.9397 37.5171 93.9415 38.6878C93.9432 39.8487 93.7185 40.8697 93.2672 41.7509C92.816 42.6272 92.1726 43.3119 91.3371 43.805C90.5065 44.2932 89.5182 44.5382 88.3721 44.5399ZM88.3832 42.105C88.9046 42.1042 89.3397 41.956 89.6885 41.6603C90.0373 41.3597 90.2999 40.9511 90.4762 40.4343C90.6574 39.9176 90.7475 39.3296 90.7466 38.6705C90.7456 38.0113 90.6537 37.4236 90.4709 36.9074C90.2931 36.3912 90.0293 35.9833 89.6796 35.6838C89.3299 35.3842 88.8944 35.2348 88.3729 35.2356C87.8466 35.2364 87.4041 35.3871 87.0455 35.6877C86.6918 35.9883 86.4243 36.3969 86.2431 36.9137C86.0668 37.4305 85.9791 38.0184 85.9801 38.6776C85.9811 39.3367 86.0705 39.9244 86.2483 40.4406C86.4311 40.9568 86.6998 41.3647 87.0544 41.6642C87.4139 41.9589 87.8569 42.1058 88.3832 42.105ZM99.1272 37.7504L99.1369 44.3025L95.9937 44.3072L95.9768 32.9739L98.9725 32.9694L98.9754 34.969L99.1083 34.9688C99.3581 34.3092 99.7779 33.7872 100.368 33.4026C100.957 33.0132 101.673 32.8178 102.514 32.8165C103.301 32.8154 103.987 32.9865 104.573 33.33C105.159 33.6734 105.615 34.1646 105.94 34.8036C106.266 35.4377 106.43 36.195 106.431 37.0755L106.442 44.2916L103.298 44.2963L103.288 37.6409C103.292 36.9473 103.114 36.4065 102.755 36.0184C102.395 35.6255 101.9 35.4294 101.271 35.4304C100.848 35.431 100.474 35.5226 100.15 35.7051C99.8303 35.8875 99.5798 36.1535 99.3983 36.503C99.2217 36.8476 99.1313 37.2634 99.1272 37.7504ZM113.193 31.8045L113.189 29.1704L125.599 29.1519L125.603 31.786L120.977 31.7929L120.996 44.2699L117.838 44.2746L117.819 31.7976L113.193 31.8045ZM126.43 44.2618L126.413 32.9285L129.46 32.924L129.463 34.9014L129.581 34.9012C129.787 34.1975 130.133 33.6657 130.619 33.3059C131.106 32.9412 131.666 32.7583 132.301 32.7574C132.458 32.7572 132.628 32.7668 132.81 32.7862C132.992 32.8056 133.152 32.8324 133.29 32.8666L133.294 35.6557C133.146 35.6116 132.942 35.5726 132.681 35.5385C132.42 35.5045 132.182 35.4876 131.965 35.4879C131.503 35.4886 131.09 35.5901 130.726 35.7923C130.368 35.9896 130.083 36.2655 129.872 36.62C129.666 36.9744 129.563 37.3829 129.564 37.8453L129.573 44.2572L126.43 44.2618ZM137.839 44.4588C137.116 44.4599 136.472 44.3354 135.905 44.0854C135.339 43.8304 134.891 43.4548 134.561 42.9585C134.235 42.4572 134.072 41.8328 134.071 41.0851C134.07 40.4554 134.185 39.9265 134.416 39.4982C134.646 39.0699 134.96 38.7251 135.358 38.4638C135.756 38.2025 136.209 38.0051 136.715 37.8715C137.227 37.7379 137.763 37.6437 138.323 37.5887C138.982 37.5189 139.513 37.4541 139.917 37.3945C140.32 37.33 140.613 37.2361 140.794 37.1128C140.976 36.9896 141.067 36.8074 141.067 36.5664L141.066 36.5221C141.066 36.0548 140.918 35.6935 140.622 35.4382C140.332 35.1828 139.918 35.0555 139.382 35.0563C138.816 35.0572 138.366 35.1833 138.032 35.4346C137.698 35.6811 137.477 35.9913 137.37 36.3653L134.462 36.1335C134.609 35.4447 134.898 34.849 135.33 34.3466C135.762 33.8393 136.32 33.4499 137.003 33.1783C137.692 32.9019 138.488 32.7629 139.393 32.7616C140.023 32.7607 140.626 32.8335 141.201 32.9803C141.782 33.127 142.296 33.3549 142.745 33.6642C143.198 33.9734 143.555 34.3713 143.816 34.8579C144.078 35.3395 144.209 35.9173 144.21 36.5912L144.221 44.2353L141.24 44.2398L141.238 42.6682L141.149 42.6683C140.968 43.0227 140.725 43.3354 140.42 43.6064C140.116 43.8725 139.75 44.0821 139.322 44.2352C138.894 44.3835 138.4 44.458 137.839 44.4588ZM138.736 42.2882C139.198 42.2875 139.607 42.1959 139.961 42.0134C140.314 41.8259 140.592 41.5746 140.793 41.2595C140.994 40.9444 141.095 40.5876 141.094 40.1892L141.092 38.9865C140.994 39.0506 140.859 39.1098 140.687 39.1642C140.52 39.2136 140.33 39.2606 140.119 39.3052C139.907 39.3449 139.696 39.3821 139.484 39.4169C139.273 39.4467 139.081 39.474 138.909 39.4989C138.54 39.5535 138.218 39.6401 137.943 39.7586C137.668 39.877 137.454 40.0372 137.302 40.2391C137.149 40.4361 137.074 40.6822 137.074 40.9773C137.075 41.4053 137.23 41.7321 137.54 41.9579C137.855 42.1788 138.254 42.2889 138.736 42.2882ZM151.781 44.4454C150.62 44.4471 149.621 44.2027 148.784 43.712C147.952 43.2165 147.312 42.5287 146.863 41.6489C146.419 40.7691 146.196 39.7561 146.194 38.61C146.192 37.4491 146.415 36.4305 146.861 35.5543C147.312 34.6731 147.953 33.986 148.784 33.4928C149.614 32.9948 150.602 32.7449 151.749 32.7432C152.737 32.7417 153.603 32.92 154.347 33.2779C155.09 33.6359 155.679 34.1392 156.112 34.7879C156.546 35.4366 156.786 36.1986 156.831 37.0742L153.865 37.0786C153.781 36.513 153.559 36.0583 153.199 35.7146C152.845 35.3658 152.379 35.1919 151.804 35.1928C151.317 35.1935 150.892 35.3269 150.528 35.5931C150.169 35.8543 149.89 36.236 149.689 36.738C149.488 37.24 149.388 37.8477 149.389 38.5609C149.39 39.284 149.489 39.8988 149.687 40.4051C149.889 40.9115 150.173 41.2972 150.537 41.5623C150.901 41.8274 151.327 41.9595 151.814 41.9588C152.173 41.9583 152.495 41.884 152.78 41.736C153.07 41.588 153.308 41.3737 153.495 41.093C153.686 40.8074 153.811 40.4654 153.87 40.0669L156.836 40.0624C156.788 40.9283 156.553 41.691 156.131 42.3508C155.714 43.0057 155.137 43.5181 154.399 43.8881C153.662 44.2582 152.789 44.4439 151.781 44.4454ZM161.698 40.948L161.7 37.1776L162.157 37.1769L165.781 32.8698L169.389 32.8645L164.52 38.5679L163.775 38.569L161.698 40.948ZM158.855 44.2135L158.832 29.1024L161.975 29.0977L161.998 44.2088L158.855 44.2135ZM165.938 44.203L162.595 39.2717L164.688 37.0477L169.62 44.1975L165.938 44.203ZM170.948 44.1955L170.931 32.8622L174.074 32.8575L174.091 44.1908L170.948 44.1955ZM172.515 31.3989C172.048 31.3996 171.647 31.2452 171.312 30.9358C170.977 30.6215 170.809 30.2454 170.808 29.8077C170.808 29.3748 170.974 29.0032 171.308 28.6928C171.643 28.3774 172.041 28.2194 172.503 28.2188C172.975 28.2181 173.376 28.3749 173.706 28.6892C174.041 28.9986 174.209 29.3697 174.21 29.8026C174.211 30.2404 174.044 30.6169 173.71 30.9322C173.381 31.2426 172.983 31.3982 172.515 31.3989ZM179.742 37.6303L179.752 44.1824L176.609 44.1871L176.592 32.8537L179.588 32.8493L179.591 34.8488L179.724 34.8486C179.973 34.1891 180.393 33.6671 180.983 33.2825C181.573 32.893 182.288 32.6977 183.129 32.6964C183.916 32.6953 184.603 32.8664 185.189 33.2099C185.774 33.5533 186.23 34.0445 186.556 34.6835C186.881 35.3176 187.045 36.0749 187.046 36.9554L187.057 44.1715L183.914 44.1762L183.904 37.5208C183.908 36.8272 183.73 36.2864 183.37 35.8983C183.01 35.5053 182.516 35.3093 181.886 35.3103C181.463 35.3109 181.089 35.4024 180.765 35.5849C180.446 35.7674 180.195 36.0334 180.014 36.3829C179.837 36.7275 179.747 37.1433 179.742 37.6303ZM194.647 48.5725C193.629 48.574 192.755 48.4376 192.027 48.1632C191.303 47.8889 190.727 47.5183 190.299 47.0517C189.87 46.585 189.591 46.0665 189.462 45.496L192.369 45.1007C192.458 45.3071 192.598 45.5012 192.79 45.6829C192.983 45.8696 193.236 46.0217 193.551 46.1393C193.871 46.2568 194.26 46.3153 194.717 46.3146C195.401 46.3136 195.964 46.1504 196.406 45.8251C196.853 45.4998 197.076 44.9657 197.075 44.223L197.072 42.1496L196.939 42.1498C196.802 42.4648 196.596 42.7628 196.321 43.0435C196.046 43.3243 195.692 43.5536 195.259 43.7313C194.827 43.9091 194.31 43.9984 193.71 43.9993C192.859 44.0005 192.084 43.8049 191.385 43.4124C190.691 43.015 190.137 42.4084 189.722 41.5924C189.313 40.7716 189.107 39.734 189.105 38.4796C189.103 37.1958 189.311 36.1231 189.728 35.2617C190.144 34.4002 190.699 33.755 191.392 33.326C192.09 32.897 192.855 32.6819 193.686 32.6807C194.321 32.6797 194.852 32.7872 195.28 33.003C195.708 33.2139 196.053 33.479 196.314 33.7983C196.58 34.1127 196.785 34.4223 196.928 34.7271L197.046 34.7269L197.043 32.8233L200.165 32.8186L200.182 44.2626C200.183 45.2071 199.948 45.9969 199.477 46.6322C199.005 47.2723 198.352 47.7554 197.516 48.0813C196.685 48.4072 195.729 48.5709 194.647 48.5725ZM194.703 41.6367C195.209 41.6359 195.637 41.5098 195.986 41.2584C196.34 41.0021 196.61 40.6377 196.796 40.1652C196.987 39.6878 197.082 39.1171 197.081 38.453C197.08 37.7889 196.986 37.2135 196.798 36.7268C196.611 36.2352 196.34 35.8544 195.985 35.5844C195.63 35.3144 195.2 35.1797 194.693 35.1805C194.177 35.1813 193.742 35.3221 193.388 35.603C193.034 35.879 192.767 36.2631 192.585 36.7553C192.404 37.2474 192.314 37.8157 192.315 38.4601C192.316 39.1143 192.408 39.6799 192.59 40.1567C192.778 40.6287 193.047 40.9947 193.396 41.2549C193.751 41.5102 194.186 41.6374 194.703 41.6367Z" fill="#171A22"/>
<rect x="56.0554" y="181.682" width="371.167" height="0.944444" fill="#E9EBEF"/>
<rect x="56.0554" y="227.96" width="371.167" height="0.944444" fill="#E9EBEF"/>
<rect x="56.0554" y="274.238" width="371.167" height="0.944444" fill="#E9EBEF"/>
<rect x="56.0554" y="320.516" width="371.167" height="0.944444" fill="#E9EBEF"/>
<path d="M26.8146 186.016L30.1128 179.493V179.438H26.2981V178.46H31.2933V179.471L28.0062 186.016H26.8146ZM34.9687 186.119C34.5063 186.119 34.0907 186.03 33.7218 185.853C33.3553 185.674 33.0626 185.428 32.8437 185.115C32.6248 184.803 32.508 184.446 32.4932 184.045H33.6C33.6271 184.37 33.771 184.637 34.0317 184.846C34.2924 185.055 34.6047 185.16 34.9687 185.16C35.2589 185.16 35.516 185.093 35.7398 184.96C35.966 184.825 36.1431 184.639 36.271 184.403C36.4014 184.167 36.4666 183.898 36.4666 183.595C36.4666 183.288 36.4001 183.014 36.2673 182.773C36.1345 182.532 35.9513 182.342 35.7176 182.205C35.4864 182.067 35.2208 181.997 34.9208 181.994C34.692 181.994 34.4621 182.034 34.2309 182.112C33.9997 182.191 33.8128 182.294 33.6701 182.422L32.6261 182.267L33.0503 178.46H37.2044V179.438H33.9985L33.7587 181.552H33.8029C33.9505 181.409 34.146 181.29 34.3895 181.194C34.6355 181.098 34.8986 181.05 35.179 181.05C35.6389 181.05 36.0484 181.159 36.4075 181.378C36.7691 181.597 37.0531 181.896 37.2597 182.275C37.4688 182.651 37.5721 183.084 37.5696 183.573C37.5721 184.063 37.4614 184.499 37.2376 184.883C37.0162 185.267 36.7088 185.569 36.3153 185.79C35.9242 186.009 35.4754 186.119 34.9687 186.119Z" fill="#3E424B"/>
<path d="M29.054 232.397C28.5916 232.397 28.1759 232.308 27.807 232.131C27.4405 231.951 27.1478 231.705 26.929 231.393C26.7101 231.081 26.5932 230.724 26.5785 230.323H27.6852C27.7123 230.648 27.8562 230.915 28.1169 231.124C28.3776 231.333 28.69 231.437 29.054 231.437C29.3442 231.437 29.6012 231.371 29.825 231.238C30.0513 231.103 30.2284 230.917 30.3563 230.681C30.4866 230.445 30.5518 230.176 30.5518 229.873C30.5518 229.566 30.4854 229.291 30.3526 229.05C30.2198 228.809 30.0365 228.62 29.8029 228.482C29.5717 228.345 29.3061 228.274 29.006 228.272C28.7773 228.272 28.5473 228.311 28.3161 228.39C28.0849 228.469 27.898 228.572 27.7553 228.7L26.7113 228.545L27.1356 224.738H31.2896V225.715H28.0837L27.8439 227.829H27.8882C28.0357 227.687 28.2313 227.567 28.4747 227.471C28.7207 227.375 28.9839 227.328 29.2642 227.328C29.7242 227.328 30.1337 227.437 30.4928 227.656C30.8543 227.875 31.1384 228.174 31.345 228.552C31.554 228.929 31.6573 229.362 31.6549 229.851C31.6573 230.34 31.5466 230.777 31.3228 231.161C31.1015 231.544 30.794 231.847 30.4005 232.068C30.0095 232.287 29.5606 232.397 29.054 232.397ZM35.6328 232.419C35.0499 232.416 34.5518 232.262 34.1386 231.957C33.7255 231.653 33.4094 231.209 33.1905 230.626C32.9716 230.043 32.8622 229.341 32.8622 228.519C32.8622 227.7 32.9716 227 33.1905 226.42C33.4119 225.84 33.7291 225.397 34.1423 225.092C34.558 224.787 35.0548 224.634 35.6328 224.634C36.2108 224.634 36.7064 224.788 37.1195 225.096C37.5327 225.4 37.8488 225.843 38.0677 226.424C38.289 227.002 38.3997 227.7 38.3997 228.519C38.3997 229.343 38.2903 230.046 38.0714 230.629C37.8525 231.21 37.5364 231.654 37.1232 231.961C36.71 232.266 36.2132 232.419 35.6328 232.419ZM35.6328 231.434C36.1444 231.434 36.544 231.184 36.8318 230.685C37.122 230.185 37.2671 229.464 37.2671 228.519C37.2671 227.892 37.2007 227.362 37.0679 226.929C36.9375 226.494 36.7494 226.164 36.5034 225.94C36.26 225.714 35.9697 225.601 35.6328 225.601C35.1237 225.601 34.724 225.852 34.4338 226.354C34.1436 226.855 33.9972 227.577 33.9948 228.519C33.9948 229.149 34.0599 229.681 34.1903 230.117C34.3231 230.549 34.5113 230.878 34.7547 231.102C34.9982 231.323 35.2909 231.434 35.6328 231.434Z" fill="#3E424B"/>
<path d="M26.56 278.571V277.745L29.1167 275.096C29.3897 274.808 29.6147 274.556 29.7918 274.339C29.9713 274.121 30.1054 273.913 30.1939 273.716C30.2825 273.519 30.3267 273.31 30.3267 273.089C30.3267 272.838 30.2677 272.622 30.1497 272.44C30.0316 272.255 29.8705 272.114 29.6664 272.015C29.4622 271.914 29.2323 271.864 28.9765 271.864C28.7059 271.864 28.4698 271.919 28.2681 272.03C28.0665 272.141 27.9115 272.297 27.8033 272.499C27.6951 272.7 27.641 272.936 27.641 273.207H26.5527C26.5527 272.747 26.6584 272.345 26.8699 272.001C27.0814 271.656 27.3717 271.389 27.7406 271.2C28.1095 271.008 28.5289 270.912 28.9986 270.912C29.4733 270.912 29.8914 271.007 30.253 271.196C30.617 271.383 30.901 271.639 31.1052 271.964C31.3093 272.286 31.4114 272.65 31.4114 273.056C31.4114 273.336 31.3585 273.61 31.2527 273.878C31.1494 274.146 30.9687 274.445 30.7104 274.775C30.4522 275.102 30.0931 275.499 29.6332 275.966L28.1316 277.538V277.593H31.5331V278.571H26.56ZM35.4253 278.674C34.9629 278.674 34.5472 278.586 34.1783 278.409C33.8118 278.229 33.5192 277.983 33.3003 277.671C33.0814 277.359 32.9645 277.002 32.9498 276.601H34.0566C34.0836 276.926 34.2275 277.193 34.4882 277.402C34.7489 277.611 35.0613 277.715 35.4253 277.715C35.7155 277.715 35.9725 277.649 36.1963 277.516C36.4226 277.381 36.5997 277.195 36.7276 276.959C36.8579 276.723 36.9231 276.453 36.9231 276.151C36.9231 275.843 36.8567 275.569 36.7239 275.328C36.5911 275.087 36.4078 274.898 36.1742 274.76C35.943 274.622 35.6774 274.552 35.3773 274.55C35.1486 274.55 34.9186 274.589 34.6874 274.668C34.4562 274.747 34.2693 274.85 34.1267 274.978L33.0826 274.823L33.5069 271.015H37.6609V271.993H34.455L34.2152 274.107H34.2595C34.407 273.964 34.6026 273.845 34.8461 273.749C35.092 273.653 35.3552 273.605 35.6356 273.605C36.0955 273.605 36.505 273.715 36.8641 273.934C37.2256 274.153 37.5097 274.451 37.7163 274.83C37.9253 275.206 38.0286 275.639 38.0262 276.129C38.0286 276.618 37.918 277.055 37.6941 277.438C37.4728 277.822 37.1654 278.125 36.7718 278.346C36.3808 278.565 35.9319 278.674 35.4253 278.674Z" fill="#3E424B"/>
<path d="M29.1905 323.085C28.6076 323.083 28.1095 322.929 27.6963 322.624C27.2831 322.319 26.9671 321.875 26.7482 321.292C26.5293 320.71 26.4198 320.007 26.4198 319.186C26.4198 318.367 26.5293 317.667 26.7482 317.087C26.9695 316.506 27.2868 316.064 27.7 315.759C28.1157 315.454 28.6125 315.301 29.1905 315.301C29.7684 315.301 30.264 315.455 30.6772 315.762C31.0904 316.067 31.4065 316.51 31.6254 317.09C31.8467 317.668 31.9574 318.367 31.9574 319.186C31.9574 320.01 31.8479 320.713 31.629 321.296C31.4101 321.877 31.0941 322.32 30.6809 322.628C30.2677 322.933 29.7709 323.085 29.1905 323.085ZM29.1905 322.1C29.702 322.1 30.1017 321.851 30.3895 321.351C30.6797 320.852 30.8248 320.13 30.8248 319.186C30.8248 318.559 30.7584 318.029 30.6256 317.596C30.4952 317.16 30.3071 316.831 30.0611 316.607C29.8176 316.381 29.5274 316.268 29.1905 316.268C28.6813 316.268 28.2817 316.519 27.9915 317.02C27.7012 317.522 27.5549 318.244 27.5524 319.186C27.5524 319.816 27.6176 320.348 27.748 320.783C27.8808 321.216 28.0689 321.545 28.3124 321.768C28.5559 321.99 28.8486 322.1 29.1905 322.1Z" fill="#3E424B"/>
<path d="M56.0557 211.904L109.079 222.293H164.978H219.28H270.387L321.814 217.099L375.157 213.793L427.222 210.016" stroke="#00A8FF" stroke-width="3.77778" stroke-linecap="round" stroke-linejoin="round"/>
<path d="M56.0557 227.788L108.624 199.627L163.423 204.79L216.948 214.646L270.791 277.071L323.359 227.788L376.247 248.909L427.222 273.316" stroke="#00BA96" stroke-width="3.77778" stroke-linecap="round" stroke-linejoin="round"/>
<path d="M56.0557 266.682L108.896 264.433L162.698 262.634L216.179 259.486H270.301L322.501 257.238L376.623 259.486L427.222 261.735" stroke="#FFB36E" stroke-width="3.77778" stroke-linecap="round" stroke-linejoin="round"/>
<path d="M56.0557 309.654L109.769 307.293L164.125 313.432L217.516 309.654L271.551 311.543L324.621 318.627L378.012 302.571L427.222 305.877" stroke="#B880FF" stroke-width="3.77778" stroke-linecap="round" stroke-linejoin="round"/>
</svg>
