<svg width="571" height="477" viewBox="0 0 571 477" fill="none" xmlns="http://www.w3.org/2000/svg">
<g filter="url(#filter0_d)">
<rect x="35.5" y="35.908" width="480" height="386" rx="10" fill="white"/>
</g>
<path d="M68.2585 135.908V127.181H70.1037V134.387H73.8452V135.908H68.2585ZM76.8995 136.032C76.4819 136.032 76.1097 135.959 75.783 135.814C75.4563 135.666 75.1978 135.449 75.0075 135.162C74.82 134.872 74.7262 134.512 74.7262 134.08C74.7262 133.716 74.793 133.411 74.9265 133.164C75.06 132.916 75.2418 132.718 75.4719 132.567C75.7021 132.416 75.9634 132.303 76.256 132.226C76.5515 132.149 76.8612 132.095 77.185 132.064C77.5657 132.024 77.8725 131.988 78.1055 131.953C78.3384 131.916 78.5075 131.863 78.6126 131.791C78.7177 131.72 78.7702 131.615 78.7702 131.476V131.451C78.7702 131.181 78.685 130.972 78.5146 130.824C78.3469 130.676 78.1083 130.603 77.7987 130.603C77.4719 130.603 77.212 130.675 77.0188 130.82C76.8256 130.962 76.6978 131.141 76.6353 131.357L74.9563 131.22C75.0415 130.823 75.2092 130.479 75.4592 130.189C75.7092 129.897 76.0316 129.672 76.4265 129.516C76.8242 129.357 77.2844 129.277 77.8072 129.277C78.1708 129.277 78.5188 129.32 78.8512 129.405C79.1864 129.49 79.4833 129.622 79.7418 129.801C80.0032 129.98 80.2092 130.211 80.3597 130.492C80.5103 130.77 80.5856 131.104 80.5856 131.493V135.908H78.864V135H78.8129C78.7077 135.205 78.5671 135.385 78.391 135.541C78.2148 135.695 78.0032 135.816 77.756 135.904C77.5089 135.989 77.2234 136.032 76.8995 136.032ZM77.4194 134.779C77.6864 134.779 77.9222 134.726 78.1268 134.621C78.3313 134.513 78.4918 134.368 78.6083 134.186C78.7248 134.005 78.783 133.799 78.783 133.568V132.874C78.7262 132.911 78.6481 132.945 78.5487 132.976C78.4521 133.005 78.3427 133.032 78.2205 133.057C78.0984 133.08 77.9762 133.101 77.854 133.121C77.7319 133.138 77.6211 133.154 77.5217 133.168C77.3086 133.199 77.1225 133.249 76.9634 133.317C76.8043 133.385 76.6808 133.478 76.5927 133.594C76.5046 133.708 76.4606 133.85 76.4606 134.02C76.4606 134.267 76.5501 134.456 76.729 134.587C76.9109 134.715 77.141 134.779 77.4194 134.779ZM83.8093 132.124V135.908H81.994V129.363H83.7241V130.517H83.8008C83.9457 130.137 84.1886 129.836 84.5295 129.614C84.8704 129.389 85.2837 129.277 85.7695 129.277C86.2241 129.277 86.6204 129.377 86.9585 129.576C87.2965 129.774 87.5593 130.059 87.7468 130.428C87.9343 130.794 88.0281 131.232 88.0281 131.74V135.908H86.2127V132.064C86.2156 131.664 86.1133 131.351 85.9059 131.127C85.6985 130.899 85.413 130.786 85.0494 130.786C84.805 130.786 84.5891 130.838 84.4016 130.943C84.217 131.049 84.0721 131.202 83.967 131.404C83.8647 131.603 83.8121 131.843 83.8093 132.124ZM91.8707 136.014C91.3736 136.014 90.9233 135.887 90.5199 135.631C90.1193 135.372 89.8011 134.993 89.5653 134.493C89.3324 133.99 89.2159 133.374 89.2159 132.644C89.2159 131.894 89.3366 131.27 89.5781 130.773C89.8196 130.273 90.1406 129.899 90.5412 129.652C90.9446 129.402 91.3864 129.277 91.8665 129.277C92.233 129.277 92.5384 129.34 92.7827 129.465C93.0298 129.587 93.2287 129.74 93.3793 129.925C93.5327 130.107 93.6491 130.286 93.7287 130.462H93.7841V127.181H95.5952V135.908H93.8054V134.86H93.7287C93.6435 135.041 93.5227 135.222 93.3665 135.401C93.2131 135.577 93.0128 135.723 92.7656 135.84C92.5213 135.956 92.223 136.014 91.8707 136.014ZM92.446 134.57C92.7386 134.57 92.9858 134.49 93.1875 134.331C93.392 134.169 93.5483 133.943 93.6562 133.654C93.767 133.364 93.8224 133.024 93.8224 132.635C93.8224 132.246 93.7685 131.908 93.6605 131.621C93.5526 131.334 93.3963 131.113 93.1918 130.956C92.9872 130.8 92.7386 130.722 92.446 130.722C92.1477 130.722 91.8963 130.803 91.6918 130.965C91.4872 131.127 91.3324 131.351 91.2273 131.638C91.1222 131.925 91.0696 132.257 91.0696 132.635C91.0696 133.016 91.1222 133.353 91.2273 133.645C91.3352 133.935 91.4901 134.162 91.6918 134.327C91.8963 134.489 92.1477 134.57 92.446 134.57ZM102.534 131.229L100.872 131.331C100.843 131.189 100.782 131.061 100.689 130.948C100.595 130.831 100.471 130.739 100.318 130.671C100.167 130.6 99.9869 130.564 99.7766 130.564C99.4954 130.564 99.2582 130.624 99.065 130.743C98.8718 130.86 98.7752 131.016 98.7752 131.212C98.7752 131.368 98.8377 131.5 98.9627 131.608C99.0877 131.716 99.3022 131.803 99.6062 131.868L100.791 132.107C101.427 132.238 101.902 132.448 102.214 132.738C102.527 133.027 102.683 133.408 102.683 133.88C102.683 134.309 102.556 134.685 102.304 135.009C102.054 135.333 101.71 135.586 101.272 135.767C100.838 135.946 100.336 136.036 99.7681 136.036C98.9016 136.036 98.2113 135.855 97.6971 135.495C97.1857 135.131 96.886 134.637 96.7979 134.012L98.5835 133.918C98.6374 134.182 98.7681 134.384 98.9755 134.523C99.1829 134.659 99.4485 134.728 99.7724 134.728C100.091 134.728 100.346 134.666 100.539 134.544C100.735 134.419 100.835 134.259 100.838 134.063C100.835 133.898 100.765 133.763 100.629 133.658C100.493 133.55 100.282 133.468 99.9982 133.411L98.8647 133.185C98.2255 133.057 97.7496 132.836 97.4371 132.52C97.1275 132.205 96.9727 131.803 96.9727 131.314C96.9727 130.894 97.0863 130.532 97.3136 130.228C97.5437 129.924 97.8661 129.689 98.2809 129.524C98.6985 129.36 99.1871 129.277 99.7468 129.277C100.574 129.277 101.224 129.452 101.699 129.801C102.176 130.151 102.454 130.627 102.534 131.229ZM106.783 136.036C106.113 136.036 105.536 135.894 105.053 135.61C104.573 135.323 104.204 134.925 103.945 134.416C103.69 133.908 103.562 133.323 103.562 132.661C103.562 131.99 103.691 131.402 103.95 130.897C104.211 130.388 104.582 129.992 105.062 129.708C105.542 129.421 106.113 129.277 106.775 129.277C107.346 129.277 107.846 129.381 108.275 129.588C108.704 129.796 109.043 130.087 109.293 130.462C109.543 130.837 109.681 131.277 109.707 131.783H107.994C107.945 131.456 107.817 131.193 107.61 130.995C107.406 130.793 107.137 130.692 106.805 130.692C106.523 130.692 106.278 130.769 106.067 130.922C105.86 131.073 105.698 131.293 105.582 131.583C105.465 131.872 105.407 132.223 105.407 132.635C105.407 133.053 105.464 133.408 105.577 133.701C105.694 133.993 105.857 134.216 106.067 134.37C106.278 134.523 106.523 134.6 106.805 134.6C107.012 134.6 107.198 134.557 107.363 134.472C107.531 134.387 107.668 134.263 107.776 134.101C107.887 133.936 107.96 133.739 107.994 133.509H109.707C109.678 134.009 109.542 134.449 109.298 134.83C109.056 135.208 108.722 135.503 108.296 135.716C107.87 135.929 107.366 136.036 106.783 136.036ZM112.735 136.032C112.318 136.032 111.946 135.959 111.619 135.814C111.292 135.666 111.034 135.449 110.843 135.162C110.656 134.872 110.562 134.512 110.562 134.08C110.562 133.716 110.629 133.411 110.762 133.164C110.896 132.916 111.078 132.718 111.308 132.567C111.538 132.416 111.799 132.303 112.092 132.226C112.387 132.149 112.697 132.095 113.021 132.064C113.402 132.024 113.708 131.988 113.941 131.953C114.174 131.916 114.343 131.863 114.449 131.791C114.554 131.72 114.606 131.615 114.606 131.476V131.451C114.606 131.181 114.521 130.972 114.35 130.824C114.183 130.676 113.944 130.603 113.635 130.603C113.308 130.603 113.048 130.675 112.855 130.82C112.662 130.962 112.534 131.141 112.471 131.357L110.792 131.22C110.877 130.823 111.045 130.479 111.295 130.189C111.545 129.897 111.868 129.672 112.262 129.516C112.66 129.357 113.12 129.277 113.643 129.277C114.007 129.277 114.355 129.32 114.687 129.405C115.022 129.49 115.319 129.622 115.578 129.801C115.839 129.98 116.045 130.211 116.196 130.492C116.346 130.77 116.422 131.104 116.422 131.493V135.908H114.7V135H114.649C114.544 135.205 114.403 135.385 114.227 135.541C114.051 135.695 113.839 135.816 113.592 135.904C113.345 135.989 113.059 136.032 112.735 136.032ZM113.255 134.779C113.522 134.779 113.758 134.726 113.963 134.621C114.167 134.513 114.328 134.368 114.444 134.186C114.561 134.005 114.619 133.799 114.619 133.568V132.874C114.562 132.911 114.484 132.945 114.385 132.976C114.288 133.005 114.179 133.032 114.056 133.057C113.934 133.08 113.812 133.101 113.69 133.121C113.568 133.138 113.457 133.154 113.358 133.168C113.145 133.199 112.958 133.249 112.799 133.317C112.64 133.385 112.517 133.478 112.429 133.594C112.341 133.708 112.297 133.85 112.297 134.02C112.297 134.267 112.386 134.456 112.565 134.587C112.747 134.715 112.977 134.779 113.255 134.779ZM117.83 138.363V129.363H119.62V130.462H119.701C119.78 130.286 119.895 130.107 120.046 129.925C120.199 129.74 120.398 129.587 120.642 129.465C120.89 129.34 121.196 129.277 121.563 129.277C122.04 129.277 122.48 129.402 122.884 129.652C123.287 129.899 123.61 130.273 123.851 130.773C124.093 131.27 124.213 131.894 124.213 132.644C124.213 133.374 124.096 133.99 123.86 134.493C123.627 134.993 123.309 135.372 122.905 135.631C122.505 135.887 122.056 136.014 121.559 136.014C121.206 136.014 120.907 135.956 120.659 135.84C120.415 135.723 120.215 135.577 120.059 135.401C119.902 135.222 119.783 135.041 119.701 134.86H119.645V138.363H117.83ZM119.607 132.635C119.607 133.024 119.661 133.364 119.769 133.654C119.877 133.943 120.033 134.169 120.238 134.331C120.442 134.49 120.691 134.57 120.983 134.57C121.279 134.57 121.529 134.489 121.733 134.327C121.938 134.162 122.093 133.935 122.198 133.645C122.306 133.353 122.36 133.016 122.36 132.635C122.36 132.257 122.307 131.925 122.202 131.638C122.097 131.351 121.942 131.127 121.738 130.965C121.533 130.803 121.282 130.722 120.983 130.722C120.688 130.722 120.438 130.8 120.233 130.956C120.032 131.113 119.877 131.334 119.769 131.621C119.661 131.908 119.607 132.246 119.607 132.635ZM128.407 136.036C127.733 136.036 127.154 135.899 126.668 135.627C126.185 135.351 125.813 134.962 125.551 134.459C125.29 133.953 125.159 133.355 125.159 132.665C125.159 131.992 125.29 131.401 125.551 130.892C125.813 130.384 126.181 129.988 126.655 129.703C127.132 129.419 127.692 129.277 128.334 129.277C128.766 129.277 129.168 129.347 129.54 129.486C129.915 129.622 130.242 129.828 130.52 130.104C130.801 130.38 131.02 130.726 131.176 131.144C131.333 131.559 131.411 132.044 131.411 132.601V133.1H125.884V131.975H129.702C129.702 131.713 129.645 131.482 129.532 131.28C129.418 131.078 129.26 130.921 129.059 130.807C128.86 130.691 128.628 130.632 128.364 130.632C128.088 130.632 127.844 130.696 127.631 130.824C127.421 130.949 127.256 131.118 127.137 131.331C127.017 131.541 126.956 131.776 126.953 132.034V133.104C126.953 133.428 127.013 133.708 127.132 133.943C127.255 134.179 127.426 134.361 127.648 134.489C127.87 134.617 128.132 134.681 128.436 134.681C128.638 134.681 128.823 134.652 128.99 134.595C129.158 134.539 129.301 134.453 129.421 134.34C129.54 134.226 129.631 134.087 129.694 133.922L131.373 134.033C131.287 134.436 131.113 134.789 130.848 135.09C130.587 135.388 130.249 135.621 129.834 135.789C129.422 135.953 128.946 136.036 128.407 136.036Z" fill="#171A22"/>
<rect x="62.5" y="147.234" width="423" height="1" fill="#E9EBEF"/>
<rect x="150.5" y="113.908" width="86" height="34" fill="#E9EBEF"/>
<rect x="151.5" y="114.908" width="84" height="34" fill="white"/>
<path d="M173.278 131.544C173.278 132.496 173.098 133.306 172.737 133.973C172.379 134.641 171.891 135.151 171.271 135.503C170.655 135.853 169.962 136.027 169.192 136.027C168.416 136.027 167.72 135.851 167.104 135.499C166.487 135.147 166 134.637 165.642 133.969C165.284 133.301 165.105 132.493 165.105 131.544C165.105 130.593 165.284 129.783 165.642 129.115C166 128.448 166.487 127.939 167.104 127.59C167.72 127.238 168.416 127.061 169.192 127.061C169.962 127.061 170.655 127.238 171.271 127.59C171.891 127.939 172.379 128.448 172.737 129.115C173.098 129.783 173.278 130.593 173.278 131.544ZM171.408 131.544C171.408 130.928 171.315 130.408 171.131 129.985C170.949 129.561 170.692 129.24 170.359 129.022C170.027 128.803 169.638 128.693 169.192 128.693C168.746 128.693 168.357 128.803 168.024 129.022C167.692 129.24 167.433 129.561 167.249 129.985C167.067 130.408 166.976 130.928 166.976 131.544C166.976 132.161 167.067 132.681 167.249 133.104C167.433 133.527 167.692 133.848 168.024 134.067C168.357 134.286 168.746 134.395 169.192 134.395C169.638 134.395 170.027 134.286 170.359 134.067C170.692 133.848 170.949 133.527 171.131 133.104C171.315 132.681 171.408 132.161 171.408 131.544ZM180.713 129.363L178.425 135.908H176.38L174.091 129.363H176.009L177.368 134.046H177.436L178.792 129.363H180.713ZM184.403 136.036C183.729 136.036 183.15 135.899 182.664 135.627C182.181 135.351 181.809 134.962 181.548 134.459C181.286 133.953 181.156 133.355 181.156 132.665C181.156 131.992 181.286 131.401 181.548 130.892C181.809 130.384 182.177 129.988 182.651 129.703C183.129 129.419 183.688 129.277 184.33 129.277C184.762 129.277 185.164 129.347 185.536 129.486C185.911 129.622 186.238 129.828 186.516 130.104C186.798 130.38 187.016 130.726 187.173 131.144C187.329 131.559 187.407 132.044 187.407 132.601V133.1H181.88V131.975H185.698C185.698 131.713 185.641 131.482 185.528 131.28C185.414 131.078 185.256 130.921 185.055 130.807C184.856 130.691 184.624 130.632 184.36 130.632C184.085 130.632 183.84 130.696 183.627 130.824C183.417 130.949 183.252 131.118 183.133 131.331C183.013 131.541 182.952 131.776 182.95 132.034V133.104C182.95 133.428 183.009 133.708 183.129 133.943C183.251 134.179 183.423 134.361 183.644 134.489C183.866 134.617 184.129 134.681 184.433 134.681C184.634 134.681 184.819 134.652 184.987 134.595C185.154 134.539 185.298 134.453 185.417 134.34C185.536 134.226 185.627 134.087 185.69 133.922L187.369 134.033C187.283 134.436 187.109 134.789 186.844 135.09C186.583 135.388 186.245 135.621 185.83 135.789C185.418 135.953 184.942 136.036 184.403 136.036ZM188.592 135.908V129.363H190.352V130.505H190.42C190.539 130.098 190.739 129.791 191.021 129.584C191.302 129.374 191.626 129.269 191.992 129.269C192.083 129.269 192.181 129.274 192.286 129.286C192.391 129.297 192.484 129.313 192.563 129.333V130.943C192.478 130.918 192.36 130.895 192.21 130.875C192.059 130.855 191.921 130.845 191.796 130.845C191.529 130.845 191.29 130.904 191.08 131.02C190.873 131.134 190.708 131.293 190.586 131.497C190.467 131.702 190.407 131.938 190.407 132.205V135.908H188.592ZM199.803 129.363L197.515 135.908H195.469L193.181 129.363H195.099L196.458 134.046H196.526L197.881 129.363H199.803ZM200.732 135.908V129.363H202.548V135.908H200.732ZM201.648 128.519C201.379 128.519 201.147 128.429 200.954 128.25C200.761 128.068 200.664 127.851 200.664 127.598C200.664 127.348 200.761 127.134 200.954 126.955C201.147 126.773 201.377 126.682 201.644 126.682C201.917 126.682 202.148 126.773 202.339 126.955C202.532 127.134 202.629 127.348 202.629 127.598C202.629 127.851 202.532 128.068 202.339 128.25C202.148 128.429 201.918 128.519 201.648 128.519ZM206.985 136.036C206.311 136.036 205.732 135.899 205.246 135.627C204.763 135.351 204.391 134.962 204.13 134.459C203.868 133.953 203.738 133.355 203.738 132.665C203.738 131.992 203.868 131.401 204.13 130.892C204.391 130.384 204.759 129.988 205.233 129.703C205.711 129.419 206.27 129.277 206.912 129.277C207.344 129.277 207.746 129.347 208.118 129.486C208.493 129.622 208.82 129.828 209.098 130.104C209.38 130.38 209.598 130.726 209.755 131.144C209.911 131.559 209.989 132.044 209.989 132.601V133.1H204.462V131.975H208.28C208.28 131.713 208.223 131.482 208.11 131.28C207.996 131.078 207.838 130.921 207.637 130.807C207.438 130.691 207.206 130.632 206.942 130.632C206.667 130.632 206.422 130.696 206.209 130.824C205.999 130.949 205.834 131.118 205.715 131.331C205.596 131.541 205.534 131.776 205.532 132.034V133.104C205.532 133.428 205.591 133.708 205.711 133.943C205.833 134.179 206.005 134.361 206.226 134.489C206.448 134.617 206.711 134.681 207.015 134.681C207.216 134.681 207.401 134.652 207.569 134.595C207.736 134.539 207.88 134.453 207.999 134.34C208.118 134.226 208.209 134.087 208.272 133.922L209.951 134.033C209.865 134.436 209.691 134.789 209.426 135.09C209.165 135.388 208.827 135.621 208.412 135.789C208 135.953 207.525 136.036 206.985 136.036ZM212.418 135.908L210.637 129.363H212.473L213.488 133.76H213.547L214.604 129.363H216.407L217.48 133.735H217.536L218.533 129.363H220.365L218.588 135.908H216.667L215.542 131.791H215.461L214.336 135.908H212.418Z" fill="#00A8FF"/>
<path d="M258.259 135.908V127.181H261.702C262.361 127.181 262.923 127.299 263.389 127.534C263.858 127.767 264.214 128.098 264.459 128.527C264.706 128.953 264.83 129.455 264.83 130.032C264.83 130.611 264.705 131.11 264.455 131.527C264.205 131.942 263.842 132.26 263.368 132.482C262.896 132.703 262.325 132.814 261.655 132.814H259.349V131.331H261.357C261.709 131.331 262.001 131.283 262.234 131.186C262.467 131.09 262.641 130.945 262.754 130.752C262.871 130.559 262.929 130.318 262.929 130.032C262.929 129.742 262.871 129.497 262.754 129.299C262.641 129.1 262.466 128.949 262.23 128.847C261.997 128.742 261.703 128.689 261.348 128.689H260.104V135.908H258.259ZM262.972 131.936L265.141 135.908H263.104L260.982 131.936H262.972ZM267.966 136.032C267.548 136.032 267.176 135.959 266.849 135.814C266.523 135.666 266.264 135.449 266.074 135.162C265.886 134.872 265.793 134.512 265.793 134.08C265.793 133.716 265.859 133.411 265.993 133.164C266.126 132.916 266.308 132.718 266.538 132.567C266.768 132.416 267.03 132.303 267.322 132.226C267.618 132.149 267.928 132.095 268.251 132.064C268.632 132.024 268.939 131.988 269.172 131.953C269.405 131.916 269.574 131.863 269.679 131.791C269.784 131.72 269.837 131.615 269.837 131.476V131.451C269.837 131.181 269.751 130.972 269.581 130.824C269.413 130.676 269.175 130.603 268.865 130.603C268.538 130.603 268.278 130.675 268.085 130.82C267.892 130.962 267.764 131.141 267.702 131.357L266.023 131.22C266.108 130.823 266.276 130.479 266.526 130.189C266.776 129.897 267.098 129.672 267.493 129.516C267.891 129.357 268.351 129.277 268.874 129.277C269.237 129.277 269.585 129.32 269.918 129.405C270.253 129.49 270.55 129.622 270.808 129.801C271.07 129.98 271.276 130.211 271.426 130.492C271.577 130.77 271.652 131.104 271.652 131.493V135.908H269.93V135H269.879C269.774 135.205 269.634 135.385 269.457 135.541C269.281 135.695 269.07 135.816 268.822 135.904C268.575 135.989 268.29 136.032 267.966 136.032ZM268.486 134.779C268.753 134.779 268.989 134.726 269.193 134.621C269.398 134.513 269.558 134.368 269.675 134.186C269.791 134.005 269.849 133.799 269.849 133.568V132.874C269.793 132.911 269.714 132.945 269.615 132.976C269.518 133.005 269.409 133.032 269.287 133.057C269.165 133.08 269.043 133.101 268.92 133.121C268.798 133.138 268.688 133.154 268.588 133.168C268.375 133.199 268.189 133.249 268.03 133.317C267.871 133.385 267.747 133.478 267.659 133.594C267.571 133.708 267.527 133.85 267.527 134.02C267.527 134.267 267.616 134.456 267.795 134.587C267.977 134.715 268.207 134.779 268.486 134.779ZM274.876 132.124V135.908H273.06V129.363H274.79V130.517H274.867C275.012 130.137 275.255 129.836 275.596 129.614C275.937 129.389 276.35 129.277 276.836 129.277C277.29 129.277 277.687 129.377 278.025 129.576C278.363 129.774 278.626 130.059 278.813 130.428C279.001 130.794 279.094 131.232 279.094 131.74V135.908H277.279V132.064C277.282 131.664 277.18 131.351 276.972 131.127C276.765 130.899 276.479 130.786 276.116 130.786C275.871 130.786 275.656 130.838 275.468 130.943C275.283 131.049 275.138 131.202 275.033 131.404C274.931 131.603 274.879 131.843 274.876 132.124ZM282.17 134.024L282.174 131.847H282.439L284.535 129.363H286.619L283.802 132.652H283.372L282.17 134.024ZM280.525 135.908V127.181H282.341V135.908H280.525ZM284.616 135.908L282.69 133.057L283.9 131.774L286.743 135.908H284.616ZM287.51 135.908V129.363H289.325V135.908H287.51ZM288.426 128.519C288.156 128.519 287.924 128.429 287.731 128.25C287.538 128.068 287.441 127.851 287.441 127.598C287.441 127.348 287.538 127.134 287.731 126.955C287.924 126.773 288.154 126.682 288.422 126.682C288.694 126.682 288.926 126.773 289.116 126.955C289.309 127.134 289.406 127.348 289.406 127.598C289.406 127.851 289.309 128.068 289.116 128.25C288.926 128.429 288.696 128.519 288.426 128.519ZM292.594 132.124V135.908H290.779V129.363H292.509V130.517H292.586C292.731 130.137 292.974 129.836 293.315 129.614C293.656 129.389 294.069 129.277 294.555 129.277C295.009 129.277 295.406 129.377 295.744 129.576C296.082 129.774 296.344 130.059 296.532 130.428C296.719 130.794 296.813 131.232 296.813 131.74V135.908H294.998V132.064C295.001 131.664 294.898 131.351 294.691 131.127C294.484 130.899 294.198 130.786 293.835 130.786C293.59 130.786 293.374 130.838 293.187 130.943C293.002 131.049 292.857 131.202 292.752 131.404C292.65 131.603 292.597 131.843 292.594 132.124ZM301.193 138.456C300.605 138.456 300.1 138.377 299.68 138.218C299.262 138.059 298.93 137.844 298.683 137.574C298.436 137.304 298.275 137.005 298.201 136.675L299.88 136.449C299.931 136.568 300.012 136.681 300.123 136.786C300.234 136.894 300.38 136.982 300.562 137.05C300.747 137.118 300.971 137.152 301.235 137.152C301.63 137.152 301.956 137.059 302.211 136.871C302.47 136.684 302.599 136.375 302.599 135.946V134.749H302.522C302.443 134.931 302.324 135.103 302.164 135.264C302.005 135.426 301.801 135.559 301.551 135.661C301.301 135.763 301.002 135.814 300.656 135.814C300.164 135.814 299.717 135.701 299.314 135.473C298.913 135.243 298.593 134.892 298.355 134.421C298.119 133.946 298.001 133.347 298.001 132.622C298.001 131.881 298.122 131.262 298.363 130.764C298.605 130.267 298.926 129.895 299.326 129.648C299.73 129.401 300.172 129.277 300.652 129.277C301.018 129.277 301.325 129.34 301.572 129.465C301.819 129.587 302.018 129.74 302.169 129.925C302.322 130.107 302.44 130.286 302.522 130.462H302.591V129.363H304.393V135.972C304.393 136.517 304.257 136.973 303.984 137.34C303.711 137.709 303.333 137.988 302.85 138.175C302.37 138.363 301.818 138.456 301.193 138.456ZM301.231 134.451C301.524 134.451 301.771 134.378 301.973 134.233C302.177 134.086 302.333 133.875 302.441 133.603C302.552 133.327 302.608 132.997 302.608 132.614C302.608 132.23 302.554 131.898 302.446 131.617C302.338 131.333 302.181 131.113 301.977 130.956C301.772 130.8 301.524 130.722 301.231 130.722C300.933 130.722 300.681 130.803 300.477 130.965C300.272 131.124 300.118 131.345 300.012 131.63C299.907 131.914 299.855 132.242 299.855 132.614C299.855 132.992 299.907 133.318 300.012 133.594C300.12 133.867 300.275 134.078 300.477 134.229C300.681 134.377 300.933 134.451 301.231 134.451ZM311.284 131.229L309.622 131.331C309.593 131.189 309.532 131.061 309.439 130.948C309.345 130.831 309.221 130.739 309.068 130.671C308.917 130.6 308.737 130.564 308.527 130.564C308.245 130.564 308.008 130.624 307.815 130.743C307.622 130.86 307.525 131.016 307.525 131.212C307.525 131.368 307.588 131.5 307.713 131.608C307.838 131.716 308.052 131.803 308.356 131.868L309.541 132.107C310.177 132.238 310.652 132.448 310.964 132.738C311.277 133.027 311.433 133.408 311.433 133.88C311.433 134.309 311.306 134.685 311.054 135.009C310.804 135.333 310.46 135.586 310.022 135.767C309.588 135.946 309.086 136.036 308.518 136.036C307.652 136.036 306.961 135.855 306.447 135.495C305.936 135.131 305.636 134.637 305.548 134.012L307.333 133.918C307.387 134.182 307.518 134.384 307.725 134.523C307.933 134.659 308.199 134.728 308.522 134.728C308.841 134.728 309.096 134.666 309.289 134.544C309.485 134.419 309.585 134.259 309.588 134.063C309.585 133.898 309.515 133.763 309.379 133.658C309.243 133.55 309.032 133.468 308.748 133.411L307.615 133.185C306.975 133.057 306.5 132.836 306.187 132.52C305.877 132.205 305.723 131.803 305.723 131.314C305.723 130.894 305.836 130.532 306.064 130.228C306.294 129.924 306.616 129.689 307.031 129.524C307.449 129.36 307.937 129.277 308.497 129.277C309.324 129.277 309.974 129.452 310.449 129.801C310.926 130.151 311.204 130.627 311.284 131.229ZM318.481 135.908H315.387V127.181H318.507C319.385 127.181 320.14 127.355 320.774 127.705C321.407 128.051 321.895 128.55 322.235 129.201C322.579 129.851 322.751 130.63 322.751 131.536C322.751 132.445 322.579 133.226 322.235 133.88C321.895 134.533 321.404 135.034 320.765 135.384C320.129 135.733 319.368 135.908 318.481 135.908ZM317.233 134.327H318.404C318.95 134.327 319.409 134.23 319.781 134.037C320.156 133.841 320.437 133.539 320.625 133.13C320.815 132.718 320.91 132.186 320.91 131.536C320.91 130.891 320.815 130.364 320.625 129.955C320.437 129.546 320.157 129.245 319.785 129.051C319.413 128.858 318.954 128.762 318.409 128.762H317.233V134.327ZM324.084 135.908V129.363H325.899V135.908H324.084ZM325 128.519C324.73 128.519 324.499 128.429 324.305 128.25C324.112 128.068 324.016 127.851 324.016 127.598C324.016 127.348 324.112 127.134 324.305 126.955C324.499 126.773 324.729 126.682 324.996 126.682C325.268 126.682 325.5 126.773 325.69 126.955C325.884 127.134 325.98 127.348 325.98 127.598C325.98 127.851 325.884 128.068 325.69 128.25C325.5 128.429 325.27 128.519 325 128.519ZM332.799 131.229L331.137 131.331C331.109 131.189 331.048 131.061 330.954 130.948C330.86 130.831 330.737 130.739 330.583 130.671C330.433 130.6 330.252 130.564 330.042 130.564C329.761 130.564 329.524 130.624 329.331 130.743C329.137 130.86 329.041 131.016 329.041 131.212C329.041 131.368 329.103 131.5 329.228 131.608C329.353 131.716 329.568 131.803 329.872 131.868L331.056 132.107C331.693 132.238 332.167 132.448 332.48 132.738C332.792 133.027 332.949 133.408 332.949 133.88C332.949 134.309 332.822 134.685 332.569 135.009C332.319 135.333 331.975 135.586 331.538 135.767C331.103 135.946 330.602 136.036 330.034 136.036C329.167 136.036 328.477 135.855 327.963 135.495C327.451 135.131 327.152 134.637 327.064 134.012L328.849 133.918C328.903 134.182 329.034 134.384 329.241 134.523C329.449 134.659 329.714 134.728 330.038 134.728C330.356 134.728 330.612 134.666 330.805 134.544C331.001 134.419 331.1 134.259 331.103 134.063C331.1 133.898 331.031 133.763 330.895 133.658C330.758 133.55 330.548 133.468 330.264 133.411L329.13 133.185C328.491 133.057 328.015 132.836 327.703 132.52C327.393 132.205 327.238 131.803 327.238 131.314C327.238 130.894 327.352 130.532 327.579 130.228C327.809 129.924 328.132 129.689 328.547 129.524C328.964 129.36 329.453 129.277 330.012 129.277C330.839 129.277 331.49 129.452 331.964 129.801C332.441 130.151 332.72 130.627 332.799 131.229ZM337.573 129.363V130.726H333.631V129.363H337.573ZM334.526 127.794H336.342V133.897C336.342 134.064 336.367 134.195 336.418 134.289C336.469 134.38 336.54 134.443 336.631 134.48C336.725 134.517 336.833 134.536 336.955 134.536C337.04 134.536 337.126 134.529 337.211 134.514C337.296 134.497 337.362 134.485 337.407 134.476L337.692 135.827C337.602 135.855 337.474 135.888 337.309 135.925C337.144 135.965 336.944 135.989 336.708 135.997C336.271 136.014 335.887 135.956 335.558 135.823C335.231 135.689 334.977 135.482 334.795 135.201C334.613 134.919 334.523 134.564 334.526 134.135V127.794ZM338.756 135.908V129.363H340.516V130.505H340.584C340.703 130.098 340.903 129.791 341.185 129.584C341.466 129.374 341.79 129.269 342.156 129.269C342.247 129.269 342.345 129.274 342.45 129.286C342.555 129.297 342.648 129.313 342.727 129.333V130.943C342.642 130.918 342.524 130.895 342.374 130.875C342.223 130.855 342.085 130.845 341.96 130.845C341.693 130.845 341.455 130.904 341.244 131.02C341.037 131.134 340.872 131.293 340.75 131.497C340.631 131.702 340.571 131.938 340.571 132.205V135.908H338.756ZM343.666 135.908V129.363H345.481V135.908H343.666ZM344.582 128.519C344.312 128.519 344.081 128.429 343.887 128.25C343.694 128.068 343.598 127.851 343.598 127.598C343.598 127.348 343.694 127.134 343.887 126.955C344.081 126.773 344.311 126.682 344.578 126.682C344.85 126.682 345.082 126.773 345.272 126.955C345.466 127.134 345.562 127.348 345.562 127.598C345.562 127.851 345.466 128.068 345.272 128.25C345.082 128.429 344.852 128.519 344.582 128.519ZM346.969 135.908V127.181H348.785V130.462H348.84C348.92 130.286 349.035 130.107 349.185 129.925C349.339 129.74 349.538 129.587 349.782 129.465C350.029 129.34 350.336 129.277 350.702 129.277C351.18 129.277 351.62 129.402 352.023 129.652C352.427 129.899 352.749 130.273 352.991 130.773C353.232 131.27 353.353 131.894 353.353 132.644C353.353 133.374 353.235 133.99 352.999 134.493C352.766 134.993 352.448 135.372 352.045 135.631C351.644 135.887 351.195 136.014 350.698 136.014C350.346 136.014 350.046 135.956 349.799 135.84C349.555 135.723 349.354 135.577 349.198 135.401C349.042 135.222 348.923 135.041 348.84 134.86H348.759V135.908H346.969ZM348.746 132.635C348.746 133.024 348.8 133.364 348.908 133.654C349.016 133.943 349.173 134.169 349.377 134.331C349.582 134.49 349.83 134.57 350.123 134.57C350.418 134.57 350.668 134.489 350.873 134.327C351.077 134.162 351.232 133.935 351.337 133.645C351.445 133.353 351.499 133.016 351.499 132.635C351.499 132.257 351.447 131.925 351.342 131.638C351.237 131.351 351.082 131.127 350.877 130.965C350.673 130.803 350.421 130.722 350.123 130.722C349.827 130.722 349.577 130.8 349.373 130.956C349.171 131.113 349.016 131.334 348.908 131.621C348.8 131.908 348.746 132.246 348.746 132.635ZM358.762 133.121V129.363H360.577V135.908H358.834V134.719H358.766C358.618 135.103 358.373 135.411 358.029 135.644C357.688 135.877 357.272 135.993 356.78 135.993C356.343 135.993 355.958 135.894 355.625 135.695C355.293 135.496 355.033 135.213 354.846 134.847C354.661 134.48 354.567 134.041 354.564 133.53V129.363H356.38V133.206C356.382 133.593 356.486 133.898 356.691 134.122C356.895 134.347 357.169 134.459 357.513 134.459C357.732 134.459 357.936 134.409 358.127 134.31C358.317 134.208 358.471 134.057 358.587 133.858C358.706 133.659 358.765 133.414 358.762 133.121ZM365.511 129.363V130.726H361.569V129.363H365.511ZM362.464 127.794H364.279V133.897C364.279 134.064 364.305 134.195 364.356 134.289C364.407 134.38 364.478 134.443 364.569 134.48C364.663 134.517 364.771 134.536 364.893 134.536C364.978 134.536 365.063 134.529 365.148 134.514C365.234 134.497 365.299 134.485 365.344 134.476L365.63 135.827C365.539 135.855 365.411 135.888 365.246 135.925C365.082 135.965 364.881 135.989 364.646 135.997C364.208 136.014 363.825 135.956 363.495 135.823C363.168 135.689 362.914 135.482 362.732 135.201C362.55 134.919 362.461 134.564 362.464 134.135V127.794ZM366.693 135.908V129.363H368.509V135.908H366.693ZM367.609 128.519C367.339 128.519 367.108 128.429 366.915 128.25C366.722 128.068 366.625 127.851 366.625 127.598C366.625 127.348 366.722 127.134 366.915 126.955C367.108 126.773 367.338 126.682 367.605 126.682C367.878 126.682 368.109 126.773 368.3 126.955C368.493 127.134 368.589 127.348 368.589 127.598C368.589 127.851 368.493 128.068 368.3 128.25C368.109 128.429 367.879 128.519 367.609 128.519ZM372.92 136.036C372.258 136.036 371.686 135.895 371.203 135.614C370.723 135.33 370.352 134.935 370.091 134.429C369.829 133.921 369.699 133.331 369.699 132.661C369.699 131.985 369.829 131.394 370.091 130.888C370.352 130.38 370.723 129.985 371.203 129.703C371.686 129.419 372.258 129.277 372.92 129.277C373.582 129.277 374.153 129.419 374.633 129.703C375.116 129.985 375.488 130.38 375.75 130.888C376.011 131.394 376.142 131.985 376.142 132.661C376.142 133.331 376.011 133.921 375.75 134.429C375.488 134.935 375.116 135.33 374.633 135.614C374.153 135.895 373.582 136.036 372.92 136.036ZM372.929 134.63C373.23 134.63 373.481 134.544 373.683 134.374C373.885 134.201 374.037 133.965 374.139 133.666C374.244 133.368 374.297 133.029 374.297 132.648C374.297 132.267 374.244 131.928 374.139 131.63C374.037 131.331 373.885 131.095 373.683 130.922C373.481 130.749 373.23 130.662 372.929 130.662C372.625 130.662 372.369 130.749 372.162 130.922C371.957 131.095 371.802 131.331 371.697 131.63C371.595 131.928 371.544 132.267 371.544 132.648C371.544 133.029 371.595 133.368 371.697 133.666C371.802 133.965 371.957 134.201 372.162 134.374C372.369 134.544 372.625 134.63 372.929 134.63ZM379.137 132.124V135.908H377.322V129.363H379.052V130.517H379.129C379.274 130.137 379.517 129.836 379.858 129.614C380.199 129.389 380.612 129.277 381.098 129.277C381.552 129.277 381.949 129.377 382.287 129.576C382.625 129.774 382.887 130.059 383.075 130.428C383.262 130.794 383.356 131.232 383.356 131.74V135.908H381.541V132.064C381.544 131.664 381.441 131.351 381.234 131.127C381.027 130.899 380.741 130.786 380.377 130.786C380.133 130.786 379.917 130.838 379.73 130.943C379.545 131.049 379.4 131.202 379.295 131.404C379.193 131.603 379.14 131.843 379.137 132.124Z" fill="#171A22"/>
<path d="M413.259 135.908V127.181H416.702C417.361 127.181 417.923 127.299 418.389 127.534C418.858 127.767 419.214 128.098 419.459 128.527C419.706 128.953 419.83 129.455 419.83 130.032C419.83 130.611 419.705 131.11 419.455 131.527C419.205 131.942 418.842 132.26 418.368 132.482C417.896 132.703 417.325 132.814 416.655 132.814H414.349V131.331H416.357C416.709 131.331 417.001 131.283 417.234 131.186C417.467 131.09 417.641 130.945 417.754 130.752C417.871 130.559 417.929 130.318 417.929 130.032C417.929 129.742 417.871 129.497 417.754 129.299C417.641 129.1 417.466 128.949 417.23 128.847C416.997 128.742 416.703 128.689 416.348 128.689H415.104V135.908H413.259ZM417.972 131.936L420.141 135.908H418.104L415.982 131.936H417.972ZM422.966 136.032C422.548 136.032 422.176 135.959 421.849 135.814C421.523 135.666 421.264 135.449 421.074 135.162C420.886 134.872 420.793 134.512 420.793 134.08C420.793 133.716 420.859 133.411 420.993 133.164C421.126 132.916 421.308 132.718 421.538 132.567C421.768 132.416 422.03 132.303 422.322 132.226C422.618 132.149 422.928 132.095 423.251 132.064C423.632 132.024 423.939 131.988 424.172 131.953C424.405 131.916 424.574 131.863 424.679 131.791C424.784 131.72 424.837 131.615 424.837 131.476V131.451C424.837 131.181 424.751 130.972 424.581 130.824C424.413 130.676 424.175 130.603 423.865 130.603C423.538 130.603 423.278 130.675 423.085 130.82C422.892 130.962 422.764 131.141 422.702 131.357L421.023 131.22C421.108 130.823 421.276 130.479 421.526 130.189C421.776 129.897 422.098 129.672 422.493 129.516C422.891 129.357 423.351 129.277 423.874 129.277C424.237 129.277 424.585 129.32 424.918 129.405C425.253 129.49 425.55 129.622 425.808 129.801C426.07 129.98 426.276 130.211 426.426 130.492C426.577 130.77 426.652 131.104 426.652 131.493V135.908H424.93V135H424.879C424.774 135.205 424.634 135.385 424.457 135.541C424.281 135.695 424.07 135.816 423.822 135.904C423.575 135.989 423.29 136.032 422.966 136.032ZM423.486 134.779C423.753 134.779 423.989 134.726 424.193 134.621C424.398 134.513 424.558 134.368 424.675 134.186C424.791 134.005 424.849 133.799 424.849 133.568V132.874C424.793 132.911 424.714 132.945 424.615 132.976C424.518 133.005 424.409 133.032 424.287 133.057C424.165 133.08 424.043 133.101 423.92 133.121C423.798 133.138 423.688 133.154 423.588 133.168C423.375 133.199 423.189 133.249 423.03 133.317C422.871 133.385 422.747 133.478 422.659 133.594C422.571 133.708 422.527 133.85 422.527 134.02C422.527 134.267 422.616 134.456 422.795 134.587C422.977 134.715 423.207 134.779 423.486 134.779ZM429.876 132.124V135.908H428.06V129.363H429.79V130.517H429.867C430.012 130.137 430.255 129.836 430.596 129.614C430.937 129.389 431.35 129.277 431.836 129.277C432.29 129.277 432.687 129.377 433.025 129.576C433.363 129.774 433.626 130.059 433.813 130.428C434.001 130.794 434.094 131.232 434.094 131.74V135.908H432.279V132.064C432.282 131.664 432.18 131.351 431.972 131.127C431.765 130.899 431.479 130.786 431.116 130.786C430.871 130.786 430.656 130.838 430.468 130.943C430.283 131.049 430.138 131.202 430.033 131.404C429.931 131.603 429.879 131.843 429.876 132.124ZM437.17 134.024L437.174 131.847H437.439L439.535 129.363H441.619L438.802 132.652H438.372L437.17 134.024ZM435.525 135.908V127.181H437.341V135.908H435.525ZM439.616 135.908L437.69 133.057L438.9 131.774L441.743 135.908H439.616ZM442.51 135.908V129.363H444.325V135.908H442.51ZM443.426 128.519C443.156 128.519 442.924 128.429 442.731 128.25C442.538 128.068 442.441 127.851 442.441 127.598C442.441 127.348 442.538 127.134 442.731 126.955C442.924 126.773 443.154 126.682 443.422 126.682C443.694 126.682 443.926 126.773 444.116 126.955C444.309 127.134 444.406 127.348 444.406 127.598C444.406 127.851 444.309 128.068 444.116 128.25C443.926 128.429 443.696 128.519 443.426 128.519ZM447.594 132.124V135.908H445.779V129.363H447.509V130.517H447.586C447.731 130.137 447.974 129.836 448.315 129.614C448.656 129.389 449.069 129.277 449.555 129.277C450.009 129.277 450.406 129.377 450.744 129.576C451.082 129.774 451.344 130.059 451.532 130.428C451.719 130.794 451.813 131.232 451.813 131.74V135.908H449.998V132.064C450.001 131.664 449.898 131.351 449.691 131.127C449.484 130.899 449.198 130.786 448.835 130.786C448.59 130.786 448.374 130.838 448.187 130.943C448.002 131.049 447.857 131.202 447.752 131.404C447.65 131.603 447.597 131.843 447.594 132.124ZM456.193 138.456C455.605 138.456 455.1 138.377 454.68 138.218C454.262 138.059 453.93 137.844 453.683 137.574C453.436 137.304 453.275 137.005 453.201 136.675L454.88 136.449C454.931 136.568 455.012 136.681 455.123 136.786C455.234 136.894 455.38 136.982 455.562 137.05C455.747 137.118 455.971 137.152 456.235 137.152C456.63 137.152 456.956 137.059 457.211 136.871C457.47 136.684 457.599 136.375 457.599 135.946V134.749H457.522C457.443 134.931 457.324 135.103 457.164 135.264C457.005 135.426 456.801 135.559 456.551 135.661C456.301 135.763 456.002 135.814 455.656 135.814C455.164 135.814 454.717 135.701 454.314 135.473C453.913 135.243 453.593 134.892 453.355 134.421C453.119 133.946 453.001 133.347 453.001 132.622C453.001 131.881 453.122 131.262 453.363 130.764C453.605 130.267 453.926 129.895 454.326 129.648C454.73 129.401 455.172 129.277 455.652 129.277C456.018 129.277 456.325 129.34 456.572 129.465C456.819 129.587 457.018 129.74 457.169 129.925C457.322 130.107 457.44 130.286 457.522 130.462H457.591V129.363H459.393V135.972C459.393 136.517 459.257 136.973 458.984 137.34C458.711 137.709 458.333 137.988 457.85 138.175C457.37 138.363 456.818 138.456 456.193 138.456ZM456.231 134.451C456.524 134.451 456.771 134.378 456.973 134.233C457.177 134.086 457.333 133.875 457.441 133.603C457.552 133.327 457.608 132.997 457.608 132.614C457.608 132.23 457.554 131.898 457.446 131.617C457.338 131.333 457.181 131.113 456.977 130.956C456.772 130.8 456.524 130.722 456.231 130.722C455.933 130.722 455.681 130.803 455.477 130.965C455.272 131.124 455.118 131.345 455.012 131.63C454.907 131.914 454.855 132.242 454.855 132.614C454.855 132.992 454.907 133.318 455.012 133.594C455.12 133.867 455.275 134.078 455.477 134.229C455.681 134.377 455.933 134.451 456.231 134.451ZM466.284 131.229L464.622 131.331C464.593 131.189 464.532 131.061 464.439 130.948C464.345 130.831 464.221 130.739 464.068 130.671C463.917 130.6 463.737 130.564 463.527 130.564C463.245 130.564 463.008 130.624 462.815 130.743C462.622 130.86 462.525 131.016 462.525 131.212C462.525 131.368 462.588 131.5 462.713 131.608C462.838 131.716 463.052 131.803 463.356 131.868L464.541 132.107C465.177 132.238 465.652 132.448 465.964 132.738C466.277 133.027 466.433 133.408 466.433 133.88C466.433 134.309 466.306 134.685 466.054 135.009C465.804 135.333 465.46 135.586 465.022 135.767C464.588 135.946 464.086 136.036 463.518 136.036C462.652 136.036 461.961 135.855 461.447 135.495C460.936 135.131 460.636 134.637 460.548 134.012L462.333 133.918C462.387 134.182 462.518 134.384 462.725 134.523C462.933 134.659 463.199 134.728 463.522 134.728C463.841 134.728 464.096 134.666 464.289 134.544C464.485 134.419 464.585 134.259 464.588 134.063C464.585 133.898 464.515 133.763 464.379 133.658C464.243 133.55 464.032 133.468 463.748 133.411L462.615 133.185C461.975 133.057 461.5 132.836 461.187 132.52C460.877 132.205 460.723 131.803 460.723 131.314C460.723 130.894 460.836 130.532 461.064 130.228C461.294 129.924 461.616 129.689 462.031 129.524C462.449 129.36 462.937 129.277 463.497 129.277C464.324 129.277 464.974 129.452 465.449 129.801C465.926 130.151 466.204 130.627 466.284 131.229Z" fill="#171A22"/>
<rect x="73.0439" y="179.908" width="6" height="6" rx="3" fill="#00A8FF"/>
<rect x="86.5" y="180.908" width="61" height="4" rx="2" fill="#E9EBEF"/>
<rect x="63" y="171.408" width="96" height="23" rx="1.5" stroke="#E9EBEF"/>
<rect x="182.044" y="179.908" width="6" height="6" rx="3" fill="#00BA96"/>
<rect x="195.5" y="180.908" width="61" height="4" rx="2" fill="#E9EBEF"/>
<rect x="172" y="171.408" width="96" height="23" rx="1.5" stroke="#E9EBEF"/>
<rect x="291.044" y="179.908" width="6" height="6" rx="3" fill="#FFB36E"/>
<rect x="304.5" y="180.908" width="61" height="4" rx="2" fill="#E9EBEF"/>
<rect x="281" y="171.408" width="96" height="23" rx="1.5" stroke="#E9EBEF"/>
<rect x="400.044" y="179.908" width="6" height="6" rx="3" fill="#B880FF"/>
<rect x="413.5" y="180.908" width="61" height="4" rx="2" fill="#E9EBEF"/>
<rect x="390" y="171.408" width="96" height="23" rx="1.5" stroke="#E9EBEF"/>
<path d="M62.9234 83.3856L62.8996 67.3856L69.2121 67.3762C70.4256 67.3744 71.4598 67.6046 72.3147 68.0669C73.1695 68.524 73.8215 69.161 74.2706 69.9781C74.725 70.7899 74.9529 71.727 74.9545 72.7895C74.9561 73.852 74.7283 74.7899 74.2712 75.6031C73.8141 76.4163 73.151 77.0501 72.2819 77.5045C71.4179 77.9589 70.3714 78.187 69.1422 78.1888L65.1188 78.1948L65.1148 75.4839L68.5913 75.4787C69.2424 75.4778 69.7787 75.365 70.2002 75.1404C70.6269 74.9106 70.9442 74.595 71.1519 74.1937C71.3649 73.7871 71.4709 73.3208 71.4701 72.7947C71.4694 72.2635 71.3619 71.8001 71.1478 71.4046C70.9388 71.0039 70.6207 70.6944 70.1932 70.4763C69.7658 70.253 69.224 70.1418 68.5677 70.1428L66.2865 70.1462L66.3062 83.3806L62.9234 83.3856ZM82.3339 83.5911C81.1204 83.5929 80.0705 83.3366 79.1843 82.8223C78.3033 82.3028 77.6226 81.5799 77.142 80.6535C76.6615 79.7219 76.4203 78.6415 76.4184 77.4124C76.4166 76.1728 76.6546 75.0891 77.1323 74.1613C77.6101 73.2283 78.2887 72.5033 79.1682 71.9864C80.0528 71.4642 81.1019 71.2023 82.3154 71.2005C83.529 71.1986 84.5763 71.4575 85.4572 71.977C86.3434 72.4913 87.0268 73.2143 87.5073 74.1458C87.9879 75.0722 88.2291 76.1552 88.2309 77.3948C88.2328 78.6239 87.9948 79.705 87.517 80.638C87.0392 81.5658 86.358 82.2908 85.4734 82.813C84.5939 83.3299 83.5475 83.5893 82.3339 83.5911ZM82.3457 81.0129C82.8978 81.0121 83.3585 80.8552 83.7278 80.5421C84.0971 80.2239 84.3751 79.7912 84.5618 79.244C84.7537 78.6968 84.8491 78.0743 84.8481 77.3764C84.8471 76.6785 84.7498 76.0562 84.5562 75.5096C84.3679 74.963 84.0886 74.5312 83.7184 74.214C83.3481 73.8968 82.8869 73.7387 82.3349 73.7395C81.7776 73.7403 81.3091 73.8999 80.9293 74.2181C80.5548 74.5364 80.2716 74.9691 80.0797 75.5163C79.893 76.0634 79.8002 76.686 79.8012 77.3839C79.8023 78.0818 79.8969 78.7041 80.0853 79.2507C80.2788 79.7973 80.5633 80.2291 80.9387 80.5463C81.3194 80.8582 81.7884 81.0138 82.3457 81.0129ZM100.375 74.7517L97.3289 74.9437C97.2764 74.6834 97.1641 74.4492 96.9919 74.2411C96.8197 74.0278 96.5929 73.8589 96.3114 73.7343C96.0352 73.6045 95.7044 73.5399 95.319 73.5405C94.8033 73.5412 94.3686 73.6512 94.0148 73.8705C93.6609 74.0846 93.4843 74.3713 93.4848 74.7307C93.4852 75.0172 93.6002 75.2592 93.8296 75.4567C94.0591 75.6543 94.4526 75.8126 95.01 75.9315L97.1826 76.3658C98.3496 76.6037 99.2199 76.9878 99.7937 77.5182C100.367 78.0486 100.655 78.7461 100.656 79.6106C100.657 80.3971 100.427 81.0876 99.9639 81.682C99.5065 82.2764 98.877 82.7409 98.0754 83.0754C97.279 83.4047 96.36 83.5702 95.3183 83.5717C93.7297 83.5741 92.4636 83.2453 91.5199 82.5852C90.5814 81.9199 90.0306 81.0145 89.8674 79.8689L93.1406 79.6922C93.2403 80.1764 93.4804 80.5458 93.861 80.8005C94.2416 81.0499 94.7288 81.1742 95.3225 81.1733C95.9059 81.1724 96.3744 81.0597 96.7283 80.8352C97.0873 80.6055 97.2692 80.311 97.2738 79.9516C97.2682 79.6495 97.1402 79.4023 96.8899 79.21C96.6396 79.0125 96.254 78.862 95.733 78.7586L93.6542 78.3476C92.482 78.115 91.609 77.7101 91.0352 77.1328C90.4667 76.5555 90.1817 75.8189 90.1804 74.9231C90.1792 74.1523 90.3866 73.4879 90.8024 72.93C91.2235 72.3721 91.814 71.9415 92.5739 71.6383C93.3391 71.3351 94.2347 71.1827 95.2608 71.1812C96.7764 71.1789 97.9696 71.4974 98.8403 72.1368C99.7163 72.7761 100.228 73.6477 100.375 74.7517ZM102.757 83.3263L102.74 71.3263L106.068 71.3213L106.086 83.3213L102.757 83.3263ZM104.417 69.7769C103.922 69.7776 103.497 69.6142 103.143 69.2866C102.788 68.9538 102.61 68.5556 102.61 68.0921C102.609 67.6337 102.786 67.2403 103.139 66.9116C103.493 66.5777 103.914 66.4104 104.404 66.4097C104.904 66.409 105.329 66.575 105.678 66.9078C106.033 67.2354 106.211 67.6284 106.211 68.0867C106.212 68.5503 106.035 68.949 105.682 69.2828C105.333 69.6115 104.912 69.7762 104.417 69.7769ZM115.116 71.3078L115.12 73.8078L107.894 73.8186L107.89 71.3186L115.116 71.3078ZM109.526 68.4412L112.854 68.4362L112.871 79.6237C112.871 79.931 112.919 80.1705 113.013 80.3422C113.107 80.5088 113.237 80.6258 113.404 80.6932C113.576 80.7607 113.774 80.7942 113.998 80.7939C114.154 80.7937 114.31 80.7804 114.466 80.7541C114.623 80.7226 114.742 80.699 114.826 80.6833L115.353 83.1591C115.186 83.2114 114.952 83.2716 114.65 83.3398C114.348 83.4132 113.981 83.458 113.549 83.4743C112.747 83.5067 112.043 83.401 111.439 83.1571C110.839 82.9132 110.373 82.5337 110.039 82.0185C109.705 81.5034 109.54 80.8526 109.544 80.0662L109.526 68.4412ZM117.302 83.3046L117.284 71.3046L120.613 71.2996L120.63 83.2996L117.302 83.3046ZM118.962 69.7552C118.467 69.756 118.042 69.5925 117.688 69.2649C117.333 68.9321 117.155 68.534 117.155 68.0704C117.154 67.6121 117.33 67.2186 117.684 66.8899C118.038 66.5561 118.459 66.3888 118.949 66.388C119.449 66.3873 119.874 66.5533 120.223 66.8861C120.578 67.2137 120.755 67.6067 120.756 68.065C120.757 68.5286 120.58 68.9273 120.227 69.2611C119.878 69.5898 119.457 69.7545 118.962 69.7552ZM128.719 83.522C127.505 83.5238 126.455 83.2675 125.569 82.7532C124.688 82.2337 124.007 81.5108 123.527 80.5844C123.046 79.6528 122.805 78.5724 122.803 77.3433C122.801 76.1037 123.039 75.02 123.517 74.0922C123.995 73.1592 124.674 72.4342 125.553 71.9173C126.438 71.3951 127.487 71.1331 128.7 71.1313C129.914 71.1295 130.961 71.3884 131.842 71.9079C132.728 72.4222 133.412 73.1452 133.892 74.0767C134.373 75.0031 134.614 76.0861 134.616 77.3257C134.618 78.5548 134.38 79.6359 133.902 80.5689C133.424 81.4967 132.743 82.2217 131.858 82.7438C130.979 83.2608 129.932 83.5202 128.719 83.522ZM128.73 80.9438C129.283 80.943 129.743 80.7861 130.113 80.473C130.482 80.1547 130.76 79.722 130.947 79.1749C131.138 78.6277 131.234 78.0052 131.233 77.3073C131.232 76.6093 131.135 75.9871 130.941 75.4405C130.753 74.8939 130.473 74.462 130.103 74.1449C129.733 73.8277 129.272 73.6696 128.72 73.6704C128.162 73.6712 127.694 73.8308 127.314 74.149C126.94 74.4673 126.656 74.9 126.464 75.4472C126.278 75.9943 126.185 76.6169 126.186 77.3148C126.187 78.0127 126.282 78.635 126.47 79.1816C126.664 79.7281 126.948 80.16 127.324 80.4772C127.704 80.7891 128.173 80.9446 128.73 80.9438ZM140.106 76.3331L140.117 83.2706L136.789 83.2756L136.771 71.2756L139.943 71.2708L139.946 73.388L140.086 73.3878C140.351 72.6895 140.795 72.1368 141.42 71.7296C142.044 71.3172 142.802 71.1103 143.692 71.109C144.526 71.1078 145.253 71.289 145.873 71.6526C146.493 72.0163 146.976 72.5364 147.321 73.213C147.665 73.8843 147.838 74.6862 147.84 75.6185L147.851 83.2591L144.523 83.264L144.513 76.2172C144.517 75.4828 144.328 74.9101 143.947 74.4993C143.567 74.0832 143.043 73.8756 142.376 73.8766C141.928 73.8773 141.533 73.9742 141.189 74.1674C140.851 74.3606 140.586 74.6423 140.394 75.0124C140.207 75.3772 140.111 75.8175 140.106 76.3331ZM154.999 70.0375L154.995 67.2484L168.136 67.2288L168.14 70.0179L163.242 70.0252L163.261 83.2361L159.918 83.2411L159.898 70.0302L154.999 70.0375ZM169.015 83.2275L168.997 71.2275L172.224 71.2227L172.227 73.3165L172.352 73.3163C172.57 72.5712 172.936 72.0081 173.451 71.6272C173.966 71.241 174.56 71.0474 175.231 71.0464C175.398 71.0461 175.578 71.0563 175.771 71.0768C175.963 71.0974 176.133 71.1258 176.278 71.162L176.283 74.1151C176.127 74.0685 175.91 74.0271 175.634 73.9911C175.358 73.9551 175.106 73.9372 174.876 73.9375C174.387 73.9383 173.949 74.0457 173.564 74.2598C173.184 74.4687 172.883 74.7608 172.659 75.1362C172.441 75.5115 172.332 75.9439 172.333 76.4335L172.343 83.2226L169.015 83.2275ZM181.096 83.4361C180.33 83.4373 179.648 83.3055 179.048 83.0407C178.449 82.7708 177.974 82.373 177.624 81.8475C177.28 81.3168 177.107 80.6556 177.106 79.8639C177.105 79.1973 177.226 78.6372 177.471 78.1837C177.715 77.7302 178.048 77.3651 178.469 77.0884C178.89 76.8118 179.369 76.6027 179.906 76.4613C180.447 76.3199 181.015 76.2201 181.608 76.1619C182.306 76.0879 182.868 76.0194 183.295 75.9563C183.722 75.8879 184.032 75.7885 184.225 75.658C184.417 75.5275 184.513 75.3346 184.513 75.0794L184.513 75.0326C184.512 74.5378 184.355 74.1552 184.042 73.8848C183.735 73.6144 183.297 73.4797 182.729 73.4805C182.13 73.4814 181.654 73.6149 181.3 73.8811C180.946 74.142 180.712 74.4705 180.598 74.8665L177.52 74.6211C177.675 73.8917 177.981 73.261 178.439 72.7291C178.897 72.192 179.487 71.7796 180.211 71.4921C180.939 71.1993 181.783 71.0522 182.741 71.0508C183.408 71.0498 184.046 71.127 184.656 71.2823C185.27 71.4377 185.815 71.6791 186.29 72.0065C186.769 72.3339 187.147 72.7552 187.424 73.2704C187.701 73.7804 187.84 74.3922 187.841 75.1057L187.853 83.1995L184.697 83.2042L184.694 81.5401L184.601 81.5403C184.408 81.9155 184.151 82.2467 183.829 82.5336C183.506 82.8153 183.118 83.0373 182.666 83.1994C182.213 83.3563 181.689 83.4352 181.096 83.4361ZM182.045 81.1378C182.535 81.1371 182.967 81.0401 183.342 80.8468C183.716 80.6483 184.01 80.3823 184.223 80.0486C184.436 79.715 184.543 79.3372 184.542 78.9153L184.54 77.6419C184.436 77.7098 184.293 77.7725 184.111 77.83C183.934 77.8824 183.733 77.9322 183.509 77.9794C183.285 78.0214 183.062 78.0608 182.838 78.0976C182.614 78.1291 182.411 78.1581 182.228 78.1844C181.838 78.2423 181.497 78.3339 181.205 78.4594C180.914 78.5848 180.688 78.7544 180.526 78.9682C180.365 79.1768 180.285 79.4373 180.285 79.7498C180.286 80.2029 180.451 80.549 180.779 80.7881C181.113 81.022 181.535 81.1386 182.045 81.1378ZM195.857 83.4219C194.628 83.4238 193.571 83.1649 192.684 82.6454C191.803 82.1207 191.125 81.3925 190.65 80.4609C190.18 79.5293 189.944 78.4568 189.942 77.2432C189.94 76.0141 190.175 74.9356 190.648 74.0078C191.126 73.0748 191.804 72.3472 192.684 71.8251C193.563 71.2977 194.61 71.0331 195.823 71.0313C196.87 71.0298 197.787 71.2185 198.574 71.5975C199.361 71.9766 199.984 72.5095 200.444 73.1963C200.903 73.8831 201.157 74.6901 201.205 75.6171L198.064 75.6217C197.975 75.0229 197.74 74.5415 197.359 74.1775C196.984 73.8082 196.491 73.6241 195.882 73.625C195.366 73.6258 194.916 73.7671 194.531 74.0489C194.151 74.3255 193.855 74.7296 193.642 75.2611C193.429 75.7927 193.323 76.4361 193.325 77.1913C193.326 77.9569 193.431 78.6078 193.64 79.144C193.854 79.6801 194.154 80.0885 194.54 80.3692C194.926 80.6499 195.377 80.7898 195.892 80.7891C196.273 80.7885 196.614 80.7099 196.916 80.5532C197.223 80.3964 197.475 80.1695 197.672 79.8723C197.875 79.57 198.007 79.2078 198.069 78.7858L201.21 78.7811C201.159 79.6979 200.91 80.5055 200.463 81.2041C200.022 81.8975 199.411 82.4401 198.63 82.8319C197.849 83.2236 196.925 83.4203 195.857 83.4219ZM206.358 79.7188L206.36 75.7266L206.844 75.7259L210.681 71.1654L214.501 71.1597L209.346 77.1987L208.557 77.1999L206.358 79.7188ZM203.347 83.1764L203.323 67.1764L206.652 67.1714L206.675 83.1714L203.347 83.1764ZM210.847 83.1652L207.308 77.9439L209.523 75.589L214.746 83.1594L210.847 83.1652ZM216.152 83.1573L216.134 71.1573L219.462 71.1524L219.48 83.1524L216.152 83.1573ZM217.811 69.6079C217.317 69.6087 216.892 69.4452 216.537 69.1176C216.183 68.7848 216.005 68.3867 216.004 67.9231C216.004 67.4648 216.18 67.0713 216.534 66.7426C216.887 66.4088 217.309 66.2415 217.799 66.2408C218.299 66.24 218.723 66.406 219.073 66.7389C219.427 67.0665 219.605 67.4594 219.606 67.9178C219.606 68.3813 219.43 68.78 219.076 69.1139C218.728 69.4425 218.306 69.6072 217.811 69.6079ZM225.464 76.2059L225.474 83.1434L222.146 83.1484L222.128 71.1484L225.3 71.1437L225.303 73.2608L225.444 73.2606C225.708 72.5623 226.153 72.0096 226.777 71.6024C227.402 71.19 228.159 70.9831 229.05 70.9818C229.883 70.9806 230.61 71.1618 231.23 71.5254C231.851 71.8891 232.333 72.4092 232.678 73.0858C233.023 73.7572 233.196 74.559 233.197 75.4913L233.209 83.1319L229.88 83.1369L229.87 76.09C229.874 75.3556 229.686 74.783 229.305 74.3721C228.924 73.956 228.4 73.7484 227.734 73.7494C227.286 73.7501 226.89 73.847 226.547 74.0402C226.208 74.2335 225.943 74.5151 225.751 74.8852C225.564 75.25 225.468 75.6903 225.464 76.2059ZM241.245 87.7918C240.167 87.7934 239.242 87.649 238.471 87.3584C237.705 87.0679 237.095 86.6756 236.641 86.1815C236.187 85.6874 235.892 85.1383 235.756 84.5344L238.833 84.1157C238.927 84.3343 239.076 84.5398 239.279 84.7322C239.483 84.9298 239.751 85.0909 240.085 85.2154C240.423 85.3399 240.835 85.4018 241.319 85.4011C242.043 85.4 242.639 85.2272 243.108 84.8828C243.581 84.5383 243.817 83.9729 243.816 83.1864L243.813 80.9911L243.672 80.9913C243.527 81.3249 243.309 81.6403 243.017 81.9376C242.726 82.2349 242.351 82.4776 241.893 82.6658C241.435 82.854 240.889 82.9486 240.253 82.9495C239.352 82.9509 238.532 82.7438 237.791 82.3282C237.056 81.9074 236.469 81.2651 236.031 80.4011C235.597 79.532 235.379 78.4333 235.377 77.1052C235.375 75.7458 235.595 74.6101 236.036 73.698C236.478 72.7859 237.065 72.1027 237.799 71.6485C238.538 71.1942 239.347 70.9665 240.228 70.9652C240.899 70.9642 241.462 71.0779 241.916 71.3064C242.369 71.5297 242.734 71.8104 243.011 72.1485C243.292 72.4814 243.509 72.8092 243.66 73.1319L243.785 73.1317L243.782 71.1161L247.087 71.1112L247.105 83.2284C247.107 84.2284 246.858 85.0647 246.359 85.7373C245.86 86.4151 245.168 86.9266 244.283 87.2717C243.403 87.6167 242.391 87.7901 241.245 87.7918ZM241.304 80.448C241.841 80.4472 242.294 80.3137 242.663 80.0475C243.038 79.7761 243.323 79.3903 243.521 78.89C243.723 78.3845 243.824 77.7801 243.823 77.077C243.822 76.3739 243.722 75.7647 243.523 75.2493C243.324 74.7288 243.037 74.3256 242.662 74.0397C242.286 73.7538 241.83 73.6112 241.294 73.612C240.747 73.6128 240.286 73.762 239.912 74.0594C239.537 74.3516 239.254 74.7583 239.062 75.2794C238.87 75.8005 238.775 76.4022 238.776 77.0845C238.777 77.7772 238.874 78.3761 239.067 78.881C239.266 79.3807 239.551 79.7683 239.921 80.0438C240.296 80.314 240.757 80.4488 241.304 80.448Z" fill="#171A22"/>
<rect x="94.5" y="227.908" width="393" height="1" fill="#E9EBEF"/>
<rect x="94.5" y="276.908" width="393" height="1" fill="#E9EBEF"/>
<rect x="94.5" y="325.908" width="393" height="1" fill="#E9EBEF"/>
<rect x="94.5" y="374.908" width="393" height="1" fill="#E9EBEF"/>
<path d="M63.5391 232.908L67.0313 226.002V225.943H62.9922V224.908H68.2813V225.978L64.8008 232.908H63.5391ZM72.1729 233.017C71.6833 233.017 71.2432 232.924 70.8525 232.736C70.4645 232.546 70.1546 232.286 69.9229 231.955C69.6911 231.624 69.5674 231.247 69.5518 230.822H70.7236C70.7523 231.166 70.9046 231.448 71.1807 231.67C71.4567 231.891 71.7874 232.002 72.1729 232.002C72.4801 232.002 72.7523 231.931 72.9893 231.791C73.2288 231.648 73.4163 231.451 73.5518 231.201C73.6898 230.951 73.7588 230.666 73.7588 230.345C73.7588 230.02 73.6885 229.73 73.5479 229.474C73.4072 229.219 73.2132 229.019 72.9658 228.873C72.721 228.727 72.4398 228.653 72.1221 228.65C71.8799 228.65 71.6364 228.692 71.3916 228.775C71.1468 228.858 70.9489 228.968 70.7979 229.103L69.6924 228.939L70.1416 224.908H74.54V225.943H71.1455L70.8916 228.181H70.9385C71.0947 228.03 71.3018 227.904 71.5596 227.802C71.82 227.701 72.0986 227.65 72.3955 227.65C72.8825 227.65 73.3161 227.766 73.6963 227.998C74.0791 228.23 74.3799 228.546 74.5986 228.947C74.82 229.345 74.9294 229.804 74.9268 230.322C74.9294 230.84 74.8122 231.302 74.5752 231.709C74.3408 232.115 74.0153 232.435 73.5986 232.67C73.1846 232.901 72.7093 233.017 72.1729 233.017Z" fill="#3E424B"/>
<path d="M65.9102 282.017C65.4206 282.017 64.9805 281.924 64.5898 281.736C64.2018 281.546 63.8919 281.286 63.6602 280.955C63.4284 280.624 63.3047 280.247 63.2891 279.822H64.4609C64.4896 280.166 64.6419 280.448 64.918 280.67C65.194 280.891 65.5247 281.002 65.9102 281.002C66.2174 281.002 66.4896 280.931 66.7266 280.791C66.9661 280.648 67.1536 280.451 67.2891 280.201C67.4271 279.951 67.4961 279.666 67.4961 279.345C67.4961 279.02 67.4258 278.73 67.2852 278.474C67.1445 278.219 66.9505 278.019 66.7031 277.873C66.4583 277.727 66.1771 277.653 65.8594 277.65C65.6172 277.65 65.3737 277.692 65.1289 277.775C64.8841 277.858 64.6862 277.968 64.5352 278.103L63.4297 277.939L63.8789 273.908H68.2773V274.943H64.8828L64.6289 277.181H64.6758C64.832 277.03 65.0391 276.904 65.2969 276.802C65.5573 276.701 65.8359 276.65 66.1328 276.65C66.6198 276.65 67.0534 276.766 67.4336 276.998C67.8164 277.23 68.1172 277.546 68.3359 277.947C68.5573 278.345 68.6667 278.804 68.6641 279.322C68.6667 279.84 68.5495 280.302 68.3125 280.709C68.0781 281.115 67.7526 281.435 67.3359 281.67C66.9219 281.901 66.4466 282.017 65.9102 282.017ZM72.876 282.041C72.2588 282.038 71.7314 281.875 71.2939 281.552C70.8564 281.23 70.5218 280.76 70.29 280.142C70.0583 279.525 69.9424 278.782 69.9424 277.912C69.9424 277.045 70.0583 276.304 70.29 275.689C70.5244 275.075 70.8604 274.606 71.2979 274.283C71.738 273.96 72.264 273.799 72.876 273.799C73.488 273.799 74.0127 273.961 74.4502 274.287C74.8877 274.61 75.2223 275.079 75.4541 275.693C75.6885 276.305 75.8057 277.045 75.8057 277.912C75.8057 278.784 75.6898 279.529 75.458 280.146C75.2262 280.761 74.8916 281.231 74.4541 281.556C74.0166 281.879 73.4906 282.041 72.876 282.041ZM72.876 280.998C73.4176 280.998 73.8408 280.733 74.1455 280.205C74.4528 279.676 74.6064 278.912 74.6064 277.912C74.6064 277.248 74.5361 276.687 74.3955 276.228C74.2575 275.767 74.0583 275.418 73.7979 275.181C73.54 274.942 73.2327 274.822 72.876 274.822C72.3369 274.822 71.9137 275.088 71.6064 275.619C71.2992 276.15 71.1442 276.914 71.1416 277.912C71.1416 278.579 71.2106 279.142 71.3486 279.603C71.4893 280.062 71.6885 280.409 71.9463 280.646C72.2041 280.881 72.514 280.998 72.876 280.998Z" fill="#3E424B"/>
<path d="M63.2695 330.908V330.033L65.9766 327.228C66.2656 326.924 66.5039 326.657 66.6914 326.427C66.8815 326.196 67.0234 325.976 67.1172 325.767C67.2109 325.559 67.2578 325.338 67.2578 325.103C67.2578 324.838 67.1953 324.608 67.0703 324.416C66.9453 324.22 66.7747 324.071 66.5586 323.967C66.3424 323.86 66.099 323.806 65.8281 323.806C65.5417 323.806 65.2917 323.865 65.0781 323.982C64.8646 324.099 64.7005 324.265 64.5859 324.478C64.4714 324.692 64.4141 324.942 64.4141 325.228H63.2617C63.2617 324.741 63.3737 324.316 63.5977 323.951C63.8216 323.586 64.1289 323.304 64.5195 323.103C64.9102 322.9 65.3542 322.799 65.8516 322.799C66.3542 322.799 66.7969 322.899 67.1797 323.099C67.5651 323.297 67.8659 323.568 68.082 323.912C68.2982 324.253 68.4062 324.638 68.4062 325.068C68.4062 325.365 68.3503 325.655 68.2383 325.939C68.1289 326.223 67.9375 326.539 67.6641 326.888C67.3906 327.235 67.0104 327.655 66.5234 328.15L64.9336 329.814V329.873H68.5352V330.908H63.2695ZM72.6563 331.017C72.1667 331.017 71.7266 330.924 71.3359 330.736C70.9479 330.546 70.638 330.286 70.4062 329.955C70.1745 329.624 70.0508 329.247 70.0352 328.822H71.207C71.2357 329.166 71.388 329.448 71.6641 329.67C71.9401 329.891 72.2708 330.002 72.6563 330.002C72.9635 330.002 73.2357 329.931 73.4727 329.791C73.7122 329.648 73.8997 329.451 74.0352 329.201C74.1732 328.951 74.2422 328.666 74.2422 328.345C74.2422 328.02 74.1719 327.73 74.0313 327.474C73.8906 327.219 73.6966 327.019 73.4492 326.873C73.2044 326.727 72.9232 326.653 72.6055 326.65C72.3633 326.65 72.1198 326.692 71.875 326.775C71.6302 326.858 71.4323 326.968 71.2812 327.103L70.1758 326.939L70.625 322.908H75.0234V323.943H71.6289L71.375 326.181H71.4219C71.5781 326.03 71.7852 325.904 72.043 325.802C72.3034 325.701 72.582 325.65 72.8789 325.65C73.3659 325.65 73.7995 325.766 74.1797 325.998C74.5625 326.23 74.8633 326.546 75.082 326.947C75.3034 327.345 75.4128 327.804 75.4102 328.322C75.4128 328.84 75.2956 329.302 75.0586 329.709C74.8242 330.115 74.4987 330.435 74.082 330.67C73.668 330.901 73.1927 331.017 72.6563 331.017Z" fill="#3E424B"/>
<path d="M66.0547 378.041C65.4375 378.038 64.9102 377.875 64.4727 377.552C64.0352 377.23 63.7005 376.76 63.4688 376.142C63.237 375.525 63.1211 374.782 63.1211 373.912C63.1211 373.045 63.237 372.304 63.4688 371.689C63.7031 371.075 64.0391 370.606 64.4766 370.283C64.9167 369.96 65.4427 369.799 66.0547 369.799C66.6667 369.799 67.1914 369.961 67.6289 370.287C68.0664 370.61 68.401 371.079 68.6328 371.693C68.8672 372.305 68.9844 373.045 68.9844 373.912C68.9844 374.784 68.8685 375.529 68.6367 376.146C68.4049 376.761 68.0703 377.231 67.6328 377.556C67.1953 377.879 66.6693 378.041 66.0547 378.041ZM66.0547 376.998C66.5964 376.998 67.0195 376.733 67.3242 376.205C67.6315 375.676 67.7852 374.912 67.7852 373.912C67.7852 373.248 67.7148 372.687 67.5742 372.228C67.4362 371.767 67.237 371.418 66.9766 371.181C66.7188 370.942 66.4115 370.822 66.0547 370.822C65.5156 370.822 65.0924 371.088 64.7852 371.619C64.4779 372.15 64.3229 372.914 64.3203 373.912C64.3203 374.579 64.3893 375.142 64.5273 375.603C64.668 376.062 64.8672 376.409 65.125 376.646C65.3828 376.881 65.6927 376.998 66.0547 376.998Z" fill="#3E424B"/>
<path d="M94.5 259.908L150.643 270.908H209.83H267.325H321.439L375.891 265.408L432.372 261.908L487.5 257.908" stroke="#00A8FF" stroke-width="4" stroke-linecap="round" stroke-linejoin="round"/>
<path d="M94.5 276.726L150.161 246.908L208.183 252.375L264.856 262.811L321.867 328.908L377.527 276.726L433.526 299.09L487.5 324.932" stroke="#00BA96" stroke-width="4" stroke-linecap="round" stroke-linejoin="round"/>
<path d="M94.5 317.908L150.449 315.527L207.415 313.622L264.043 310.289H321.348L376.619 307.908L433.925 310.289L487.5 312.67" stroke="#FFB36E" stroke-width="4" stroke-linecap="round" stroke-linejoin="round"/>
<path d="M94.5 363.408L151.373 360.908L208.926 367.408L265.458 363.408L322.672 365.408L378.863 372.908L435.395 355.908L487.5 359.408" stroke="#B880FF" stroke-width="4" stroke-linecap="round" stroke-linejoin="round"/>
<defs>
<filter id="filter0_d" x="0.5" y="0.907959" width="570" height="476" filterUnits="userSpaceOnUse" color-interpolation-filters="sRGB">
<feFlood flood-opacity="0" result="BackgroundImageFix"/>
<feColorMatrix in="SourceAlpha" type="matrix" values="0 0 0 0 0 0 0 0 0 0 0 0 0 0 0 0 0 0 127 0"/>
<feOffset dx="10" dy="10"/>
<feGaussianBlur stdDeviation="22.5"/>
<feColorMatrix type="matrix" values="0 0 0 0 0.537255 0 0 0 0 0.552941 0 0 0 0 0.603922 0 0 0 0.2 0"/>
<feBlend mode="normal" in2="BackgroundImageFix" result="effect1_dropShadow"/>
<feBlend mode="normal" in="SourceGraphic" in2="effect1_dropShadow" result="shape"/>
</filter>
</defs>
</svg>
