<svg width="571" height="457" viewBox="0 0 571 457" fill="none" xmlns="http://www.w3.org/2000/svg">
<g filter="url(#filter0_d)">
<rect x="35.5" y="35.908" width="480" height="231" rx="10" fill="white"/>
<rect x="35.5" y="276.908" width="480" height="125" rx="10" fill="white"/>
<path d="M74.9065 68.143C74.5172 64.9522 72.099 63.1205 68.9008 63.1253C65.2506 63.1307 62.4679 65.7123 62.4746 70.2329C62.4813 74.74 65.2245 77.3268 68.922 77.3213C72.4642 77.316 74.5996 74.9581 74.9129 72.414L71.9576 72.4049C71.6832 73.8829 70.524 74.7348 68.9654 74.7371C66.867 74.7402 65.441 73.1837 65.4366 70.2285C65.4323 67.3542 66.8333 65.7126 68.9722 65.7094C70.5712 65.707 71.7264 66.6296 71.9513 68.1474L74.9065 68.143ZM81.6438 77.3159C84.788 77.3112 86.7414 75.1559 86.7367 71.9645C86.7319 68.7529 84.772 66.6102 81.6278 66.6149C78.4837 66.6196 76.5302 68.7681 76.535 71.9797C76.5397 75.1711 78.4996 77.3206 81.6438 77.3159ZM81.654 75.0893C80.2033 75.0914 79.4591 73.7634 79.4565 71.9551C79.4538 70.1469 80.194 68.8098 81.6446 68.8077C83.0682 68.8056 83.8124 70.1404 83.8151 71.9486C83.8178 73.7569 83.0776 75.0872 81.654 75.0893ZM88.6133 77.1031L91.4876 77.0988L91.4783 70.8779C91.4766 69.7309 92.2042 68.9674 93.1623 68.9659C94.1069 68.9645 94.7421 69.6113 94.7436 70.6301L94.7532 77.0939L97.5398 77.0898L97.5304 70.7609C97.5288 69.6881 98.1417 68.9585 99.1875 68.957C100.105 68.9556 100.794 69.5281 100.796 70.6818L100.805 77.0849L103.673 77.0806L103.663 70.1108C103.659 67.864 102.321 66.584 100.392 66.5869C98.8736 66.5892 97.694 67.3669 97.2707 68.555L97.1627 68.5552C96.8303 67.3547 95.7699 66.5938 94.3462 66.5959C92.9496 66.598 91.8914 67.3418 91.4614 68.5636L91.3399 68.5638L91.3372 66.7353L88.5978 66.7394L88.6133 77.1031ZM105.949 80.9636L108.823 80.9593L108.815 75.4132L108.903 75.413C109.302 76.2761 110.174 77.2396 111.847 77.2371C114.209 77.2336 116.048 75.3619 116.043 71.8939C116.038 68.3314 114.112 66.5665 111.838 66.5699C110.104 66.5724 109.276 67.606 108.893 68.45L108.764 68.4502L108.762 66.7094L105.928 66.7136L105.949 80.9636ZM108.749 71.8912C108.746 70.0425 109.527 68.8606 110.924 68.8585C112.348 68.8564 113.105 70.09 113.108 71.8847C113.111 73.693 112.343 74.9491 110.933 74.9512C109.55 74.9533 108.752 73.74 108.749 71.8912ZM122.69 77.2547C125.254 77.2509 126.979 76.0001 127.381 74.0765L124.723 73.9051C124.434 74.6949 123.692 75.1076 122.734 75.109C121.297 75.1112 120.385 74.1612 120.382 72.6161L120.382 72.6093L127.44 72.5988L127.439 71.8094C127.434 68.2874 125.299 66.5498 122.559 66.5539C119.51 66.5584 117.536 68.7272 117.541 71.9254C117.546 75.2112 119.499 77.2595 122.69 77.2547ZM120.38 70.8281C120.439 69.6472 121.335 68.7013 122.61 68.6994C123.858 68.6975 124.723 69.5869 124.732 70.8216L120.38 70.8281ZM134.819 66.6706L132.869 66.6735L132.866 64.1905L129.991 64.1948L129.995 66.6777L128.578 66.6799L128.581 68.8389L129.998 68.8368L130.006 74.2346C129.996 76.2655 131.38 77.2687 133.465 77.1779C134.207 77.1498 134.733 77.0006 135.023 76.9057L134.568 74.7675C134.427 74.7947 134.123 74.8627 133.853 74.8631C133.28 74.8639 132.881 74.6486 132.88 73.8524L132.873 68.8326L134.822 68.8297L134.819 66.6706ZM136.707 77.0314L139.581 77.0271L139.566 66.6635L136.692 66.6678L136.707 77.0314ZM138.133 65.3297C138.99 65.3284 139.691 64.6729 139.69 63.87C139.689 63.0738 138.986 62.4204 138.129 62.4217C137.279 62.4229 136.578 63.0784 136.579 63.8746C136.581 64.6775 137.283 65.3309 138.133 65.3297ZM147.381 66.6518L145.431 66.6547L145.427 64.1718L142.553 64.1761L142.557 66.659L141.14 66.6611L141.143 68.8202L142.56 68.8181L142.568 74.2158C142.557 76.2468 143.942 77.25 146.027 77.1592C146.769 77.1311 147.295 76.9819 147.585 76.887L147.13 74.7488C146.988 74.776 146.685 74.8439 146.415 74.8444C145.841 74.8452 145.443 74.6299 145.442 73.8337L145.434 68.8138L147.384 68.8109L147.381 66.6518ZM153.84 77.2083C156.984 77.2036 158.938 75.0483 158.933 71.8569C158.928 68.6453 156.968 66.5026 153.824 66.5073C150.68 66.512 148.726 68.6605 148.731 71.8721C148.736 75.0635 150.696 77.213 153.84 77.2083ZM153.85 74.9817C152.4 74.9839 151.655 73.6558 151.653 71.8475C151.65 70.0393 152.39 68.7023 153.841 68.7001C155.265 68.698 156.009 70.0328 156.011 71.8411C156.014 73.6493 155.274 74.9796 153.85 74.9817ZM160.81 76.9955L163.684 76.9912L163.675 71.1279C163.673 69.8527 164.603 68.9742 165.871 68.9723C166.27 68.9717 166.816 69.0384 167.086 69.1257L167.082 66.5753C166.826 66.5149 166.468 66.475 166.178 66.4754C165.018 66.4771 164.067 67.1533 163.691 68.4358L163.583 68.4359L163.581 66.6277L160.794 66.6319L160.81 76.9955ZM177.196 69.5627C176.937 67.6536 175.396 66.4752 172.779 66.4791C170.127 66.483 168.381 67.7136 168.391 69.7107C168.387 71.2626 169.366 72.2665 171.391 72.6683L173.186 73.0232C174.091 73.204 174.503 73.534 174.517 74.0535C174.505 74.6676 173.837 75.1071 172.832 75.1086C171.806 75.1101 171.124 74.6726 170.948 73.8295L168.121 73.9821C168.394 75.9654 170.082 77.1841 172.828 77.18C175.514 77.176 177.435 75.8035 177.438 73.7591C177.429 72.2612 176.45 71.3653 174.438 70.9567L172.562 70.5817C171.597 70.3739 171.239 70.0439 171.245 69.5446C171.237 68.9238 171.938 68.518 172.829 68.5166C173.827 68.5151 174.422 69.0608 174.565 69.7285L177.196 69.5627ZM189.615 63.1344L186.868 63.1385L183.451 65.3094L183.455 67.9003L186.616 65.9119L186.697 65.9118L186.714 76.9569L189.635 76.9525L189.615 63.1344ZM199.391 68.8886L193.089 68.898L193.093 71.1786L199.395 71.1692L199.391 68.8886ZM207.817 63.1072L205.071 63.1113L201.653 65.2823L201.657 67.8732L204.818 65.8848L204.899 65.8847L204.916 76.9298L207.837 76.9254L207.817 63.1072ZM216.54 77.2161C220.015 77.2109 222.109 74.5629 222.109 70.0085C222.109 65.4879 219.98 62.9002 216.519 62.9054C213.051 62.9105 210.949 65.4978 210.949 70.0252C210.943 74.566 213.058 77.2145 216.54 77.2161ZM216.536 74.7938C214.951 74.7962 213.923 73.2054 213.925 70.0207C213.927 66.8833 214.943 65.3029 216.522 65.3006C218.094 65.2983 219.122 66.8756 219.127 70.013C219.138 73.1976 218.115 74.7915 216.536 74.7938ZM229.251 69.9844C229.256 73.3377 230.144 76.123 231.989 78.5223L234.736 78.5182C233.323 76.739 232.245 73.1781 232.24 69.98C232.235 66.7885 233.303 63.2245 234.71 61.4411L231.964 61.4452C230.126 63.8499 229.246 66.6311 229.251 69.9844ZM236.374 76.8829L246.225 76.8682L246.222 74.4797L240.419 74.4884L240.419 74.3939L242.433 72.414C245.27 69.8189 246.031 68.5223 246.028 66.9502C246.025 64.5549 244.066 62.8643 241.104 62.8687C238.202 62.873 236.214 64.61 236.225 67.3224L238.998 67.3182C238.99 65.9958 239.825 65.1849 241.087 65.183C242.301 65.1812 243.206 65.9356 243.208 67.15C243.21 68.2498 242.536 69.0065 241.283 70.2161L236.371 74.7778L236.374 76.8829ZM253.321 62.81C250.231 62.8011 248.149 64.8284 248.166 67.6352C248.157 70.2261 249.968 72.0924 252.417 72.0887C253.935 72.0865 255.284 71.349 255.896 70.1336L255.99 70.1335C255.988 72.8728 255.039 74.5408 253.237 74.5435C252.178 74.5451 251.415 73.966 251.19 72.961L248.309 72.9653C248.583 75.2926 250.475 77.0508 253.241 77.0467C256.662 77.0416 258.85 74.272 258.85 69.5827C258.836 64.5291 256.161 62.8125 253.321 62.81ZM253.345 65.104C254.687 65.102 255.681 66.1936 255.696 67.5295C255.685 68.8722 254.661 69.9668 253.325 69.9688C251.975 69.9708 250.989 68.9197 251 67.55C250.985 66.1669 251.988 65.1061 253.345 65.104ZM260.885 76.8464L270.736 76.8317L270.732 74.4432L264.93 74.4519L264.93 74.3574L266.944 72.3775C269.781 69.7823 270.541 68.4857 270.539 66.9137C270.535 64.5184 268.576 62.8278 265.614 62.8322C262.713 62.8365 260.725 64.5735 260.736 67.2859L263.509 67.2817C263.5 65.9593 264.336 65.1484 265.597 65.1465C266.812 65.1447 267.717 65.899 267.719 67.1135C267.721 68.2133 267.047 68.97 265.794 70.1796L260.882 74.7413L260.885 76.8464ZM278.008 77.0098C281.125 77.0051 283.363 75.3353 283.366 73.0952C283.357 71.3679 282.026 69.9598 280.365 69.6856L280.365 69.5911C281.809 69.2921 282.839 68.0423 282.844 66.5242C282.834 64.3854 280.78 62.8096 277.987 62.8138C275.187 62.8179 273.138 64.3998 273.148 66.5387C273.143 68.05 274.164 69.3035 275.635 69.5982L275.636 69.6926C273.949 69.9718 272.636 71.3839 272.645 73.1112C272.642 75.3512 274.891 77.0144 278.008 77.0098ZM278.005 74.8642C276.615 74.8663 275.683 74.0445 275.681 72.8772C275.679 71.683 276.656 70.8179 277.999 70.8159C279.335 70.8139 280.321 71.6761 280.323 72.8703C280.325 74.0443 279.388 74.8621 278.005 74.8642ZM277.996 68.6905C276.828 68.6923 275.997 67.9311 275.996 66.838C275.994 65.7585 276.809 65.0151 277.99 65.0133C279.164 65.0116 279.988 65.7593 279.99 66.8321C279.992 67.9251 279.156 68.6888 277.996 68.6905ZM290.276 69.8935C290.271 66.5401 289.383 63.7549 287.537 61.3556L284.791 61.3597C286.204 63.1389 287.282 66.6998 287.287 69.8979C287.291 73.0893 286.224 76.6534 284.816 78.4368L287.562 78.4327C289.401 76.028 290.281 73.2468 290.276 69.8935Z" fill="#171A22"/>
<path d="M61.5 117.908L483.5 116.908" stroke="#898D9A" stroke-miterlimit="10"/>
<path d="M61.5 314.375L483.5 313.375" stroke="#898D9A" stroke-miterlimit="10"/>
<path d="M61.5 149.908H483.5" stroke="#E9EBEF" stroke-miterlimit="10"/>
<path d="M61.5 181.876H483.5" stroke="#E9EBEF" stroke-miterlimit="10"/>
<path d="M61.5 213.844H483.5" stroke="#E9EBEF" stroke-miterlimit="10"/>
<path d="M61.5 245.812H483.5" stroke="#E9EBEF" stroke-miterlimit="10"/>
<path d="M61.5 346.375H483.5" stroke="#E9EBEF" stroke-miterlimit="10"/>
<path d="M61.5 377.876H483.5" stroke="#E9EBEF" stroke-miterlimit="10"/>
<path d="M65.0476 108.903C67.4851 108.899 68.9595 107.389 68.9557 104.889C68.952 102.397 67.4732 100.899 65.0592 100.903L62.1998 100.907L62.2117 108.907L65.0476 108.903ZM63.9009 107.455L63.8933 102.354L64.9715 102.352C66.4715 102.35 67.2656 103.114 67.2682 104.892C67.2709 106.677 66.4791 107.451 64.9752 107.454L63.9009 107.455ZM72.8945 109.008C74.7148 109.005 75.8458 107.758 75.843 105.91C75.8402 104.051 74.7056 102.81 72.8853 102.813C71.065 102.816 69.934 104.059 69.9368 105.919C69.9395 107.766 71.0742 109.011 72.8945 109.008ZM72.9004 107.719C72.0605 107.72 71.6297 106.951 71.6281 105.905C71.6266 104.858 72.0551 104.084 72.895 104.082C73.7192 104.081 74.15 104.854 74.1516 105.901C74.1531 106.948 73.7246 107.718 72.9004 107.719ZM76.9295 108.885L78.5935 108.883L78.5882 105.281C78.5872 104.617 79.0084 104.175 79.5631 104.174C80.11 104.173 80.4777 104.548 80.4786 105.138L80.4842 108.88L82.0974 108.877L82.092 105.213C82.0911 104.592 82.4459 104.17 83.0514 104.169C83.5826 104.168 83.9816 104.499 83.9825 105.167L83.9881 108.874L85.6482 108.872L85.6422 104.837C85.6403 103.536 84.8657 102.795 83.7485 102.797C82.8696 102.798 82.1867 103.248 81.9416 103.936L81.8791 103.936C81.6867 103.241 81.0728 102.801 80.2485 102.802C79.44 102.803 78.8273 103.234 78.5784 103.941L78.5081 103.941L78.5065 102.883L76.9205 102.885L76.9295 108.885ZM88.6738 108.981C89.5605 108.979 90.1341 108.592 90.4263 108.033L90.4732 108.033L90.4744 108.865L92.0525 108.862L92.0465 104.816C92.0444 103.386 90.8325 102.786 89.4966 102.788C88.0591 102.79 87.1148 103.479 86.886 104.573L88.4252 104.696C88.5379 104.297 88.8929 104.004 89.4906 104.003C90.057 104.002 90.3816 104.287 90.3824 104.779L90.3824 104.802C90.383 105.189 89.9729 105.241 88.9301 105.344C87.7427 105.455 86.6769 105.855 86.6789 107.195C86.6807 108.382 87.5293 108.982 88.6738 108.981ZM89.1486 107.832C88.6369 107.832 88.2694 107.595 88.2687 107.138C88.268 106.669 88.6544 106.438 89.2402 106.355C89.6034 106.304 90.197 106.217 90.396 106.084L90.397 106.72C90.3979 107.349 89.8791 107.831 89.1486 107.832ZM93.3435 108.861L95.0076 108.858L94.9987 102.858L93.3346 102.861L93.3435 108.861ZM94.1694 102.086C94.6655 102.085 95.0712 101.706 95.0705 101.241C95.0698 100.78 94.663 100.402 94.1669 100.402C93.6747 100.403 93.269 100.783 93.2697 101.243C93.2704 101.708 93.6772 102.087 94.1694 102.086ZM97.9995 105.385C98.0023 104.611 98.4625 104.158 99.1344 104.157C99.8024 104.156 100.205 104.592 100.203 105.327L100.208 108.85L101.872 108.848L101.866 105.028C101.864 103.629 101.042 102.771 99.7925 102.773C98.9019 102.774 98.258 103.213 97.9895 103.912L97.9192 103.912L97.9176 102.854L96.3317 102.856L96.3406 108.856L98.0047 108.854L97.9995 105.385Z" fill="#171A22"/>
<path d="M65.0476 305.043C67.4851 305.04 68.9595 303.53 68.9557 301.03C68.952 298.538 67.4732 297.04 65.0592 297.043L62.1998 297.048L62.2117 305.048L65.0476 305.043ZM63.9009 303.596L63.8933 298.494L64.9715 298.493C66.4715 298.491 67.2656 299.255 67.2682 301.032C67.2709 302.817 66.4791 303.592 64.9752 303.594L63.9009 303.596ZM72.8945 305.149C74.7148 305.146 75.8458 303.898 75.843 302.051C75.8402 300.191 74.7056 298.951 72.8853 298.954C71.065 298.956 69.934 300.2 69.9368 302.06C69.9395 303.907 71.0742 305.152 72.8945 305.149ZM72.9004 303.86C72.0605 303.861 71.6297 303.092 71.6281 302.045C71.6266 300.998 72.0551 300.224 72.895 300.223C73.7192 300.222 74.15 300.995 74.1516 302.042C74.1531 303.088 73.7246 303.859 72.9004 303.86ZM76.9295 305.026L78.5935 305.023L78.5882 301.422C78.5872 300.758 79.0084 300.316 79.5631 300.315C80.11 300.314 80.4777 300.688 80.4786 301.278L80.4842 305.02L82.0974 305.018L82.092 301.354C82.0911 300.733 82.4459 300.31 83.0514 300.31C83.5826 300.309 83.9816 300.64 83.9825 301.308L83.9881 305.015L85.6482 305.013L85.6422 300.978C85.6403 299.677 84.8657 298.936 83.7485 298.937C82.8696 298.939 82.1867 299.389 81.9416 300.077L81.8791 300.077C81.6867 299.382 81.0728 298.941 80.2485 298.943C79.44 298.944 78.8273 299.374 78.5784 300.082L78.5081 300.082L78.5065 299.023L76.9205 299.026L76.9295 305.026ZM88.6738 305.122C89.5605 305.12 90.1341 304.733 90.4263 304.174L90.4732 304.174L90.4744 305.006L92.0525 305.003L92.0465 300.956C92.0444 299.527 90.8325 298.927 89.4966 298.929C88.0591 298.931 87.1148 299.62 86.886 300.714L88.4252 300.837C88.5379 300.438 88.8929 300.145 89.4906 300.144C90.057 300.143 90.3816 300.428 90.3824 300.92L90.3824 300.943C90.383 301.33 89.9729 301.381 88.9301 301.484C87.7427 301.596 86.6769 301.996 86.6789 303.335C86.6807 304.523 87.5293 305.123 88.6738 305.122ZM89.1486 303.972C88.6369 303.973 88.2694 303.735 88.2687 303.278C88.268 302.81 88.6544 302.579 89.2402 302.496C89.6034 302.444 90.197 302.358 90.396 302.224L90.397 302.861C90.3979 303.49 89.8791 303.971 89.1486 303.972ZM93.3435 305.001L95.0076 304.999L94.9987 298.999L93.3346 299.001L93.3435 305.001ZM94.1694 298.227C94.6655 298.226 95.0712 297.846 95.0705 297.382C95.0698 296.921 94.663 296.542 94.1669 296.543C93.6747 296.544 93.269 296.923 93.2697 297.384C93.2704 297.849 93.6772 298.227 94.1694 298.227ZM97.9995 301.526C98.0023 300.752 98.4625 300.298 99.1344 300.297C99.8024 300.296 100.205 300.733 100.203 301.468L100.208 304.991L101.872 304.989L101.866 301.168C101.864 299.77 101.042 298.912 99.7925 298.914C98.9019 298.915 98.258 299.353 97.9895 300.053L97.9192 300.053L97.9176 298.994L96.3317 298.997L96.3406 304.997L98.0047 304.994L97.9995 301.526Z" fill="#171A22"/>
<path d="M204.645 100.905L202.766 100.908L205.54 108.903L207.72 108.9L210.465 100.896L208.59 100.899L206.662 106.98L206.588 106.98L204.645 100.905ZM211.409 108.895L213.073 108.892L213.064 102.892L211.4 102.895L211.409 108.895ZM212.235 102.12C212.731 102.119 213.137 101.74 213.136 101.275C213.135 100.814 212.728 100.436 212.232 100.436C211.74 100.437 211.334 100.817 211.335 101.278C211.336 101.742 211.743 102.121 212.235 102.12ZM219.392 104.594C219.242 103.488 218.35 102.806 216.834 102.808C215.299 102.811 214.289 103.523 214.294 104.679C214.292 105.578 214.859 106.159 216.031 106.392L217.071 106.597C217.594 106.702 217.833 106.893 217.841 107.194C217.834 107.549 217.447 107.804 216.865 107.805C216.272 107.805 215.877 107.552 215.774 107.064L214.138 107.152C214.296 108.301 215.273 109.006 216.863 109.004C218.418 109.001 219.53 108.207 219.532 107.023C219.527 106.156 218.96 105.637 217.795 105.401L216.709 105.184C216.15 105.063 215.943 104.872 215.946 104.583C215.942 104.224 216.348 103.989 216.864 103.988C217.442 103.987 217.786 104.303 217.869 104.69L219.392 104.594ZM222.294 108.992C223.181 108.99 223.754 108.603 224.046 108.044L224.093 108.044L224.095 108.876L225.673 108.873L225.667 104.827C225.664 103.397 224.453 102.797 223.117 102.799C221.679 102.801 220.735 103.49 220.506 104.584L222.045 104.707C222.158 104.308 222.513 104.015 223.111 104.014C223.677 104.013 224.002 104.298 224.002 104.79L224.003 104.813C224.003 105.2 223.593 105.252 222.55 105.355C221.363 105.466 220.297 105.866 220.299 107.206C220.301 108.393 221.149 108.993 222.294 108.992ZM222.769 107.843C222.257 107.843 221.889 107.606 221.889 107.149C221.888 106.68 222.274 106.449 222.86 106.366C223.224 106.315 223.817 106.228 224.016 106.095L224.017 106.731C224.018 107.36 223.499 107.842 222.769 107.843ZM226.995 108.871L228.636 108.869L228.634 107.908L228.708 107.908C228.94 108.408 229.444 108.965 230.413 108.964C231.78 108.962 232.845 107.878 232.842 105.871C232.839 103.808 231.724 102.786 230.408 102.788C229.404 102.79 228.924 103.388 228.702 103.877L228.652 103.877L228.647 100.869L226.983 100.871L226.995 108.871ZM228.619 105.869C228.618 104.799 229.07 104.114 229.878 104.113C230.703 104.112 231.141 104.826 231.143 105.865C231.144 106.912 230.7 107.639 229.884 107.641C229.083 107.642 228.621 106.939 228.619 105.869ZM233.957 108.861L235.621 108.859L235.612 102.859L233.948 102.861L233.957 108.861ZM234.783 102.086C235.279 102.086 235.684 101.706 235.684 101.241C235.683 100.78 235.276 100.402 234.78 100.403C234.288 100.404 233.882 100.783 233.883 101.244C233.884 101.709 234.29 102.087 234.783 102.086ZM238.606 100.854L236.942 100.857L236.954 108.857L238.618 108.854L238.606 100.854ZM239.951 108.852L241.615 108.85L241.606 102.85L239.942 102.852L239.951 108.852ZM240.777 102.077C241.273 102.077 241.679 101.697 241.678 101.232C241.677 100.771 241.27 100.393 240.774 100.394C240.282 100.395 239.876 100.774 239.877 101.235C239.878 101.7 240.285 102.078 240.777 102.077ZM246.13 102.843L245.002 102.845L244.999 101.407L243.335 101.41L243.338 102.847L242.517 102.848L242.519 104.098L243.339 104.097L243.344 107.222C243.338 108.398 244.14 108.979 245.347 108.926C245.776 108.91 246.081 108.824 246.249 108.769L245.985 107.531C245.903 107.546 245.727 107.586 245.571 107.586C245.239 107.586 245.008 107.462 245.008 107.001L245.003 104.095L246.132 104.093L246.13 102.843ZM248.254 111.078C249.492 111.076 250.152 110.446 250.486 109.485L252.808 102.841L251.047 102.836L249.799 107.244L249.737 107.244L248.488 102.839L246.738 102.842L248.899 109.011L248.802 109.265C248.569 109.808 248.166 109.848 247.58 109.665L247.207 110.912C247.445 111.009 247.832 111.079 248.254 111.078Z" fill="#171A22"/>
<path d="M203.212 304.048L208.618 304.04L208.616 302.645L204.901 302.651L204.898 300.74L208.32 300.735L208.318 299.341L204.896 299.346L204.893 297.44L208.592 297.434L208.59 296.04L203.2 296.048L203.212 304.048ZM214.902 299.741C214.752 298.636 213.86 297.954 212.344 297.956C210.809 297.958 209.798 298.671 209.804 299.827C209.801 300.725 210.369 301.307 211.541 301.539L212.58 301.745C213.104 301.849 213.343 302.04 213.351 302.341C213.344 302.697 212.957 302.951 212.375 302.952C211.781 302.953 211.386 302.7 211.284 302.211L209.648 302.3C209.806 303.448 210.783 304.154 212.373 304.151C213.928 304.149 215.04 303.354 215.042 302.171C215.037 301.303 214.47 300.785 213.305 300.548L212.219 300.331C211.66 300.211 211.453 300.02 211.456 299.731C211.452 299.371 211.858 299.136 212.373 299.136C212.951 299.135 213.296 299.451 213.378 299.837L214.902 299.741ZM219.275 298.024L218.146 298.025L218.144 296.588L216.48 296.59L216.482 298.028L215.662 298.029L215.664 299.279L216.484 299.278L216.489 302.403C216.483 303.579 217.284 304.16 218.491 304.107C218.921 304.091 219.225 304.004 219.393 303.949L219.13 302.711C219.048 302.727 218.872 302.767 218.716 302.767C218.384 302.767 218.153 302.643 218.152 302.182L218.148 299.275L219.277 299.274L219.275 298.024ZM220.368 304.022L222.032 304.02L222.023 298.02L220.359 298.022L220.368 304.022ZM221.194 297.247C221.69 297.247 222.096 296.867 222.095 296.402C222.094 295.941 221.687 295.563 221.191 295.564C220.699 295.565 220.293 295.944 220.294 296.405C220.295 296.87 220.702 297.248 221.194 297.247ZM223.365 304.018L225.029 304.015L225.024 300.414C225.023 299.75 225.444 299.308 225.999 299.307C226.546 299.306 226.913 299.68 226.914 300.27L226.92 304.012L228.533 304.01L228.528 300.346C228.527 299.725 228.881 299.302 229.487 299.301C230.018 299.301 230.417 299.632 230.418 300.3L230.424 304.007L232.084 304.005L232.078 299.969C232.076 298.669 231.301 297.928 230.184 297.929C229.305 297.931 228.622 298.381 228.377 299.069L228.315 299.069C228.122 298.374 227.508 297.933 226.684 297.935C225.875 297.936 225.263 298.366 225.014 299.074L224.944 299.074L224.942 298.015L223.356 298.018L223.365 304.018ZM235.109 304.113C235.996 304.112 236.57 303.725 236.862 303.165L236.909 303.165L236.91 303.997L238.488 303.995L238.482 299.948C238.48 298.519 237.268 297.919 235.932 297.921C234.495 297.923 233.55 298.612 233.322 299.706L234.861 299.829C234.973 299.43 235.328 299.137 235.926 299.136C236.493 299.135 236.817 299.419 236.818 299.912L236.818 299.935C236.819 300.322 236.408 300.373 235.366 300.476C234.178 300.587 233.112 300.987 233.114 302.327C233.116 303.515 233.965 304.115 235.109 304.113ZM235.584 302.964C235.072 302.965 234.705 302.727 234.704 302.27C234.704 301.802 235.09 301.57 235.676 301.488C236.039 301.436 236.633 301.349 236.832 301.216L236.833 301.853C236.833 302.482 236.315 302.963 235.584 302.964ZM242.962 297.988L241.833 297.99L241.831 296.553L240.166 296.555L240.169 297.993L239.348 297.994L239.35 299.244L240.17 299.243L240.175 302.368C240.169 303.543 240.971 304.124 242.178 304.072C242.607 304.055 242.912 303.969 243.08 303.914L242.816 302.676C242.734 302.692 242.558 302.731 242.402 302.731C242.07 302.732 241.84 302.607 241.839 302.146L241.835 299.24L242.963 299.238L242.962 297.988ZM246.725 304.1C248.209 304.098 249.208 303.374 249.441 302.26L247.901 302.161C247.734 302.618 247.305 302.857 246.75 302.858C245.918 302.859 245.39 302.309 245.389 301.415L245.389 301.411L249.474 301.405L249.474 300.947C249.471 298.908 248.235 297.902 246.649 297.905C244.883 297.907 243.741 299.163 243.743 301.015C243.746 302.917 244.877 304.103 246.725 304.1ZM245.387 300.379C245.421 299.696 245.94 299.148 246.678 299.147C247.401 299.146 247.902 299.661 247.907 300.376L245.387 300.379ZM252.775 304.071C253.744 304.07 254.247 303.511 254.477 303.01L254.547 303.01L254.549 303.971L256.189 303.969L256.177 295.969L254.517 295.971L254.522 298.979L254.471 298.979C254.247 298.491 253.766 297.894 252.762 297.896C251.446 297.898 250.334 298.923 250.337 300.985C250.34 302.993 251.408 304.074 252.775 304.071ZM253.301 302.746C252.484 302.748 252.038 302.022 252.036 300.975C252.035 299.936 252.471 299.22 253.295 299.219C254.104 299.218 254.558 299.901 254.56 300.971C254.561 302.041 254.101 302.745 253.301 302.746ZM259.82 297.358L262.269 297.354L262.279 303.96L263.951 303.957L263.941 297.352L266.39 297.348L266.388 295.954L259.818 295.963L259.82 297.358ZM266.828 303.953L268.492 303.95L268.487 300.556C268.486 299.818 269.024 299.309 269.758 299.308C269.989 299.308 270.305 299.346 270.462 299.397L270.46 297.92C270.311 297.885 270.104 297.862 269.936 297.862C269.264 297.863 268.714 298.255 268.496 298.997L268.434 298.997L268.432 297.95L266.819 297.953L266.828 303.953ZM272.868 304.057C273.755 304.056 274.328 303.668 274.621 303.109L274.667 303.109L274.669 303.941L276.247 303.939L276.241 299.892C276.239 298.462 275.027 297.863 273.691 297.865C272.253 297.867 271.309 298.556 271.08 299.65L272.62 299.772C272.732 299.374 273.087 299.08 273.685 299.079C274.251 299.079 274.576 299.363 274.577 299.855L274.577 299.879C274.577 300.266 274.167 300.317 273.124 300.42C271.937 300.531 270.871 300.931 270.873 302.271C270.875 303.459 271.724 304.059 272.868 304.057ZM273.343 302.908C272.831 302.909 272.464 302.671 272.463 302.214C272.462 301.745 272.849 301.514 273.435 301.431C273.798 301.38 274.391 301.293 274.59 301.16L274.591 301.797C274.592 302.426 274.073 302.907 273.343 302.908ZM280.755 297.932L279.564 297.934L279.563 297.532C279.563 297.125 279.727 296.887 280.215 296.886C280.414 296.886 280.617 296.928 280.75 296.971L281.041 295.721C280.834 295.659 280.377 295.558 279.865 295.558C278.736 295.56 277.897 296.198 277.899 297.503L277.9 297.936L277.052 297.938L277.054 299.188L277.902 299.186L277.909 303.936L279.573 303.934L279.566 299.184L280.757 299.182L280.755 297.932ZM284.999 297.926L283.807 297.928L283.807 297.525C283.806 297.119 283.97 296.88 284.458 296.88C284.657 296.879 284.86 296.922 284.993 296.965L285.284 295.714C285.077 295.652 284.62 295.551 284.108 295.552C282.979 295.554 282.141 296.192 282.143 297.496L282.143 297.93L281.296 297.931L281.297 299.181L282.145 299.18L282.152 303.93L283.816 303.928L283.809 299.178L285.001 299.176L284.999 297.926ZM286.024 303.924L287.688 303.922L287.679 297.922L286.015 297.924L286.024 303.924ZM286.85 297.15C287.346 297.149 287.752 296.769 287.751 296.305C287.75 295.844 287.344 295.465 286.848 295.466C286.355 295.467 285.95 295.846 285.95 296.307C285.951 296.772 286.358 297.15 286.85 297.15ZM291.732 304.033C293.33 304.031 294.333 303.092 294.409 301.713L292.838 301.715C292.742 302.356 292.32 302.716 291.75 302.717C290.973 302.718 290.468 302.066 290.466 300.918C290.464 299.785 290.971 299.136 291.745 299.134C292.354 299.134 292.745 299.535 292.836 300.133L294.406 300.131C294.334 298.744 293.282 297.835 291.715 297.838C289.895 297.84 288.772 299.104 288.775 300.944C288.777 302.768 289.885 304.036 291.732 304.033Z" fill="#171A22"/>
<path d="M63.2856 134.929C63.2843 134.059 63.834 133.561 64.5904 133.56C65.322 133.559 65.7594 134.023 65.7606 134.822L65.7656 138.164L66.8274 138.162L66.8222 134.693C66.8202 133.333 66.0734 132.638 64.9513 132.639C64.1025 132.641 63.5917 133.011 63.3369 133.601L63.2695 133.601L63.2654 130.895L62.2178 130.896L62.2287 138.169L63.2905 138.167L63.2856 134.929ZM70.7823 132.702L69.6637 132.703L69.6618 131.397L68.6 131.398L68.6019 132.705L67.8029 132.706L67.8042 133.558L68.6032 133.557L68.608 136.778C68.6059 137.769 69.363 138.247 70.2011 138.228C70.5384 138.224 70.7656 138.16 70.8898 138.113L70.6968 137.237C70.6258 137.251 70.4944 137.283 70.324 137.283C69.9795 137.284 69.6704 137.171 69.6695 136.556L69.665 133.556L70.7836 133.554L70.7823 132.702ZM74.503 132.696L73.3844 132.698L73.3825 131.391L72.3207 131.393L72.3226 132.699L71.5236 132.701L71.5249 133.553L72.3239 133.552L72.3287 136.773C72.3266 137.763 73.0837 138.242 73.9218 138.223C74.2591 138.219 74.4863 138.154 74.6105 138.108L74.4175 137.231C74.3465 137.245 74.2151 137.278 74.0447 137.278C73.7002 137.278 73.3911 137.165 73.3902 136.551L73.3857 133.55L74.5043 133.548L74.503 132.696ZM75.6888 140.194L76.7505 140.193L76.7462 137.299L76.8102 137.299C77.0024 137.646 77.394 138.253 78.3883 138.251C79.7093 138.249 80.6665 137.19 80.6639 135.425C80.6613 133.656 79.6867 132.617 78.3692 132.619C77.3572 132.621 76.9923 133.239 76.8046 133.577L76.7158 133.577L76.7145 132.693L75.6776 132.694L75.6888 140.194ZM76.7221 135.42C76.7204 134.28 77.2165 133.523 78.1433 133.522C79.1057 133.52 79.5898 134.333 79.5914 135.416C79.5931 136.51 79.0972 137.345 78.149 137.346C77.2364 137.348 76.7238 136.567 76.7221 135.42ZM85.9388 134.011C85.7174 133.162 85.0525 132.609 83.8735 132.611C82.6413 132.613 81.7686 133.264 81.7701 134.23C81.7712 135.004 82.2408 135.518 83.2638 135.744L84.1874 135.945C84.7132 136.062 84.9585 136.296 84.959 136.637C84.9597 137.059 84.5092 137.39 83.8131 137.391C83.1775 137.392 82.7687 137.119 82.6401 136.583L81.614 136.741C81.793 137.707 82.5964 138.249 83.8215 138.247C85.139 138.245 86.0506 137.544 86.0491 136.557C86.048 135.786 85.5572 135.311 84.5554 135.082L83.6887 134.884C83.0883 134.743 82.8288 134.541 82.8318 134.172C82.8276 133.753 83.2817 133.454 83.8854 133.453C84.5459 133.452 84.8519 133.817 84.9767 134.183L85.9388 134.011ZM87.9127 134.228C88.2997 134.227 88.6224 133.911 88.6218 133.517C88.6213 133.13 88.2976 132.811 87.9106 132.811C87.5199 132.812 87.2008 133.132 87.2014 133.519C87.202 133.913 87.522 134.229 87.9127 134.228ZM87.9186 138.198C88.3057 138.198 88.6283 137.881 88.6278 137.487C88.6272 137.1 88.3035 136.781 87.9165 136.781C87.5259 136.782 87.2067 137.102 87.2073 137.489C87.2079 137.883 87.528 138.199 87.9186 138.198ZM92.8095 130.51L91.8613 130.511L89.5306 139.222L90.4787 139.221L92.8095 130.51ZM96.4814 130.504L95.5332 130.506L93.2024 139.217L94.1506 139.215L96.4814 130.504ZM98.5772 138.115L99.6568 138.113L100.759 134.173L100.841 134.173L101.954 138.11L103.037 138.108L104.631 132.651L103.534 132.653L102.478 136.642L102.424 136.642L101.353 132.656L100.256 132.658L99.1894 136.665L99.1361 136.665L98.0613 132.661L96.964 132.663L98.5772 138.115ZM106.829 138.103L107.909 138.101L109.011 134.161L109.092 134.161L110.206 138.097L111.289 138.096L112.883 132.639L111.786 132.641L110.73 136.63L110.676 136.63L109.605 132.644L108.508 132.645L107.441 136.653L107.388 136.653L106.313 132.649L105.216 132.65L106.829 138.103ZM115.081 138.09L116.161 138.089L117.263 134.149L117.344 134.149L118.458 138.085L119.541 138.084L121.135 132.627L120.037 132.628L118.982 136.618L118.928 136.618L117.857 132.632L116.76 132.633L115.693 136.64L115.64 136.641L114.565 132.636L113.468 132.638L115.081 138.09ZM122.108 138.147C122.495 138.147 122.818 137.83 122.817 137.436C122.817 137.049 122.493 136.73 122.106 136.73C121.715 136.731 121.396 137.051 121.397 137.438C121.397 137.832 121.717 138.148 122.108 138.147ZM124.94 138.143C125.327 138.142 125.65 137.826 125.649 137.432C125.649 137.045 125.325 136.726 124.938 136.726C124.547 136.727 124.228 137.047 124.229 137.434C124.229 137.828 124.549 138.144 124.94 138.143ZM127.772 138.139C128.159 138.138 128.482 137.822 128.481 137.427C128.481 137.04 128.157 136.721 127.77 136.722C127.379 136.722 127.06 137.043 127.061 137.43C127.061 137.824 127.381 138.139 127.772 138.139Z" fill="#3E424B"/>
<path d="M459.496 136.595L462.944 136.589L462.946 138.01L463.994 138.008L463.992 136.588L464.954 136.586L464.953 135.656L463.99 135.658L463.983 130.736L462.63 130.738L459.495 135.707L459.496 136.595ZM462.95 135.659L460.645 135.662L460.645 135.606L462.888 132.044L462.944 132.044L462.95 135.659ZM466.566 138.072C466.953 138.071 467.276 137.755 467.275 137.361C467.274 136.974 466.951 136.655 466.564 136.655C466.173 136.656 465.854 136.976 465.855 137.363C465.855 137.757 466.175 138.073 466.566 138.072ZM470.874 138.098C472.359 138.095 473.448 137.206 473.442 135.999C473.444 135.079 472.886 134.419 471.92 134.271L471.92 134.215C472.679 134.018 473.172 133.421 473.167 132.604C473.169 131.535 472.291 130.624 470.892 130.626C469.556 130.628 468.485 131.436 468.451 132.618L469.513 132.617C469.537 131.949 470.165 131.543 470.879 131.542C471.621 131.541 472.108 131.991 472.106 132.662C472.11 133.366 471.546 133.828 470.74 133.829L470.126 133.83L470.127 134.725L470.741 134.724C471.75 134.723 472.333 135.233 472.334 135.965C472.335 136.671 471.722 137.152 470.866 137.153C470.077 137.154 469.463 136.75 469.419 136.104L468.304 136.106C468.352 137.292 469.404 138.1 470.874 138.098ZM477.245 138.088C478.758 138.086 479.825 137.225 479.831 136.046C479.822 135.13 479.178 134.36 478.365 134.216L478.365 134.173C479.071 134.002 479.55 133.337 479.556 132.552C479.547 131.44 478.566 130.614 477.234 130.616C475.888 130.618 474.909 131.447 474.918 132.559C474.912 133.34 475.392 134.007 476.114 134.176L476.114 134.219C475.286 134.366 474.645 135.137 474.653 136.054C474.648 137.233 475.718 138.09 477.245 138.088ZM477.244 137.19C476.335 137.191 475.759 136.709 475.765 135.981C475.756 135.224 476.381 134.684 477.24 134.683C478.085 134.681 478.711 135.22 478.719 135.976C478.713 136.704 478.142 137.188 477.244 137.19ZM477.239 133.805C476.504 133.806 475.981 133.342 475.987 132.65C475.979 131.968 476.482 131.516 477.235 131.515C477.974 131.514 478.479 131.964 478.487 132.646C478.481 133.338 477.963 133.804 477.239 133.805Z" fill="#F51A38"/>
<rect x="202.5" y="129.764" width="189" height="7" rx="3" fill="#E9EBEF"/>
<path d="M202.5 132.764C202.5 131.107 203.843 129.764 205.5 129.764H364.739V136.764H205.5C203.843 136.764 202.5 135.421 202.5 133.764V132.764Z" fill="#00A8FF"/>
<path d="M63.2856 166.897C63.2843 166.027 63.834 165.529 64.5904 165.528C65.322 165.527 65.7594 165.991 65.7606 166.79L65.7656 170.132L66.8274 170.13L66.8222 166.661C66.8202 165.301 66.0734 164.606 64.9513 164.607C64.1025 164.609 63.5917 164.979 63.3369 165.569L63.2695 165.569L63.2654 162.863L62.2178 162.864L62.2287 170.137L63.2905 170.136L63.2856 166.897ZM70.7823 164.67L69.6637 164.671L69.6618 163.365L68.6 163.366L68.6019 164.673L67.8029 164.674L67.8042 165.527L68.6032 165.525L68.608 168.746C68.6059 169.737 69.363 170.215 70.2011 170.196C70.5384 170.192 70.7656 170.128 70.8898 170.082L70.6968 169.205C70.6258 169.219 70.4944 169.251 70.324 169.251C69.9795 169.252 69.6704 169.139 69.6695 168.524L69.665 165.524L70.7836 165.522L70.7823 164.67ZM74.503 164.664L73.3844 164.666L73.3825 163.359L72.3207 163.361L72.3226 164.668L71.5236 164.669L71.5249 165.521L72.3239 165.52L72.3287 168.741C72.3266 169.731 73.0837 170.21 73.9218 170.191C74.2591 170.187 74.4863 170.122 74.6105 170.076L74.4175 169.199C74.3465 169.214 74.2151 169.246 74.0447 169.246C73.7002 169.246 73.3911 169.133 73.3902 168.519L73.3857 165.518L74.5043 165.517L74.503 164.664ZM75.6888 172.163L76.7505 172.161L76.7462 169.267L76.8102 169.267C77.0024 169.614 77.394 170.221 78.3883 170.22C79.7093 170.218 80.6665 169.158 80.6639 167.393C80.6613 165.625 79.6867 164.586 78.3692 164.587C77.3572 164.589 76.9923 165.207 76.8046 165.545L76.7158 165.545L76.7145 164.661L75.6776 164.663L75.6888 172.163ZM76.7221 167.388C76.7204 166.248 77.2165 165.491 78.1433 165.49C79.1057 165.488 79.5898 166.301 79.5914 167.384C79.5931 168.478 79.0972 169.313 78.149 169.314C77.2364 169.316 76.7238 168.535 76.7221 167.388ZM85.9388 165.979C85.7174 165.131 85.0525 164.578 83.8735 164.579C82.6413 164.581 81.7686 165.232 81.7701 166.198C81.7712 166.972 82.2408 167.487 83.2638 167.712L84.1874 167.913C84.7132 168.03 84.9585 168.264 84.959 168.605C84.9597 169.027 84.5092 169.358 83.8131 169.359C83.1775 169.36 82.7687 169.087 82.6401 168.551L81.614 168.709C81.793 169.675 82.5964 170.217 83.8215 170.215C85.139 170.213 86.0506 169.512 86.0491 168.525C86.048 167.754 85.5572 167.279 84.5554 167.05L83.6887 166.852C83.0883 166.711 82.8288 166.509 82.8318 166.14C82.8276 165.721 83.2817 165.422 83.8854 165.421C84.5459 165.42 84.8519 165.785 84.9767 166.151L85.9388 165.979ZM87.9127 166.196C88.2997 166.196 88.6224 165.879 88.6218 165.485C88.6213 165.098 88.2976 164.779 87.9106 164.779C87.5199 164.78 87.2008 165.1 87.2014 165.487C87.202 165.881 87.522 166.197 87.9127 166.196ZM87.9186 170.166C88.3057 170.166 88.6283 169.849 88.6278 169.455C88.6272 169.068 88.3035 168.749 87.9165 168.749C87.5259 168.75 87.2067 169.07 87.2073 169.457C87.2079 169.851 87.528 170.167 87.9186 170.166ZM92.8095 162.478L91.8613 162.479L89.5306 171.19L90.4787 171.189L92.8095 162.478ZM96.4814 162.472L95.5332 162.474L93.2024 171.185L94.1506 171.183L96.4814 162.472ZM98.5772 170.083L99.6568 170.081L100.759 166.141L100.841 166.141L101.954 170.078L103.037 170.076L104.631 164.619L103.534 164.621L102.478 168.611L102.424 168.611L101.353 164.624L100.256 164.626L99.1894 168.633L99.1361 168.633L98.0613 164.629L96.964 164.631L98.5772 170.083ZM106.829 170.071L107.909 170.069L109.011 166.129L109.092 166.129L110.206 170.066L111.289 170.064L112.883 164.607L111.786 164.609L110.73 168.598L110.676 168.598L109.605 164.612L108.508 164.614L107.441 168.621L107.388 168.621L106.313 164.617L105.216 164.618L106.829 170.071ZM115.081 170.058L116.161 170.057L117.263 166.117L117.344 166.117L118.458 170.053L119.541 170.052L121.135 164.595L120.037 164.596L118.982 168.586L118.928 168.586L117.857 164.6L116.76 164.601L115.693 168.609L115.64 168.609L114.565 164.605L113.468 164.606L115.081 170.058ZM122.108 170.115C122.495 170.115 122.818 169.798 122.817 169.404C122.817 169.017 122.493 168.698 122.106 168.698C121.715 168.699 121.396 169.019 121.397 169.406C121.397 169.8 121.717 170.116 122.108 170.115ZM124.94 170.111C125.327 170.111 125.65 169.794 125.649 169.4C125.649 169.013 125.325 168.694 124.938 168.694C124.547 168.695 124.228 169.015 124.229 169.402C124.229 169.796 124.549 170.112 124.94 170.111ZM127.772 170.107C128.159 170.106 128.482 169.79 128.481 169.396C128.481 169.009 128.157 168.689 127.77 168.69C127.379 168.691 127.06 169.011 127.061 169.398C127.061 169.792 127.381 170.107 127.772 170.107Z" fill="#3E424B"/>
<path d="M459.496 168.563L462.944 168.558L462.946 169.978L463.994 169.976L463.992 168.556L464.954 168.555L464.953 167.624L463.99 167.626L463.983 162.704L462.63 162.706L459.495 167.675L459.496 168.563ZM462.95 167.627L460.645 167.631L460.645 167.574L462.888 164.012L462.944 164.012L462.95 167.627ZM466.566 170.04C466.953 170.04 467.276 169.723 467.275 169.329C467.274 168.942 466.951 168.623 466.564 168.623C466.173 168.624 465.854 168.944 465.855 169.331C465.855 169.725 466.175 170.041 466.566 170.04ZM470.874 170.066C472.359 170.063 473.448 169.174 473.442 167.967C473.444 167.047 472.886 166.387 471.92 166.24L471.92 166.183C472.679 165.986 473.172 165.389 473.167 164.572C473.169 163.503 472.291 162.592 470.892 162.594C469.556 162.596 468.485 163.404 468.451 164.586L469.513 164.585C469.537 163.917 470.165 163.511 470.879 163.51C471.621 163.509 472.108 163.959 472.106 164.631C472.11 165.334 471.546 165.796 470.74 165.797L470.126 165.798L470.127 166.693L470.741 166.692C471.75 166.691 472.333 167.201 472.334 167.933C472.335 168.639 471.722 169.12 470.866 169.121C470.077 169.122 469.463 168.718 469.419 168.072L468.304 168.074C468.352 169.26 469.404 170.068 470.874 170.066ZM477.245 170.056C478.758 170.054 479.825 169.193 479.831 168.014C479.822 167.098 479.178 166.328 478.365 166.184L478.365 166.141C479.071 165.97 479.55 165.305 479.556 164.52C479.547 163.409 478.566 162.583 477.234 162.585C475.888 162.587 474.909 163.415 474.918 164.527C474.912 165.308 475.392 165.975 476.114 166.145L476.114 166.187C475.286 166.334 474.645 167.106 474.653 168.022C474.648 169.201 475.718 170.058 477.245 170.056ZM477.244 169.158C476.335 169.159 475.759 168.677 475.765 167.949C475.756 167.193 476.381 166.652 477.24 166.651C478.085 166.649 478.711 167.188 478.719 167.945C478.713 168.673 478.142 169.156 477.244 169.158ZM477.239 165.774C476.504 165.775 475.981 165.31 475.987 164.618C475.979 163.936 476.482 163.484 477.235 163.483C477.974 163.482 478.479 163.932 478.487 164.614C478.481 165.306 477.963 165.772 477.239 165.774Z" fill="#F51A38"/>
<rect x="202.5" y="161.732" width="189" height="7" rx="3" fill="#E9EBEF"/>
<path d="M202.5 164.732C202.5 163.075 203.843 161.732 205.5 161.732H364.739V168.732H205.5C203.843 168.732 202.5 167.389 202.5 165.732V164.732Z" fill="#00A8FF"/>
<path d="M63.2856 198.865C63.2843 197.995 63.834 197.497 64.5904 197.496C65.322 197.495 65.7594 197.959 65.7606 198.758L65.7656 202.1L66.8274 202.098L66.8222 198.629C66.8202 197.269 66.0734 196.574 64.9513 196.576C64.1025 196.577 63.5917 196.947 63.3369 197.537L63.2695 197.537L63.2654 194.831L62.2178 194.833L62.2287 202.105L63.2905 202.104L63.2856 198.865ZM70.7823 196.638L69.6637 196.64L69.6618 195.333L68.6 195.334L68.6019 196.641L67.8029 196.642L67.8042 197.495L68.6032 197.493L68.608 200.714C68.6059 201.705 69.363 202.183 70.2011 202.164C70.5384 202.16 70.7656 202.096 70.8898 202.05L70.6968 201.173C70.6258 201.187 70.4944 201.219 70.324 201.22C69.9795 201.22 69.6704 201.107 69.6695 200.493L69.665 197.492L70.7836 197.49L70.7823 196.638ZM74.503 196.632L73.3844 196.634L73.3825 195.327L72.3207 195.329L72.3226 196.636L71.5236 196.637L71.5249 197.489L72.3239 197.488L72.3287 200.709C72.3266 201.7 73.0837 202.178 73.9218 202.159C74.2591 202.155 74.4863 202.091 74.6105 202.044L74.4175 201.167C74.3465 201.182 74.2151 201.214 74.0447 201.214C73.7002 201.215 73.3911 201.101 73.3902 200.487L73.3857 197.486L74.5043 197.485L74.503 196.632ZM75.6888 204.131L76.7505 204.129L76.7462 201.235L76.8102 201.235C77.0024 201.583 77.394 202.189 78.3883 202.188C79.7093 202.186 80.6665 201.126 80.6639 199.361C80.6613 197.593 79.6867 196.554 78.3692 196.556C77.3572 196.557 76.9923 197.176 76.8046 197.513L76.7158 197.513L76.7145 196.629L75.6776 196.631L75.6888 204.131ZM76.7221 199.356C76.7204 198.216 77.2165 197.459 78.1433 197.458C79.1057 197.457 79.5898 198.269 79.5914 199.352C79.5931 200.446 79.0972 201.281 78.149 201.283C77.2364 201.284 76.7238 200.503 76.7221 199.356ZM85.9388 197.947C85.7174 197.099 85.0525 196.546 83.8735 196.547C82.6413 196.549 81.7686 197.2 81.7701 198.166C81.7712 198.94 82.2408 199.455 83.2638 199.68L84.1874 199.881C84.7132 199.998 84.9585 200.232 84.959 200.573C84.9597 200.995 84.5092 201.326 83.8131 201.327C83.1775 201.328 82.7687 201.055 82.6401 200.519L81.614 200.677C81.793 201.643 82.5964 202.185 83.8215 202.183C85.139 202.181 86.0506 201.48 86.0491 200.493C86.048 199.722 85.5572 199.247 84.5554 199.018L83.6887 198.82C83.0883 198.679 82.8288 198.477 82.8318 198.108C82.8276 197.689 83.2817 197.39 83.8854 197.389C84.5459 197.388 84.8519 197.753 84.9767 198.119L85.9388 197.947ZM87.9127 198.164C88.2997 198.164 88.6224 197.847 88.6218 197.453C88.6213 197.066 88.2976 196.747 87.9106 196.747C87.5199 196.748 87.2008 197.068 87.2014 197.455C87.202 197.849 87.522 198.165 87.9127 198.164ZM87.9186 202.134C88.3057 202.134 88.6283 201.817 88.6278 201.423C88.6272 201.036 88.3035 200.717 87.9165 200.718C87.5259 200.718 87.2067 201.038 87.2073 201.425C87.2079 201.819 87.528 202.135 87.9186 202.134ZM92.8095 194.446L91.8613 194.447L89.5306 203.158L90.4787 203.157L92.8095 194.446ZM96.4814 194.441L95.5332 194.442L93.2024 203.153L94.1506 203.151L96.4814 194.441ZM98.5772 202.051L99.6568 202.049L100.759 198.11L100.841 198.109L101.954 202.046L103.037 202.044L104.631 196.588L103.534 196.589L102.478 200.579L102.424 200.579L101.353 196.592L100.256 196.594L99.1894 200.601L99.1361 200.601L98.0613 196.597L96.964 196.599L98.5772 202.051ZM106.829 202.039L107.909 202.037L109.011 198.097L109.092 198.097L110.206 202.034L111.289 202.032L112.883 196.575L111.786 196.577L110.73 200.566L110.676 200.566L109.605 196.58L108.508 196.582L107.441 200.589L107.388 200.589L106.313 196.585L105.216 196.587L106.829 202.039ZM115.081 202.026L116.161 202.025L117.263 198.085L117.344 198.085L118.458 202.021L119.541 202.02L121.135 196.563L120.037 196.565L118.982 200.554L118.928 200.554L117.857 196.568L116.76 196.569L115.693 200.577L115.64 200.577L114.565 196.573L113.468 196.574L115.081 202.026ZM122.108 202.083C122.495 202.083 122.818 201.766 122.817 201.372C122.817 200.985 122.493 200.666 122.106 200.667C121.715 200.667 121.396 200.987 121.397 201.374C121.397 201.769 121.717 202.084 122.108 202.083ZM124.94 202.079C125.327 202.079 125.65 201.762 125.649 201.368C125.649 200.981 125.325 200.662 124.938 200.662C124.547 200.663 124.228 200.983 124.229 201.37C124.229 201.764 124.549 202.08 124.94 202.079ZM127.772 202.075C128.159 202.074 128.482 201.758 128.481 201.364C128.481 200.977 128.157 200.658 127.77 200.658C127.379 200.659 127.06 200.979 127.061 201.366C127.061 201.76 127.381 202.076 127.772 202.075Z" fill="#3E424B"/>
<path d="M462.29 202.047C463.775 202.044 464.864 201.155 464.858 199.948C464.86 199.028 464.302 198.368 463.336 198.22L463.336 198.164C464.095 197.967 464.588 197.37 464.583 196.553C464.585 195.484 463.707 194.573 462.308 194.575C460.972 194.577 459.901 195.385 459.867 196.567L460.929 196.566C460.953 195.898 461.581 195.492 462.295 195.491C463.037 195.49 463.524 195.94 463.522 196.612C463.526 197.315 462.962 197.777 462.156 197.778L461.542 197.779L461.543 198.674L462.157 198.673C463.166 198.672 463.749 199.182 463.75 199.914C463.751 200.62 463.138 201.101 462.282 201.102C461.493 201.103 460.879 200.699 460.835 200.053L459.72 200.055C459.768 201.241 460.82 202.049 462.29 202.047ZM466.576 202.008C466.963 202.008 467.285 201.691 467.285 201.297C467.284 200.91 466.961 200.591 466.574 200.591C466.183 200.592 465.864 200.912 465.864 201.299C465.865 201.693 466.185 202.009 466.576 202.008ZM470.826 202.055C472.505 202.053 473.487 200.68 473.483 198.298C473.48 195.933 472.48 194.56 470.814 194.562C469.145 194.565 468.153 195.937 468.153 198.306C468.157 200.685 469.142 202.054 470.826 202.055ZM470.824 201.107C469.84 201.109 469.246 200.122 469.243 198.304C469.244 196.493 469.836 195.494 470.816 195.493C471.792 195.491 472.39 196.488 472.393 198.299C472.396 200.117 471.804 201.106 470.824 201.107ZM477.288 202.024C478.808 202.036 479.814 200.941 479.809 199.545C479.81 198.153 478.797 197.157 477.536 197.159C476.769 197.16 476.106 197.53 475.734 198.145L475.68 198.145C475.681 196.476 476.305 195.499 477.37 195.497C478.07 195.496 478.511 195.918 478.661 196.539L479.744 196.538C479.575 195.37 478.669 194.533 477.369 194.535C475.679 194.537 474.626 195.991 474.63 198.537C474.634 201.215 475.995 202.016 477.288 202.024ZM477.283 201.101C476.438 201.102 475.819 200.393 475.817 199.576C475.82 198.763 476.465 198.052 477.303 198.051C478.134 198.049 478.746 198.72 478.744 199.561C478.748 200.421 478.114 201.1 477.283 201.101Z" fill="#00BC98"/>
<rect x="202.5" y="193.7" width="189" height="7" rx="3" fill="#E9EBEF"/>
<path d="M202.5 196.908C202.5 195.251 203.843 193.908 205.5 193.908H275.5V200.908H205.5C203.843 200.908 202.5 199.565 202.5 197.908V196.908Z" fill="#00A8FF"/>
<path d="M63.2856 230.833C63.2843 229.963 63.834 229.465 64.5904 229.464C65.322 229.463 65.7594 229.927 65.7606 230.726L65.7656 234.068L66.8274 234.067L66.8222 230.597C66.8202 229.237 66.0734 228.542 64.9513 228.544C64.1025 228.545 63.5917 228.915 63.3369 229.505L63.2695 229.505L63.2654 226.799L62.2178 226.801L62.2287 234.073L63.2905 234.072L63.2856 230.833ZM70.7823 228.606L69.6637 228.608L69.6618 227.301L68.6 227.303L68.6019 228.609L67.8029 228.611L67.8042 229.463L68.6032 229.462L68.608 232.682C68.6059 233.673 69.363 234.152 70.2011 234.133C70.5384 234.128 70.7656 234.064 70.8898 234.018L70.6968 233.141C70.6258 233.155 70.4944 233.187 70.324 233.188C69.9795 233.188 69.6704 233.075 69.6695 232.461L69.665 229.46L70.7836 229.458L70.7823 228.606ZM74.503 228.601L73.3844 228.602L73.3825 227.295L72.3207 227.297L72.3226 228.604L71.5236 228.605L71.5249 229.457L72.3239 229.456L72.3287 232.677C72.3266 233.668 73.0837 234.146 73.9218 234.127C74.2591 234.123 74.4863 234.059 74.6105 234.012L74.4175 233.135C74.3465 233.15 74.2151 233.182 74.0447 233.182C73.7002 233.183 73.3911 233.07 73.3902 232.455L73.3857 229.454L74.5043 229.453L74.503 228.601ZM75.6888 236.099L76.7505 236.097L76.7462 233.203L76.8102 233.203C77.0024 233.551 77.394 234.157 78.3883 234.156C79.7093 234.154 80.6665 233.094 80.6639 231.329C80.6613 229.561 79.6867 228.522 78.3692 228.524C77.3572 228.525 76.9923 229.144 76.8046 229.481L76.7158 229.481L76.7145 228.597L75.6776 228.599L75.6888 236.099ZM76.7221 231.325C76.7204 230.185 77.2165 229.427 78.1433 229.426C79.1057 229.425 79.5898 230.237 79.5914 231.32C79.5931 232.414 79.0972 233.249 78.149 233.251C77.2364 233.252 76.7238 232.472 76.7221 231.325ZM85.9388 229.915C85.7174 229.067 85.0525 228.514 83.8735 228.516C82.6413 228.517 81.7686 229.169 81.7701 230.134C81.7712 230.909 82.2408 231.423 83.2638 231.649L84.1874 231.85C84.7132 231.966 84.9585 232.2 84.959 232.541C84.9597 232.964 84.5092 233.294 83.8131 233.295C83.1775 233.296 82.7687 233.024 82.6401 232.488L81.614 232.645C81.793 233.611 82.5964 234.153 83.8215 234.151C85.139 234.149 86.0506 233.448 86.0491 232.461C86.048 231.691 85.5572 231.215 84.5554 230.986L83.6887 230.789C83.0883 230.647 82.8288 230.445 82.8318 230.076C82.8276 229.657 83.2817 229.358 83.8854 229.357C84.5459 229.356 84.8519 229.721 84.9767 230.087L85.9388 229.915ZM87.9127 230.132C88.2997 230.132 88.6224 229.815 88.6218 229.421C88.6213 229.034 88.2976 228.715 87.9106 228.716C87.5199 228.716 87.2008 229.036 87.2014 229.423C87.202 229.817 87.522 230.133 87.9127 230.132ZM87.9186 234.103C88.3057 234.102 88.6283 233.785 88.6278 233.391C88.6272 233.004 88.3035 232.685 87.9165 232.686C87.5259 232.686 87.2067 233.006 87.2073 233.393C87.2079 233.788 87.528 234.103 87.9186 234.103ZM92.8095 226.414L91.8613 226.416L89.5306 235.126L90.4787 235.125L92.8095 226.414ZM96.4814 226.409L95.5332 226.41L93.2024 235.121L94.1506 235.12L96.4814 226.409ZM98.5772 234.019L99.6568 234.018L100.759 230.078L100.841 230.078L101.954 234.014L103.037 234.013L104.631 228.556L103.534 228.557L102.478 232.547L102.424 232.547L101.353 228.561L100.256 228.562L99.1894 232.569L99.1361 232.57L98.0613 228.565L96.964 228.567L98.5772 234.019ZM106.829 234.007L107.909 234.005L109.011 230.065L109.092 230.065L110.206 234.002L111.289 234L112.883 228.543L111.786 228.545L110.73 232.534L110.676 232.535L109.605 228.548L108.508 228.55L107.441 232.557L107.388 232.557L106.313 228.553L105.216 228.555L106.829 234.007ZM115.081 233.995L116.161 233.993L117.263 230.053L117.344 230.053L118.458 233.99L119.541 233.988L121.135 228.531L120.037 228.533L118.982 232.522L118.928 232.522L117.857 228.536L116.76 228.538L115.693 232.545L115.64 232.545L114.565 228.541L113.468 228.542L115.081 233.995ZM122.108 234.052C122.495 234.051 122.818 233.735 122.817 233.34C122.817 232.953 122.493 232.634 122.106 232.635C121.715 232.635 121.396 232.955 121.397 233.342C121.397 233.737 121.717 234.052 122.108 234.052ZM124.94 234.047C125.327 234.047 125.65 233.73 125.649 233.336C125.649 232.949 125.325 232.63 124.938 232.631C124.547 232.631 124.228 232.951 124.229 233.338C124.229 233.732 124.549 234.048 124.94 234.047ZM127.772 234.043C128.159 234.043 128.482 233.726 128.481 233.332C128.481 232.945 128.157 232.626 127.77 232.626C127.379 232.627 127.06 232.947 127.061 233.334C127.061 233.728 127.381 234.044 127.772 234.043Z" fill="#3E424B"/>
<path d="M465.612 226.638L464.543 226.639L462.73 227.828L462.732 228.879L464.47 227.74L464.513 227.74L464.522 233.912L465.623 233.91L465.612 226.638ZM468.304 233.974C468.691 233.973 469.014 233.657 469.013 233.263C469.013 232.875 468.689 232.556 468.302 232.557C467.911 232.558 467.592 232.878 467.593 233.265C467.593 233.659 467.914 233.974 468.304 233.974ZM472.561 233.999C474.081 234.011 475.088 232.916 475.082 231.521C475.084 230.128 474.07 229.132 472.81 229.134C472.043 229.135 471.379 229.505 471.007 230.12L470.954 230.12C470.955 228.451 471.578 227.474 472.644 227.472C473.343 227.471 473.784 227.893 473.934 228.514L475.017 228.513C474.849 227.345 473.942 226.508 472.642 226.51C470.952 226.512 469.899 227.966 469.903 230.513C469.907 233.19 471.268 233.991 472.561 233.999ZM472.556 233.076C471.711 233.077 471.092 232.368 471.091 231.551C471.093 230.738 471.738 230.027 472.577 230.026C473.407 230.024 474.019 230.695 474.017 231.536C474.022 232.396 473.387 233.075 472.556 233.076ZM479.128 226.617L478.059 226.619L476.246 227.808L476.248 228.859L477.986 227.72L478.029 227.72L478.038 233.892L479.139 233.89L479.128 226.617Z" fill="#00BC98"/>
<rect x="202.5" y="225.668" width="189" height="7" rx="3" fill="#E9EBEF"/>
<path d="M202.5 228.908C202.5 227.251 203.843 225.908 205.5 225.908H247.5V232.908H205.5C203.843 232.908 202.5 231.565 202.5 229.908V228.908Z" fill="#00A8FF"/>
<path d="M63.2856 331.396C63.2843 330.526 63.834 330.028 64.5904 330.027C65.322 330.025 65.7594 330.49 65.7606 331.289L65.7656 334.631L66.8274 334.629L66.8222 331.16C66.8202 329.799 66.0734 329.105 64.9513 329.106C64.1025 329.108 63.5917 329.478 63.3369 330.067L63.2695 330.068L63.2654 327.362L62.2178 327.363L62.2287 334.636L63.2905 334.634L63.2856 331.396ZM70.7823 329.169L69.6637 329.17L69.6618 327.863L68.6 327.865L68.6019 329.172L67.8029 329.173L67.8042 330.025L68.6032 330.024L68.608 333.245C68.6059 334.236 69.363 334.714 70.2011 334.695C70.5384 334.691 70.7656 334.627 70.8898 334.58L70.6968 333.704C70.6258 333.718 70.4944 333.75 70.324 333.75C69.9795 333.751 69.6704 333.638 69.6695 333.023L69.665 330.023L70.7836 330.021L70.7823 329.169ZM74.503 329.163L73.3844 329.165L73.3825 327.858L72.3207 327.859L72.3226 329.166L71.5236 329.167L71.5249 330.02L72.3239 330.019L72.3287 333.239C72.3266 334.23 73.0837 334.708 73.9218 334.689C74.2591 334.685 74.4863 334.621 74.6105 334.575L74.4175 333.698C74.3465 333.712 74.2151 333.744 74.0447 333.745C73.7002 333.745 73.3911 333.632 73.3902 333.018L73.3857 330.017L74.5043 330.015L74.503 329.163ZM75.6888 336.661L76.7505 336.66L76.7462 333.766L76.8102 333.765C77.0024 334.113 77.394 334.72 78.3883 334.718C79.7093 334.716 80.6665 333.657 80.6639 331.892C80.6613 330.123 79.6867 329.084 78.3692 329.086C77.3572 329.088 76.9923 329.706 76.8046 330.044L76.7158 330.044L76.7145 329.16L75.6776 329.161L75.6888 336.661ZM76.7221 331.887C76.7204 330.747 77.2165 329.99 78.1433 329.989C79.1057 329.987 79.5898 330.8 79.5914 331.883C79.5931 332.976 79.0972 333.812 78.149 333.813C77.2364 333.815 76.7238 333.034 76.7221 331.887ZM85.9388 330.478C85.7174 329.629 85.0525 329.076 83.8735 329.078C82.6413 329.08 81.7686 329.731 81.7701 330.697C81.7712 331.471 82.2408 331.985 83.2638 332.211L84.1874 332.412C84.7132 332.529 84.9585 332.763 84.959 333.103C84.9597 333.526 84.5092 333.857 83.8131 333.858C83.1775 333.859 82.7687 333.586 82.6401 333.05L81.614 333.208C81.793 334.173 82.5964 334.716 83.8215 334.714C85.139 334.712 86.0506 334.011 86.0491 333.024C86.048 332.253 85.5572 331.778 84.5554 331.549L83.6887 331.351C83.0883 331.21 82.8288 331.008 82.8318 330.639C82.8276 330.22 83.2817 329.921 83.8854 329.92C84.5459 329.919 84.8519 330.284 84.9767 330.65L85.9388 330.478ZM87.9127 330.695C88.2997 330.694 88.6224 330.378 88.6218 329.984C88.6213 329.597 88.2976 329.277 87.9106 329.278C87.5199 329.279 87.2008 329.599 87.2014 329.986C87.202 330.38 87.522 330.695 87.9127 330.695ZM87.9186 334.665C88.3057 334.665 88.6283 334.348 88.6278 333.954C88.6272 333.567 88.3035 333.248 87.9165 333.248C87.5259 333.249 87.2067 333.569 87.2073 333.956C87.2079 334.35 87.528 334.666 87.9186 334.665ZM92.8095 326.977L91.8613 326.978L89.5306 335.689L90.4787 335.688L92.8095 326.977ZM96.4814 326.971L95.5332 326.973L93.2024 335.683L94.1506 335.682L96.4814 326.971ZM98.5772 334.582L99.6568 334.58L100.759 330.64L100.841 330.64L101.954 334.577L103.037 334.575L104.631 329.118L103.534 329.12L102.478 333.109L102.424 333.109L101.353 329.123L100.256 329.125L99.1894 333.132L99.1361 333.132L98.0613 329.128L96.964 329.13L98.5772 334.582ZM106.829 334.569L107.909 334.568L109.011 330.628L109.092 330.628L110.206 334.564L111.289 334.563L112.883 329.106L111.786 329.107L110.73 333.097L110.676 333.097L109.605 329.111L108.508 329.112L107.441 333.12L107.388 333.12L106.313 329.116L105.216 329.117L106.829 334.569ZM115.081 334.557L116.161 334.556L117.263 330.616L117.344 330.616L118.458 334.552L119.541 334.55L121.135 329.094L120.037 329.095L118.982 333.085L118.928 333.085L117.857 329.098L116.76 329.1L115.693 333.107L115.64 333.107L114.565 329.103L113.468 329.105L115.081 334.557ZM122.108 334.614C122.495 334.614 122.818 334.297 122.817 333.903C122.817 333.516 122.493 333.197 122.106 333.197C121.715 333.198 121.396 333.518 121.397 333.905C121.397 334.299 121.717 334.615 122.108 334.614ZM124.94 334.61C125.327 334.609 125.65 334.293 125.649 333.899C125.649 333.512 125.325 333.192 124.938 333.193C124.547 333.194 124.228 333.514 124.229 333.901C124.229 334.295 124.549 334.61 124.94 334.61ZM127.772 334.606C128.159 334.605 128.482 334.289 128.481 333.894C128.481 333.507 128.157 333.188 127.77 333.189C127.379 333.189 127.06 333.509 127.061 333.897C127.061 334.291 127.381 334.606 127.772 334.606Z" fill="#3E424B"/>
<path d="M351.436 330.537L348.212 330.541L348.213 331.461L351.438 331.456L351.436 330.537ZM355.592 327.352L354.523 327.354L352.71 328.543L352.712 329.594L354.45 328.455L354.493 328.455L354.502 334.627L355.603 334.625L355.592 327.352ZM359.977 327.228C358.45 327.22 357.454 328.315 357.456 329.707C357.458 331.099 358.468 332.099 359.729 332.097C360.499 332.096 361.159 331.719 361.531 331.108L361.588 331.107C361.587 332.78 360.96 333.758 359.895 333.759C359.199 333.76 358.751 333.335 358.608 332.713L357.524 332.715C357.686 333.89 358.596 334.72 359.896 334.718C361.586 334.715 362.639 333.261 362.639 330.715C362.631 328.041 361.273 327.237 359.977 327.228ZM359.982 328.152C360.824 328.15 361.446 328.863 361.448 329.677C361.449 330.49 360.796 331.201 359.965 331.202C359.131 331.203 358.523 330.537 358.521 329.692C358.52 328.832 359.148 328.153 359.982 328.152ZM365.321 333.616L364.299 333.618L364.264 334.015C364.184 334.978 363.958 335.948 363.863 336.388L364.615 336.387C364.785 335.922 365.16 334.856 365.269 334.003L365.321 333.616ZM366.653 333.188L370.102 333.183L370.104 334.603L371.151 334.602L371.149 333.181L372.112 333.18L372.11 332.249L371.148 332.251L371.14 327.329L369.787 327.331L366.652 332.3L366.653 333.188ZM370.107 332.252L367.803 332.256L367.803 332.199L370.045 328.637L370.102 328.637L370.107 332.252ZM375.759 327.205C374.232 327.197 373.235 328.292 373.237 329.684C373.239 331.076 374.249 332.076 375.51 332.074C376.281 332.073 376.941 331.695 377.313 331.084L377.369 331.084C377.368 332.757 376.741 333.734 375.676 333.736C374.98 333.737 374.532 333.311 374.389 332.69L373.306 332.692C373.467 333.867 374.378 334.696 375.677 334.694C377.368 334.692 378.42 333.238 378.42 330.692C378.412 328.018 377.055 327.214 375.759 327.205ZM375.763 328.128C376.605 328.127 377.228 328.84 377.229 329.653C377.23 330.466 376.578 331.177 375.747 331.179C374.912 331.18 374.304 330.513 374.303 329.668C374.301 328.809 374.929 328.129 375.763 328.128ZM379.554 333.169L383.002 333.164L383.004 334.584L384.052 334.583L384.05 333.162L385.012 333.161L385.011 332.23L384.048 332.232L384.041 327.31L382.688 327.312L379.552 332.281L379.554 333.169ZM383.008 332.233L380.703 332.237L380.703 332.18L382.945 328.618L383.002 328.618L383.008 332.233ZM386.624 334.646C387.011 334.646 387.333 334.329 387.333 333.935C387.332 333.548 387.009 333.229 386.622 333.229C386.231 333.23 385.912 333.55 385.912 333.937C385.913 334.331 386.233 334.647 386.624 334.646ZM391.149 327.182C389.622 327.174 388.626 328.269 388.628 329.661C388.63 331.053 389.64 332.053 390.901 332.051C391.671 332.05 392.331 331.672 392.703 331.061L392.76 331.061C392.759 332.734 392.132 333.711 391.067 333.713C390.371 333.714 389.922 333.288 389.779 332.667L388.696 332.669C388.858 333.844 389.768 334.673 391.068 334.672C392.758 334.669 393.811 333.215 393.811 330.669C393.803 327.995 392.445 327.191 391.149 327.182ZM391.154 328.105C391.996 328.104 392.618 328.817 392.619 329.63C392.621 330.443 391.968 331.155 391.137 331.156C390.303 331.157 389.695 330.49 389.693 329.645C389.692 328.786 390.32 328.107 391.154 328.105ZM397.848 327.289L396.779 327.291L394.966 328.48L394.967 329.531L396.706 328.392L396.748 328.392L396.758 334.564L397.858 334.562L397.848 327.289Z" fill="#F71939"/>
<path d="M205.963 327.359L204.894 327.361L203.081 328.549L203.083 329.601L204.821 328.462L204.864 328.462L204.873 334.633L205.974 334.632L205.963 327.359ZM210.473 334.746C212.153 334.743 213.134 333.371 213.131 330.988C213.127 328.623 212.127 327.25 210.462 327.253C208.793 327.255 207.801 328.628 207.801 330.996C207.804 333.376 208.79 334.745 210.473 334.746ZM210.472 333.798C209.488 333.799 208.894 332.813 208.891 330.995C208.892 329.184 209.483 328.185 210.463 328.183C211.44 328.182 212.038 329.179 212.041 330.99C212.043 332.808 211.452 333.796 210.472 333.798ZM214.396 334.619L219.183 334.612L219.182 333.671L215.907 333.676L215.907 333.623L217.35 332.108C218.68 330.76 219.059 330.117 219.058 329.303C219.056 328.135 218.103 327.242 216.732 327.244C215.372 327.246 214.379 328.128 214.381 329.456L215.429 329.454C215.424 328.673 215.928 328.161 216.712 328.16C217.451 328.159 218.013 328.612 218.014 329.337C218.015 329.98 217.632 330.442 216.852 331.27L214.395 333.824L214.396 334.619ZM221.923 333.614L220.9 333.615L220.865 334.013C220.785 334.976 220.559 335.945 220.464 336.386L221.217 336.385C221.387 335.919 221.762 334.853 221.87 334.001L221.923 333.614ZM225.811 334.702C227.274 334.7 228.316 333.665 228.31 332.248C228.312 330.841 227.33 329.82 226.006 329.822C225.466 329.823 224.965 330.03 224.682 330.307L224.639 330.307L224.867 328.272L227.953 328.267L227.952 327.326L223.953 327.332L223.55 330.998L224.555 331.145C224.828 330.9 225.318 330.732 225.758 330.732C226.621 330.737 227.247 331.383 227.249 332.271C227.25 333.144 226.644 333.777 225.809 333.778C225.106 333.779 224.548 333.333 224.49 332.708L223.425 332.709C223.469 333.867 224.475 334.704 225.811 334.702ZM232.359 327.32L231.29 327.321L229.478 328.51L229.479 329.561L231.218 328.422L231.26 328.422L231.269 334.594L232.37 334.592L232.359 327.32ZM234.183 333.169L237.631 333.164L237.633 334.585L238.681 334.583L238.678 333.163L239.641 333.161L239.639 332.231L238.677 332.232L238.67 327.31L237.317 327.312L234.181 332.282L234.183 333.169ZM237.637 332.234L235.332 332.237L235.332 332.18L237.574 328.619L237.631 328.619L237.637 332.234ZM241.253 334.647C241.64 334.646 241.962 334.33 241.962 333.935C241.961 333.548 241.638 333.229 241.25 333.23C240.86 333.23 240.541 333.55 240.541 333.938C240.542 334.332 240.862 334.647 241.253 334.647ZM245.502 334.694C247.182 334.691 248.164 333.319 248.16 330.936C248.157 328.571 247.157 327.198 245.491 327.201C243.822 327.203 242.83 328.575 242.83 330.944C242.834 333.323 243.819 334.693 245.502 334.694ZM245.501 333.745C244.517 333.747 243.923 332.761 243.92 330.942C243.921 329.131 244.513 328.133 245.493 328.131C246.469 328.13 247.067 329.127 247.07 330.938C247.073 332.756 246.481 333.744 245.501 333.745ZM249.425 334.567L254.212 334.56L254.211 333.619L250.937 333.624L250.937 333.57L252.38 332.056C253.709 330.708 254.088 330.064 254.087 329.251C254.086 328.083 253.132 327.189 251.762 327.191C250.402 327.193 249.409 328.076 249.411 329.404L250.458 329.402C250.453 328.621 250.957 328.109 251.742 328.108C252.48 328.107 253.042 328.56 253.043 329.285C253.044 329.927 252.661 330.39 251.881 331.218L249.424 333.772L249.425 334.567Z" fill="#898D9A"/>
<path d="M63.2856 362.897C63.2843 362.027 63.834 361.529 64.5904 361.528C65.322 361.527 65.7594 361.991 65.7606 362.79L65.7656 366.132L66.8274 366.13L66.8222 362.661C66.8202 361.301 66.0734 360.606 64.9513 360.607C64.1025 360.609 63.5917 360.979 63.3369 361.569L63.2695 361.569L63.2654 358.863L62.2178 358.864L62.2287 366.137L63.2905 366.136L63.2856 362.897ZM70.7823 360.67L69.6637 360.671L69.6618 359.365L68.6 359.366L68.6019 360.673L67.8029 360.674L67.8042 361.527L68.6032 361.525L68.608 364.746C68.6059 365.737 69.363 366.215 70.2011 366.196C70.5384 366.192 70.7656 366.128 70.8898 366.082L70.6968 365.205C70.6258 365.219 70.4944 365.251 70.324 365.251C69.9795 365.252 69.6704 365.139 69.6695 364.524L69.665 361.524L70.7836 361.522L70.7823 360.67ZM74.503 360.664L73.3844 360.666L73.3825 359.359L72.3207 359.361L72.3226 360.668L71.5236 360.669L71.5249 361.521L72.3239 361.52L72.3287 364.741C72.3266 365.731 73.0837 366.21 73.9218 366.191C74.2591 366.187 74.4863 366.122 74.6105 366.076L74.4175 365.199C74.3465 365.214 74.2151 365.246 74.0447 365.246C73.7002 365.246 73.3911 365.133 73.3902 364.519L73.3857 361.518L74.5043 361.517L74.503 360.664ZM75.6888 368.163L76.7505 368.161L76.7462 365.267L76.8102 365.267C77.0024 365.614 77.394 366.221 78.3883 366.22C79.7093 366.218 80.6665 365.158 80.6639 363.393C80.6613 361.625 79.6867 360.586 78.3692 360.587C77.3572 360.589 76.9923 361.207 76.8046 361.545L76.7158 361.545L76.7145 360.661L75.6776 360.663L75.6888 368.163ZM76.7221 363.388C76.7204 362.248 77.2165 361.491 78.1433 361.49C79.1057 361.488 79.5898 362.301 79.5914 363.384C79.5931 364.478 79.0972 365.313 78.149 365.314C77.2364 365.316 76.7238 364.535 76.7221 363.388ZM85.9388 361.979C85.7174 361.131 85.0525 360.578 83.8735 360.579C82.6413 360.581 81.7686 361.232 81.7701 362.198C81.7712 362.972 82.2408 363.487 83.2638 363.712L84.1874 363.913C84.7132 364.03 84.9585 364.264 84.959 364.605C84.9597 365.027 84.5092 365.358 83.8131 365.359C83.1775 365.36 82.7687 365.087 82.6401 364.551L81.614 364.709C81.793 365.675 82.5964 366.217 83.8215 366.215C85.139 366.213 86.0506 365.512 86.0491 364.525C86.048 363.754 85.5572 363.279 84.5554 363.05L83.6887 362.852C83.0883 362.711 82.8288 362.509 82.8318 362.14C82.8276 361.721 83.2817 361.422 83.8854 361.421C84.5459 361.42 84.8519 361.785 84.9767 362.151L85.9388 361.979ZM87.9127 362.196C88.2997 362.196 88.6224 361.879 88.6218 361.485C88.6213 361.098 88.2976 360.779 87.9106 360.779C87.5199 360.78 87.2008 361.1 87.2014 361.487C87.202 361.881 87.522 362.197 87.9127 362.196ZM87.9186 366.166C88.3057 366.166 88.6283 365.849 88.6278 365.455C88.6272 365.068 88.3035 364.749 87.9165 364.749C87.5259 364.75 87.2067 365.07 87.2073 365.457C87.2079 365.851 87.528 366.167 87.9186 366.166ZM92.8095 358.478L91.8613 358.479L89.5306 367.19L90.4787 367.189L92.8095 358.478ZM96.4814 358.472L95.5332 358.474L93.2024 367.185L94.1506 367.183L96.4814 358.472ZM98.5772 366.083L99.6568 366.081L100.759 362.141L100.841 362.141L101.954 366.078L103.037 366.076L104.631 360.619L103.534 360.621L102.478 364.611L102.424 364.611L101.353 360.624L100.256 360.626L99.1894 364.633L99.1361 364.633L98.0613 360.629L96.964 360.631L98.5772 366.083ZM106.829 366.071L107.909 366.069L109.011 362.129L109.092 362.129L110.206 366.066L111.289 366.064L112.883 360.607L111.786 360.609L110.73 364.598L110.676 364.598L109.605 360.612L108.508 360.614L107.441 364.621L107.388 364.621L106.313 360.617L105.216 360.618L106.829 366.071ZM115.081 366.058L116.161 366.057L117.263 362.117L117.344 362.117L118.458 366.053L119.541 366.052L121.135 360.595L120.037 360.596L118.982 364.586L118.928 364.586L117.857 360.6L116.76 360.601L115.693 364.609L115.64 364.609L114.565 360.605L113.468 360.606L115.081 366.058ZM122.108 366.115C122.495 366.115 122.818 365.798 122.817 365.404C122.817 365.017 122.493 364.698 122.106 364.698C121.715 364.699 121.396 365.019 121.397 365.406C121.397 365.8 121.717 366.116 122.108 366.115ZM124.94 366.111C125.327 366.111 125.65 365.794 125.649 365.4C125.649 365.013 125.325 364.694 124.938 364.694C124.547 364.695 124.228 365.015 124.229 365.402C124.229 365.796 124.549 366.112 124.94 366.111ZM127.772 366.107C128.159 366.106 128.482 365.79 128.481 365.396C128.481 365.009 128.157 364.689 127.77 364.69C127.379 364.691 127.06 365.011 127.061 365.398C127.061 365.792 127.381 366.107 127.772 366.107Z" fill="#3E424B"/>
<path d="M350.963 358.86L349.894 358.862L348.081 360.051L348.083 361.102L349.821 359.963L349.864 359.963L349.873 366.135L350.974 366.133L350.963 358.86ZM354.335 365.134L353.312 365.135L353.278 365.533C353.197 366.495 352.971 367.465 352.876 367.906L353.629 367.905C353.799 367.439 354.174 366.373 354.282 365.521L354.335 365.134ZM356.067 366.125L357.214 366.124L360.369 359.819L360.367 358.846L355.559 358.853L355.56 359.795L359.232 359.789L359.232 359.842L356.067 366.125ZM363.989 366.234C365.668 366.232 366.65 364.86 366.647 362.477C366.643 360.112 365.643 358.739 363.978 358.741C362.309 358.744 361.316 360.116 361.316 362.485C361.32 364.864 362.306 366.233 363.989 366.234ZM363.987 365.286C363.004 365.288 362.409 364.301 362.407 362.483C362.407 360.672 362.999 359.673 363.979 359.672C364.956 359.67 365.554 360.667 365.556 362.478C365.559 364.297 364.968 365.285 363.987 365.286ZM370.312 366.204C371.776 366.201 372.818 365.167 372.812 363.75C372.814 362.343 371.832 361.322 370.508 361.324C369.968 361.325 369.467 361.532 369.184 361.809L369.141 361.809L369.369 359.774L372.455 359.769L372.453 358.828L368.455 358.834L368.052 362.5L369.057 362.647C369.33 362.402 369.82 362.234 370.26 362.234C371.123 362.239 371.749 362.885 371.751 363.773C371.752 364.646 371.146 365.279 370.311 365.28C369.608 365.281 369.05 364.835 368.992 364.21L367.927 364.211C367.971 365.369 368.977 366.206 370.312 366.204ZM374.485 366.165C374.872 366.165 375.195 365.848 375.194 365.454C375.194 365.067 374.87 364.748 374.483 364.749C374.092 364.749 373.773 365.069 373.774 365.456C373.774 365.85 374.094 366.166 374.485 366.165ZM378.735 366.212C380.415 366.21 381.396 364.838 381.393 362.455C381.389 360.09 380.389 358.717 378.724 358.72C377.055 358.722 376.062 360.094 376.062 362.463C376.066 364.842 377.052 366.211 378.735 366.212ZM378.733 365.264C377.75 365.266 377.155 364.279 377.153 362.461C377.153 360.65 377.745 359.651 378.725 359.65C379.702 359.648 380.3 360.645 380.302 362.457C380.305 364.275 379.714 365.263 378.733 365.264ZM385.115 366.182C386.628 366.179 387.696 365.318 387.701 364.139C387.693 363.223 387.049 362.454 386.235 362.309L386.235 362.267C386.942 362.095 387.42 361.43 387.426 360.645C387.417 359.534 386.436 358.708 385.104 358.71C383.758 358.712 382.779 359.541 382.788 360.652C382.782 361.434 383.263 362.101 383.984 362.27L383.984 362.313C383.157 362.459 382.515 363.231 382.524 364.147C382.518 365.326 383.588 366.184 385.115 366.182ZM385.114 365.283C384.205 365.285 383.629 364.802 383.635 364.074C383.627 363.318 384.251 362.777 385.11 362.776C385.955 362.775 386.581 363.314 386.589 364.07C386.583 364.798 386.012 365.282 385.114 365.283ZM385.109 361.899C384.374 361.9 383.851 361.436 383.857 360.743C383.849 360.061 384.353 359.61 385.106 359.608C385.844 359.607 386.349 360.058 386.357 360.739C386.351 361.432 385.833 361.898 385.109 361.899Z" fill="#F71939"/>
<path d="M205.622 358.744C204.095 358.735 203.099 359.83 203.101 361.223C203.103 362.615 204.113 363.614 205.373 363.613C206.144 363.611 206.804 363.234 207.176 362.623L207.233 362.623C207.232 364.295 206.605 365.273 205.539 365.274C204.843 365.275 204.395 364.85 204.252 364.229L203.169 364.23C203.331 365.405 204.241 366.235 205.541 366.233C207.231 366.231 208.283 364.777 208.283 362.23C208.276 359.556 206.918 358.752 205.622 358.744ZM205.627 359.667C206.468 359.666 207.091 360.379 207.092 361.192C207.093 362.005 206.441 362.716 205.61 362.717C204.775 362.719 204.167 362.052 204.166 361.207C204.165 360.347 204.792 359.668 205.627 359.667ZM210.966 365.131L209.943 365.133L209.908 365.531C209.828 366.493 209.602 367.463 209.507 367.903L210.26 367.902C210.43 367.437 210.805 366.371 210.913 365.518L210.966 365.131ZM214.853 366.219C216.317 366.217 217.359 365.182 217.353 363.765C217.355 362.359 216.373 361.338 215.049 361.34C214.509 361.34 214.008 361.547 213.725 361.825L213.682 361.825L213.91 359.79L216.996 359.785L216.994 358.844L212.996 358.85L212.593 362.515L213.598 362.663C213.871 362.417 214.361 362.25 214.801 362.249C215.664 362.255 216.29 362.9 216.292 363.788C216.293 364.662 215.687 365.295 214.852 365.296C214.149 365.297 213.591 364.85 213.533 364.225L212.468 364.227C212.512 365.385 213.518 366.221 214.853 366.219ZM221.402 358.837L220.333 358.839L218.521 360.028L218.522 361.079L220.26 359.94L220.303 359.94L220.312 366.112L221.413 366.11L221.402 358.837ZM225.838 366.203C227.351 366.201 228.418 365.34 228.424 364.161C228.415 363.244 227.771 362.475 226.958 362.33L226.958 362.288C227.664 362.116 228.143 361.452 228.149 360.667C228.14 359.555 227.159 358.729 225.827 358.731C224.481 358.733 223.502 359.562 223.511 360.674C223.505 361.455 223.985 362.122 224.706 362.291L224.707 362.334C223.879 362.481 223.238 363.252 223.246 364.168C223.241 365.347 224.311 366.205 225.838 366.203ZM225.837 365.304C224.928 365.306 224.352 364.824 224.358 364.096C224.349 363.339 224.974 362.799 225.833 362.797C226.678 362.796 227.304 363.335 227.312 364.091C227.306 364.819 226.735 365.303 225.837 365.304ZM225.832 361.92C225.097 361.921 224.574 361.457 224.58 360.764C224.572 360.083 225.075 359.631 225.828 359.63C226.567 359.629 227.072 360.079 227.08 360.761C227.074 361.453 226.556 361.919 225.832 361.92ZM230.071 366.165C230.458 366.164 230.781 365.847 230.78 365.453C230.78 365.066 230.456 364.747 230.069 364.748C229.678 364.748 229.359 365.068 229.36 365.455C229.36 365.85 229.68 366.165 230.071 366.165ZM234.305 366.19C235.818 366.188 236.885 365.327 236.891 364.148C236.882 363.232 236.238 362.462 235.425 362.318L235.425 362.275C236.131 362.104 236.61 361.439 236.615 360.654C236.607 359.543 235.625 358.717 234.294 358.719C232.948 358.721 231.969 359.55 231.978 360.661C231.972 361.442 232.452 362.109 233.173 362.279L233.173 362.321C232.346 362.468 231.705 363.24 231.713 364.156C231.708 365.335 232.778 366.193 234.305 366.19ZM234.303 365.292C233.394 365.293 232.818 364.811 232.824 364.083C232.816 363.327 233.44 362.786 234.3 362.785C235.145 362.783 235.771 363.322 235.779 364.079C235.773 364.807 235.202 365.29 234.303 365.292ZM234.298 361.908C233.563 361.909 233.041 361.444 233.047 360.752C233.039 360.07 233.542 359.618 234.295 359.617C235.034 359.616 235.539 360.066 235.547 360.748C235.541 361.441 235.023 361.906 234.298 361.908ZM240.573 358.692C239.046 358.683 238.05 359.778 238.052 361.17C238.054 362.562 239.064 363.562 240.325 363.561C241.095 363.559 241.755 363.182 242.127 362.571L242.184 362.571C242.183 364.243 241.556 365.221 240.49 365.222C239.794 365.223 239.346 364.798 239.203 364.177L238.12 364.178C238.282 365.353 239.192 366.183 240.492 366.181C242.182 366.179 243.235 364.725 243.234 362.178C243.227 359.504 241.869 358.7 240.573 358.692ZM240.578 359.615C241.42 359.614 242.042 360.326 242.043 361.14C242.044 361.953 241.392 362.664 240.561 362.665C239.727 362.667 239.118 362 239.117 361.155C239.116 360.295 239.743 359.616 240.578 359.615Z" fill="#898D9A"/>
</g>
<defs>
<filter id="filter0_d" x="0.5" y="0.907959" width="570" height="456" filterUnits="userSpaceOnUse" color-interpolation-filters="sRGB">
<feFlood flood-opacity="0" result="BackgroundImageFix"/>
<feColorMatrix in="SourceAlpha" type="matrix" values="0 0 0 0 0 0 0 0 0 0 0 0 0 0 0 0 0 0 127 0"/>
<feOffset dx="10" dy="10"/>
<feGaussianBlur stdDeviation="22.5"/>
<feColorMatrix type="matrix" values="0 0 0 0 0.537255 0 0 0 0 0.552941 0 0 0 0 0.603922 0 0 0 0.2 0"/>
<feBlend mode="normal" in2="BackgroundImageFix" result="effect1_dropShadow"/>
<feBlend mode="normal" in="SourceGraphic" in2="effect1_dropShadow" result="shape"/>
</filter>
</defs>
</svg>
