<svg width="161" height="25" viewBox="0 0 161 25" fill="none" xmlns="http://www.w3.org/2000/svg">
<path d="M11.2847 1.3511C11.5533 0.874479 12.2397 0.874479 12.5083 1.3511L15.5475 6.74318C15.6477 6.92099 15.8203 7.0464 16.0204 7.08677L22.0878 8.31098C22.6241 8.41919 22.8362 9.07195 22.4659 9.47472L18.2769 14.0314C18.1387 14.1817 18.0728 14.3846 18.0962 14.5874L18.8069 20.736C18.8697 21.2795 18.3144 21.683 17.8169 21.4553L12.1888 18.8794C12.0032 18.7945 11.7898 18.7945 11.6042 18.8794L5.97606 21.4553C5.47857 21.683 4.9233 21.2795 4.98612 20.736L5.69673 14.5874C5.72017 14.3846 5.65423 14.1817 5.5161 14.0314L1.32709 9.47472C0.956814 9.07195 1.16891 8.41919 1.70521 8.31098L7.77255 7.08677C7.97263 7.0464 8.14525 6.92099 8.24547 6.74318L11.2847 1.3511Z" fill="#FFE84D"/>
<path d="M45.2847 1.3511C45.5533 0.874479 46.2397 0.874479 46.5083 1.3511L49.5475 6.74318C49.6477 6.92099 49.8203 7.0464 50.0204 7.08677L56.0878 8.31098C56.6241 8.41919 56.8362 9.07195 56.4659 9.47472L52.2769 14.0314C52.1387 14.1817 52.0728 14.3846 52.0962 14.5874L52.8069 20.736C52.8697 21.2795 52.3144 21.683 51.8169 21.4553L46.1888 18.8794C46.0032 18.7945 45.7898 18.7945 45.6042 18.8794L39.9761 21.4553C39.4786 21.683 38.9233 21.2795 38.9861 20.736L39.6967 14.5874C39.7202 14.3846 39.6542 14.1817 39.5161 14.0314L35.3271 9.47472C34.9568 9.07195 35.1689 8.41919 35.7052 8.31098L41.7726 7.08677C41.9726 7.0464 42.1452 6.92099 42.2455 6.74318L45.2847 1.3511Z" fill="#FFE84D"/>
<path d="M79.2847 1.3511C79.5533 0.874479 80.2397 0.874479 80.5083 1.3511L83.5475 6.74318C83.6477 6.92099 83.8203 7.0464 84.0204 7.08677L90.0878 8.31098C90.6241 8.41919 90.8362 9.07195 90.4659 9.47472L86.2769 14.0314C86.1387 14.1817 86.0728 14.3846 86.0962 14.5874L86.8069 20.736C86.8697 21.2795 86.3144 21.683 85.8169 21.4553L80.1888 18.8794C80.0032 18.7945 79.7898 18.7945 79.6042 18.8794L73.9761 21.4553C73.4786 21.683 72.9233 21.2795 72.9861 20.736L73.6967 14.5874C73.7202 14.3846 73.6542 14.1817 73.5161 14.0314L69.3271 9.47472C68.9568 9.07195 69.1689 8.41919 69.7052 8.31098L75.7726 7.08677C75.9726 7.0464 76.1452 6.92099 76.2455 6.74318L79.2847 1.3511Z" fill="#FFE84D"/>
<path d="M113.285 1.3511C113.553 0.874479 114.24 0.874479 114.508 1.3511L117.548 6.74318C117.648 6.92099 117.82 7.0464 118.02 7.08677L124.088 8.31098C124.624 8.41919 124.836 9.07195 124.466 9.47472L120.277 14.0314C120.139 14.1817 120.073 14.3846 120.096 14.5874L120.807 20.736C120.87 21.2795 120.314 21.683 119.817 21.4553L114.189 18.8794C114.003 18.7945 113.79 18.7945 113.604 18.8794L107.976 21.4553C107.479 21.683 106.923 21.2795 106.986 20.736L107.697 14.5874C107.72 14.3846 107.654 14.1817 107.516 14.0314L103.327 9.47472C102.957 9.07195 103.169 8.41919 103.705 8.31098L109.773 7.08677C109.973 7.0464 110.145 6.92099 110.245 6.74318L113.285 1.3511Z" fill="#FFE84D"/>
<path d="M147.285 1.3511C147.553 0.874479 148.24 0.874479 148.508 1.3511L151.548 6.74318C151.648 6.92099 151.82 7.0464 152.02 7.08677L158.088 8.31098C158.624 8.41919 158.836 9.07195 158.466 9.47472L154.277 14.0314C154.139 14.1817 154.073 14.3846 154.096 14.5874L154.807 20.736C154.87 21.2795 154.314 21.683 153.817 21.4553L148.189 18.8794C148.003 18.7945 147.79 18.7945 147.604 18.8794L141.976 21.4553C141.479 21.683 140.923 21.2795 140.986 20.736L141.697 14.5874C141.72 14.3846 141.654 14.1817 141.516 14.0314L137.327 9.47472C136.957 9.07195 137.169 8.41919 137.705 8.31098L143.773 7.08677C143.973 7.0464 144.145 6.92099 144.245 6.74318L147.285 1.3511Z" fill="#FFE84D"/>
</svg>
